<?xml version="1.0" encoding="utf-8"?>
<!-- Generator: Adobe Illustrator 12.0.0, SVG Export Plug-In  -->
<!DOCTYPE svg PUBLIC "-//W3C//DTD SVG 1.1//EN" "http://www.w3.org/Graphics/SVG/1.1/DTD/svg11.dtd" [
	<!ENTITY ns_flows "http://ns.adobe.com/Flows/1.0/">
	<!ENTITY ns_svg "http://www.w3.org/2000/svg">
	<!ENTITY ns_xlink "http://www.w3.org/1999/xlink">
]>
<svg  version="1.1" xmlns="&ns_svg;" xmlns:xlink="&ns_xlink;" xmlns:a="http://ns.adobe.com/AdobeSVGViewerExtensions/3.0/"
	 width="100" height="100" viewBox="0 10.044 100 100" enable-background="new 0 10.044 100 100" xml:space="preserve">
<defs>
</defs>
<polygon fill="#2D72B8" points="74.2,41.844 81.6,47.244 81.6,39.644 74.1,30.844 74.1,41.844 "/>
<polygon fill="#5294CF" points="59.8,95.744 74.1,88.544 74.1,30.844 59.8,23.744 "/>
<polygon fill="#205B98" points="39.5,95.744 25.2,88.544 25.2,30.844 39.5,23.744 "/>
<rect x="39.5" y="23.744" fill="#2D72B8" width="20.3" height="72"/>
<polygon fill="#2D72B8" points="74.1,77.644 74.1,88.544 81.6,79.844 81.6,72.244 74.2,77.644 "/>
<polygon fill="#2D72B8" points="74.1,72.944 74.2,72.944 81.6,68.944 81.6,61.344 74.1,62.044 "/>
<polygon fill="#2D72B8" points="74.2,46.444 74.1,46.444 74.1,57.444 81.6,58.044 81.6,50.444 "/>
<polygon fill="#1A476F" points="81.6,57.044 74.1,56.444 59.8,55.844 49.7,55.844 39.5,55.844 25.2,56.444 25.2,45.444 25.2,45.544 
	25.2,45.444 39.5,42.144 49.7,42.144 59.8,42.144 74.1,45.444 79.4,48.244 79.4,46.444 81.6,46.244 74.1,40.844 59.8,36.344 
	49.7,36.344 39.5,36.344 25.2,40.844 25.2,29.844 17.7,38.644 17.7,46.244 17.8,46.244 19.9,46.444 19.9,48.344 17.7,49.444 
	17.7,57.144 17.8,57.044 19.9,57.144 19.9,60.344 18.1,60.344 17.7,60.344 17.7,67.944 19.9,69.144 19.9,70.944 17.8,71.244 
	17.7,71.144 17.7,78.844 25.2,87.544 25.2,76.644 39.5,81.044 49.7,81.044 59.8,81.044 74.2,76.644 81.6,71.244 79.4,70.944 
	79.4,69.144 74.2,71.944 59.8,75.244 59.8,75.244 49.7,75.244 39.5,75.244 39.5,75.244 25.2,71.944 25.1,71.944 25.2,71.944 
	25.2,61.044 39.5,61.544 39.5,61.544 49.7,61.544 59.8,61.544 59.8,61.544 74.1,61.044 81.6,60.344 79.4,60.344 79.4,57.144 "/>
<text transform="matrix(1 0 0 1 0 10.0439)" display="none" enable-background="new    " font-family="'MyriadPro-Regular'" font-size="12">&lt;nyt_prefs&gt;</text>
<text transform="matrix(1 0 0 1 0 24.4443)" display="none" enable-background="new    " font-family="'MyriadPro-Regular'" font-size="12">  &lt;nyt_prefix&gt;&lt;/nyt_prefix&gt;</text>
<text transform="matrix(1 0 0 1 0 38.8438)" display="none" enable-background="new    " font-family="'MyriadPro-Regular'" font-size="12">  &lt;nyt_suffix&gt;&lt;/nyt_suffix&gt;</text>
<text transform="matrix(1 0 0 1 0 53.2441)" display="none" enable-background="new    " font-family="'MyriadPro-Regular'" font-size="12">  &lt;nyt_base_path&gt;~/Desktop/wip/Architecture%20Icons%20-%20Update%20all%20customer-facing%20files%20/AWS-Simple-Icons%202/Database/EPS&lt;/nyt_base_path&gt;</text>
<text transform="matrix(1 0 0 1 0 67.6436)" display="none" enable-background="new    " font-family="'MyriadPro-Regular'" font-size="12">  &lt;nyt_scaling&gt;100&lt;/nyt_scaling&gt;</text>
<text transform="matrix(1 0 0 1 0 82.0439)" display="none" enable-background="new    " font-family="'MyriadPro-Regular'" font-size="12">  &lt;nyt_transparency&gt;true&lt;/nyt_transparency&gt;</text>
<text transform="matrix(1 0 0 1 0 96.4443)" display="none" enable-background="new    " font-family="'MyriadPro-Regular'" font-size="12">  &lt;nyt_format&gt;EPS&lt;/nyt_format&gt;</text>
<text transform="matrix(1 0 0 1 0 110.8438)" display="none" enable-background="new    " font-family="'MyriadPro-Regular'" font-size="12">  &lt;nyt_export_code&gt;artboards&lt;/nyt_export_code&gt;</text>
</svg>
