<?xml version="1.0" encoding="utf-8"?>
<!-- Generator: Adobe Illustrator 12.0.0, SVG Export Plug-In  -->
<!DOCTYPE svg PUBLIC "-//W3C//DTD SVG 1.1//EN" "http://www.w3.org/Graphics/SVG/1.1/DTD/svg11.dtd" [
	<!ENTITY ns_flows "http://ns.adobe.com/Flows/1.0/">
	<!ENTITY ns_svg "http://www.w3.org/2000/svg">
	<!ENTITY ns_xlink "http://www.w3.org/1999/xlink">
]>
<svg  version="1.1" xmlns="&ns_svg;" xmlns:xlink="&ns_xlink;" xmlns:a="http://ns.adobe.com/AdobeSVGViewerExtensions/3.0/"
	 width="44" height="64" viewBox="-0.75 -0.75 44 64" enable-background="new -0.75 -0.75 44 64" xml:space="preserve">
<defs>
</defs>
<rect x="7.621" y="22.831" fill="#19486F" width="34.5" height="1.87"/>
<rect y="22.831" fill="#19486F" width="6" height="1.87"/>
<rect y="17.581" fill="#2E73B7" width="6" height="5.25"/>
<rect x="7.621" y="17.581" fill="#2E73B7" width="34.5" height="5.25"/>
<rect x="7.621" y="40.486" fill="#19486F" width="34.5" height="1.871"/>
<rect y="40.486" fill="#19486F" width="6" height="1.871"/>
<rect y="35.236" fill="#2E73B7" width="6" height="5.25"/>
<rect x="7.621" y="35.236" fill="#2E73B7" width="34.5" height="5.25"/>
<rect x="7.621" y="5.101" fill="#19486F" width="34.5" height="1.87"/>
<rect y="5.101" fill="#19486F" width="6" height="1.87"/>
<rect fill="#2E73B7" width="6" height="5.25"/>
<rect x="7.621" fill="#2E73B7" width="34.5" height="5.25"/>
<rect x="7.621" y="31.659" fill="#19486F" width="34.5" height="1.87"/>
<rect y="31.659" fill="#19486F" width="6" height="1.87"/>
<rect y="26.409" fill="#2E73B7" width="6" height="5.25"/>
<rect x="7.621" y="26.409" fill="#2E73B7" width="34.5" height="5.25"/>
<rect x="7.621" y="14.004" fill="#19486F" width="34.5" height="1.87"/>
<rect y="14.004" fill="#19486F" width="6" height="1.87"/>
<rect x="7.621" y="8.754" fill="#2E73B7" width="34.5" height="5.25"/>
<rect y="8.754" fill="#2E73B7" width="6" height="5.25"/>
</svg>
