<?xml version="1.0" encoding="utf-8"?>
<!-- Generator: Adobe Illustrator 12.0.0, SVG Export Plug-In  -->
<!DOCTYPE svg PUBLIC "-//W3C//DTD SVG 1.1//EN" "http://www.w3.org/Graphics/SVG/1.1/DTD/svg11.dtd" [
	<!ENTITY ns_flows "http://ns.adobe.com/Flows/1.0/">
	<!ENTITY ns_svg "http://www.w3.org/2000/svg">
	<!ENTITY ns_xlink "http://www.w3.org/1999/xlink">
]>
<svg  version="1.1" xmlns="&ns_svg;" xmlns:xlink="&ns_xlink;" xmlns:a="http://ns.adobe.com/AdobeSVGViewerExtensions/3.0/"
	 width="100" height="100" viewBox="-23.8 -21.6 100 100" enable-background="new -23.8 -21.6 100 100" xml:space="preserve">
<defs>
</defs>
<path fill="#2D72B8" d="M25.2,54.6H0v-15h25.2V54.6z"/>
<rect y="53.6" fill="#1A476F" width="25.2" height="2.2"/>
<rect x="28.4" y="39.6" fill="#2D72B8" width="24" height="15"/>
<rect x="28.4" y="53.6" fill="#1A476F" width="24" height="2.2"/>
<path fill="#2D72B8" d="M25.2,35.2H0V20.4h25.2V35.2z"/>
<rect y="34.2" fill="#1A476F" width="25.2" height="2.2"/>
<path fill="#2D72B8" d="M25.2,15.9H0V0h25.2V15.9z"/>
<rect y="14.9" fill="#1A476F" width="25.2" height="2.2"/>
<rect x="28.4" y="20.4" fill="#2D72B8" width="24" height="14.8"/>
<rect x="28.4" y="34.2" fill="#1A476F" width="24" height="2.2"/>
<rect x="28.4" fill="#2D72B8" width="24" height="15.9"/>
<rect x="28.4" y="14.9" fill="#1A476F" width="24" height="2.2"/>
<ellipse fill="#FFFFFF" cx="13" cy="8.3" rx="4.9" ry="4.9"/>
<ellipse fill="#FFFFFF" cx="13" cy="27.6" rx="4.9" ry="4.9"/>
<path fill="#FFFFFF" d="M17.9,47.2c0,2.7-2.2,4.9-4.9,4.9c-2.7,0-4.9-2.2-4.9-4.9S10.3,42.3,13,42.3C15.7,42.3,17.9,44.5,17.9,47.2z
	"/>
</svg>
