<?xml version="1.0" encoding="utf-8"?>
<!-- Generator: Adobe Illustrator 12.0.0, SVG Export Plug-In  -->
<!DOCTYPE svg PUBLIC "-//W3C//DTD SVG 1.1//EN" "http://www.w3.org/Graphics/SVG/1.1/DTD/svg11.dtd" [
	<!ENTITY ns_flows "http://ns.adobe.com/Flows/1.0/">
	<!ENTITY ns_svg "http://www.w3.org/2000/svg">
	<!ENTITY ns_xlink "http://www.w3.org/1999/xlink">
]>
<svg  version="1.1" xmlns="&ns_svg;" xmlns:xlink="&ns_xlink;" xmlns:a="http://ns.adobe.com/AdobeSVGViewerExtensions/3.0/"
	 width="100" height="100" viewBox="-23.5 -21.7 100 100" enable-background="new -23.5 -21.7 100 100" xml:space="preserve">
<defs>
</defs>
<rect x="23.6" fill="#2D72B8" width="29.4" height="9.4"/>
<rect x="23.6" y="8.4" fill="#1A476F" width="29.4" height="2.5"/>
<rect x="11.5" y="14.4" fill="#2D72B8" width="8.6" height="11.1"/>
<rect x="11.5" y="24.5" fill="#1A476F" width="8.6" height="2.5"/>
<rect x="11.5" y="30.399" fill="#2D72B8" width="8.6" height="9.4"/>
<rect x="11.5" y="38.8" fill="#1A476F" width="8.6" height="2.5"/>
<rect x="11.5" y="44.8" fill="#2D72B8" width="8.6" height="9.3"/>
<rect x="11.5" y="53.1" fill="#1A476F" width="8.6" height="2.5"/>
<rect x="23.6" y="14.4" fill="#2D72B8" width="29.4" height="11.1"/>
<rect x="23.6" y="24.5" fill="#1A476F" width="29.4" height="2.5"/>
<rect x="23.6" y="44.8" fill="#2D72B8" width="29.4" height="9.3"/>
<rect x="23.6" y="53.1" fill="#1A476F" width="29.4" height="2.5"/>
<rect x="23.6" y="30.399" fill="#2D72B8" width="29.4" height="9.4"/>
<rect x="23.6" y="38.8" fill="#1A476F" width="29.4" height="2.5"/>
<rect x="11.5" fill="#2D72B8" width="8.6" height="9.4"/>
<rect x="11.5" y="8.4" fill="#1A476F" width="8.6" height="2.5"/>
<rect y="14.4" fill="#2D72B8" width="8.6" height="11.1"/>
<rect y="24.5" fill="#1A476F" width="8.6" height="2.5"/>
<rect y="30.399" fill="#2D72B8" width="8.6" height="9.4"/>
<rect y="38.8" fill="#1A476F" width="8.6" height="2.5"/>
<rect y="44.8" fill="#2D72B8" width="8.6" height="9.3"/>
<rect y="53.1" fill="#1A476F" width="8.6" height="2.5"/>
<rect fill="#2D72B8" width="8.6" height="9.4"/>
<rect y="8.4" fill="#1A476F" width="8.6" height="2.5"/>
</svg>
