<?xml version="1.0" encoding="utf-8"?>
<!-- Generator: Adobe Illustrator 12.0.0, SVG Export Plug-In  -->
<!DOCTYPE svg PUBLIC "-//W3C//DTD SVG 1.1//EN" "http://www.w3.org/Graphics/SVG/1.1/DTD/svg11.dtd" [
	<!ENTITY ns_flows "http://ns.adobe.com/Flows/1.0/">
	<!ENTITY ns_svg "http://www.w3.org/2000/svg">
	<!ENTITY ns_xlink "http://www.w3.org/1999/xlink">
]>
<svg  version="1.1" xmlns="&ns_svg;" xmlns:xlink="&ns_xlink;" xmlns:a="http://ns.adobe.com/AdobeSVGViewerExtensions/3.0/"
	 width="100" height="100" viewBox="-23.698 -22 100 100" enable-background="new -23.698 -22 100 100" xml:space="preserve">
<defs>
</defs>
<path fill="#1A476F" d="M52.702,44.9v2.6c0,0.4,0,0.7-0.101,1.1V46C52.602,45.6,52.702,45.2,52.702,44.9"/>
<path fill="#1A476F" d="M52.602,46v2.6c-0.1,0.4-0.2,0.801-0.3,1.2v-2.6C52.401,46.8,52.502,46.4,52.602,46"/>
<path fill="#1A476F" d="M52.302,47.2v2.6c-0.1,0.5-0.3,0.9-0.6,1.3v-2.6C52.002,48.1,52.202,47.6,52.302,47.2"/>
<path fill="#1A476F" d="M52.702,44.9v2.6c0,4.1-3.4,7.5-7.5,7.5v-2.6C49.302,52.4,52.702,49,52.702,44.9z"/>
<polygon fill="#1A476F" points="46.202,51.6 45.102,55 7.502,55 7.502,52.4 "/>
<path fill="#1A476F" d="M7.502,52.4V55c-4.2,0-7.5-3.4-7.5-7.5v-2.6C-0.098,49,3.302,52.4,7.502,52.4z"/>
<path fill="#2D72B8" d="M45.102,0c4.2,0,7.5,3.3,7.5,7.5v38.4c0,4.1-3.399,7.5-7.5,7.5h-37.6c-4.2,0-7.5-3.4-7.5-7.5V7.5
	c0-4.1,3.4-7.5,7.5-7.5H45.102L45.102,0z"/>
<polygon fill="#FFFFFF" points="44.901,18.3 44.901,14.3 39.901,14.3 39.901,9.3 35.901,9.3 35.901,14.3 33.901,14.3 33.901,9.3 
	29.901,9.3 29.901,14.3 27.901,14.3 27.901,9.3 23.902,9.3 23.902,14.3 21.902,14.3 21.902,9.3 17.902,9.3 17.902,14.3 15.902,14.3 
	15.902,9.3 11.902,9.3 11.902,14.3 6.902,14.3 6.902,18.3 11.902,18.3 11.902,20.3 6.902,20.3 6.902,24.3 11.902,24.3 11.902,26.3 
	6.902,26.3 6.902,30.3 11.902,30.3 11.902,32.3 6.902,32.3 6.902,36.3 11.902,36.3 11.902,38.3 6.902,38.3 6.902,42.3 11.902,42.3 
	11.902,47.3 15.902,47.3 15.902,42.3 17.902,42.3 17.902,47.3 21.902,47.3 21.902,42.3 23.902,42.3 23.902,47.3 27.901,47.3 
	27.901,42.3 29.901,42.3 29.901,47.3 33.901,47.3 33.901,42.3 35.901,42.3 35.901,47.3 39.901,47.3 39.901,42.3 44.901,42.3 
	44.901,38.3 39.901,38.3 39.901,36.3 44.901,36.3 44.901,32.3 39.901,32.3 39.901,30.3 44.901,30.3 44.901,26.3 39.901,26.3 
	39.901,24.3 44.901,24.3 44.901,20.3 39.901,20.3 39.901,18.3 "/>
<path fill="#2D72B8" d="M18.602,19.2h9.601c3.199,0,5.199,2.2,5.199,4.9c0,2.1-0.8,3.6-2.8,4.4v0.1c1.9,0.5,2.5,2.301,2.601,4.101
	c0.1,1.1,0,3.2,0.699,4.2h-3.899c-0.5-1.101-0.4-2.801-0.601-4.2c-0.3-1.9-1-2.7-3-2.7h-3.9v6.9h-3.9V19.2z M22.602,27.2h4.3
	c1.7,0,2.7-0.7,2.7-2.5c0-1.7-0.899-2.4-2.7-2.4h-4.3V27.2z"/>
</svg>
