<?xml version="1.0" encoding="utf-8"?>
<!-- Generator: Adobe Illustrator 12.0.0, SVG Export Plug-In  -->
<!DOCTYPE svg PUBLIC "-//W3C//DTD SVG 1.1//EN" "http://www.w3.org/Graphics/SVG/1.1/DTD/svg11.dtd" [
	<!ENTITY ns_flows "http://ns.adobe.com/Flows/1.0/">
	<!ENTITY ns_svg "http://www.w3.org/2000/svg">
	<!ENTITY ns_xlink "http://www.w3.org/1999/xlink">
]>
<svg  version="1.1" xmlns="&ns_svg;" xmlns:xlink="&ns_xlink;" xmlns:a="http://ns.adobe.com/AdobeSVGViewerExtensions/3.0/"
	 width="100" height="100" viewBox="-23.698 -22 100 100" enable-background="new -23.698 -22 100 100" xml:space="preserve">
<defs>
</defs>
<path fill="#1A476F" d="M52.702,44.9v2.6c0,0.4,0,0.7-0.101,1.1V46C52.602,45.6,52.702,45.2,52.702,44.9"/>
<path fill="#1A476F" d="M52.602,46v2.6c-0.1,0.4-0.2,0.801-0.3,1.2v-2.6C52.401,46.8,52.502,46.4,52.602,46"/>
<path fill="#1A476F" d="M52.302,47.2v2.6c-0.1,0.5-0.3,0.9-0.6,1.3v-2.6C52.002,48.1,52.202,47.6,52.302,47.2"/>
<path fill="#1A476F" d="M52.702,44.9v2.6c0,4.1-3.4,7.5-7.5,7.5v-2.6C49.302,52.4,52.702,49,52.702,44.9z"/>
<polygon fill="#1A476F" points="46.202,51.6 45.102,55 7.502,55 7.502,52.4 "/>
<path fill="#1A476F" d="M7.502,52.4V55c-4.2,0-7.5-3.4-7.5-7.5v-2.6C-0.098,49,3.302,52.4,7.502,52.4z"/>
<path fill="#2D72B8" d="M45.102,0c4.2,0,7.5,3.3,7.5,7.5v38.4c0,4.1-3.399,7.5-7.5,7.5h-37.6c-4.2,0-7.5-3.4-7.5-7.5V7.5
	c0-4.1,3.4-7.5,7.5-7.5H45.102z"/>
<polygon fill="#FFFFFF" points="45.302,18 45.302,14 40.302,14 40.302,9 36.302,9 36.302,14 34.302,14 34.302,9 30.302,9 30.302,14 
	28.302,14 28.302,9 24.302,9 24.302,14 22.302,14 22.302,9 18.302,9 18.302,14 16.302,14 16.302,9 12.302,9 12.302,14 7.302,14 
	7.302,18 12.302,18 12.302,20 7.302,20 7.302,24 12.302,24 12.302,26 7.302,26 7.302,30 12.302,30 12.302,32 7.302,32 7.302,36 
	12.302,36 12.302,38 7.302,38 7.302,42 12.302,42 12.302,47 16.302,47 16.302,42 18.302,42 18.302,47 22.302,47 22.302,42 
	24.302,42 24.302,47 28.302,47 28.302,42 30.302,42 30.302,47 34.302,47 34.302,42 36.302,42 36.302,47 40.302,47 40.302,42 
	45.302,42 45.302,38 40.302,38 40.302,36 45.302,36 45.302,32 40.302,32 40.302,30 45.302,30 45.302,26 40.302,26 40.302,24 
	45.302,24 45.302,20 40.302,20 40.302,18 "/>
<path fill="#2D72B8" d="M17.402,19.8h5.1l3.9,11.3l0,0l3.6-11.3h5.1v16.4h-3.399V24.6l0,0l-4,11.6h-2.8l-4-11.5l0,0v11.5h-3.4
	L17.402,19.8L17.402,19.8z"/>
</svg>
