<?xml version="1.0" encoding="utf-8"?>
<!-- Generator: Adobe Illustrator 12.0.0, SVG Export Plug-In  -->
<!DOCTYPE svg PUBLIC "-//W3C//DTD SVG 1.1//EN" "http://www.w3.org/Graphics/SVG/1.1/DTD/svg11.dtd" [
	<!ENTITY ns_flows "http://ns.adobe.com/Flows/1.0/">
	<!ENTITY ns_svg "http://www.w3.org/2000/svg">
	<!ENTITY ns_xlink "http://www.w3.org/1999/xlink">
]>
<svg  version="1.1" xmlns="&ns_svg;" xmlns:xlink="&ns_xlink;" xmlns:a="http://ns.adobe.com/AdobeSVGViewerExtensions/3.0/"
	 width="100" height="100" viewBox="534 -14 100 100" enable-background="new 534 -14 100 100" xml:space="preserve">
<defs>
</defs>
<polygon fill="#99BCE3" points="613.8,48.7 584,45 554.2,48.7 584,57.6 "/>
<polygon fill="#1A476F" points="613.8,22.3 584,26 554.2,22.3 584,13.4 "/>
<polygon fill="#205B98" points="584,0 554.2,14.9 554.2,23.3 584,14.4 "/>
<polygon fill="#205B98" points="584,57.6 554.2,48.7 554.2,57.1 584,72 "/>
<polygon fill="#205B98" points="584,46.9 571.4,45 571.4,27.2 584,25.3 "/>
<polygon fill="#5294CF" points="584,0 613.8,14.9 613.8,23.3 584,14.4 "/>
<polygon fill="#5294CF" points="584,57.6 613.8,48.7 613.8,57.1 584,72 "/>
<polygon fill="#5294CF" points="584,46.9 596.6,45 596.6,27.2 584,25.3 "/>
<text transform="matrix(1 0 0 1 0 29.2002)" display="none" enable-background="new    " font-family="'MyriadPro-Regular'" font-size="12">  &lt;nyt_base_path&gt;~/Desktop/wip/Architecture%20Icons%20-%20Update%20all%20customer-facing%20files%20/AWS-Simple-Icons%202/Database/EPS&lt;/nyt_base_path&gt;</text>
</svg>
