<?xml version="1.0" encoding="utf-8"?>
<!-- Generator: Adobe Illustrator 12.0.0, SVG Export Plug-In  -->
<!DOCTYPE svg PUBLIC "-//W3C//DTD SVG 1.1//EN" "http://www.w3.org/Graphics/SVG/1.1/DTD/svg11.dtd" [
	<!ENTITY ns_flows "http://ns.adobe.com/Flows/1.0/">
	<!ENTITY ns_svg "http://www.w3.org/2000/svg">
	<!ENTITY ns_xlink "http://www.w3.org/1999/xlink">
]>
<svg  version="1.1" xmlns="&ns_svg;" xmlns:xlink="&ns_xlink;" xmlns:a="http://ns.adobe.com/AdobeSVGViewerExtensions/3.0/"
	 width="100" height="100" viewBox="-23.698 -22 100 100" enable-background="new -23.698 -22 100 100" xml:space="preserve">
<defs>
</defs>
<path id="SVGID_2_" fill="#1A476F" d="M52.702,44.9v2.6c0,4.1-3.4,7.5-7.5,7.5v-2.6C49.302,52.4,52.702,49,52.702,44.9z"/>
<g>
	<defs>
		<path id="XMLID_1_" d="M52.702,44.9v2.6c0,4.1-3.4,7.5-7.5,7.5v-2.6C49.302,52.4,52.702,49,52.702,44.9z"/>
	</defs>
	<clipPath id="XMLID_5_">
		<use xlink:href="#XMLID_1_" />
	</clipPath>
	<g clip-path="url(#XMLID_5_)" enable-background="new    ">
		<path fill="#1A476F" d="M52.702,44.9v2.6c0,0.4,0,0.7-0.101,1.1V46C52.602,45.6,52.702,45.2,52.702,44.9"/>
		<path fill="#1A476F" d="M52.602,46v2.6c-0.1,0.4-0.2,0.801-0.3,1.2v-2.6C52.401,46.8,52.502,46.4,52.602,46"/>
		<path fill="#1A476F" d="M52.302,47.2v2.6c-0.1,0.5-0.3,0.9-0.6,1.3v-2.6C52.002,48.1,52.202,47.6,52.302,47.2"/>
	</g>
</g>
<polygon fill="#1A476F" points="46.202,51.6 45.102,55 7.502,55 7.502,52.4 "/>
<path id="SVGID_1_" fill="#1A476F" d="M7.502,52.4V55c-4.2,0-7.5-3.4-7.5-7.5v-2.6C-0.098,49,3.302,52.4,7.502,52.4z"/>
<path fill="#2D72B8" d="M45.102,0c4.2,0,7.5,3.3,7.5,7.5v38.4c0,4.1-3.399,7.5-7.5,7.5h-37.6c-4.2,0-7.5-3.4-7.5-7.5V7.5
	c0-4.1,3.4-7.5,7.5-7.5H45.102z"/>
<path fill="#FFFFFF" d="M14.102,13.7V14c0,2-0.8,4-3.4,4c-2.8,0-3.7-1.8-3.7-5.8s0.9-5.8,3.7-5.8c3.2,0,3.4,2.3,3.4,3.5v0.2h-1.8
	V9.9c0-1-0.3-2.2-1.6-2.2c-1.3,0-1.9,0.8-1.9,4.4s0.6,4.5,1.9,4.5c1.5,0,1.7-1.6,1.7-2.7v-0.2H14.102z"/>
<path fill="#FFFFFF" d="M17.402,6.6h2.3l2.9,11.1h-1.9l-0.6-2.7h-3.3l-0.7,2.7h-1.8L17.402,6.6z M19.802,13.6l-1.3-5.5l0,0l-1.3,5.5
	H19.802z"/>
<path fill="#FFFFFF" d="M30.302,13.7V14c0,2-0.8,4-3.4,4c-2.8,0-3.7-1.8-3.7-5.8s0.9-5.8,3.7-5.8c3.2,0,3.4,2.3,3.4,3.5v0.2h-1.8
	V9.9c0-1-0.3-2.2-1.601-2.2c-1.3,0-1.899,0.8-1.899,4.4s0.6,4.5,1.899,4.5c1.5,0,1.7-1.6,1.7-2.7v-0.2H30.302z"/>
<path fill="#FFFFFF" d="M31.502,6.6h1.8V11h3.3V6.6h1.8v11.1h-1.8v-5.2h-3.3v5.2h-1.8V6.6z"/>
<path fill="#FFFFFF" d="M40.202,6.6h6v1.5h-4.301v3.1h4v1.5h-4v3.5h4.4v1.5h-6.2V6.6H40.202z"/>
</svg>
