<?xml version="1.0" encoding="utf-8"?>
<!-- Generator: Adobe Illustrator 12.0.0, SVG Export Plug-In  -->
<!DOCTYPE svg PUBLIC "-//W3C//DTD SVG 1.1//EN" "http://www.w3.org/Graphics/SVG/1.1/DTD/svg11.dtd" [
	<!ENTITY ns_flows "http://ns.adobe.com/Flows/1.0/">
	<!ENTITY ns_svg "http://www.w3.org/2000/svg">
	<!ENTITY ns_xlink "http://www.w3.org/1999/xlink">
]>
<svg  version="1.1" xmlns="&ns_svg;" xmlns:xlink="&ns_xlink;" xmlns:a="http://ns.adobe.com/AdobeSVGViewerExtensions/3.0/"
	 width="100" height="100" viewBox="-28.2 -21.5 100 100" enable-background="new -28.2 -21.5 100 100" xml:space="preserve">
<defs>
</defs>
<path fill="#2D72B8" d="M21.8,0c4.5,0,8.3,0.4,11.4,0.9c6.699,1.2,10.3,3.3,10.3,4.6s-3.601,3.4-10.3,4.6c-3.101,0.6-7,0.9-11.4,0.9
	C7.7,11,0.1,7.4,0.1,5.5C0.1,3.7,7.7,0,21.8,0z"/>
<path id="SVGID_3_" fill="#1A476F" d="M43.5,4.5v2.8c0,1.3-3.601,3.4-10.3,4.6c-3.101,0.6-7,0.9-11.4,0.9C7.7,12.8,0.1,9.2,0.1,7.3
	V4.5c0,1.9,7.7,5.5,21.7,5.5c4.5,0,8.3-0.4,11.4-0.9C40,7.9,43.5,5.8,43.5,4.5z"/>
<g>
	<defs>
		<path id="XMLID_1_" d="M43.5,4.5v2.8c0,1.3-3.601,3.4-10.3,4.6c-3.101,0.6-7,0.9-11.4,0.9C7.7,12.8,0.1,9.2,0.1,7.3V4.5
			c0,1.9,7.7,5.5,21.7,5.5c4.5,0,8.3-0.4,11.4-0.9C40,7.9,43.5,5.8,43.5,4.5z"/>
	</defs>
	<clipPath id="XMLID_8_">
		<use xlink:href="#XMLID_1_" />
	</clipPath>
	<g clip-path="url(#XMLID_8_)" enable-background="new    ">
		<path fill="#1A476F" d="M43.5,4.5v2.8v0.1V4.6C43.5,4.6,43.5,4.6,43.5,4.5"/>
		<path fill="#1A476F" d="M43.5,4.7v2.8c0,0.1,0,0.1,0,0.2V4.9C43.5,4.8,43.5,4.7,43.5,4.7"/>
		<path fill="#1A476F" d="M43.5,4.8v2.8c0,0.1-0.101,0.2-0.101,0.2V5C43.399,5,43.5,4.9,43.5,4.8"/>
		<path fill="#1A476F" d="M43.399,5v2.8c-0.8,1.3-4.199,3-10.1,4.1c-3.1,0.6-7,0.9-11.4,0.9C7.8,12.8,0.2,9.2,0.2,7.3V4.5
			c0,1.9,7.7,5.5,21.7,5.5c4.5,0,8.3-0.4,11.4-0.9C39.1,8,42.6,6.3,43.399,5"/>
	</g>
</g>
<path id="SVGID_2_" fill="#1A476F" d="M5.3,50.9v2.8c-2.9-1-5-2.2-5.2-3v-2.8C0.3,48.8,2.4,49.9,5.3,50.9z"/>
<path id="SVGID_1_" fill="#1A476F" d="M43.5,47.7v2.8c0,1.9-6,5.5-20.5,5.5c-7.9,0-13.9-1-17.8-2.3l-0.4-3.4
	c3.9,1.2,10.2,2.8,18.1,2.8C37.5,53.2,43.5,49.6,43.5,47.7z"/>
<g>
	<defs>
		<path id="XMLID_11_" d="M43.5,47.7v2.8c0,1.9-6,5.5-20.5,5.5c-7.9,0-13.9-1-17.8-2.3l-0.4-3.4c3.9,1.2,10.2,2.8,18.1,2.8
			C37.5,53.2,43.5,49.6,43.5,47.7z"/>
	</defs>
	<clipPath id="XMLID_9_">
		<use xlink:href="#XMLID_11_" />
	</clipPath>
	<g clip-path="url(#XMLID_9_)" enable-background="new    ">
		<path fill="#1A476F" d="M43.5,47.7v2.8c0,0,0,0.1,0,0.2v-2.8C43.5,47.8,43.5,47.8,43.5,47.7"/>
		<path fill="#1A476F" d="M43.5,47.9v2.8c0,0.1,0,0.1-0.101,0.2V48.1C43.5,48,43.5,47.9,43.5,47.9"/>
		<path fill="#1A476F" d="M43.5,48.1V50.9c0,0.1-0.101,0.199-0.101,0.3v-2.8C43.399,48.3,43.399,48.2,43.5,48.1"/>
		<path fill="#1A476F" d="M43.3,48.4v2.8C42.1,53.2,36,56,23,56c-7.9,0-13.9-1-17.8-2.3L4.1,50c3.9,1.2,11,3.1,18.9,3.1
			C36,53.2,42.2,50.3,43.3,48.4"/>
	</g>
</g>
<path fill="#2D72B8" d="M32.899,14.6c-0.6,0.1-1.199,0.2-1.8,0.3c-0.3,0-0.6,0.1-0.899,0.1c-0.601,0.1-1.101,0.1-1.7,0.2
	c-0.4,0-0.7,0.1-1.101,0.1c-0.699,0.1-1.5,0.1-2.199,0.1h-0.4c-0.9,0-1.7,0.1-2.7,0.1c-0.2,0-0.4,0-0.6,0C12.9,15.5,4.2,14,0,11.1
	v37.8c0.2,0.899,2.3,2,5.2,3c3.9,1.199,9.9,2.3,17.8,2.3c14.5,0,20.5-3.601,20.5-5.5V10.8C41.3,12.4,37.6,13.7,32.899,14.6z"/>
<path fill="#FFFFFF" d="M11,21h13.5c4.5,0,7.3,3.1,7.3,6.9c0,2.9-1.2,5.1-4,6.2V34.2c2.7,0.7,3.5,3.3,3.6,5.8
	c0.101,1.6,0.101,4.5,1,5.9h-5.5C26.2,44.3,26.3,41.9,26,40c-0.4-2.6-1.4-3.8-4.2-3.8h-5.5v9.7h-5.5V21H11z M16.5,32.2h6
	c2.399,0,3.8-1,3.8-3.6c0-2.4-1.3-3.4-3.8-3.4h-6V32.2z"/>
</svg>
