<?xml version="1.0" encoding="utf-8"?>
<!-- Generator: Adobe Illustrator 12.0.0, SVG Export Plug-In  -->
<!DOCTYPE svg PUBLIC "-//W3C//DTD SVG 1.1//EN" "http://www.w3.org/Graphics/SVG/1.1/DTD/svg11.dtd" [
	<!ENTITY ns_flows "http://ns.adobe.com/Flows/1.0/">
	<!ENTITY ns_svg "http://www.w3.org/2000/svg">
	<!ENTITY ns_xlink "http://www.w3.org/1999/xlink">
]>
<svg  version="1.1" xmlns="&ns_svg;" xmlns:xlink="&ns_xlink;" xmlns:a="http://ns.adobe.com/AdobeSVGViewerExtensions/3.0/"
	 width="100" height="100" viewBox="-28 -21.5 100 100" enable-background="new -28 -21.5 100 100" xml:space="preserve">
<defs>
</defs>
<path fill="#2D72B8" d="M22,0c4.5,0,8.4,0.4,11.5,0.9c6.8,1.2,10.4,3.3,10.4,4.6S40.3,8.9,33.5,10.1c-3.2,0.6-7,0.9-11.5,0.9
	C7.8,11,0,7.3,0,5.5C0,3.6,7.8,0,22,0z"/>
<path id="SVGID_3_" fill="#1A476F" d="M43.9,4.5v2.8c0,1.3-3.601,3.4-10.4,4.6c-3.2,0.6-7,0.9-11.5,0.9C7.8,12.8,0,9.1,0,7.3V4.5
	C0,6.4,7.8,10,22,10c4.5,0,8.4-0.4,11.5-0.9C40.3,7.8,43.9,5.7,43.9,4.5z"/>
<g>
	<defs>
		<path id="XMLID_1_" d="M43.9,4.5v2.8c0,1.3-3.601,3.4-10.4,4.6c-3.2,0.6-7,0.9-11.5,0.9C7.8,12.8,0,9.1,0,7.3V4.5
			C0,6.4,7.8,10,22,10c4.5,0,8.4-0.4,11.5-0.9C40.3,7.8,43.9,5.7,43.9,4.5z"/>
	</defs>
	<clipPath id="XMLID_8_">
		<use xlink:href="#XMLID_1_" />
	</clipPath>
	<g clip-path="url(#XMLID_8_)" enable-background="new    ">
		<path fill="#1A476F" d="M43.9,4.5v2.8v0.1V4.6C43.9,4.5,43.9,4.5,43.9,4.5"/>
		<path fill="#1A476F" d="M43.9,4.6v2.8c0,0.1,0,0.1,0,0.2V4.8C43.9,4.7,43.9,4.6,43.9,4.6"/>
		<path fill="#1A476F" d="M43.9,4.7v2.8c0,0.1-0.101,0.2-0.101,0.2V4.9C43.8,4.9,43.8,4.8,43.9,4.7"/>
		<path fill="#1A476F" d="M43.8,5v2.8c-0.8,1.3-4.3,3-10.3,4.1c-3.2,0.6-7,0.9-11.5,0.9C7.8,12.8,0,9.1,0,7.3V4.5
			C0,6.4,7.8,10,22,10c4.5,0,8.4-0.4,11.5-0.9C39.5,8,43,6.2,43.8,5"/>
	</g>
</g>
<path id="SVGID_2_" fill="#1A476F" d="M5.3,51v2.8c-2.9-1-5-2.2-5.2-3V48C0.3,48.8,2.4,49.9,5.3,51z"/>
<path id="SVGID_1_" fill="#1A476F" d="M44,47.8v2.8c0,1.9-6.1,5.5-20.7,5.5c-8,0-14-1-18-2.3l-0.5-3.1c3.9,1.3,10.5,2.6,18.5,2.6
	C37.9,53.2,44,49.7,44,47.8z"/>
<g>
	<defs>
		<path id="XMLID_11_" d="M44,47.8v2.8c0,1.9-6.1,5.5-20.7,5.5c-8,0-14-1-18-2.3l-0.5-3.1c3.9,1.3,10.5,2.6,18.5,2.6
			C37.9,53.2,44,49.7,44,47.8z"/>
	</defs>
	<clipPath id="XMLID_9_">
		<use xlink:href="#XMLID_11_" />
	</clipPath>
	<g clip-path="url(#XMLID_9_)" enable-background="new    ">
		<path fill="#1A476F" d="M44,47.8v2.8c0,0.101,0,0.101,0,0.2V48C44,47.9,44,47.8,44,47.8"/>
		<path fill="#1A476F" d="M43.9,47.9v2.8c0,0.1,0,0.1-0.101,0.2V48.1C43.9,48.1,43.9,48,43.9,47.9"/>
		<path fill="#1A476F" d="M43.9,48.1V50.9c0,0.1-0.101,0.199-0.101,0.3v-2.8C43.8,48.3,43.9,48.2,43.9,48.1"/>
		<path fill="#1A476F" d="M43.8,48.4v2.8c-1.2,2-7.399,4.8-20.5,4.8c-8,0-14-1-18-2.3l-0.7-3.2c3.9,1.3,10.6,2.8,18.6,2.8
			C36.3,53.2,42.6,50.4,43.8,48.4"/>
	</g>
</g>
<path fill="#2D72B8" d="M33.2,14.5c-0.601,0.1-1.2,0.2-1.8,0.3c-0.301,0-0.601,0.1-0.9,0.1c-0.6,0.1-1.1,0.1-1.7,0.2
	c-0.399,0-0.7,0.1-1.1,0.1c-0.7,0.1-1.5,0.1-2.2,0.1h-0.4c-0.899,0-1.8,0.1-2.7,0.1c-0.2,0-0.4,0-0.6,0C13.1,15.4,4.3,13.9,0,11
	v37.8c0.2,0.9,2.3,2,5.2,3c3.9,1.3,10,2.3,18,2.3c14.6,0,20.7-3.6,20.7-5.5v-38C41.7,12.3,38,13.7,33.2,14.5z"/>
<path fill="#FFFFFF" d="M16.3,38.9c0,3.6,2.8,5,6.1,5c2.1,0,5.3-0.601,5.3-3.4c0-2.9-4.101-3.4-8.2-4.5c-4.1-1.1-8.2-2.6-8.2-7.8
	c0-5.6,5.3-8.3,10.3-8.3c5.7,0,11,2.5,11,8.8h-5.8c-0.2-3.3-2.5-4.1-5.4-4.1c-1.9,0-4.2,0.8-4.2,3.1c0,2.1,1.3,2.399,8.2,4.1
	c2,0.5,8.199,1.8,8.199,7.9c0,5-4,8.7-11.399,8.7c-6.1,0-11.8-3-11.7-9.7h5.8V38.9z"/>
</svg>
