<?xml version="1.0" encoding="utf-8"?>
<!-- Generator: Adobe Illustrator 12.0.0, SVG Export Plug-In  -->
<!DOCTYPE svg PUBLIC "-//W3C//DTD SVG 1.1//EN" "http://www.w3.org/Graphics/SVG/1.1/DTD/svg11.dtd" [
	<!ENTITY ns_flows "http://ns.adobe.com/Flows/1.0/">
	<!ENTITY ns_svg "http://www.w3.org/2000/svg">
	<!ENTITY ns_xlink "http://www.w3.org/1999/xlink">
]>
<svg  version="1.1" xmlns="&ns_svg;" xmlns:xlink="&ns_xlink;" xmlns:a="http://ns.adobe.com/AdobeSVGViewerExtensions/3.0/"
	 width="100" height="100" viewBox="-23.698 -22 100 100" enable-background="new -23.698 -22 100 100" xml:space="preserve">
<defs>
</defs>
<path fill="#1A476F" d="M52.702,44.9v2.6c0,0.4,0,0.7-0.102,1.1V46C52.603,45.6,52.702,45.2,52.702,44.9"/>
<path fill="#1A476F" d="M52.603,46v2.6c-0.101,0.4-0.201,0.801-0.301,1.2v-2.6C52.401,46.8,52.502,46.4,52.603,46"/>
<path fill="#1A476F" d="M52.302,47.2v2.6c-0.1,0.5-0.3,0.9-0.6,1.3v-2.6C52.002,48.1,52.202,47.6,52.302,47.2"/>
<path fill="#1A476F" d="M52.702,44.9v2.6c0,4.1-3.4,7.5-7.5,7.5v-2.6C49.302,52.4,52.702,49,52.702,44.9z"/>
<polygon fill="#1A476F" points="46.202,51.6 45.103,55 7.502,55 7.502,52.4 "/>
<path fill="#1A476F" d="M7.502,52.4V55c-4.2,0-7.5-3.4-7.5-7.5v-2.6C-0.098,49,3.302,52.4,7.502,52.4z"/>
<path fill="#2D72B8" d="M45.103,0c4.199,0,7.5,3.3,7.5,7.5v38.4c0,4.1-3.399,7.5-7.5,7.5H7.502c-4.2,0-7.5-3.4-7.5-7.5V7.5
	c0-4.1,3.4-7.5,7.5-7.5H45.103z"/>
<path fill="#FFFFFF" d="M5.702,6.4h2.9l1.4,6.7l0,0l1.4-6.7h2.9V16h-1.8V8.4l0,0l-1.8,7.6h-1.5l-1.7-7.6l0,0V16h-1.8V6.4z"/>
<path fill="#FFFFFF" d="M17.102,13v0.3c0,0.9,0.3,1.5,1.3,1.5c0.6,0,1.2-0.4,1.2-1.2c0-0.9-0.4-1.2-1.7-1.6
	c-1.7-0.6-2.5-1.3-2.5-2.9c0-1.9,1.1-2.8,3-2.8c1.7,0,3,0.7,3,2.6v0.3h-1.8c0-0.9-0.3-1.4-1-1.4c-0.9,0-1.1,0.5-1.1,1.1
	c0,0.6,0.2,1,1,1.3l1.5,0.6c1.4,0.6,1.8,1.4,1.8,2.5c0,2-1.2,2.9-3.3,2.9c-2.2,0-3-1-3-2.8V13H17.102z"/>
<path fill="#FFFFFF" d="M27.302,13v0.3c0,0.9,0.3,1.5,1.3,1.5c0.601,0,1.2-0.4,1.2-1.2c0-0.9-0.4-1.2-1.7-1.6
	c-1.7-0.6-2.5-1.3-2.5-2.9c0-1.9,1.101-2.8,3-2.8c1.7,0,3,0.7,3,2.6v0.3h-1.8c0-0.9-0.301-1.4-1-1.4c-0.9,0-1.1,0.5-1.1,1.1
	c0,0.6,0.198,1,1,1.3l1.5,0.6c1.398,0.6,1.799,1.4,1.799,2.5c0,2-1.199,2.9-3.299,2.9c-2.201,0-3-1-3-2.8V13H27.302z"/>
<path fill="#FFFFFF" d="M38.102,17.2L37.001,16c-0.199,0.1-0.399,0.1-0.601,0.1c-0.198,0-0.399,0-0.698,0c-2.9,0-3.302-2.1-3.302-5
	s0.4-5,3.302-5c2.898,0,3.299,2.1,3.299,5c0,1.6-0.101,3-0.699,3.9l1,1L38.102,17.2z M35.702,14.8c1.101,0,1.301-1,1.301-3.5
	c0-2.6-0.2-3.5-1.301-3.5s-1.301,1-1.301,3.5S34.602,14.8,35.702,14.8z"/>
<path fill="#FFFFFF" d="M40.102,16V6.4h1.899v8h3.4V16H40.102z"/>
</svg>
