<?xml version="1.0" encoding="utf-8"?>
<!-- Generator: Adobe Illustrator 12.0.0, SVG Export Plug-In  -->
<!DOCTYPE svg PUBLIC "-//W3C//DTD SVG 1.1//EN" "http://www.w3.org/Graphics/SVG/1.1/DTD/svg11.dtd" [
	<!ENTITY ns_flows "http://ns.adobe.com/Flows/1.0/">
	<!ENTITY ns_svg "http://www.w3.org/2000/svg">
	<!ENTITY ns_xlink "http://www.w3.org/1999/xlink">
]>
<svg  version="1.1" xmlns="&ns_svg;" xmlns:xlink="&ns_xlink;" xmlns:a="http://ns.adobe.com/AdobeSVGViewerExtensions/3.0/"
	 width="100" height="100" viewBox="-23.6 -21.5 100 100" enable-background="new -23.6 -21.5 100 100" xml:space="preserve">
<defs>
</defs>
<path id="SVGID_3_" fill="#1A476F" d="M52.5,25.3c-3.699-1.2-7.8-1.4-11.3-1.4c-5.1,0-11.5,1.2-12.7,2.9v-2.4
	c0.5-2.1,6.4-3.9,11.7-3.9c1.8,0,9.8,0.8,12.4,2.1"/>
<g>
	<defs>
		<path id="XMLID_2_" d="M52.5,25.3c-3.699-1.2-7.8-1.4-11.3-1.4c-5.1,0-11.5,1.2-12.7,2.9v-2.4c0.5-2.1,6.4-3.9,11.7-3.9
			c1.8,0,9.8,0.8,12.4,2.1"/>
	</defs>
	<clipPath id="XMLID_9_">
		<use xlink:href="#XMLID_2_" />
	</clipPath>
	<g clip-path="url(#XMLID_9_)" enable-background="new    ">
		<path fill="#1A476F" d="M28.7,24v2.6c-0.1,0.1-0.1,0.2-0.1,0.3v-2.6C28.6,24.2,28.6,24.1,28.7,24"/>
		<path fill="#1A476F" d="M28.5,24.3v2.6V27V24.3C28.5,24.4,28.5,24.3,28.5,24.3"/>
	</g>
</g>
<path fill="#2D72B8" d="M42,27.3c2.2,0,4.101,0.2,5.601,0.4c3.3,0.5,5,1.5,5,2.1c0,0.601-1.7,1.5-5,2c-1.5,0.3-3.4,0.4-5.601,0.4
	c-6.899,0-10.6-1.601-10.6-2.5C31.3,28.9,35.1,27.3,42,27.3z"/>
<path id="SVGID_2_" fill="#1A476F" d="M52.6,28.8v2.8c0,0.601-1.7,1.5-5,2C46.1,33.9,44.2,34,42,34c-6.899,0-10.6-1.6-10.6-2.5v-2.8
	c0,0.8,3.8,2.5,10.6,2.5c2.2,0,4.101-0.2,5.601-0.4C50.9,30.3,52.6,29.3,52.6,28.8z"/>
<g>
	<defs>
		<path id="XMLID_1_" d="M52.6,28.8v2.8c0,0.601-1.7,1.5-5,2C46.1,33.9,44.2,34,42,34c-6.899,0-10.6-1.6-10.6-2.5v-2.8
			c0,0.8,3.8,2.5,10.6,2.5c2.2,0,4.101-0.2,5.601-0.4C50.9,30.3,52.6,29.3,52.6,28.8z"/>
	</defs>
	<clipPath id="XMLID_10_">
		<use xlink:href="#XMLID_1_" />
	</clipPath>
	<g clip-path="url(#XMLID_10_)" enable-background="new    ">
		<path fill="#1A476F" d="M52.6,28.8v2.8l0,0V28.8L52.6,28.8"/>
		<path fill="#1A476F" d="M52.6,28.8v2.8c0,0,0,0,0,0.101V28.8L52.6,28.8"/>
		<path fill="#1A476F" d="M52.6,28.9v2.8v0.1V28.9L52.6,28.9"/>
		<path fill="#1A476F" d="M52.6,28.9v2.8c-0.3,0.6-2,1.399-5,1.899C46.1,33.9,44.2,34,42,34c-6.899,0-10.6-1.6-10.6-2.5v-2.8
			c0,0.8,3.8,2.5,10.6,2.5c2.2,0,4.101-0.2,5.601-0.4C50.5,30.3,52.3,29.5,52.6,28.9"/>
	</g>
</g>
<path fill="#1A476F" d="M52.8,50.8v2.8c0,0,0,0.101-0.101,0.101L52.8,50.8C52.8,50.9,52.8,50.9,52.8,50.8"/>
<path fill="#1A476F" d="M42.7,53.1c-3.899,0-6.899-0.399-9-1V51c-1.3-0.6-2.3-1.4-2.399-1.9V53.7C31.5,54,32,54.4,33.6,54.9l0,0
	c2.1,0.699,5.1,1.1,9,1.1c7.2,0,10.1-1.6,10.1-2.5v-2.8C52.8,51.6,49.9,53.1,42.7,53.1z"/>
<path id="SVGID_1_" fill="#1A476F" d="M4.2,52v2.6c-2.2,0-4-1.8-4-4l-0.1-2.5C0,50.2,1.9,52,4.2,52z"/>
<polygon fill="#1A476F" points="30,52 30,54.6 4.2,54.6 3.6,51.2 "/>
<path fill="#2D72B8" d="M52.5,24c-3.8-1.3-10.1-1.4-11.8-1.4c-5.2,0.1-11.2,1.3-12.2,2.8v0.3v1v24.8c0,0.5,1,1.1,1.5,1.4H4
	c-2.2,0-4-1.801-4-4V4c0-2.2,1.8-4,4-4h44.7c2.2,0,4,1.8,4,4"/>
<path fill="#2D72B8" d="M52.8,34.6V51.7c0,0.899-3,2.5-10.101,2.5c-3.899,0-6.899-0.5-8.8-1c-1.4-0.5-2.4-1-2.5-1.4v-17
	c2.1,1.3,6.4,2,10.6,2H42.3c0.399,0,0.899,0,1.3,0h0.2c0.399,0,0.699,0,1.1-0.1c0.2,0,0.4,0,0.5,0c0.3,0,0.6,0,0.8-0.101
	c0.2,0,0.3,0,0.5-0.1c0.3,0,0.601-0.1,0.9-0.1C49.9,35.9,51.7,35.3,52.8,34.6z"/>
<polygon fill="#FFFFFF" points="12.4,12.9 12.4,12.9 10.7,5.8 8.2,5.8 8.2,15.4 9.7,15.4 9.7,7.4 9.7,7.4 11.7,15.4 13,15.4 15,7.4 
	15,7.4 15,15.4 16.5,15.4 16.5,5.8 14.1,5.8 "/>
<path fill="#FFFFFF" d="M20.6,13.6L20.6,13.6l-1.3-5.5h-1.6l2.1,7.4l-0.2,0.6c-0.2,0.5-0.5,0.6-1,0.6c-0.2,0-0.3,0-0.5-0.1v1.2
	c0.2,0,0.4,0.1,0.6,0.1c1.5,0,2-0.2,2.6-2.2l2-7.5h-1.5L20.6,13.6z"/>
<path fill="#FFFFFF" d="M28.4,10.2l-1-0.4c-1-0.4-1.5-0.8-1.5-1.6c0-1,0.6-1.4,1.3-1.4c1,0,1.4,0.5,1.4,1.4v0.2h1.5V8.2
	c0-1-0.3-2.5-2.7-2.5c-1.8,0-3,1-3,2.7c0,1.4,0.6,2.1,2,2.6l1.1,0.4c0.9,0.3,1.4,0.7,1.4,1.7c0,0.7-0.5,1.4-1.5,1.4
	c-1.1,0-1.6-0.6-1.6-1.8v-0.2h-1.6v0.2c0,1.4,0.5,2.9,3,2.9c2,0,3.2-0.8,3.2-2.9C30.3,11.4,29.7,10.7,28.4,10.2z"/>
<path fill="#FFFFFF" d="M36.4,15.3l1,1l1-0.8l-1-1c0.4-0.7,0.8-2,0.8-3.8c0-3.4-1-5-3.2-5c-2.199,0-3.199,1.6-3.199,5
	c0,3.4,1,5,3.199,5C35.5,15.6,36,15.5,36.4,15.3z M33.3,10.6C33.3,7.4,34,6.8,35,6.8c0.9,0,1.7,0.6,1.7,3.8c0,1.4-0.1,2.3-0.3,2.8
	l-0.6-0.6l-0.9,0.9l0.7,0.7c-0.2,0.1-0.4,0.1-0.601,0.1C34,14.5,33.3,13.9,33.3,10.6z"/>
<polygon fill="#FFFFFF" points="45,14.1 41.2,14.1 41.2,5.8 39.7,5.8 39.7,15.4 45,15.4 "/>
<polygon fill="#FFFFFF" points="42.1,48.3 42.1,48.3 39.8,38.8 36.6,38.8 36.6,51.6 38.5,51.6 38.5,41 38.6,41 41.2,51.6 42.9,51.6 
	45.5,41 45.6,41 45.6,51.6 47.5,51.6 47.5,38.8 44.4,38.8 "/>
</svg>
