<?xml version="1.0" encoding="utf-8"?>
<!-- Generator: Adobe Illustrator 12.0.0, SVG Export Plug-In  -->
<!DOCTYPE svg PUBLIC "-//W3C//DTD SVG 1.1//EN" "http://www.w3.org/Graphics/SVG/1.1/DTD/svg11.dtd" [
	<!ENTITY ns_flows "http://ns.adobe.com/Flows/1.0/">
	<!ENTITY ns_svg "http://www.w3.org/2000/svg">
	<!ENTITY ns_xlink "http://www.w3.org/1999/xlink">
]>
<svg  version="1.1" xmlns="&ns_svg;" xmlns:xlink="&ns_xlink;" xmlns:a="http://ns.adobe.com/AdobeSVGViewerExtensions/3.0/"
	 width="100" height="100" viewBox="-23.8 -21.6 100 100" enable-background="new -23.8 -21.6 100 100" xml:space="preserve">
<defs>
</defs>
<path id="SVGID_5_" fill="#1A476F" d="M52.2,25.2c-3.7-1.2-7.8-1.4-11.3-1.4c-5.101,0-11.5,1.2-12.7,2.9v-2.4
	c0.5-2.1,6.4-3.9,11.7-3.9c1.8,0,9.8,0.8,12.399,2.1"/>
<g>
	<defs>
		<path id="XMLID_3_" d="M52.2,25.2c-3.7-1.2-7.8-1.4-11.3-1.4c-5.101,0-11.5,1.2-12.7,2.9v-2.4c0.5-2.1,6.4-3.9,11.7-3.9
			c1.8,0,9.8,0.8,12.399,2.1"/>
	</defs>
	<clipPath id="XMLID_16_">
		<use xlink:href="#XMLID_3_" />
	</clipPath>
	<g clip-path="url(#XMLID_16_)" enable-background="new    ">
		<path fill="#1A476F" d="M28.4,23.9v2.6C28.3,26.6,28.3,26.7,28.3,26.8v-2.6C28.4,24.1,28.4,24,28.4,23.9"/>
		<path fill="#1A476F" d="M28.3,24.2v2.6v0.1V24.2C28.3,24.3,28.3,24.2,28.3,24.2"/>
	</g>
</g>
<path fill="#2D72B8" d="M41.7,27.2c2.2,0,4,0.2,5.6,0.4c3.301,0.5,5,1.5,5,2.1c0,0.601-1.699,1.5-5,2c-1.5,0.3-3.399,0.4-5.6,0.4
	c-6.9,0-10.6-1.601-10.6-2.5C31.101,28.8,34.9,27.2,41.7,27.2z"/>
<path id="SVGID_4_" fill="#1A476F" d="M52.4,28.7v2.7c0,0.6-1.7,1.5-5,2c-1.5,0.3-3.4,0.4-5.601,0.4c-6.899,0-10.6-1.601-10.6-2.5
	v-2.8c0,0.8,3.7,2.5,10.6,2.5c2.2,0,4-0.199,5.601-0.399C50.601,30.2,52.4,29.2,52.4,28.7z"/>
<g>
	<defs>
		<path id="XMLID_2_" d="M52.4,28.7v2.7c0,0.6-1.7,1.5-5,2c-1.5,0.3-3.4,0.4-5.601,0.4c-6.899,0-10.6-1.601-10.6-2.5v-2.8
			c0,0.8,3.7,2.5,10.6,2.5c2.2,0,4-0.199,5.601-0.399C50.601,30.2,52.4,29.2,52.4,28.7z"/>
	</defs>
	<clipPath id="XMLID_17_">
		<use xlink:href="#XMLID_2_" />
	</clipPath>
	<g clip-path="url(#XMLID_17_)" enable-background="new    ">
		<path fill="#1A476F" d="M52.4,28.7v2.7l0,0V28.7L52.4,28.7"/>
		<path fill="#1A476F" d="M52.4,28.7v2.8c0,0,0,0,0,0.101V28.7C52.3,28.7,52.4,28.7,52.4,28.7"/>
		<path fill="#1A476F" d="M52.3,28.8v2.8v0.1V28.8L52.3,28.8"/>
		<path fill="#1A476F" d="M52.3,28.8v2.8c-0.3,0.6-2,1.399-5,1.899c-1.5,0.301-3.399,0.4-5.6,0.4c-6.9,0-10.6-1.6-10.6-2.5v-2.8
			c0,0.8,3.699,2.5,10.6,2.5c2.2,0,4-0.2,5.6-0.4C50.3,30.2,52,29.4,52.3,28.8"/>
	</g>
</g>
<path id="SVGID_3_" fill="#1A476F" d="M33.5,50.8V54.7c-1.7-0.6-2.2-0.899-2.399-1.3v-4.5C31.2,49.4,32.2,50.2,33.5,50.8z"/>
<path id="SVGID_2_" fill="#1A476F" d="M52.5,50.5V53.3c0,0.899-3,2.5-10.1,2.5c-3.9,0-6.8-0.5-9-1.101v-2.8c2.1,0.7,5.1,1.1,9,1.1
	C49.601,53,52.5,51.4,52.5,50.5z"/>
<g>
	<defs>
		<path id="XMLID_1_" d="M52.5,50.5V53.3c0,0.899-3,2.5-10.1,2.5c-3.9,0-6.8-0.5-9-1.101v-2.8c2.1,0.7,5.1,1.1,9,1.1
			C49.601,53,52.5,51.4,52.5,50.5z"/>
	</defs>
	<clipPath id="XMLID_18_">
		<use xlink:href="#XMLID_1_" />
	</clipPath>
	<g clip-path="url(#XMLID_18_)" enable-background="new    ">
		<path fill="#1A476F" d="M52.5,50.5V53.3c0,0,0,0,0,0.1V50.5C52.5,50.6,52.5,50.6,52.5,50.5"/>
		<path fill="#1A476F" d="M52.5,50.6v2.8c0,0,0,0,0,0.1V50.6L52.5,50.6"/>
		<path fill="#1A476F" d="M52.5,50.7v2.8c0,0,0,0.101-0.1,0.101L52.5,50.7L52.5,50.7"/>
		<path fill="#1A476F" d="M52.5,50.8v2.8c-0.5,0.899-3.5,2.2-10,2.2c-3.899,0-7.1-0.5-9-1.101v-2.8c1.9,0.6,5.101,1.1,9,1.1
			C48.9,53,52,51.6,52.5,50.8"/>
	</g>
</g>
<path id="SVGID_1_" fill="#1A476F" d="M4,51.8v2.6c-2.2,0-4-1.8-4-4v-2.6C0,50,1.8,51.8,4,51.8z"/>
<g>
	<defs>
		<path id="XMLID_21_" d="M4,51.8v2.6c-2.2,0-4-1.8-4-4v-2.6C0,50,1.8,51.8,4,51.8z"/>
	</defs>
	<clipPath id="XMLID_19_">
		<use xlink:href="#XMLID_21_" />
	</clipPath>
	<g clip-path="url(#XMLID_19_)" enable-background="new    ">
		<path fill="#1A476F" d="M4,51.8v2.6c-2.2,0-4-1.8-4-4v-2.6C0,50,1.8,51.8,4,51.8"/>
	</g>
</g>
<polygon fill="#1A476F" points="29.8,51.8 29.8,54.4 4,54.4 4,51.8 "/>
<path fill="#2D72B8" d="M52.3,23.9c-3.8-1.3-10-1.4-11.8-1.3c-5.2,0.1-11.1,1.3-12.1,2.8v0.3v0.9v24.8c0,0.5,1,1,1.399,1.4H4
	c-2.2,0-4-1.801-4-4V4c0-2.2,1.8-4,4-4h44.5c2.2,0,4,1.8,4,4"/>
<path fill="#2D72B8" d="M52.5,34.5v17c0,0.9-3,2.5-10.1,2.5c-3.9,0-6.8-0.5-8.8-1c-1.4-0.5-2.4-1-2.5-1.399v-17
	c2.1,1.3,6.399,2,10.6,2H42c0.4,0,0.9,0,1.3,0h0.2c0.4,0,0.7,0,1.101-0.101c0.199,0,0.399,0,0.5,0c0.3,0,0.6,0,0.8-0.1
	c0.2,0,0.3,0,0.5-0.1c0.3,0,0.6-0.101,0.899-0.101C49.601,35.8,51.4,35.2,52.5,34.5z"/>
<polygon fill="#FFFFFF" points="41.9,48.1 41.8,48.1 39.601,38.7 36.4,38.7 36.4,51.5 38.3,51.5 38.3,40.8 38.3,40.8 40.9,51.5 
	42.7,51.5 45.2,40.8 45.3,40.8 45.3,51.5 47.2,51.5 47.2,38.7 44.101,38.7 "/>
<path fill="#FFFFFF" d="M6.6,4.8h2.9l1.4,6.7l0,0l1.4-6.7h2.9v9.6h-1.8V6.8l0,0l-1.8,7.6h-1.5L8.4,6.8l0,0v7.6H6.6V4.8z"/>
<path fill="#FFFFFF" d="M18,11.4v0.3c0,0.9,0.3,1.5,1.3,1.5c0.6,0,1.2-0.4,1.2-1.2c0-0.9-0.4-1.2-1.7-1.6c-1.7-0.6-2.5-1.3-2.5-2.9
	c0-1.9,1.1-2.8,3-2.8c1.7,0,3,0.7,3,2.6v0.3h-1.8c0-0.9-0.3-1.4-1-1.4c-0.9,0-1.1,0.5-1.1,1.1s0.2,1,1,1.3l1.5,0.6
	c1.4,0.6,1.8,1.4,1.8,2.5c0,2-1.2,2.9-3.3,2.9c-2.2,0-3-1-3-2.8v-0.4H18z"/>
<path fill="#FFFFFF" d="M28.2,11.4v0.3c0,0.9,0.3,1.5,1.3,1.5c0.601,0,1.2-0.4,1.2-1.2c0-0.9-0.4-1.2-1.7-1.6
	c-1.7-0.6-2.5-1.3-2.5-2.9c0-1.9,1.101-2.8,3-2.8c1.7,0,3,0.7,3,2.6v0.3h-1.8c0-0.9-0.3-1.4-1-1.4c-0.9,0-1.1,0.5-1.1,1.1
	s0.199,1,1,1.3l1.5,0.6c1.399,0.6,1.8,1.4,1.8,2.5c0,2-1.2,2.9-3.3,2.9c-2.2,0-3-1-3-2.8v-0.4H28.2z"/>
<path fill="#FFFFFF" d="M39,15.6l-1.1-1.2c-0.2,0.1-0.4,0.1-0.601,0.1c-0.199,0-0.399,0-0.699,0c-2.9,0-3.301-2.1-3.301-5
	s0.4-5,3.301-5c2.899,0,3.3,2.1,3.3,5c0,1.6-0.101,3-0.7,3.9l1,1L39,15.6z M36.601,13.2c1.1,0,1.3-1,1.3-3.5c0-2.6-0.2-3.5-1.3-3.5
	c-1.101,0-1.301,1-1.301,3.5S35.5,13.2,36.601,13.2z"/>
<path fill="#FFFFFF" d="M41,14.4V4.8h1.9v8H46.3v1.6H41z"/>
</svg>
