<?xml version="1.0" encoding="utf-8"?>
<!-- Generator: Adobe Illustrator 12.0.0, SVG Export Plug-In  -->
<!DOCTYPE svg PUBLIC "-//W3C//DTD SVG 1.1//EN" "http://www.w3.org/Graphics/SVG/1.1/DTD/svg11.dtd" [
	<!ENTITY ns_flows "http://ns.adobe.com/Flows/1.0/">
	<!ENTITY ns_svg "http://www.w3.org/2000/svg">
	<!ENTITY ns_xlink "http://www.w3.org/1999/xlink">
]>
<svg  version="1.1" xmlns="&ns_svg;" xmlns:xlink="&ns_xlink;" xmlns:a="http://ns.adobe.com/AdobeSVGViewerExtensions/3.0/"
	 width="100" height="100" viewBox="-23.698 -22 100 100" enable-background="new -23.698 -22 100 100" xml:space="preserve">
<defs>
</defs>
<path fill="#1A476F" d="M52.702,44.9v2.6c0,0.4,0,0.7-0.102,1.1V46C52.603,45.6,52.702,45.2,52.702,44.9"/>
<path fill="#1A476F" d="M52.603,46v2.6c-0.101,0.4-0.201,0.801-0.301,1.2v-2.6C52.401,46.8,52.502,46.4,52.603,46"/>
<path fill="#1A476F" d="M52.302,47.2v2.6c-0.1,0.5-0.3,0.9-0.6,1.3v-2.6C52.002,48.1,52.202,47.6,52.302,47.2"/>
<path fill="#1A476F" d="M52.702,44.9v2.6c0,4.1-3.4,7.5-7.5,7.5v-2.6C49.302,52.4,52.702,49,52.702,44.9z"/>
<polygon fill="#1A476F" points="46.202,51.6 45.103,55 7.502,55 7.502,52.4 "/>
<path fill="#1A476F" d="M7.502,52.4V55c-4.2,0-7.5-3.4-7.5-7.5v-2.6C-0.098,49,3.302,52.4,7.502,52.4z"/>
<path fill="#2D72B8" d="M45.103,0c4.199,0,7.5,3.3,7.5,7.5v38.4c0,4.1-3.399,7.5-7.5,7.5H7.502c-4.2,0-7.5-3.4-7.5-7.5V7.5
	c0-4.1,3.4-7.5,7.5-7.5H45.103L45.103,0z"/>
<polygon fill="#FFFFFF" points="12.302,13.4 12.302,13.4 10.602,6.3 8.102,6.3 8.102,15.9 9.602,15.9 9.602,7.9 9.602,7.9 
	11.602,15.9 12.902,15.9 14.902,7.9 14.902,7.9 14.902,15.9 16.402,15.9 16.402,6.3 14.002,6.3 "/>
<path fill="#FFFFFF" d="M20.502,14.1L20.502,14.1l-1.3-5.5h-1.6l2.1,7.4l-0.2,0.6c-0.2,0.5-0.5,0.601-1,0.601
	c-0.2,0-0.3,0-0.5-0.101v1.2c0.2,0,0.4,0.101,0.6,0.101c1.5,0,2-0.2,2.6-2.2l2-7.5h-1.5L20.502,14.1z"/>
<path fill="#FFFFFF" d="M28.302,10.7l-1-0.4c-1-0.399-1.5-0.8-1.5-1.6c0-1,0.6-1.4,1.301-1.4c1,0,1.399,0.5,1.399,1.4v0.2h1.5V8.7
	c0-1-0.3-2.5-2.7-2.5c-1.8,0-3,1-3,2.7c0,1.399,0.6,2.1,2,2.6l1.1,0.4c0.9,0.3,1.4,0.699,1.4,1.699c0,0.7-0.5,1.4-1.5,1.4
	c-1.1,0-1.6-0.6-1.6-1.8V13h-1.6v0.2c0,1.399,0.5,2.899,3,2.899c2,0,3.199-0.8,3.199-2.899C30.202,11.9,29.603,11.2,28.302,10.7z"/>
<path fill="#FFFFFF" d="M36.302,15.8l1,1l1-0.8l-1-1c0.4-0.7,0.801-2,0.801-3.8c0-3.4-1-5-3.201-5c-2.199,0-3.199,1.6-3.199,5
	c0,3.399,1,5,3.199,5C35.401,16.1,35.901,16,36.302,15.8z M33.202,11.1c0-3.199,0.699-3.8,1.699-3.8c0.9,0,1.701,0.601,1.701,3.8
	c0,1.4-0.101,2.301-0.301,2.801l-0.6-0.601l-0.9,0.9l0.7,0.7c-0.2,0.1-0.399,0.1-0.601,0.1C33.901,15,33.202,14.4,33.202,11.1z"/>
<polygon fill="#FFFFFF" points="44.901,14.6 41.103,14.6 41.103,6.3 39.603,6.3 39.603,15.9 44.901,15.9 "/>
</svg>
