<?xml version="1.0" encoding="utf-8"?>
<!-- Generator: Adobe Illustrator 12.0.0, SVG Export Plug-In  -->
<!DOCTYPE svg PUBLIC "-//W3C//DTD SVG 1.1//EN" "http://www.w3.org/Graphics/SVG/1.1/DTD/svg11.dtd" [
	<!ENTITY ns_flows "http://ns.adobe.com/Flows/1.0/">
	<!ENTITY ns_svg "http://www.w3.org/2000/svg">
	<!ENTITY ns_xlink "http://www.w3.org/1999/xlink">
]>
<svg  version="1.1" xmlns="&ns_svg;" xmlns:xlink="&ns_xlink;" xmlns:a="http://ns.adobe.com/AdobeSVGViewerExtensions/3.0/"
	 width="100" height="100" viewBox="-23.698 -22 100 100" enable-background="new -23.698 -22 100 100" xml:space="preserve">
<defs>
</defs>
<path fill="#1A476F" d="M52.702,44.9v2.6c0,0.4,0,0.7-0.102,1.1V46C52.603,45.6,52.702,45.2,52.702,44.9"/>
<path fill="#1A476F" d="M52.603,46v2.6c-0.101,0.4-0.201,0.801-0.301,1.2v-2.6C52.401,46.8,52.502,46.4,52.603,46"/>
<path fill="#1A476F" d="M52.302,47.2v2.6c-0.1,0.5-0.3,0.9-0.6,1.3v-2.6C52.002,48.1,52.202,47.6,52.302,47.2"/>
<path fill="#1A476F" d="M52.702,44.9v2.6c0,4.1-3.4,7.5-7.5,7.5v-2.6C49.302,52.4,52.702,49,52.702,44.9z"/>
<polygon fill="#1A476F" points="46.202,51.6 45.103,55 7.502,55 7.502,52.4 "/>
<path fill="#1A476F" d="M7.502,52.4V55c-4.2,0-7.5-3.4-7.5-7.5v-2.6C-0.098,49,3.302,52.4,7.502,52.4z"/>
<path fill="#2D72B8" d="M45.103,0c4.199,0,7.5,3.3,7.5,7.5v38.4c0,4.1-3.399,7.5-7.5,7.5H7.502c-4.2,0-7.5-3.4-7.5-7.5V7.5
	c0-4.1,3.4-7.5,7.5-7.5H45.103L45.103,0z"/>
<path fill="#FFFFFF" d="M8.501,7.7c-2.2,0-3.2,1.6-3.2,5c0,3.399,1,5,3.2,5c2.2,0,3.2-1.601,3.2-5C11.702,9.3,10.702,7.7,8.501,7.7z
	 M8.501,16.5c-0.9,0-1.7-0.6-1.7-3.9c0-3.2,0.7-3.8,1.7-3.8c0.9,0,1.7,0.6,1.7,3.8C10.102,16,9.401,16.5,8.501,16.5z"/>
<path fill="#FFFFFF" d="M19.202,16.7c0-0.601,0-1.3-0.1-2c-0.1-1.4-0.6-1.9-1.5-2l0,0c1.1-0.2,1.6-1.1,1.6-2.4
	c0-1.8-1.1-2.5-2.5-2.5h-3.4v9.6h1.5v-4.2h1.3c1.1,0,1.4,0.5,1.4,1.5c0,0.7,0,1.2,0.1,1.8c0,0.4,0.1,0.7,0.3,0.801h1.7
	C19.401,17.4,19.202,17.1,19.202,16.7z M16.102,12.2h-1.2V9h1.3c1,0,1.5,0.5,1.5,1.6C17.702,11.6,17.102,12.2,16.102,12.2z"/>
<path fill="#FFFFFF" d="M22.702,7.9l-2.8,9.6h1.6l0.6-2.4h2.8l0.6,2.4h1.8l-2.6-9.6H22.702z M22.501,13.9l1.2-4.7l0,0l1.1,4.7
	H22.501z"/>
<path fill="#FFFFFF" d="M34.202,14.1h-1.5v0.201c0,0.899-0.101,2.299-1.399,2.299c-1.101,0-1.7-0.799-1.7-3.899
	c0-3.1,0.5-3.8,1.7-3.8c1.1,0,1.399,1,1.399,1.9V11h1.5v-0.2c0-1-0.199-3-2.899-3c-2.5,0-3.2,1.6-3.2,5c0,3.4,0.8,5,3.2,5
	c2.3,0,3-1.701,3-3.4L34.202,14.1L34.202,14.1z"/>
<polygon fill="#FFFFFF" points="40.602,16.2 36.901,16.2 36.901,7.9 35.302,7.9 35.302,17.5 40.602,17.5 "/>
<polygon fill="#FFFFFF" points="47.202,16.2 43.401,16.2 43.401,13.1 46.802,13.1 46.802,11.8 43.401,11.8 43.401,9.2 47.001,9.2 
	47.001,7.9 41.802,7.9 41.802,17.5 47.202,17.5 "/>
</svg>
