<?xml version="1.0" encoding="utf-8"?>
<!-- Generator: Adobe Illustrator 12.0.0, SVG Export Plug-In  -->
<!DOCTYPE svg PUBLIC "-//W3C//DTD SVG 1.1//EN" "http://www.w3.org/Graphics/SVG/1.1/DTD/svg11.dtd" [
	<!ENTITY ns_flows "http://ns.adobe.com/Flows/1.0/">
	<!ENTITY ns_svg "http://www.w3.org/2000/svg">
	<!ENTITY ns_xlink "http://www.w3.org/1999/xlink">
]>
<svg  version="1.1" xmlns="&ns_svg;" xmlns:xlink="&ns_xlink;" xmlns:a="http://ns.adobe.com/AdobeSVGViewerExtensions/3.0/"
	 width="100" height="100" viewBox="-23.8 -21.6 100 100" enable-background="new -23.8 -21.6 100 100" xml:space="preserve">
<defs>
</defs>
<path id="SVGID_5_" fill="#1A476F" d="M52.2,25.2c-3.7-1.2-7.8-1.4-11.3-1.4c-5.101,0-11.5,1.2-12.7,2.9v-2.4
	c0.5-2.1,6.4-3.9,11.7-3.9c1.8,0,9.8,0.8,12.399,2.1"/>
<g>
	<defs>
		<path id="XMLID_3_" d="M52.2,25.2c-3.7-1.2-7.8-1.4-11.3-1.4c-5.101,0-11.5,1.2-12.7,2.9v-2.4c0.5-2.1,6.4-3.9,11.7-3.9
			c1.8,0,9.8,0.8,12.399,2.1"/>
	</defs>
	<clipPath id="XMLID_16_">
		<use xlink:href="#XMLID_3_" />
	</clipPath>
	<g clip-path="url(#XMLID_16_)" enable-background="new    ">
		<path fill="#1A476F" d="M28.4,23.9v2.6C28.3,26.6,28.3,26.7,28.3,26.8v-2.6C28.4,24.1,28.4,24,28.4,23.9"/>
		<path fill="#1A476F" d="M28.3,24.2v2.6v0.1V24.2C28.3,24.3,28.3,24.2,28.3,24.2"/>
	</g>
</g>
<path fill="#2D72B8" d="M41.7,27.2c2.2,0,4,0.2,5.6,0.4c3.301,0.5,5,1.5,5,2.1c0,0.601-1.699,1.5-5,2c-1.5,0.3-3.399,0.4-5.6,0.4
	c-6.9,0-10.6-1.601-10.6-2.5C31.101,28.8,34.9,27.2,41.7,27.2z"/>
<path id="SVGID_4_" fill="#1A476F" d="M52.4,28.7v2.7c0,0.6-1.7,1.5-5,2c-1.5,0.3-3.4,0.4-5.601,0.4c-6.899,0-10.6-1.601-10.6-2.5
	v-2.8c0,0.8,3.7,2.5,10.6,2.5c2.2,0,4-0.199,5.601-0.399C50.601,30.2,52.4,29.2,52.4,28.7z"/>
<g>
	<defs>
		<path id="XMLID_2_" d="M52.4,28.7v2.7c0,0.6-1.7,1.5-5,2c-1.5,0.3-3.4,0.4-5.601,0.4c-6.899,0-10.6-1.601-10.6-2.5v-2.8
			c0,0.8,3.7,2.5,10.6,2.5c2.2,0,4-0.199,5.601-0.399C50.601,30.2,52.4,29.2,52.4,28.7z"/>
	</defs>
	<clipPath id="XMLID_17_">
		<use xlink:href="#XMLID_2_" />
	</clipPath>
	<g clip-path="url(#XMLID_17_)" enable-background="new    ">
		<path fill="#1A476F" d="M52.4,28.7v2.7l0,0V28.7L52.4,28.7"/>
		<path fill="#1A476F" d="M52.4,28.7v2.8c0,0,0,0,0,0.101V28.7C52.3,28.7,52.4,28.7,52.4,28.7"/>
		<path fill="#1A476F" d="M52.3,28.8v2.8v0.1V28.8L52.3,28.8"/>
		<path fill="#1A476F" d="M52.3,28.8v2.8c-0.3,0.6-2,1.399-5,1.899c-1.5,0.301-3.399,0.4-5.6,0.4c-6.9,0-10.6-1.6-10.6-2.5v-2.8
			c0,0.8,3.699,2.5,10.6,2.5c2.2,0,4-0.2,5.6-0.4C50.3,30.2,52,29.4,52.3,28.8"/>
	</g>
</g>
<path id="SVGID_3_" fill="#1A476F" d="M33.5,50.8V54.7c-1.7-0.6-2.2-0.899-2.399-1.3v-4.5C31.2,49.4,32.2,50.2,33.5,50.8z"/>
<path id="SVGID_2_" fill="#1A476F" d="M52.5,50.5V53.3c0,0.899-3,2.5-10.1,2.5c-3.9,0-6.8-0.5-9-1.101v-2.8c2.1,0.7,5.1,1.1,9,1.1
	C49.601,53,52.5,51.4,52.5,50.5z"/>
<g>
	<defs>
		<path id="XMLID_1_" d="M52.5,50.5V53.3c0,0.899-3,2.5-10.1,2.5c-3.9,0-6.8-0.5-9-1.101v-2.8c2.1,0.7,5.1,1.1,9,1.1
			C49.601,53,52.5,51.4,52.5,50.5z"/>
	</defs>
	<clipPath id="XMLID_18_">
		<use xlink:href="#XMLID_1_" />
	</clipPath>
	<g clip-path="url(#XMLID_18_)" enable-background="new    ">
		<path fill="#1A476F" d="M52.5,50.5V53.3c0,0,0,0,0,0.1V50.5C52.5,50.6,52.5,50.6,52.5,50.5"/>
		<path fill="#1A476F" d="M52.5,50.6v2.8c0,0,0,0,0,0.1V50.6L52.5,50.6"/>
		<path fill="#1A476F" d="M52.5,50.7v2.8c0,0,0,0.101-0.1,0.101L52.5,50.7L52.5,50.7"/>
		<path fill="#1A476F" d="M52.5,50.8v2.8c-0.5,0.899-3.5,2.2-10,2.2c-3.899,0-7.1-0.5-9-1.101v-2.8c1.9,0.6,5.101,1.1,9,1.1
			C48.9,53,52,51.6,52.5,50.8"/>
	</g>
</g>
<path id="SVGID_1_" fill="#1A476F" d="M4,51.8v2.6c-2.2,0-4-1.8-4-4v-2.6C0,50,1.8,51.8,4,51.8z"/>
<g>
	<defs>
		<path id="XMLID_21_" d="M4,51.8v2.6c-2.2,0-4-1.8-4-4v-2.6C0,50,1.8,51.8,4,51.8z"/>
	</defs>
	<clipPath id="XMLID_19_">
		<use xlink:href="#XMLID_21_" />
	</clipPath>
	<g clip-path="url(#XMLID_19_)" enable-background="new    ">
		<path fill="#1A476F" d="M4,51.8v2.6c-2.2,0-4-1.8-4-4v-2.6C0,50,1.8,51.8,4,51.8"/>
	</g>
</g>
<polygon fill="#1A476F" points="29.8,51.8 29.8,54.4 4,54.4 4,51.8 "/>
<path fill="#2D72B8" d="M52.3,23.9c-3.8-1.3-10-1.4-11.8-1.3c-5.2,0.1-11.1,1.3-12.1,2.8v0.3v0.9v24.8c0,0.5,1,1,1.399,1.4H4
	c-2.2,0-4-1.801-4-4V4c0-2.2,1.8-4,4-4h44.5c2.2,0,4,1.8,4,4"/>
<path fill="#2D72B8" d="M52.5,34.5v17c0,0.9-3,2.5-10.1,2.5c-3.9,0-6.8-0.5-8.8-1c-1.4-0.5-2.4-1-2.5-1.399v-17
	c2.1,1.3,6.399,2,10.6,2H42c0.4,0,0.9,0,1.3,0h0.2c0.4,0,0.7,0,1.101-0.101c0.199,0,0.399,0,0.5,0c0.3,0,0.6,0,0.8-0.1
	c0.2,0,0.3,0,0.5-0.1c0.3,0,0.6-0.101,0.899-0.101C49.601,35.8,51.4,35.2,52.5,34.5z"/>
<polygon fill="#FFFFFF" points="41.9,48.1 41.8,48.1 39.601,38.7 36.4,38.7 36.4,51.5 38.3,51.5 38.3,40.8 38.3,40.8 40.9,51.5 
	42.7,51.5 45.2,40.8 45.3,40.8 45.3,51.5 47.2,51.5 47.2,38.7 44.101,38.7 "/>
<path fill="#FFFFFF" d="M8.4,4.1c-2.2,0-3.2,1.6-3.2,5c0,3.4,1,5,3.2,5c2.2,0,3.2-1.6,3.2-5C11.6,5.7,10.6,4.1,8.4,4.1z M8.4,12.9
	c-0.9,0-1.7-0.6-1.7-3.9c0-3.2,0.7-3.8,1.7-3.8c0.9,0,1.7,0.6,1.7,3.8C10,12.4,9.3,12.9,8.4,12.9z"/>
<path fill="#FFFFFF" d="M19.1,13.1c0-0.6,0-1.3-0.1-2c-0.1-1.4-0.6-1.9-1.5-2l0,0c1.1-0.2,1.6-1.1,1.6-2.4c0-1.8-1.1-2.5-2.5-2.5
	h-3.4v9.6h1.5V9.6H16c1.1,0,1.4,0.5,1.4,1.5c0,0.7,0,1.2,0.1,1.8c0,0.4,0.1,0.7,0.3,0.8h1.7C19.3,13.8,19.1,13.5,19.1,13.1z M16,8.6
	h-1.2V5.4h1.3c1,0,1.5,0.5,1.5,1.6C17.6,8,17,8.6,16,8.6z"/>
<path fill="#FFFFFF" d="M22.6,4.3l-2.8,9.6h1.6l0.6-2.4h2.8l0.6,2.4h1.8l-2.6-9.6H22.6z M22.4,10.3l1.2-4.7l0,0l1.1,4.7H22.4z"/>
<path fill="#FFFFFF" d="M34.101,10.5h-1.5v0.2c0,0.9-0.101,2.3-1.4,2.3c-1.1,0-1.7-0.8-1.7-3.9c0-3.1,0.5-3.8,1.7-3.8
	c1.1,0,1.4,1,1.4,1.9v0.2h1.5V7.2c0-1-0.2-3-2.9-3c-2.5,0-3.2,1.6-3.2,5c0,3.4,0.8,5,3.2,5c2.3,0,3-1.7,3-3.4L34.101,10.5
	L34.101,10.5z"/>
<polygon fill="#FFFFFF" points="40.5,12.6 36.8,12.6 36.8,4.3 35.2,4.3 35.2,13.9 40.5,13.9 "/>
<polygon fill="#FFFFFF" points="47.101,12.6 43.3,12.6 43.3,9.5 46.7,9.5 46.7,8.2 43.3,8.2 43.3,5.6 46.9,5.6 46.9,4.3 41.7,4.3 
	41.7,13.9 47.101,13.9 "/>
</svg>
