<?xml version="1.0" encoding="utf-8"?>
<!-- Generator: Adobe Illustrator 12.0.0, SVG Export Plug-In  -->
<!DOCTYPE svg PUBLIC "-//W3C//DTD SVG 1.1//EN" "http://www.w3.org/Graphics/SVG/1.1/DTD/svg11.dtd" [
	<!ENTITY ns_flows "http://ns.adobe.com/Flows/1.0/">
	<!ENTITY ns_svg "http://www.w3.org/2000/svg">
	<!ENTITY ns_xlink "http://www.w3.org/1999/xlink">
]>
<svg  version="1.1" xmlns="&ns_svg;" xmlns:xlink="&ns_xlink;" xmlns:a="http://ns.adobe.com/AdobeSVGViewerExtensions/3.0/"
	 width="100" height="100" viewBox="-23.698 -22 100 100" enable-background="new -23.698 -22 100 100" xml:space="preserve">
<defs>
</defs>
<text transform="matrix(1 0 0 1 0.126 16.4785)" fill="#FFFFFF" font-family="'ArialMT'" font-size="11">P</text>
<text transform="matrix(1 0 0 1 5.6367 16.4785)" fill="#FFFFFF" font-family="'ArialMT'" font-size="11">o</text>
<text transform="matrix(1 0 0 1 10.917 16.4785)" fill="#FFFFFF" font-family="'ArialMT'" font-size="11">s</text>
<text transform="matrix(1 0 0 1 15.8008 16.4785)" fill="#FFFFFF" font-family="'ArialMT'" font-size="11">t</text>
<text transform="matrix(1 0 0 1 19.0566 16.4785)" fill="#FFFFFF" font-family="'ArialMT'" font-size="11">g</text>
<text transform="matrix(1 0 0 1 24.5566 16.4785)" fill="#FFFFFF" font-family="'ArialMT'" font-size="11">r</text>
<text transform="matrix(1 0 0 1 28.2197 16.4785)" fill="#FFFFFF" font-family="'ArialMT'" font-size="11">e</text>
<text transform="matrix(1 0 0 1 33.3125 16.4785)" fill="#FFFFFF" font-family="'ArialMT'" font-size="11">S</text>
<text transform="matrix(1 0 0 1 39.0215 16.4785)" fill="#FFFFFF" font-family="'ArialMT'" font-size="11">Q</text>
<text transform="matrix(1 0 0 1 45.1377 16.4785)" fill="#FFFFFF" font-family="'ArialMT'" font-size="11">L</text>
<path fill="#1A476F" d="M52.702,44.9v2.6c0,0.4,0,0.7-0.101,1.1V46C52.602,45.6,52.702,45.2,52.702,44.9"/>
<path fill="#1A476F" d="M52.602,46v2.6c-0.1,0.4-0.2,0.801-0.3,1.2v-2.6C52.401,46.8,52.502,46.4,52.602,46"/>
<path fill="#1A476F" d="M52.302,47.2v2.6c-0.1,0.5-0.3,0.9-0.6,1.3v-2.6C52.002,48.1,52.202,47.6,52.302,47.2"/>
<path fill="#1A476F" d="M52.702,44.9v2.6c0,4.1-3.4,7.5-7.5,7.5v-2.6C49.302,52.4,52.702,49,52.702,44.9z"/>
<polygon fill="#1A476F" points="46.202,51.6 45.102,55 7.502,55 7.502,52.4 "/>
<path fill="#1A476F" d="M7.502,52.4V55c-4.2,0-7.5-3.4-7.5-7.5v-2.6C-0.098,49,3.302,52.4,7.502,52.4z"/>
<path fill="#2D72B8" d="M45.102,0c4.2,0,7.5,3.3,7.5,7.5v38.4c0,4.1-3.399,7.5-7.5,7.5h-37.6c-4.2,0-7.5-3.4-7.5-7.5V7.5
	c0-4.1,3.4-7.5,7.5-7.5H45.102z"/>
<text transform="matrix(1 0 0 1 1.248 15.4043)" fill="#FFFFFF" font-family="'ArialMT'" font-size="11">P</text>
<text transform="matrix(1 0 0 1 6.7588 15.4043)" fill="#FFFFFF" font-family="'ArialMT'" font-size="11">o</text>
<text transform="matrix(1 0 0 1 12.0391 15.4043)" fill="#FFFFFF" font-family="'ArialMT'" font-size="11">s</text>
<text transform="matrix(1 0 0 1 16.9229 15.4043)" fill="#FFFFFF" font-family="'ArialMT'" font-size="11">t</text>
<text transform="matrix(1 0 0 1 20.1787 15.4043)" fill="#FFFFFF" font-family="'ArialMT'" font-size="11">g</text>
<text transform="matrix(1 0 0 1 25.6787 15.4043)" fill="#FFFFFF" font-family="'ArialMT'" font-size="11">r</text>
<text transform="matrix(1 0 0 1 29.3418 15.4043)" fill="#FFFFFF" font-family="'ArialMT'" font-size="11">e</text>
<text transform="matrix(1 0 0 1 34.4346 15.4043)" fill="#FFFFFF" font-family="'ArialMT'" font-size="11">S</text>
<text transform="matrix(1 0 0 1 40.1436 15.4043)" fill="#FFFFFF" font-family="'ArialMT'" font-size="11">Q</text>
<text transform="matrix(1 0 0 1 46.2598 15.4043)" fill="#FFFFFF" font-family="'ArialMT'" font-size="11">L</text>
</svg>
