<?xml version="1.0" encoding="utf-8"?>
<!-- Generator: Adobe Illustrator 12.0.0, SVG Export Plug-In  -->
<!DOCTYPE svg PUBLIC "-//W3C//DTD SVG 1.1//EN" "http://www.w3.org/Graphics/SVG/1.1/DTD/svg11.dtd" [
	<!ENTITY ns_flows "http://ns.adobe.com/Flows/1.0/">
	<!ENTITY ns_svg "http://www.w3.org/2000/svg">
	<!ENTITY ns_xlink "http://www.w3.org/1999/xlink">
]>
<svg  version="1.1" xmlns="&ns_svg;" xmlns:xlink="&ns_xlink;" xmlns:a="http://ns.adobe.com/AdobeSVGViewerExtensions/3.0/"
	 width="100" height="100" viewBox="-23.6 -21.4 100 100" enable-background="new -23.6 -21.4 100 100" xml:space="preserve">
<defs>
</defs>
<path fill="#1A476F" d="M28.7,24.1v2.6c-0.1,0.1-0.1,0.2-0.1,0.3v-2.6C28.6,24.3,28.6,24.2,28.7,24.1"/>
<path fill="#1A476F" d="M52.5,25.4C48.8,24.2,44.7,24,41.2,24c-5.1,0-11.5,1.2-12.7,2.9v-2.4c0.5-2.1,6.4-3.9,11.7-3.9
	c1.8,0,9.8,0.8,12.4,2.1"/>
<path fill="#2D72B8" d="M42,27.4c2.2,0,4.101,0.2,5.601,0.4c3.3,0.5,5,1.5,5,2.1c0,0.601-1.7,1.5-5,2c-1.5,0.3-3.4,0.4-5.601,0.4
	c-6.899,0-10.6-1.601-10.6-2.5C31.3,29,35.1,27.4,42,27.4z"/>
<path fill="#1A476F" d="M52.6,29v2.8c-0.3,0.6-2,1.399-5,1.899C46.1,34,44.2,34.1,42,34.1c-6.899,0-10.6-1.6-10.6-2.5v-2.8
	c0,0.8,3.8,2.5,10.6,2.5c2.2,0,4.101-0.2,5.601-0.4C50.5,30.4,52.3,29.6,52.6,29"/>
<path fill="#1A476F" d="M52.6,28.9v2.8c0,0.601-1.7,1.5-5,2C46.1,34,44.2,34.1,42,34.1c-6.899,0-10.6-1.6-10.6-2.5v-2.8
	c0,0.8,3.8,2.5,10.6,2.5c2.2,0,4.101-0.2,5.601-0.4C50.9,30.4,52.6,29.4,52.6,28.9z"/>
<path fill="#1A476F" d="M52.8,50.9v2.8c0,0,0,0.101-0.101,0.101L52.8,50.9C52.8,51,52.8,51,52.8,50.9"/>
<path fill="#1A476F" d="M42.7,53.2c-3.899,0-6.899-0.399-9-1v-1.1c-1.3-0.6-2.3-1.4-2.399-1.9V53.8C31.5,54.1,32,54.5,33.6,55l0,0
	c2.1,0.699,5.1,1.1,9,1.1c7.2,0,10.1-1.6,10.1-2.5v-2.8C52.8,51.7,49.9,53.2,42.7,53.2z"/>
<path fill="#1A476F" d="M4.2,52.1v2.6c-2.2,0-4-1.8-4-4l-0.1-2.5C0,50.3,1.9,52.1,4.2,52.1z"/>
<polygon fill="#1A476F" points="30,52.1 30,54.7 4.2,54.7 3.6,51.3 "/>
<path fill="#2D72B8" d="M52.5,24.1c-3.8-1.3-10.1-1.4-11.8-1.4c-5.2,0.1-11.2,1.3-12.2,2.8v0.3v1v24.8c0,0.5,1,1.1,1.5,1.4H4
	c-2.2,0-4-1.801-4-4V4c0-2.2,1.8-4,4-4h44.7c2.2,0,4,1.8,4,4"/>
<path fill="#2D72B8" d="M52.8,34.7V51.8c0,0.899-3,2.5-10.101,2.5c-3.899,0-6.899-0.5-8.8-1c-1.4-0.5-2.4-1-2.5-1.4v-17
	c2.1,1.3,6.4,2,10.6,2H42.3c0.399,0,0.899,0,1.3,0h0.2c0.399,0,0.699,0,1.1-0.1c0.2,0,0.4,0,0.5,0c0.3,0,0.6,0,0.8-0.101
	c0.2,0,0.3,0,0.5-0.1c0.3,0,0.601-0.1,0.9-0.1C49.9,36,51.7,35.4,52.8,34.7z"/>
<polygon fill="#FFFFFF" points="42.1,48.4 42.1,48.4 39.8,38.9 36.6,38.9 36.6,51.7 38.5,51.7 38.5,41.1 38.6,41.1 41.2,51.7 
	42.9,51.7 45.5,41.1 45.6,41.1 45.6,51.7 47.5,51.7 47.5,38.9 44.4,38.9 "/>
</svg>
