<?xml version="1.0" encoding="utf-8"?>
<!-- Generator: Adobe Illustrator 12.0.0, SVG Export Plug-In  -->
<!DOCTYPE svg PUBLIC "-//W3C//DTD SVG 1.1//EN" "http://www.w3.org/Graphics/SVG/1.1/DTD/svg11.dtd" [
	<!ENTITY ns_flows "http://ns.adobe.com/Flows/1.0/">
	<!ENTITY ns_svg "http://www.w3.org/2000/svg">
	<!ENTITY ns_xlink "http://www.w3.org/1999/xlink">
]>
<svg  version="1.1" xmlns="&ns_svg;" xmlns:xlink="&ns_xlink;" xmlns:a="http://ns.adobe.com/AdobeSVGViewerExtensions/3.0/"
	 width="100" height="100" viewBox="-25.2 -22 100 100" enable-background="new -25.2 -22 100 100" xml:space="preserve">
<defs>
</defs>
<path fill="#1A476F" d="M24,10.3v2.5c-0.1-0.1-0.1-0.2-0.1-0.3V10C24,10.2,24,10.2,24,10.3"/>
<path fill="#1A476F" d="M24,12.6v-2.5c0,0.1,0,0.2,0.1,0.3v2.5C24,12.7,24,12.6,24,12.6z"/>
<polygon fill="#1A476F" points="30.899,10.1 30.7,12.8 25.399,12.8 25.2,10.2 "/>
<path fill="#1A476F" d="M34.2,10.5V13c-0.301,0.4-0.801,0.7-1.4,0.7v-2.5C33.399,11.2,33.899,10.9,34.2,10.5"/>
<path fill="#1A476F" d="M34.2,10.5V13c-0.301,0.4-0.801,0.7-1.4,0.7v-2.5C33.399,11.2,33.899,10.9,34.2,10.5z"/>
<polygon fill="#1A476F" points="38.2,13.4 38.2,15.9 34.2,13 33.399,9.8 "/>
<polygon fill="#1A476F" points="25.399,10.3 25.399,12.8 19.2,20.3 19.2,17.8 "/>
<polygon fill="#1A476F" points="34.2,18.1 34.2,20.5 30.7,12.8 30.7,10.3 "/>
<polygon fill="#1A476F" points="39.101,18.6 38.2,21.6 37,22 37,19.6 "/>
<polygon fill="#1A476F" points="47.899,21.3 47.399,24 45.3,24 45.3,21.5 "/>
<rect x="42.101" y="21.5" fill="#1A476F" width="0.399" height="2.5"/>
<path fill="#1A476F" d="M49.5,20v2.5c0,0.1,0,0.2-0.101,0.2v-2.5C49.5,20.2,49.5,20.1,49.5,20"/>
<path fill="#1A476F" d="M49.399,20.3v2.5c0,0.1-0.101,0.2-0.101,0.3v-2.5C49.399,20.4,49.399,20.4,49.399,20.3"/>
<path fill="#1A476F" d="M49.3,20.5V23c-0.3,0.6-1.1,1-1.9,1v-2.5C48.2,21.5,49,21.2,49.3,20.5"/>
<path fill="#1A476F" d="M49.5,19.8v2.5c0,1-1,1.7-2.101,1.7v-2.5C48.5,21.5,49.5,20.9,49.5,19.8z"/>
<path fill="#1A476F" d="M40,21.7v2.5c-1-0.1-1.8-0.9-1.8-1.9v-2.5C38.2,20.8,39,21.6,40,21.7"/>
<path fill="#1A476F" d="M40,21.7v2.5c-1-0.1-1.8-0.9-1.8-1.9v-2.5C38.2,20.8,39,21.6,40,21.7z"/>
<polygon fill="#1A476F" points="35,20.2 35,22.7 19.9,28 19.9,25.5 "/>
<polygon fill="#1A476F" points="37.8,25.8 37.8,28.3 34.899,22.3 34.7,19.3 "/>
<polygon fill="#1A476F" points="42.399,20.5 42.101,24 40.101,28.3 40.101,25.9 "/>
<polygon fill="#1A476F" points="39.899,29.7 39.899,32.2 39,30.4 38.8,27.1 "/>
<polygon fill="#1A476F" points="39,27.9 39,30.4 36.601,35.4 36.601,32.9 "/>
<polygon fill="#1A476F" points="33.601,34.2 33.601,36.7 19.9,34 19.9,31.5 "/>
<polygon fill="#1A476F" points="38.2,35.2 38.2,37.6 35.7,37.1 35.2,34.4 "/>
<path fill="#1A476F" d="M19.9,34.3v2.5c0,0.2,0,0.3,0,0.5v-2.5C19.8,34.6,19.9,34.5,19.9,34.3"/>
<path fill="#1A476F" d="M19.8,34.8v2.5c0,0.2-0.1,0.3-0.1,0.5v-2.5C19.8,35.1,19.8,35,19.8,34.8"/>
<path fill="#1A476F" d="M19.7,35.3v2.5c-0.1,0.2-0.1,0.3-0.2,0.5v-2.5C19.6,35.6,19.7,35.4,19.7,35.3"/>
<path fill="#1A476F" d="M19.5,35.7v2.5c-0.2,0.399-0.6,0.8-1,1v-2.5C18.9,36.5,19.3,36.2,19.5,35.7"/>
<path fill="#1A476F" d="M19.9,34.3v2.5c0,1.101-0.5,1.9-1.4,2.4v-2.5C19.4,36.3,19.9,35.4,19.9,34.3z"/>
<path fill="#1A476F" d="M3.1,37v2.5c-1.6,0-3.1-1.1-3.1-2.7v-2.5C0.1,35.9,1.6,37,3.1,37"/>
<path fill="#1A476F" d="M3.1,37v2.5c-1.6,0-3.1-1.1-3.1-2.7v-2.5C0.1,35.9,1.6,37,3.1,37z"/>
<polygon fill="#1A476F" points="16.4,37 16.4,39.5 3.1,39.5 2.6,36.5 "/>
<polygon fill="#1A476F" points="48,39.7 47.399,42.3 40.101,42.3 39.601,39.6 "/>
<path fill="#1A476F" d="M49.5,39.2v2.5c0,0,0,0.1-0.101,0.1L49.5,39.2C49.399,39.3,49.5,39.3,49.5,39.2"/>
<path fill="#1A476F" d="M49.399,39.3v2.5C49.2,42.2,48.601,42.2,48,42.2c-0.2,0-0.399,0-0.601,0v-2.5c0.199,0,0.399,0,0.601,0
	C48.7,39.8,49.2,39.7,49.399,39.3"/>
<path fill="#1A476F" d="M49.5,38.9v2.5c0,0.8-0.7,0.898-1.5,0.898c-0.2,0-0.399,0-0.601,0v-2.5c0.199,0,0.399,0,0.601,0
	C48.8,39.8,49.5,39.7,49.5,38.9z"/>
<path fill="#1A476F" d="M40.101,39.8v2.5C39.8,42.3,39.3,42.5,39,42.5c-0.101,0-0.2,0-0.3-0.1v-2.5C38.8,40,38.899,40,39,40
	C39.3,40,39.8,39.8,40.101,39.8"/>
<path fill="#1A476F" d="M40.101,39.8v2.5C39.8,42.3,39.3,42.5,39,42.5c-0.101,0-0.2,0-0.3-0.1v-2.5C38.8,40,38.899,40,39,40
	C39.3,40,39.8,39.8,40.101,39.8z"/>
<polygon fill="#1A476F" points="35.7,34.6 35.7,37.1 32.399,43.7 32.399,41.2 "/>
<polygon fill="#1A476F" points="39.3,39.1 38.7,42.4 34,46.4 34,44 "/>
<polygon fill="#1A476F" points="24.1,44.5 24.1,47 16.4,39.5 15.9,36.1 "/>
<path fill="#1A476F" d="M25.3,52.4v2.5C24.2,54.9,24,54.1,24,53v-2.5C24.1,51.6,24.3,52.4,25.3,52.4"/>
<path fill="#1A476F" d="M25.3,52.4v2.5C24.2,54.9,24,54.1,24,53v-2.5C24.1,51.6,24.3,52.4,25.3,52.4z"/>
<path fill="#1A476F" d="M33.899,51.2v2.5c0,0.1,0,0.3-0.101,0.399v-2.5C33.899,51.4,33.899,51.3,33.899,51.2"/>
<path fill="#1A476F" d="M33.899,51.6V54c0,0.1-0.101,0.2-0.101,0.3v-2.5C33.8,51.8,33.8,51.7,33.899,51.6"/>
<path fill="#1A476F" d="M33.7,51.8v2.5c-0.2,0.3-0.5,0.601-1.1,0.601v-2.5C33.2,52.4,33.5,52.2,33.7,51.8"/>
<path fill="#1A476F" d="M34,50.5V53c0,1-0.3,1.9-1.3,1.9v-2.5C33.7,52.4,34,51.6,34,50.5z"/>
<polygon fill="#1A476F" points="33.3,52 32.7,54.9 25.3,54.9 25.1,52.1 "/>
<path fill="#2D72B8" d="M47.399,22.5H45.2V31h2.199c1,0,2.101,0.6,2.101,1.6V39.9c0,0.8-0.7,0.898-1.5,0.898c-0.2,0-0.399,0-0.601,0
	h-7.301c-0.3,0-0.8,0.2-1.1,0.2c-0.102,0-0.2,0-0.3-0.101L34,45v6.6c0,1-0.3,1.9-1.3,1.9h-7.301c-1.101,0-1.3-0.8-1.3-1.9v-6
	L16.4,38H3.1C1.5,38,0,36.9,0,35.3v-14c0-1.6,1.5-3,3.1-3h14.1l0.4,0.1l6.4-7.1c-0.2-0.3,0-0.6,0-1V3c0-1,0.2-3,1.3-3h7.301
	c1,0,1.299,1.9,1.299,3v6.4l4.302,2.7c0.3-0.4,1.198-0.9,1.8-0.9h7.3c1,0,2.101,1.2,2.101,2.2v7.3C49.5,21.9,48.5,22.5,47.399,22.5z
	 M37.8,26.8L35,21.2l-15.2,5.3v4.1l14.6,2.9L37.8,26.8 M25.399,11.3l-6.3,7.5c0.5,0.5,0.7,1.7,0.7,2.5v3.2L34.101,19l-3.5-7.7
	H25.399 M25.3,42.2h4.9l3.398-7l-13.8-2.7v2.8c0,1.101-0.5,1.9-1.4,2.4l5.3,5.3C24.1,42.6,24.7,42.2,25.3,42.2 M38.2,39.6v-3.5
	l-2.5-0.6l-3.301,6.6H32.7c0.5,0,1,0.301,1.398,0.7L38.2,39.6 M34.2,11.5c-0.301,0.4-0.801,0.7-1.4,0.7l3.301,6.6l2.101-0.7v-3.8
	L34.2,11.5 M42.5,31v-8.4h-0.399l-2,4.3L42,31H42.5 M38.2,32.6c0-1,0.699-1.8,1.699-1.898L39,28.9l-2.399,5l1.601,0.3L38.2,32.6
	 M39,24.7l1-2c-1-0.1-1.8-0.9-1.8-1.9v-0.7L37,20.5L39,24.7"/>
<path fill="#FFFFFF" stroke="#19486F" stroke-miterlimit="10" d="M30.3,31.1c0,2.2-1.8,4-4,4h-18c-2.2,0-4-1.8-4-4v-6
	c0-2.2,1.8-4,4-4h18c2.2,0,4,1.8,4,4V31.1z"/>
<text transform="matrix(1 0 0 1 5.6538 32.0088)" fill="#2D72B8" font-family="'ArialMT'" font-size="11">DW1</text>
</svg>
