<?xml version="1.0" encoding="utf-8"?>
<!-- Generator: Adobe Illustrator 12.0.0, SVG Export Plug-In  -->
<!DOCTYPE svg PUBLIC "-//W3C//DTD SVG 1.1//EN" "http://www.w3.org/Graphics/SVG/1.1/DTD/svg11.dtd" [
	<!ENTITY ns_flows "http://ns.adobe.com/Flows/1.0/">
	<!ENTITY ns_svg "http://www.w3.org/2000/svg">
	<!ENTITY ns_xlink "http://www.w3.org/1999/xlink">
]>
<svg  version="1.1" xmlns="&ns_svg;" xmlns:xlink="&ns_xlink;" xmlns:a="http://ns.adobe.com/AdobeSVGViewerExtensions/3.0/"
	 width="100" height="100" viewBox="0 10.044 100 100" enable-background="new 0 10.044 100 100" xml:space="preserve">
<defs>
</defs>
<polygon fill="#F58536" points="30.143,80.996 23.174,82.586 23.174,37.453 30.143,39.046 "/>
<polygon fill="#F58536" points="38.838,83.66 30.143,86.131 30.143,33.97 38.838,36.438 "/>
<polygon fill="#F58536" points="49.992,86.397 38.838,90.479 38.838,29.622 49.992,33.702 "/>
<polygon fill="#F58536" points="79.816,81.132 49.992,96.044 49.992,24.044 79.816,38.956 "/>
<polygon fill="#9D5025" points="44.047,27.017 49.992,24.044 49.992,96.044 44.047,93.071 "/>
<polygon fill="#9D5025" points="34.236,31.922 38.838,29.621 38.838,90.467 34.236,88.166 "/>
<polygon fill="#9D5025" points="26.477,35.802 30.143,33.969 30.143,86.119 26.477,84.285 "/>
<polygon fill="#9D5025" points="23.174,37.453 20.184,38.948 20.184,81.142 23.174,82.635 "/>
<text transform="matrix(1 0 0 1 0 10.0439)" display="none" enable-background="new    " font-family="'MyriadPro-Regular'" font-size="12">&lt;</text>
<text transform="matrix(1 0 0 1 7.1519 10.0439)" display="none" enable-background="new    " font-family="'MyriadPro-Regular'" font-size="12">n</text>
<text transform="matrix(1 0 0 1 13.6558 10.0439)" display="none" enable-background="new    " font-family="'MyriadPro-Regular'" font-size="12">y</text>
<text transform="matrix(1 0 0 1 19.3076 10.0439)" display="none" enable-background="new    " font-family="'MyriadPro-Regular'" font-size="12">t</text>
<text transform="matrix(1 0 0 1 23.2798 10.0439)" display="none" enable-background="new    " font-family="'MyriadPro-Regular'" font-size="12">_</text>
<text transform="matrix(1 0 0 1 29.2798 10.0439)" display="none" enable-background="new    " font-family="'MyriadPro-Regular'" font-size="12">p</text>
<text transform="matrix(1 0 0 1 36.1074 10.0439)" display="none" enable-background="new    " font-family="'MyriadPro-Regular'" font-size="12">r</text>
<text transform="matrix(1 0 0 1 39.9111 10.0439)" display="none" enable-background="new    " font-family="'MyriadPro-Regular'" font-size="12">e</text>
<text transform="matrix(1 0 0 1 45.9229 10.0439)" display="none" enable-background="new    " font-family="'MyriadPro-Regular'" font-size="12">f</text>
<text transform="matrix(1 0 0 1 49.3188 10.0439)" display="none" enable-background="new    " font-family="'MyriadPro-Regular'" font-size="12">s</text>
<text transform="matrix(1 0 0 1 54.0713 10.0439)" display="none" enable-background="new    " font-family="'MyriadPro-Regular'" font-size="12">&gt;</text>
<text transform="matrix(1 0 0 1 0 24.4443)" display="none" enable-background="new    " font-family="'MyriadPro-Regular'" font-size="12"> </text>
<text transform="matrix(1 0 0 1 2.5439 24.4443)" display="none" enable-background="new    " font-family="'MyriadPro-Regular'" font-size="12"> </text>
<text transform="matrix(1 0 0 1 5.0879 24.4443)" display="none" enable-background="new    " font-family="'MyriadPro-Regular'" font-size="12">&lt;</text>
<text transform="matrix(1 0 0 1 12.2397 24.4443)" display="none" enable-background="new    " font-family="'MyriadPro-Regular'" font-size="12">n</text>
<text transform="matrix(1 0 0 1 18.7437 24.4443)" display="none" enable-background="new    " font-family="'MyriadPro-Regular'" font-size="12">y</text>
<text transform="matrix(1 0 0 1 24.3955 24.4443)" display="none" enable-background="new    " font-family="'MyriadPro-Regular'" font-size="12">t</text>
<text transform="matrix(1 0 0 1 28.3677 24.4443)" display="none" enable-background="new    " font-family="'MyriadPro-Regular'" font-size="12">_</text>
<text transform="matrix(1 0 0 1 34.3677 24.4443)" display="none" enable-background="new    " font-family="'MyriadPro-Regular'" font-size="12">p</text>
<text transform="matrix(1 0 0 1 41.1953 24.4443)" display="none" enable-background="new    " font-family="'MyriadPro-Regular'" font-size="12">r</text>
<text transform="matrix(1 0 0 1 44.999 24.4443)" display="none" enable-background="new    " font-family="'MyriadPro-Regular'" font-size="12">e</text>
<text transform="matrix(1 0 0 1 51.0117 24.4443)" display="none" enable-background="new    " font-family="'MyriadPro-Regular'" font-size="12">f</text>
<text transform="matrix(1 0 0 1 57.2881 24.4443)" display="none" enable-background="new    " font-family="'MyriadPro-Regular'" font-size="12">i</text>
<text transform="matrix(1 0 0 1 62.8438 24.4443)" display="none" enable-background="new    " font-family="'MyriadPro-Regular'" font-size="12">x</text>
<text transform="matrix(1 0 0 1 69.9961 24.4443)" display="none" enable-background="new    " font-family="'MyriadPro-Regular'" font-size="12">&gt;</text>
<text transform="matrix(1 0 0 1 77.1484 24.4443)" display="none" enable-background="new    " font-family="'MyriadPro-Regular'" font-size="12">&lt;</text>
<text transform="matrix(1 0 0 1 81.2646 24.4443)" display="none" enable-background="new    " font-family="'MyriadPro-Regular'" font-size="12">n</text>
<text transform="matrix(1 0 0 1 87.7686 24.4443)" display="none" enable-background="new    " font-family="'MyriadPro-Regular'" font-size="12">y</text>
<text transform="matrix(1 0 0 1 93.4209 24.4443)" display="none" enable-background="new    " font-family="'MyriadPro-Regular'" font-size="12">t</text>
<text transform="matrix(1 0 0 1 97.3926 24.4443)" display="none" enable-background="new    " font-family="'MyriadPro-Regular'" font-size="12">_</text>
<text transform="matrix(1 0 0 1 0 38.8438)" display="none" enable-background="new    " font-family="'MyriadPro-Regular'" font-size="12"> </text>
<text transform="matrix(1 0 0 1 2.5439 38.8438)" display="none" enable-background="new    " font-family="'MyriadPro-Regular'" font-size="12"> </text>
<text transform="matrix(1 0 0 1 5.0879 38.8438)" display="none" enable-background="new    " font-family="'MyriadPro-Regular'" font-size="12">&lt;</text>
<text transform="matrix(1 0 0 1 12.2397 38.8438)" display="none" enable-background="new    " font-family="'MyriadPro-Regular'" font-size="12">n</text>
<text transform="matrix(1 0 0 1 18.7437 38.8438)" display="none" enable-background="new    " font-family="'MyriadPro-Regular'" font-size="12">y</text>
<text transform="matrix(1 0 0 1 24.3955 38.8438)" display="none" enable-background="new    " font-family="'MyriadPro-Regular'" font-size="12">t</text>
<text transform="matrix(1 0 0 1 28.3677 38.8438)" display="none" enable-background="new    " font-family="'MyriadPro-Regular'" font-size="12">_</text>
<text transform="matrix(1 0 0 1 34.3677 38.8438)" display="none" enable-background="new    " font-family="'MyriadPro-Regular'" font-size="12">s</text>
<text transform="matrix(1 0 0 1 39.1196 38.8438)" display="none" enable-background="new    " font-family="'MyriadPro-Regular'" font-size="12">u</text>
<text transform="matrix(1 0 0 1 45.7314 38.8438)" display="none" enable-background="new    " font-family="'MyriadPro-Regular'" font-size="12">f</text>
<text transform="matrix(1 0 0 1 55.5107 38.8438)" display="none" enable-background="new    " font-family="'MyriadPro-Regular'" font-size="12">f</text>
<text transform="matrix(1 0 0 1 61.0664 38.8438)" display="none" enable-background="new    " font-family="'MyriadPro-Regular'" font-size="12">i</text>
<text transform="matrix(1 0 0 1 68.2188 38.8438)" display="none" enable-background="new    " font-family="'MyriadPro-Regular'" font-size="12">x</text>
<text transform="matrix(1 0 0 1 75.3711 38.8438)" display="none" enable-background="new    " font-family="'MyriadPro-Regular'" font-size="12">&gt;</text>
<text transform="matrix(1 0 0 1 79.4873 38.8438)" display="none" enable-background="new    " font-family="'MyriadPro-Regular'" font-size="12">n</text>
<text transform="matrix(1 0 0 1 85.9922 38.8438)" display="none" enable-background="new    " font-family="'MyriadPro-Regular'" font-size="12">y</text>
<text transform="matrix(1 0 0 1 91.6445 38.8438)" display="none" enable-background="new    " font-family="'MyriadPro-Regular'" font-size="12">t</text>
<text transform="matrix(1 0 0 1 95.6162 38.8438)" display="none" enable-background="new    " font-family="'MyriadPro-Regular'" font-size="12">_</text>
<text transform="matrix(1 0 0 1 68.2188 38.8438)" display="none" enable-background="new    " font-family="'MyriadPro-Regular'" font-size="12">x</text>
<text transform="matrix(1 0 0 1 75.3711 38.8438)" display="none" enable-background="new    " font-family="'MyriadPro-Regular'" font-size="12">&gt;</text>
<text transform="matrix(1 0 0 1 0 53.2441)" display="none" enable-background="new    " font-family="'MyriadPro-Regular'" font-size="12"> </text>
<text transform="matrix(1 0 0 1 2.5439 53.2441)" display="none" enable-background="new    " font-family="'MyriadPro-Regular'" font-size="12"> </text>
<text transform="matrix(1 0 0 1 5.0879 53.2441)" display="none" enable-background="new    " font-family="'MyriadPro-Regular'" font-size="12">&lt;</text>
<text transform="matrix(1 0 0 1 12.2397 53.2441)" display="none" enable-background="new    " font-family="'MyriadPro-Regular'" font-size="12">n</text>
<text transform="matrix(1 0 0 1 18.7437 53.2441)" display="none" enable-background="new    " font-family="'MyriadPro-Regular'" font-size="12">y</text>
<text transform="matrix(1 0 0 1 24.3955 53.2441)" display="none" enable-background="new    " font-family="'MyriadPro-Regular'" font-size="12">t</text>
<text transform="matrix(1 0 0 1 28.3677 53.2441)" display="none" enable-background="new    " font-family="'MyriadPro-Regular'" font-size="12">_</text>
<text transform="matrix(1 0 0 1 34.3677 53.2441)" display="none" enable-background="new    " font-family="'MyriadPro-Regular'" font-size="12">b</text>
<text transform="matrix(1 0 0 1 41.1953 53.2441)" display="none" enable-background="new    " font-family="'MyriadPro-Regular'" font-size="12">a</text>
<text transform="matrix(1 0 0 1 46.979 53.2441)" display="none" enable-background="new    " font-family="'MyriadPro-Regular'" font-size="12">s</text>
<text transform="matrix(1 0 0 1 51.7305 53.2441)" display="none" enable-background="new    " font-family="'MyriadPro-Regular'" font-size="12">e</text>
<text transform="matrix(1 0 0 1 57.7422 53.2441)" display="none" enable-background="new    " font-family="'MyriadPro-Regular'" font-size="12">_</text>
<text transform="matrix(1 0 0 1 63.7422 53.2441)" display="none" enable-background="new    " font-family="'MyriadPro-Regular'" font-size="12">p</text>
<text transform="matrix(1 0 0 1 70.5703 53.2441)" display="none" enable-background="new    " font-family="'MyriadPro-Regular'" font-size="12">a</text>
<text transform="matrix(1 0 0 1 76.3066 53.2441)" display="none" enable-background="new    " font-family="'MyriadPro-Regular'" font-size="12">t</text>
<text transform="matrix(1 0 0 1 80.2783 53.2441)" display="none" enable-background="new    " font-family="'MyriadPro-Regular'" font-size="12">h</text>
<text transform="matrix(1 0 0 1 86.9385 53.2441)" display="none" enable-background="new    " font-family="'MyriadPro-Regular'" font-size="12">&gt;</text>
<text transform="matrix(1 0 0 1 94.0908 53.2441)" display="none" enable-background="new    " font-family="'MyriadPro-Regular'" font-size="12">~</text>
<text transform="matrix(1 0 0 1 0 67.6436)" display="none" enable-background="new    " font-family="'MyriadPro-Regular'" font-size="12"> </text>
<text transform="matrix(1 0 0 1 2.5439 67.6436)" display="none" enable-background="new    " font-family="'MyriadPro-Regular'" font-size="12"> </text>
<text transform="matrix(1 0 0 1 5.0879 67.6436)" display="none" enable-background="new    " font-family="'MyriadPro-Regular'" font-size="12">&lt;</text>
<text transform="matrix(1 0 0 1 12.2397 67.6436)" display="none" enable-background="new    " font-family="'MyriadPro-Regular'" font-size="12">n</text>
<text transform="matrix(1 0 0 1 18.7437 67.6436)" display="none" enable-background="new    " font-family="'MyriadPro-Regular'" font-size="12">y</text>
<text transform="matrix(1 0 0 1 24.3955 67.6436)" display="none" enable-background="new    " font-family="'MyriadPro-Regular'" font-size="12">t</text>
<text transform="matrix(1 0 0 1 28.3677 67.6436)" display="none" enable-background="new    " font-family="'MyriadPro-Regular'" font-size="12">_</text>
<text transform="matrix(1 0 0 1 34.3677 67.6436)" display="none" enable-background="new    " font-family="'MyriadPro-Regular'" font-size="12">s</text>
<text transform="matrix(1 0 0 1 39.1196 67.6436)" display="none" enable-background="new    " font-family="'MyriadPro-Regular'" font-size="12">c</text>
<text transform="matrix(1 0 0 1 44.4956 67.6436)" display="none" enable-background="new    " font-family="'MyriadPro-Regular'" font-size="12">a</text>
<text transform="matrix(1 0 0 1 50.2798 67.6436)" display="none" enable-background="new    " font-family="'MyriadPro-Regular'" font-size="12">l</text>
<text transform="matrix(1 0 0 1 53.1113 67.6436)" display="none" enable-background="new    " font-family="'MyriadPro-Regular'" font-size="12">i</text>
<text transform="matrix(1 0 0 1 55.9189 67.6436)" display="none" enable-background="new    " font-family="'MyriadPro-Regular'" font-size="12">n</text>
<text transform="matrix(1 0 0 1 62.5791 67.6436)" display="none" enable-background="new    " font-family="'MyriadPro-Regular'" font-size="12">g</text>
<text transform="matrix(1 0 0 1 69.2871 67.6436)" display="none" enable-background="new    " font-family="'MyriadPro-Regular'" font-size="12">&gt;</text>
<text transform="matrix(1 0 0 1 76.4395 67.6436)" display="none" enable-background="new    " font-family="'MyriadPro-Regular'" font-size="12">1</text>
<text transform="matrix(1 0 0 1 82.5957 67.6436)" display="none" enable-background="new    " font-family="'MyriadPro-Regular'" font-size="12">0</text>
<text transform="matrix(1 0 0 1 88.752 67.6436)" display="none" enable-background="new    " font-family="'MyriadPro-Regular'" font-size="12">0</text>
<text transform="matrix(1 0 0 1 94.9082 67.6436)" display="none" enable-background="new    " font-family="'MyriadPro-Regular'" font-size="12">&lt;</text>
<text transform="matrix(1 0 0 1 0 82.0439)" display="none" enable-background="new    " font-family="'MyriadPro-Regular'" font-size="12"> </text>
<text transform="matrix(1 0 0 1 2.5439 82.0439)" display="none" enable-background="new    " font-family="'MyriadPro-Regular'" font-size="12"> </text>
<text transform="matrix(1 0 0 1 5.0879 82.0439)" display="none" enable-background="new    " font-family="'MyriadPro-Regular'" font-size="12">&lt;</text>
<text transform="matrix(1 0 0 1 12.2397 82.0439)" display="none" enable-background="new    " font-family="'MyriadPro-Regular'" font-size="12">n</text>
<text transform="matrix(1 0 0 1 18.7437 82.0439)" display="none" enable-background="new    " font-family="'MyriadPro-Regular'" font-size="12">y</text>
<text transform="matrix(1 0 0 1 24.3955 82.0439)" display="none" enable-background="new    " font-family="'MyriadPro-Regular'" font-size="12">t</text>
<text transform="matrix(1 0 0 1 28.3677 82.0439)" display="none" enable-background="new    " font-family="'MyriadPro-Regular'" font-size="12">_</text>
<text transform="matrix(1 0 0 1 34.3677 82.0439)" display="none" enable-background="new    " font-family="'MyriadPro-Regular'" font-size="12">t</text>
<text transform="matrix(1 0 0 1 38.3394 82.0439)" display="none" enable-background="new    " font-family="'MyriadPro-Regular'" font-size="12">r</text>
<text transform="matrix(1 0 0 1 42.2031 82.0439)" display="none" enable-background="new    " font-family="'MyriadPro-Regular'" font-size="12">a</text>
<text transform="matrix(1 0 0 1 47.9873 82.0439)" display="none" enable-background="new    " font-family="'MyriadPro-Regular'" font-size="12">n</text>
<text transform="matrix(1 0 0 1 54.6475 82.0439)" display="none" enable-background="new    " font-family="'MyriadPro-Regular'" font-size="12">s</text>
<text transform="matrix(1 0 0 1 59.3994 82.0439)" display="none" enable-background="new    " font-family="'MyriadPro-Regular'" font-size="12">p</text>
<text transform="matrix(1 0 0 1 66.2275 82.0439)" display="none" enable-background="new    " font-family="'MyriadPro-Regular'" font-size="12">a</text>
<text transform="matrix(1 0 0 1 72.0117 82.0439)" display="none" enable-background="new    " font-family="'MyriadPro-Regular'" font-size="12">r</text>
<text transform="matrix(1 0 0 1 75.8154 82.0439)" display="none" enable-background="new    " font-family="'MyriadPro-Regular'" font-size="12">e</text>
<text transform="matrix(1 0 0 1 81.8271 82.0439)" display="none" enable-background="new    " font-family="'MyriadPro-Regular'" font-size="12">n</text>
<text transform="matrix(1 0 0 1 88.4873 82.0439)" display="none" enable-background="new    " font-family="'MyriadPro-Regular'" font-size="12">c</text>
<text transform="matrix(1 0 0 1 94.0791 82.0439)" display="none" enable-background="new    " font-family="'MyriadPro-Regular'" font-size="12">y</text>
<text transform="matrix(1 0 0 1 99.7314 82.0439)" display="none" enable-background="new    " font-family="'MyriadPro-Regular'" font-size="12">&gt;</text>
<text transform="matrix(1 0 0 1 0 96.4443)" display="none" enable-background="new    " font-family="'MyriadPro-Regular'" font-size="12"> </text>
<text transform="matrix(1 0 0 1 2.5439 96.4443)" display="none" enable-background="new    " font-family="'MyriadPro-Regular'" font-size="12"> </text>
<text transform="matrix(1 0 0 1 5.0879 96.4443)" display="none" enable-background="new    " font-family="'MyriadPro-Regular'" font-size="12">&lt;</text>
<text transform="matrix(1 0 0 1 12.2397 96.4443)" display="none" enable-background="new    " font-family="'MyriadPro-Regular'" font-size="12">n</text>
<text transform="matrix(1 0 0 1 18.7437 96.4443)" display="none" enable-background="new    " font-family="'MyriadPro-Regular'" font-size="12">y</text>
<text transform="matrix(1 0 0 1 24.3955 96.4443)" display="none" enable-background="new    " font-family="'MyriadPro-Regular'" font-size="12">t</text>
<text transform="matrix(1 0 0 1 28.3677 96.4443)" display="none" enable-background="new    " font-family="'MyriadPro-Regular'" font-size="12">_</text>
<text transform="matrix(1 0 0 1 34.3677 96.4443)" display="none" enable-background="new    " font-family="'MyriadPro-Regular'" font-size="12">f</text>
<text transform="matrix(1 0 0 1 37.7158 96.4443)" display="none" enable-background="new    " font-family="'MyriadPro-Regular'" font-size="12">o</text>
<text transform="matrix(1 0 0 1 44.3037 96.4443)" display="none" enable-background="new    " font-family="'MyriadPro-Regular'" font-size="12">r</text>
<text transform="matrix(1 0 0 1 48.2754 96.4443)" display="none" enable-background="new    " font-family="'MyriadPro-Regular'" font-size="12">m</text>
<text transform="matrix(1 0 0 1 58.2832 96.4443)" display="none" enable-background="new    " font-family="'MyriadPro-Regular'" font-size="12">a</text>
<text transform="matrix(1 0 0 1 64.0195 96.4443)" display="none" enable-background="new    " font-family="'MyriadPro-Regular'" font-size="12">t</text>
<text transform="matrix(1 0 0 1 67.9912 96.4443)" display="none" enable-background="new    " font-family="'MyriadPro-Regular'" font-size="12">&gt;</text>
<text transform="matrix(1 0 0 1 75.1436 96.4443)" display="none" enable-background="new    " font-family="'MyriadPro-Regular'" font-size="12">E</text>
<text transform="matrix(1 0 0 1 81.0479 96.4443)" display="none" enable-background="new    " font-family="'MyriadPro-Regular'" font-size="12">P</text>
<text transform="matrix(1 0 0 1 87.4316 96.4443)" display="none" enable-background="new    " font-family="'MyriadPro-Regular'" font-size="12">S</text>
<text transform="matrix(1 0 0 1 93.3477 96.4443)" display="none" enable-background="new    " font-family="'MyriadPro-Regular'" font-size="12">&lt;</text>
<text transform="matrix(1 0 0 1 0 110.8438)" display="none" enable-background="new    " font-family="'MyriadPro-Regular'" font-size="12"> </text>
<text transform="matrix(1 0 0 1 2.5439 110.8438)" display="none" enable-background="new    " font-family="'MyriadPro-Regular'" font-size="12"> </text>
<text transform="matrix(1 0 0 1 5.0879 110.8438)" display="none" enable-background="new    " font-family="'MyriadPro-Regular'" font-size="12">&lt;</text>
<text transform="matrix(1 0 0 1 12.2397 110.8438)" display="none" enable-background="new    " font-family="'MyriadPro-Regular'" font-size="12">n</text>
<text transform="matrix(1 0 0 1 18.7437 110.8438)" display="none" enable-background="new    " font-family="'MyriadPro-Regular'" font-size="12">y</text>
<text transform="matrix(1 0 0 1 24.3955 110.8438)" display="none" enable-background="new    " font-family="'MyriadPro-Regular'" font-size="12">t</text>
<text transform="matrix(1 0 0 1 28.3677 110.8438)" display="none" enable-background="new    " font-family="'MyriadPro-Regular'" font-size="12">_</text>
<text transform="matrix(1 0 0 1 34.3677 110.8438)" display="none" enable-background="new    " font-family="'MyriadPro-Regular'" font-size="12">e</text>
<text transform="matrix(1 0 0 1 40.3433 110.8438)" display="none" enable-background="new    " font-family="'MyriadPro-Regular'" font-size="12">x</text>
<text transform="matrix(1 0 0 1 45.8994 110.8438)" display="none" enable-background="new    " font-family="'MyriadPro-Regular'" font-size="12">p</text>
<text transform="matrix(1 0 0 1 52.7275 110.8438)" display="none" enable-background="new    " font-family="'MyriadPro-Regular'" font-size="12">o</text>
<text transform="matrix(1 0 0 1 59.3154 110.8438)" display="none" enable-background="new    " font-family="'MyriadPro-Regular'" font-size="12">r</text>
<text transform="matrix(1 0 0 1 63.5264 110.8438)" display="none" enable-background="new    " font-family="'MyriadPro-Regular'" font-size="12">t</text>
<text transform="matrix(1 0 0 1 67.498 110.8438)" display="none" enable-background="new    " font-family="'MyriadPro-Regular'" font-size="12">_</text>
<text transform="matrix(1 0 0 1 73.498 110.8438)" display="none" enable-background="new    " font-family="'MyriadPro-Regular'" font-size="12">c</text>
<text transform="matrix(1 0 0 1 78.8027 110.8438)" display="none" enable-background="new    " font-family="'MyriadPro-Regular'" font-size="12">o</text>
<text transform="matrix(1 0 0 1 85.3906 110.8438)" display="none" enable-background="new    " font-family="'MyriadPro-Regular'" font-size="12">d</text>
<text transform="matrix(1 0 0 1 92.1582 110.8438)" display="none" enable-background="new    " font-family="'MyriadPro-Regular'" font-size="12">e</text>
<text transform="matrix(1 0 0 1 98.1699 110.8438)" display="none" enable-background="new    " font-family="'MyriadPro-Regular'" font-size="12">&gt;</text>
</svg>
