<?xml version="1.0" encoding="utf-8"?>
<!-- Generator: Adobe Illustrator 12.0.0, SVG Export Plug-In  -->
<!DOCTYPE svg PUBLIC "-//W3C//DTD SVG 1.1//EN" "http://www.w3.org/Graphics/SVG/1.1/DTD/svg11.dtd" [
	<!ENTITY ns_flows "http://ns.adobe.com/Flows/1.0/">
	<!ENTITY ns_svg "http://www.w3.org/2000/svg">
	<!ENTITY ns_xlink "http://www.w3.org/1999/xlink">
]>
<svg  version="1.1" xmlns="&ns_svg;" xmlns:xlink="&ns_xlink;" xmlns:a="http://ns.adobe.com/AdobeSVGViewerExtensions/3.0/"
	 width="100" height="100" viewBox="-23.437 -21.616 100 100" enable-background="new -23.437 -21.616 100 100"
	 xml:space="preserve">
<defs>
</defs>
<path fill="#9D5025" d="M53.125,49.061v2.968c0,0.229-0.019,0.457-0.049,0.68v-2.967C53.108,49.52,53.125,49.291,53.125,49.061"/>
<path fill="#9D5025" d="M53.077,49.739v2.968c-0.039,0.264-0.098,0.52-0.178,0.768v-2.967C52.979,50.26,53.038,50.004,53.077,49.739
	"/>
<path fill="#9D5025" d="M52.899,50.508v2.967c-0.094,0.291-0.215,0.57-0.361,0.834v-2.967
	C52.684,51.077,52.805,50.799,52.899,50.508"/>
<path fill="#9D5025" d="M52.538,51.342v2.967c-0.809,1.466-2.371,2.459-4.174,2.459v-2.967
	C50.167,53.801,51.729,52.807,52.538,51.342"/>
<path fill="#9D5025" d="M53.125,49.061v2.968c0,2.614-2.127,4.739-4.763,4.739v-2.967C50.999,53.801,53.125,51.674,53.125,49.061z"
	/>
<path fill="#9D5025" d="M4.762,53.801v2.967C2.127,56.768,0,54.643,0,52.028v-2.968C0.001,51.674,2.127,53.801,4.762,53.801"/>
<path fill="#9D5025" d="M4.762,53.801v2.967C2.127,56.768,0,54.643,0,52.028v-2.968C0.001,51.674,2.127,53.801,4.762,53.801z"/>
<polygon fill="#9D5025" points="49.456,53.045 48.364,56.768 4.762,56.768 3.778,53.366 "/>
<path fill="#F58536" d="M48.364,0c2.635,0,4.762,2.125,4.762,4.741V49.06c0,2.613-2.127,4.74-4.762,4.74H4.762
	C2.127,53.8,0,51.673,0,49.06V4.741C0,2.125,2.127,0,4.762,0H48.364z"/>
<rect x="9.709" y="9.073" fill="#FFFFFF" width="33.668" height="15.868"/>
<rect x="12.28" y="11.696" fill="#F58536" width="7.986" height="10.627"/>
<rect x="22.547" y="11.696" fill="#F58536" width="7.991" height="10.627"/>
<rect x="32.819" y="11.696" fill="#F58536" width="7.99" height="10.627"/>
<rect x="9.709" y="30.325" fill="#FFFFFF" width="33.668" height="15.869"/>
<rect x="12.28" y="32.946" fill="#F58536" width="7.986" height="10.627"/>
<rect x="22.547" y="32.946" fill="#F58536" width="7.991" height="10.627"/>
<rect x="32.819" y="32.946" fill="#F58536" width="7.99" height="10.627"/>
</svg>
