<?xml version="1.0" encoding="utf-8"?>
<!-- Generator: Adobe Illustrator 12.0.0, SVG Export Plug-In  -->
<!DOCTYPE svg PUBLIC "-//W3C//DTD SVG 1.1//EN" "http://www.w3.org/Graphics/SVG/1.1/DTD/svg11.dtd" [
	<!ENTITY ns_flows "http://ns.adobe.com/Flows/1.0/">
	<!ENTITY ns_svg "http://www.w3.org/2000/svg">
	<!ENTITY ns_xlink "http://www.w3.org/1999/xlink">
]>
<svg  version="1.1" xmlns="&ns_svg;" xmlns:xlink="&ns_xlink;" xmlns:a="http://ns.adobe.com/AdobeSVGViewerExtensions/3.0/"
	 width="100" height="100" viewBox="-23.574 -21.531 100 100" enable-background="new -23.574 -21.531 100 100"
	 xml:space="preserve">
<defs>
</defs>
<path fill="#9D5025" d="M28.678,24.965v2.605c-0.051,0.09-0.094,0.186-0.125,0.279v-2.605
	C28.584,25.151,28.627,25.057,28.678,24.965"/>
<path fill="#9D5025" d="M28.553,25.244v2.605c-0.014,0.047-0.027,0.094-0.04,0.141v-2.605
	C28.525,25.336,28.539,25.291,28.553,25.244"/>
<path fill="#9D5025" d="M52.525,26.266c-3.736-1.236-7.828-1.398-11.307-1.398c-5.078,0-11.496,1.164-12.742,2.891l-0.049-2.379
	c0.461-2.094,6.451-3.873,11.734-3.873c1.785,0,9.818,0.816,12.389,2.146"/>
<path fill="#F58536" d="M42.016,27.239c2.195,0,4.059,0.172,5.6,0.418c3.302,0.549,5.047,1.486,5.047,2.064
	s-1.745,1.518-5.047,2.051c-1.541,0.26-3.403,0.42-5.6,0.42c-6.896,0-10.65-1.633-10.65-2.471S35.119,27.239,42.016,27.239z"/>
<path fill="#9D5025" d="M52.662,29.721v2.801c0,0.016-0.002,0.031-0.002,0.047v-2.803C52.66,29.75,52.662,29.736,52.662,29.721"/>
<path fill="#9D5025" d="M52.66,29.766v2.803c-0.002,0.021-0.008,0.039-0.017,0.06v-2.804C52.652,29.805,52.658,29.785,52.66,29.766"
	/>
<path fill="#9D5025" d="M52.645,29.824v2.803c-0.01,0.027-0.021,0.057-0.037,0.084v-2.803
	C52.623,29.881,52.635,29.852,52.645,29.824"/>
<path fill="#9D5025" d="M52.607,29.908v2.803c-0.318,0.578-2.029,1.383-4.992,1.861c-1.541,0.262-3.403,0.418-5.6,0.418
	c-6.896,0-10.65-1.629-10.65-2.47V29.72c0,0.838,3.754,2.472,10.65,2.472c2.195,0,4.059-0.16,5.6-0.421
	C50.578,31.291,52.289,30.488,52.607,29.908"/>
<path fill="#9D5025" d="M52.662,29.721v2.801c0,0.58-1.746,1.518-5.047,2.051c-1.541,0.263-3.404,0.418-5.601,0.418
	c-6.896,0-10.649-1.629-10.649-2.469v-2.801c0,0.838,3.754,2.471,10.649,2.471c2.195,0,4.06-0.16,5.601-0.42
	C50.916,31.238,52.662,30.299,52.662,29.721z"/>
<path fill="#9D5025" d="M31.387,50.086c0.107,0.545,2.818,0.984,4.146,1.631l-1.797,4.115c-1.668-0.562-2.154-0.918-2.365-1.246"/>
<path fill="#9D5025" d="M52.836,51.67v2.799c0,0.02,0,0.041-0.004,0.063v-2.802C52.836,51.709,52.836,51.688,52.836,51.67"/>
<path fill="#9D5025" d="M52.832,51.73v2.801c-0.002,0.023-0.01,0.049-0.018,0.074v-2.803C52.822,51.777,52.83,51.754,52.832,51.73"
	/>
<path fill="#9D5025" d="M52.814,51.803v2.803c-0.014,0.039-0.029,0.078-0.055,0.119v-2.801
	C52.785,51.883,52.801,51.842,52.814,51.803"/>
<path fill="#9D5025" d="M52.76,51.9v2.801c-0.502,0.892-3.547,2.213-10.047,2.213c-3.912,0-7.078-0.508-9-1.069l-0.691-3.733
	c1.922,0.563,5.779,2.006,9.691,2.006C49.213,54.115,52.258,52.793,52.76,51.9"/>
<path fill="#9D5025" d="M52.836,51.67v2.799c0,0.867-2.967,2.469-10.123,2.469c-3.912,0-6.867-0.461-9-1.117V53.02
	c2.133,0.656,5.088,1.117,9,1.117C49.869,54.137,52.836,52.535,52.836,51.67z"/>
<path fill="#9D5025" d="M4.174,52.953v2.604c-2.219,0-4.02-1.784-4.145-4.002v-2.604C0.155,51.166,1.955,52.953,4.174,52.953z"/>
<polygon fill="#9D5025" points="30.027,52.928 30.027,55.531 3.987,55.559 3.987,52.953 "/>
<path fill="#F58536" d="M52.564,23.983c-3.807-1.328-10.059-1.377-11.844-1.354c-5.219,0.07-11.164,1.307-12.16,2.854L28.52,25.79
	l0.016,0.951L28.52,51.57c0,0.457,0.963,0.953,1.367,1.357L4.02,52.953C1.8,52.953,0,51.166,0,48.951V3.992
	c0-2.203,1.8-3.988,4.02-3.988L48.701,0c2.222,0,4.021,1.787,4.021,4.002"/>
<path fill="#F58536" d="M52.852,34.572L52.836,51.67c0,0.865-2.967,2.467-10.123,2.467c-3.912,0-6.867-0.461-8.787-1.025
	c-1.424-0.461-2.43-0.979-2.543-1.369v-17.01c2.08,1.285,6.369,1.963,10.633,1.963h0.275c0.449-0.014,0.873-0.014,1.309-0.028
	l0.176-0.015c0.377-0.016,0.728-0.029,1.09-0.059c0.189-0.014,0.363-0.027,0.539-0.043c0.289-0.029,0.564-0.043,0.842-0.072
	c0.162-0.029,0.308-0.043,0.453-0.072c0.306-0.028,0.597-0.069,0.9-0.114C49.928,35.916,51.732,35.295,52.852,34.572z"/>
</svg>
