<?xml version="1.0" encoding="utf-8"?>
<!-- Generator: Adobe Illustrator 12.0.0, SVG Export Plug-In  -->
<!DOCTYPE svg PUBLIC "-//W3C//DTD SVG 1.1//EN" "http://www.w3.org/Graphics/SVG/1.1/DTD/svg11.dtd" [
	<!ENTITY ns_flows "http://ns.adobe.com/Flows/1.0/">
	<!ENTITY ns_svg "http://www.w3.org/2000/svg">
	<!ENTITY ns_xlink "http://www.w3.org/1999/xlink">
]>
<svg  version="1.1" xmlns="&ns_svg;" xmlns:xlink="&ns_xlink;" xmlns:a="http://ns.adobe.com/AdobeSVGViewerExtensions/3.0/"
	 width="100" height="100" viewBox="-16.048 -38.854 100 100" enable-background="new -16.048 -38.854 100 100"
	 xml:space="preserve">
<defs>
</defs>
<polygon fill="#9D5025" points="67.904,8.296 67.904,13.966 61.748,16.273 59.207,9.939 "/>
<rect x="14.558" y="10.576" fill="#9D5025" width="31.005" height="5.667"/>
<polyline fill="#9D5025" points="14.746,10.576 14.746,16.244 14.742,16.253 14.742,10.584 14.746,10.576 "/>
<path fill="#9D5025" d="M14.789,10.474v5.67c-0.148,0.465-0.389,1.02-0.621,1.439v-5.67c0.232-0.42,0.426-0.866,0.574-1.331"/>
<path fill="#9D5025" d="M14.168,11.914v5.67c-1.277,2.322-3.74,3.892-6.604,3.892C3.38,21.475,0,18.114,0,13.966V8.297
	c0,4.148,3.381,7.51,7.564,7.51C10.428,15.806,12.89,14.236,14.168,11.914"/>
<path fill="#9D5025" d="M14.746,10.576v5.667c-0.971,3.039-3.797,5.23-7.182,5.23C3.38,21.474,0,18.113,0,13.966v-5.67
	c0,4.148,3.381,7.51,7.564,7.51C10.949,15.806,13.775,13.615,14.746,10.576z"/>
<path fill="#F58536" d="M45.563,0l16.248,6.046l0.248,0.086l0.25,0.09l5.595,2.074l-5.595,2.072l-0.266,0.123l-0.232,0.085
	l-16.248,6.048v-6.048H14.746c-0.971,3.039-3.797,5.23-7.182,5.23C3.38,15.806,0,12.445,0,8.296s3.381-7.48,7.564-7.48
	c3.385,0,6.211,2.193,7.182,5.23h30.817V0z"/>
<polygon fill="#9D5025" points="61.812,10.576 61.812,16.244 45.563,22.292 45.563,16.625 "/>
</svg>
