<?xml version="1.0" encoding="utf-8"?>
<!-- Generator: Adobe Illustrator 12.0.0, SVG Export Plug-In  -->
<!DOCTYPE svg PUBLIC "-//W3C//DTD SVG 1.1//EN" "http://www.w3.org/Graphics/SVG/1.1/DTD/svg11.dtd" [
	<!ENTITY ns_flows "http://ns.adobe.com/Flows/1.0/">
	<!ENTITY ns_svg "http://www.w3.org/2000/svg">
	<!ENTITY ns_xlink "http://www.w3.org/1999/xlink">
]>
<svg  version="1.1" xmlns="&ns_svg;" xmlns:xlink="&ns_xlink;" xmlns:a="http://ns.adobe.com/AdobeSVGViewerExtensions/3.0/"
	 width="100" height="100" viewBox="-23.369 -22.671 100 100" enable-background="new -23.369 -22.671 100 100"
	 xml:space="preserve">
<defs>
</defs>
<path fill="#9D5025" d="M53.224,49.152v2.975c0,0.229-0.016,0.457-0.049,0.681v-2.976C53.208,49.611,53.224,49.386,53.224,49.152"/>
<path fill="#9D5025" d="M53.175,49.832v2.976c-0.039,0.262-0.099,0.518-0.174,0.764v-2.973
	C53.076,50.353,53.136,50.097,53.175,49.832"/>
<path fill="#9D5025" d="M53.001,50.599v2.973c-0.097,0.291-0.218,0.568-0.361,0.832v-2.973
	C52.783,51.168,52.904,50.89,53.001,50.599"/>
<path fill="#9D5025" d="M52.64,51.431v2.973c-0.809,1.466-2.379,2.456-4.186,2.456v-2.974C50.261,53.888,51.831,52.897,52.64,51.431
	"/>
<path fill="#9D5025" d="M53.224,49.152v2.975c0,2.619-2.131,4.732-4.77,4.732l-1.574-3.875
	C49.521,52.984,53.224,51.772,53.224,49.152z"/>
<path fill="#9D5025" d="M4.769,53.888v2.973C2.13,56.86,0,54.747,0,52.128v-2.975C-0.001,51.772,2.13,53.888,4.769,53.888"/>
<path fill="#9D5025" d="M4.769,53.888v2.973C2.13,56.86,0,54.747,0,52.128v-2.975C-0.001,51.772,2.13,53.888,4.769,53.888z"/>
<polygon fill="#9D5025" points="48.454,53.888 48.454,56.859 4.769,56.859 3.38,53.149 "/>
<path fill="#F58536" d="M48.454,0c2.639,0,4.77,2.113,4.77,4.734v44.418c0,2.62-2.131,4.733-4.77,4.733H4.769
	C2.13,53.886,0,51.772,0,49.152V4.734C0,2.113,2.131,0,4.769,0H48.454z"/>
<path fill="#FFFFFF" d="M36.968,40.787c0-1.872-0.378-2.683-1.548-2.683c-1.314,0-1.621,1.313-1.621,4.951
	c0,3.89,0.54,4.592,1.657,4.592c0.937,0,1.62-0.486,1.62-3.26h2.593c0,2.772-0.685,5.168-4.087,5.168
	c-3.891,0-4.376-2.772-4.376-6.681c0-3.907,0.485-6.68,4.376-6.68c3.709,0,3.979,2.719,3.979,4.591L36.968,40.787L36.968,40.787z"/>
<path fill="#FFFFFF" d="M43.087,45.576c0.036,1.478,0.288,2.287,1.423,2.287c1.26,0,1.422-0.937,1.422-2.054
	c0-1.133-0.252-2.179-1.674-2.179h-0.863v-1.692h0.846c1.08,0,1.477-0.973,1.477-2.017c0-1.188-0.396-1.675-1.242-1.675
	c-1.115,0-1.314,0.864-1.314,2.071h-2.377c0-2.503,1.332-3.765,3.746-3.765c2.305,0,3.672,1.026,3.672,3.277
	c0,1.53-0.737,2.539-1.943,2.809v0.037c1.639,0.252,2.27,1.403,2.27,3.006c0,1.711-0.703,3.871-4.231,3.871
	c-2.466,0-3.69-1.494-3.69-3.925v-0.055h2.481V45.576z"/>
</svg>
