<?xml version="1.0" encoding="utf-8"?>
<!-- Generator: Adobe Illustrator 12.0.0, SVG Export Plug-In  -->
<!DOCTYPE svg PUBLIC "-//W3C//DTD SVG 1.1//EN" "http://www.w3.org/Graphics/SVG/1.1/DTD/svg11.dtd" [
	<!ENTITY ns_flows "http://ns.adobe.com/Flows/1.0/">
	<!ENTITY ns_svg "http://www.w3.org/2000/svg">
	<!ENTITY ns_xlink "http://www.w3.org/1999/xlink">
]>
<svg  version="1.1" xmlns="&ns_svg;" xmlns:xlink="&ns_xlink;" xmlns:a="http://ns.adobe.com/AdobeSVGViewerExtensions/3.0/"
	 width="100" height="100" viewBox="-23.577 -21.674 100 100" enable-background="new -23.577 -21.674 100 100"
	 xml:space="preserve">
<defs>
</defs>
<path fill="#F58536" d="M43.78,0c5.016,0,9.064,4.037,9.064,9.012v35.484c0,4.977-4.05,9.012-9.064,9.012H9.08
	c-5.014,0-9.08-4.035-9.08-9.012V9.012C0,4.037,4.066,0,9.08,0H43.78z"/>
<path fill="#9D5025" d="M52.846,44.496v3.145c0,0.438-0.032,0.869-0.092,1.291v-3.145C52.813,45.365,52.846,44.934,52.846,44.496"/>
<path fill="#9D5025" d="M52.754,45.787v3.145c-0.074,0.5-0.188,0.986-0.337,1.457v-3.145C52.567,46.773,52.68,46.287,52.754,45.787"
	/>
<path fill="#9D5025" d="M52.417,47.244v3.145c-0.18,0.556-0.408,1.084-0.688,1.586v-3.146
	C52.009,48.328,52.237,47.799,52.417,47.244"/>
<path fill="#9D5025" d="M51.731,48.828v3.146c-1.539,2.787-4.519,4.678-7.949,4.678v-3.145
	C47.213,53.508,50.192,51.617,51.731,48.828"/>
<path fill="#9D5025" d="M52.846,44.496v3.145c0,4.978-4.05,9.013-9.063,9.013v-3.146C48.796,53.508,52.846,49.473,52.846,44.496z"/>
<rect x="8.705" y="53.508" fill="#9D5025" width="35.139" height="3.146"/>
<path fill="#9D5025" d="M9.455,53.508v3.146C4.441,56.653,0,52.618,0,47.641v-3.145c0,4.977,4.066,9.012,9.08,9.012"/>
<path fill="#9D5025" d="M9.08,53.508v3.146c-5.014,0-9.08-4.035-9.08-9.013v-3.145C0,49.473,4.067,53.508,9.08,53.508z"/>
</svg>
