<?xml version="1.0" encoding="utf-8"?>
<!-- Generator: Adobe Illustrator 12.0.0, SVG Export Plug-In  -->
<!DOCTYPE svg PUBLIC "-//W3C//DTD SVG 1.1//EN" "http://www.w3.org/Graphics/SVG/1.1/DTD/svg11.dtd" [
	<!ENTITY ns_flows "http://ns.adobe.com/Flows/1.0/">
	<!ENTITY ns_svg "http://www.w3.org/2000/svg">
	<!ENTITY ns_xlink "http://www.w3.org/1999/xlink">
]>
<svg  version="1.1" xmlns="&ns_svg;" xmlns:xlink="&ns_xlink;" xmlns:a="http://ns.adobe.com/AdobeSVGViewerExtensions/3.0/"
	 width="100" height="100" viewBox="-23.387 -21.57 100 100" enable-background="new -23.387 -21.57 100 100" xml:space="preserve">
<defs>
</defs>
<path fill="#9D5025" d="M53.224,49.153v2.976c0,0.229-0.016,0.457-0.049,0.68v-2.976C53.21,49.612,53.224,49.385,53.224,49.153"/>
<path fill="#9D5025" d="M53.175,49.833v2.975c-0.039,0.262-0.098,0.518-0.174,0.764v-2.973
	C53.079,50.354,53.136,50.096,53.175,49.833"/>
<path fill="#9D5025" d="M53.003,50.598v2.973c-0.097,0.291-0.218,0.568-0.361,0.832V51.43
	C52.786,51.168,52.907,50.889,53.003,50.598"/>
<path fill="#9D5025" d="M52.64,51.43v2.973c-0.809,1.467-2.379,2.457-4.186,2.457v-2.973C50.261,53.887,51.833,52.899,52.64,51.43"
	/>
<path fill="#9D5025" d="M53.224,49.153v2.976c0,2.618-2.131,4.731-4.77,4.731l-1.574-3.875
	C49.522,52.985,53.224,51.774,53.224,49.153z"/>
<path fill="#9D5025" d="M4.77,53.887v2.973C2.131,56.86,0,54.747,0,52.128v-2.976C0.001,51.774,2.132,53.887,4.77,53.887"/>
<path fill="#9D5025" d="M4.77,53.887v2.973C2.131,56.86,0,54.747,0,52.128v-2.976C0.001,51.774,2.132,53.887,4.77,53.887z"/>
<polygon fill="#9D5025" points="48.456,53.887 48.456,56.86 4.77,56.86 3.382,53.151 "/>
<path fill="#F58536" d="M48.456,0c2.64,0,4.771,2.113,4.771,4.734v44.418c0,2.62-2.131,4.733-4.771,4.733H4.77
	c-2.639,0-4.77-2.113-4.77-4.733V4.735c0-2.621,2.131-4.734,4.77-4.734L48.456,0L48.456,0z"/>
<rect x="27.716" y="33.366" fill="#FFFFFF" width="5.683" height="11.285"/>
<rect x="34.683" y="27.573" fill="#FFFFFF" width="5.687" height="17.078"/>
<rect x="41.649" y="37.219" fill="#FFFFFF" width="5.687" height="7.432"/>
<polygon fill="#FFFFFF" points="46.925,45.493 28.079,45.493 27.257,45.493 27.257,46.311 27.257,47.735 27.257,48.553 
	28.079,48.553 46.925,48.553 47.747,48.553 47.747,47.735 47.747,46.311 47.747,45.493 "/>
</svg>
