<?xml version="1.0" encoding="utf-8"?>
<!-- Generator: Adobe Illustrator 12.0.0, SVG Export Plug-In  -->
<!DOCTYPE svg PUBLIC "-//W3C//DTD SVG 1.1//EN" "http://www.w3.org/Graphics/SVG/1.1/DTD/svg11.dtd" [
	<!ENTITY ns_flows "http://ns.adobe.com/Flows/1.0/">
	<!ENTITY ns_svg "http://www.w3.org/2000/svg">
	<!ENTITY ns_xlink "http://www.w3.org/1999/xlink">
]>
<svg  version="1.1" xmlns="&ns_svg;" xmlns:xlink="&ns_xlink;" xmlns:a="http://ns.adobe.com/AdobeSVGViewerExtensions/3.0/"
	 width="110" height="64" viewBox="-34.5 -0.746 110 64" enable-background="new -34.5 -0.746 110 64" xml:space="preserve">
<defs>
</defs>
<path fill="#F58535" d="M32.84,0c3.76,0,6.79,3.03,6.79,6.76v26.62c0,3.73-3.03,6.76-6.79,6.76H6.81C3.05,40.14,0,37.11,0,33.38
	V6.76C0,3.03,3.05,0.01,6.81,0.01h26.03V0z"/>
<path fill="#9D5125" d="M39.637,33.379v2.359c0,3.73-3.04,6.761-6.801,6.761v-2.36C36.597,40.139,39.637,37.108,39.637,33.379z"/>
<path fill="#9D5125" d="M39.636,33.379v2.359c0,0.33-0.03,0.65-0.07,0.971v-2.36C39.605,34.028,39.636,33.709,39.636,33.379z"/>
<path fill="#9D5125" d="M39.563,34.342v2.359c-0.05,0.38-0.14,0.74-0.25,1.101v-2.36C39.423,35.081,39.513,34.722,39.563,34.342z"/>
<path fill="#9D5125" d="M39.317,35.44V37.8c-0.14,0.41-0.31,0.811-0.521,1.19v-2.36C39.008,36.25,39.178,35.851,39.317,35.44z"/>
<path fill="#9D5125" d="M38.796,36.629v2.359c-1.149,2.091-3.39,3.511-5.96,3.511v-2.36C35.406,40.139,37.646,38.719,38.796,36.629z
	"/>
<rect x="6.529" y="40.135" fill="#9D5125" width="26.354" height="2.358"/>
<path fill="#9D5125" d="M6.81,40.138v2.36c-3.76,0-6.81-3.03-6.81-6.76v-2.36C0,37.108,3.05,40.138,6.81,40.138z"/>
<path fill="#9D5125" d="M7.09,40.138v2.36c-3.76,0-7.09-3.03-7.09-6.76v-2.36c0,3.73,3.05,6.76,6.81,6.76H7.09z"/>
<path fill="none" d="M7.09,40.138v2.36c-3.76,0-7.09-3.03-7.09-6.76v-2.36c0,3.73,3.05,6.76,6.81,6.76"/>
<path fill="#FFFFFF" d="M39.529,40.028v0.95c0,0.83-0.69,1.52-1.531,1.52v-0.96C38.839,41.538,39.529,40.858,39.529,40.028z"/>
<path fill="#FFFFFF" d="M39.529,40.027v0.95c0,0.069-0.01,0.14-0.02,0.22v-0.96C39.52,40.167,39.529,40.098,39.529,40.027z"/>
<path fill="#FFFFFF" d="M39.512,40.243v0.95c-0.02,0.08-0.029,0.17-0.06,0.25v-0.96C39.482,40.403,39.492,40.323,39.512,40.243z"/>
<path fill="#FFFFFF" d="M39.457,40.49v0.95c-0.031,0.09-0.07,0.181-0.121,0.271v-0.96C39.387,40.671,39.426,40.581,39.457,40.49z"/>
<path fill="#FFFFFF" d="M39.339,40.759v0.95c-0.261,0.47-0.761,0.79-1.341,0.79v-0.96C38.578,41.539,39.078,41.229,39.339,40.759z"
	/>
<path fill="#FFFFFF" d="M24.029,41.539v0.96c-0.85,0-1.529-0.69-1.529-1.521v-0.95C22.5,40.858,23.18,41.539,24.029,41.539z"/>
<path fill="#FFFFFF" d="M24.029,41.539v0.96c-0.85,0-1.529-0.69-1.529-1.521v-0.95C22.5,40.858,23.18,41.539,24.029,41.539z"/>
<path fill="#FFFFFF" d="M38,24.298c0.84,0,1.52,0.68,1.52,1.52v14.21c0,0.83-0.68,1.521-1.52,1.521H24.029
	c-0.85,0-1.529-0.69-1.529-1.521v-14.21c0-0.84,0.68-1.52,1.529-1.52H38z"/>
<path fill="#9D5125" d="M39.676,40.444v0.89c0,0.79-0.64,1.439-1.439,1.439v-0.899C39.036,41.874,39.676,41.233,39.676,40.444z"/>
<path fill="#9D5125" d="M39.67,40.438v0.899c0,0.07,0,0.141-0.01,0.21v-0.899C39.67,40.577,39.67,40.507,39.67,40.438z"/>
<path fill="#9D5125" d="M39.656,40.649v0.89c-0.01,0.08-0.03,0.16-0.051,0.24v-0.9C39.626,40.799,39.646,40.729,39.656,40.649z"/>
<path fill="#9D5125" d="M39.607,40.881v0.891c-0.03,0.09-0.07,0.18-0.11,0.26v-0.9C39.537,41.051,39.577,40.961,39.607,40.881z"/>
<path fill="#9D5125" d="M39.496,41.134v0.891c-0.24,0.439-0.721,0.75-1.26,0.75v-0.9C38.775,41.874,39.256,41.574,39.496,41.134z"/>
<path fill="#9D5125" d="M25.064,41.874v0.9c-0.799,0-1.439-0.65-1.439-1.44v-0.89C23.625,41.234,24.266,41.874,25.064,41.874z"/>
<path fill="#9D5125" d="M25.064,41.874v0.9c-0.799,0-1.439-0.65-1.439-1.44v-0.89C23.625,41.234,24.266,41.874,25.064,41.874z"/>
<path fill="#9D5125" d="M38.566,41.644l-0.33,1.13h-13.17l-0.3-1.029L38.566,41.644z"/>
<path fill="#F58535" d="M38.234,25.617c0.801,0,1.44,0.641,1.44,1.431v13.39c0,0.79-0.64,1.44-1.44,1.44h-13.17
	c-0.799,0-1.439-0.65-1.439-1.44v-13.39c0-0.79,0.641-1.431,1.439-1.431H38.234z"/>
<rect x="26.559" y="28.36" fill="#FFFFFF" width="10.171" height="4.794"/>
<rect x="27.334" y="29.152" fill="#F58535" width="2.414" height="3.21"/>
<rect x="30.438" y="29.152" fill="#F58535" width="2.413" height="3.21"/>
<rect x="33.54" y="29.152" fill="#F58535" width="2.413" height="3.21"/>
<rect x="26.559" y="34.781" fill="#FFFFFF" width="10.171" height="4.794"/>
<rect x="27.334" y="35.572" fill="#F58535" width="2.414" height="3.211"/>
<rect x="30.438" y="35.572" fill="#F58535" width="2.413" height="3.211"/>
<rect x="33.54" y="35.572" fill="#F58535" width="2.413" height="3.211"/>
</svg>
