<?xml version="1.0" encoding="utf-8"?>
<!-- Generator: Adobe Illustrator 12.0.0, SVG Export Plug-In  -->
<!DOCTYPE svg PUBLIC "-//W3C//DTD SVG 1.1//EN" "http://www.w3.org/Graphics/SVG/1.1/DTD/svg11.dtd" [
	<!ENTITY ns_flows "http://ns.adobe.com/Flows/1.0/">
	<!ENTITY ns_svg "http://www.w3.org/2000/svg">
	<!ENTITY ns_xlink "http://www.w3.org/1999/xlink">
]>
<svg  version="1.1" xmlns="&ns_svg;" xmlns:xlink="&ns_xlink;" xmlns:a="http://ns.adobe.com/AdobeSVGViewerExtensions/3.0/"
	 width="100" height="100" viewBox="-24.74 -21.496 100 100" enable-background="new -24.74 -21.496 100 100" xml:space="preserve">
<defs>
</defs>
<polygon fill="#9D5025" points="48.119,54.313 48.119,57.008 24.16,57.008 23.164,53.473 "/>
<polygon fill="#9D5025" points="28.973,8.721 28.973,11.414 11.151,11.414 8.656,8.012 "/>
<path fill="#9D5025" d="M11.151,8.721v2.693c-0.98,0-1.842,0.551-2.285,1.355v-2.695C9.309,9.272,10.17,8.721,11.151,8.721"/>
<path fill="#9D5025" d="M8.865,10.074v2.695c-0.08,0.143-0.146,0.295-0.197,0.453v-2.695C8.719,10.369,8.785,10.219,8.865,10.074"/>
<path fill="#9D5025" d="M8.668,10.527v2.695c-0.043,0.133-0.074,0.271-0.096,0.412v-2.693C8.594,10.801,8.625,10.662,8.668,10.527"
	/>
<path fill="#9D5025" d="M8.572,10.942v2.693c-0.018,0.119-0.025,0.24-0.025,0.363v-2.693C8.547,11.182,8.555,11.061,8.572,10.942"/>
<path fill="#9D5025" d="M11.151,8.721v2.693c-1.43,0-2.604,1.168-2.604,2.584v-2.693C8.547,9.889,9.721,8.721,11.151,8.721z"/>
<polygon fill="#9D5025" points="39.678,21.178 39.678,23.871 21.68,23.871 20.156,20.801 "/>
<path fill="#9D5025" d="M21.867,21.178v2.693c-0.984,0-1.84,0.545-2.281,1.346v-2.693C20.028,21.721,20.883,21.178,21.867,21.178"/>
<path fill="#9D5025" d="M19.586,22.524v2.693c-0.08,0.145-0.146,0.299-0.197,0.457v-2.693C19.44,22.82,19.506,22.668,19.586,22.524"
	/>
<path fill="#9D5025" d="M19.389,22.981v2.693c-0.043,0.137-0.078,0.277-0.1,0.422v-2.695C19.311,23.258,19.346,23.115,19.389,22.981
	"/>
<path fill="#9D5025" d="M19.289,23.4v2.695c-0.016,0.121-0.025,0.246-0.025,0.373v-2.693C19.264,23.649,19.274,23.524,19.289,23.4"
	/>
<path fill="#9D5025" d="M21.867,21.178v2.693c-1.441,0-2.604,1.166-2.604,2.598v-2.693C19.264,22.344,20.426,21.178,21.867,21.178z"
	/>
<polygon fill="#9D5025" points="8.547,29.328 8.547,32.023 2.602,32.023 1.67,28.754 "/>
<path fill="#9D5025" d="M2.602,29.328v2.695C1.174,32.023,0,30.871,0,29.441v-2.695C0,28.178,1.174,29.328,2.602,29.328"/>
<path fill="#9D5025" d="M2.602,29.328v2.695C1.174,32.023,0,30.871,0,29.441v-2.695C0,28.178,1.174,29.328,2.602,29.328z"/>
<rect x="13.131" y="41.785" fill="#9D5025" width="6.133" height="2.695"/>
<path fill="#9D5025" d="M13.319,41.785v2.695c-1.441,0-2.604-1.152-2.604-2.582v-2.695C10.715,40.633,11.877,41.785,13.319,41.785"
	/>
<path fill="#9D5025" d="M13.319,41.785v2.695c-1.441,0-2.604-1.152-2.604-2.582v-2.695C10.715,40.633,11.877,41.785,13.319,41.785z"
	/>
<path fill="#9D5025" d="M24.16,54.313v2.695c-1.441,0-2.602-1.168-2.602-2.584v-2.695C21.559,53.146,22.719,54.313,24.16,54.313"/>
<path fill="#9D5025" d="M24.16,54.313v2.695c-1.441,0-2.602-1.168-2.602-2.584v-2.695C21.559,53.146,22.719,54.313,24.16,54.313z"/>
<path fill="#9D5025" d="M50.52,51.729v2.695c0,0.125-0.008,0.246-0.027,0.365v-2.693C50.512,51.977,50.52,51.854,50.52,51.729"/>
<path fill="#9D5025" d="M50.492,52.096v2.693c-0.021,0.143-0.053,0.283-0.096,0.416v-2.693
	C50.439,52.377,50.473,52.238,50.492,52.096"/>
<path fill="#9D5025" d="M50.396,52.512v2.693c-0.051,0.16-0.117,0.313-0.197,0.457v-2.693
	C50.279,52.822,50.346,52.672,50.396,52.512"/>
<path fill="#9D5025" d="M50.199,52.969v2.693c-0.441,0.799-1.293,1.346-2.269,1.346v-2.695
	C48.906,54.313,49.758,53.768,50.199,52.969"/>
<path fill="#9D5025" d="M50.52,51.729v2.695c0,1.416-1.162,2.584-2.588,2.584v-2.695C49.357,54.313,50.52,53.146,50.52,51.729z"/>
<path fill="#F58536" d="M26.371,0c1.44,0,2.602,1.152,2.602,2.582v6.139H11.151c-1.43,0-2.604,1.168-2.604,2.584v18.023H2.602
	C1.174,29.328,0,28.178,0,26.746V2.582C0,1.152,1.174,0,2.602,0H26.371z"/>
<path fill="#F58536" d="M37.088,12.455c1.428,0,2.59,1.168,2.59,2.584v6.139H21.867c-1.441,0-2.604,1.166-2.604,2.598v18.01h-5.945
	c-1.441,0-2.604-1.152-2.604-2.582V15.039c0-1.416,1.162-2.584,2.604-2.584H37.088z"/>
<path fill="#F58536" d="M47.932,24.983c1.426,0,2.588,1.152,2.588,2.568v24.178c0,1.418-1.162,2.584-2.588,2.584H24.16
	c-1.441,0-2.602-1.166-2.602-2.584V27.551c0-1.416,1.16-2.568,2.602-2.568H47.932z"/>
</svg>
