<?xml version="1.0" encoding="utf-8"?>
<!-- Generator: Adobe Illustrator 12.0.0, SVG Export Plug-In  -->
<!DOCTYPE svg PUBLIC "-//W3C//DTD SVG 1.1//EN" "http://www.w3.org/Graphics/SVG/1.1/DTD/svg11.dtd" [
	<!ENTITY ns_flows "http://ns.adobe.com/Flows/1.0/">
	<!ENTITY ns_svg "http://www.w3.org/2000/svg">
	<!ENTITY ns_xlink "http://www.w3.org/1999/xlink">
]>
<svg  version="1.1" xmlns="&ns_svg;" xmlns:xlink="&ns_xlink;" xmlns:a="http://ns.adobe.com/AdobeSVGViewerExtensions/3.0/"
	 width="100" height="100" viewBox="-25.2 -17.2 100 100" enable-background="new -25.2 -17.2 100 100" xml:space="preserve">
<defs>
</defs>
<path fill="#6B3A19" d="M48,8v2.7C39.2,24.9,22.6,30.9,22.4,31c-0.1,0-0.2,0.2-0.3,0.4v-2.7c0.1-0.2,0.2-0.3,0.3-0.4
	C22.5,28.3,39.2,22.2,48,8"/>
<path fill="#6B3A19" d="M22,28.7v2.7c-0.1,0.2-0.2,0.3-0.2,0.6v-2.7C21.9,29,21.9,28.8,22,28.7"/>
<path fill="#6B3A19" d="M21.9,29.2v2.7c-0.1,0.3-0.2,0.6-0.2,0.9v-2.7C21.7,29.8,21.8,29.5,21.9,29.2"/>
<path fill="#6B3A19" d="M21.7,30.1v2.7c0,0.2,0,0.4,0,0.5v-2.7C21.5,30.4,21.5,30.3,21.7,30.1"/>
<path fill="#6B3A19" d="M21.5,33.3v-2.7c0-0.8,0.4-2.1,0.8-2.3c0.2-0.1,16.8-6.1,25.6-20.3v2.7C39.1,24.9,22.5,30.9,22.3,31
	C21.9,31.1,21.5,32.5,21.5,33.3z"/>
<path fill="#6B3A19" d="M49.399,11.2v2.6c-0.1,1.5-0.3,3.2-0.6,4.9V16C49,14.4,49.3,12.7,49.399,11.2"/>
<path fill="#6B3A19" d="M48.899,16.1v2.7c-0.399,2.7-1,5.5-1.8,7.8v-2.7C47.899,21.6,48.399,18.8,48.899,16.1"/>
<path fill="#6B3A19" d="M47,23.9v2.7c-0.4,1.2-0.8,2.2-1.3,3.1V27C46.3,26.1,46.7,25.1,47,23.9"/>
<path fill="#6B3A19" d="M45.8,27v2.7c-0.3,0.6-0.7,1.1-1.1,1.6c-2.7,2.6-9.7,4.1-17.301,4.7v-2.7C35,32.7,42,31.3,44.7,28.6
	C45,28.1,45.399,27.6,45.8,27"/>
<path fill="#6B3A19" d="M49.399,11.2v2.6c-0.6,6-1.899,14.5-4.8,17.4c-2.7,2.6-9.7,4.1-17.3,4.7V33.2c7.6-0.601,14.6-2,17.3-4.7
	C47.399,25.6,48.899,17.1,49.399,11.2z"/>
<rect x="18.4" y="62.899" fill="#6B3A19" width="9" height="2.7"/>
<path fill="#6B3A19" d="M25.7,12.7v1.1c0,0.6,0,1.3-0.101,1.9v-1.1C25.5,14,25.7,13.4,25.7,12.7"/>
<path fill="#6B3A19" d="M25.399,14.6v1.2c-0.1,0.7-0.3,1.4-0.5,2.1v-1.1C25.2,16,25.399,15.3,25.399,14.6"/>
<path fill="#6B3A19" d="M24.9,16.7v1.1c-0.3,0.8-0.6,1.6-1,2.3V19C24.4,18.3,24.7,17.5,24.9,16.7"/>
<path fill="#6B3A19" d="M23.9,19v1.1c-2.2,3.8-6.3,6.4-11.1,6.4C5.8,26.5,0,20.8,0,13.8v-1.1c0,7,5.7,12.7,12.8,12.7
	C17.7,25.4,21.8,22.8,23.9,19"/>
<path fill="#6B3A19" d="M25.7,12.7v1.1c0,7-5.7,12.7-12.8,12.7S0.1,20.8,0.1,13.8v-1.1c0,7,5.7,12.7,12.8,12.7S25.7,19.7,25.7,12.7z
	"/>
<path fill="#F58536" d="M12.9,25.4c-7,0-12.8-5.7-12.8-12.7S5.8,0,12.9,0s12.8,5.7,12.8,12.7S19.9,25.4,12.9,25.4z"/>
<path fill="#FFFFFF" d="M9.5,22.5h6.6V9.9h4.7l-8-7.9l-8,7.9h4.7V22.5z M7,9l5.8-5.7L18.6,9h-3.4v12.6h-4.8V9H7z"/>
<path fill="#F58536" d="M23.4,32.1c-0.1,0.1-0.2,0.1-0.3,0.1c-0.4,0-1.3-0.8-1.4-1.2c-0.2-0.5,0.3-2.4,0.8-2.6
	c0.2-0.1,16.8-6.1,25.6-20.3c-6,0.8-15.1,3.4-20.2,6.4c0,0.3,0,0.6,0,0.9c0,5.4-3.5,10.1-8.3,11.9c-0.4,1.9,0.2,3.9-0.8,6.1v29.4h9
	V33.2c7-0.601,14.4-2,17-4.7c2.9-2.9,4.1-11.4,4.7-17.3C40.3,26.3,24.2,31.8,23.4,32.1z"/>
</svg>
