<?xml version="1.0" encoding="utf-8"?>
<!-- Generator: Adobe Illustrator 12.0.0, SVG Export Plug-In  -->
<!DOCTYPE svg PUBLIC "-//W3C//DTD SVG 1.1//EN" "http://www.w3.org/Graphics/SVG/1.1/DTD/svg11.dtd" [
	<!ENTITY ns_flows "http://ns.adobe.com/Flows/1.0/">
	<!ENTITY ns_svg "http://www.w3.org/2000/svg">
	<!ENTITY ns_xlink "http://www.w3.org/1999/xlink">
]>
<svg  version="1.1" xmlns="&ns_svg;" xmlns:xlink="&ns_xlink;" xmlns:a="http://ns.adobe.com/AdobeSVGViewerExtensions/3.0/"
	 width="100" height="100" viewBox="-34.7 -21.4 100 100" enable-background="new -34.7 -21.4 100 100" xml:space="preserve">
<defs>
</defs>
<path fill="#6B3A19" d="M29.2,0v2.7C20.399,16.9,3.8,22.9,3.6,23c-0.1,0-0.2,0.2-0.3,0.4v-2.7c0.1-0.2,0.2-0.3,0.3-0.4
	C3.8,20.3,20.399,14.2,29.2,0"/>
<path fill="#6B3A19" d="M3.3,20.7v2.7c-0.1,0.2-0.2,0.4-0.2,0.6v-2.7C3.1,21,3.2,20.8,3.3,20.7"/>
<path fill="#6B3A19" d="M3,21.2v2.7c-0.1,0.3-0.2,0.6-0.2,0.9v-2.7C2.9,21.8,2.9,21.5,3,21.2"/>
<path fill="#6B3A19" d="M2.8,25.3v-2.7c0-0.8,0.4-2.1,0.8-2.3C3.8,20.2,20.399,14.2,29.2,0v2.7C20.399,16.9,3.8,22.9,3.6,23
	C3.2,23.1,2.8,24.5,2.8,25.3z"/>
<path fill="#6B3A19" d="M30.6,3.2v2.7c-0.1,1.5-0.3,3.2-0.6,4.9V8.1C30.2,6.4,30.399,4.7,30.6,3.2"/>
<path fill="#6B3A19" d="M30,8.1v2.7c-0.4,2.7-1,5.5-1.8,7.8v-2.7C29,13.6,29.6,10.8,30,8.1"/>
<path fill="#6B3A19" d="M28.2,15.9v2.7c-0.4,1.2-0.801,2.2-1.301,3.1V19C27.399,18.1,27.8,17.1,28.2,15.9"/>
<path fill="#6B3A19" d="M26.899,19v2.7c-0.3,0.6-0.699,1.1-1.1,1.6c-2.7,2.6-9.7,4.1-17.3,4.7v-2.7c7.6-0.6,14.6-2,17.3-4.7
	C26.2,20.1,26.5,19.6,26.899,19"/>
<path fill="#6B3A19" d="M30.6,3.2v2.7c-0.6,6-1.899,14.5-4.8,17.4c-2.7,2.6-9.7,4.1-17.3,4.7v-2.7c7.6-0.6,14.6-2,17.3-4.7
	C28.6,17.7,30,9.2,30.6,3.2z"/>
<path fill="#F58536" d="M4.6,24.1c0.7-0.2,16.7-5.8,26-20.9c-0.6,6-1.899,14.5-4.8,17.3c-2.7,2.6-9.7,4.1-17.3,4.7v29.3H0V25.3
	C0.6,18.6,1.1,13.2,6.9,8C11,4.3,22.2,1,29.2,0.1C20.399,14.3,3.8,20.3,3.6,20.4c-0.5,0.2-1,2.1-0.8,2.6c0.1,0.4,1,1.2,1.4,1.2
	C4.4,24.1,4.5,24.1,4.6,24.1z"/>
<rect y="54.5" fill="#6B3A19" width="8.5" height="2.699"/>
</svg>
