<?xml version="1.0" encoding="utf-8"?>
<!-- Generator: Adobe Illustrator 12.0.0, SVG Export Plug-In  -->
<!DOCTYPE svg PUBLIC "-//W3C//DTD SVG 1.1//EN" "http://www.w3.org/Graphics/SVG/1.1/DTD/svg11.dtd" [
	<!ENTITY ns_flows "http://ns.adobe.com/Flows/1.0/">
	<!ENTITY ns_svg "http://www.w3.org/2000/svg">
	<!ENTITY ns_xlink "http://www.w3.org/1999/xlink">
]>
<svg  version="1.1" xmlns="&ns_svg;" xmlns:xlink="&ns_xlink;" xmlns:a="http://ns.adobe.com/AdobeSVGViewerExtensions/3.0/"
	 width="100" height="100" viewBox="-20.3 -8.8 100 100" enable-background="new -20.3 -8.8 100 100" xml:space="preserve">
<defs>
</defs>
<polygon fill="#F58435" points="39.9,41.2 29.7,41.2 29.7,82.4 39.9,77.3 "/>
<polygon fill="#F58435" points="54.2,12.3 59.4,14.9 59.4,30.7 54.2,29.6 "/>
<polygon fill="#F58435" points="44.101,7.2 29.7,0 29.7,41.2 44.101,41.2 "/>
<polygon fill="#9D5025" points="35.2,31.7 54.2,29.6 54.2,12.3 35.2,17.4 "/>
<polygon fill="#6B3B19" points="59.4,30.7 41.2,32.4 35.2,31.7 54,29.6 "/>
<polygon fill="#9D5025" points="19.5,41.2 29.7,41.2 29.7,0 19.5,5.1 "/>
<polygon fill="#9D5025" points="5.2,70.101 0,67.5 0,51.7 5.2,52.8 "/>
<polygon fill="#9D5025" points="15.3,75.2 29.7,82.4 29.7,41.2 15.3,41.2 "/>
<polygon fill="#F58435" points="24.2,50.7 5.2,52.8 5.2,70.101 24.2,65 "/>
<polygon fill="#FBBF92" points="0,51.7 18.2,50 24.2,50.7 5.4,52.8 "/>
</svg>
