<?xml version="1.0" encoding="utf-8"?>
<!-- Generator: Adobe Illustrator 12.0.0, SVG Export Plug-In  -->
<!DOCTYPE svg PUBLIC "-//W3C//DTD SVG 1.1//EN" "http://www.w3.org/Graphics/SVG/1.1/DTD/svg11.dtd" [
	<!ENTITY ns_flows "http://ns.adobe.com/Flows/1.0/">
	<!ENTITY ns_svg "http://www.w3.org/2000/svg">
	<!ENTITY ns_xlink "http://www.w3.org/1999/xlink">
]>
<svg  version="1.1" xmlns="&ns_svg;" xmlns:xlink="&ns_xlink;" xmlns:a="http://ns.adobe.com/AdobeSVGViewerExtensions/3.0/"
	 width="100" height="100" viewBox="-20.2 -14 100 100" enable-background="new -20.2 -14 100 100" xml:space="preserve">
<defs>
</defs>
<polygon fill="#F58536" points="11.1,14.8 3.8,13 3.8,59 11.1,57.3 "/>
<polygon fill="#F58536" points="25.3,60.3 13.9,64 13.9,7.9 25.3,11.6 "/>
<polygon fill="#6B3A19" points="33.5,18.3 38.7,15.6 56,22.3 51.399,22.9 "/>
<polygon fill="#FBBF93" points="33.7,53.7 38.8,56.4 56.1,49.7 51.5,49.1 "/>
<polygon fill="#9D5025" points="35,46.3 44.1,47.5 44.1,24.5 35,25.7 "/>
<polygon fill="#F58536" points="38.7,67.5 29.8,72 29.8,0 38.7,4.5 "/>
<polygon fill="#F58536" points="59.6,48.7 29.8,57.6 29.8,72 59.6,57.1 "/>
<polygon fill="#F58536" points="55.8,13 59.6,14.9 59.6,57.1 55.8,59 "/>
<polygon fill="#F58536" points="29.8,14.4 59.6,23.3 59.6,14.9 29.8,0 "/>
<polygon fill="#9D5025" points="20.9,67.5 29.8,72 29.8,0 20.9,4.5 "/>
<polygon fill="#9D5025" points="8.3,10.7 13.9,7.9 13.9,64.1 8.3,61.3 "/>
<polygon fill="#9D5025" points="0,57.1 3.8,59 3.8,13 0,14.9 "/>
<polygon fill="#9D5025" points="51.2,22.9 55.8,22.3 55.8,49.8 51.2,49.2 "/>
<polygon fill="#F58536" points="44.1,24.5 44.1,47.6 53.6,36 "/>
</svg>
