<?xml version="1.0" encoding="utf-8"?>
<!-- Generator: Adobe Illustrator 16.0.0, SVG Export Plug-In . SVG Version: 6.00 Build 0)  -->
<!DOCTYPE svg PUBLIC "-//W3C//DTD SVG 1.1//EN" "http://www.w3.org/Graphics/SVG/1.1/DTD/svg11.dtd">
<svg version="1.1" id="Layer_1" xmlns="http://www.w3.org/2000/svg" xmlns:xlink="http://www.w3.org/1999/xlink" x="0px" y="0px"
	 width="100px" height="100px" viewBox="0 0 100 100" enable-background="new 0 0 100 100" xml:space="preserve">
<g>
	<g enable-background="new    ">
		<g>
			<defs>
				<path id="SVGID_223_" d="M26.076,75.713v2.461c-2.375,0-4.307-1.926-4.307-4.289v-2.459
					C21.77,73.785,23.701,75.713,26.076,75.713z"/>
			</defs>
			<use xlink:href="#SVGID_223_"  overflow="visible" fill="#9D5125"/>
			<clipPath id="SVGID_2_">
				<use xlink:href="#SVGID_223_"  overflow="visible"/>
			</clipPath>
			<g clip-path="url(#SVGID_2_)" enable-background="new    ">
				<path fill="#9D5125" d="M26.076,75.713v2.461c-2.375,0-4.307-1.926-4.307-4.289v-2.459
					C21.77,73.785,23.701,75.713,26.076,75.713"/>
			</g>
		</g>
		<g>
			<defs>
				<path id="SVGID_225_" d="M78.326,71.426v2.459c0,2.363-1.93,4.289-4.316,4.289v-2.461
					C76.396,75.713,78.326,73.785,78.326,71.426z"/>
			</defs>
			<use xlink:href="#SVGID_225_"  overflow="visible" fill="#9D5125"/>
			<clipPath id="SVGID_4_">
				<use xlink:href="#SVGID_225_"  overflow="visible"/>
			</clipPath>
			<g clip-path="url(#SVGID_4_)" enable-background="new    ">
				<path fill="#9D5125" d="M78.326,71.426v2.459c0,0.209-0.014,0.412-0.043,0.613v-2.461
					C78.312,71.836,78.326,71.633,78.326,71.426"/>
				<path fill="#9D5125" d="M78.283,72.037v2.461c-0.033,0.234-0.086,0.471-0.158,0.691v-2.461
					C78.197,72.502,78.25,72.271,78.283,72.037"/>
				<path fill="#9D5125" d="M78.125,72.729v2.461c-0.086,0.26-0.195,0.514-0.328,0.752v-2.463
					C77.93,73.242,78.039,72.992,78.125,72.729"/>
				<path fill="#9D5125" d="M77.797,73.479v2.463c-0.732,1.326-2.152,2.232-3.787,2.232v-2.461
					C75.645,75.713,77.064,74.809,77.797,73.479"/>
			</g>
		</g>
		<g>
			<polygon fill="#9D5125" points="74.457,75.496 74.01,78.174 26.076,78.174 25.738,75.465 			"/>
		</g>
		<g>
			<path fill="#F58535" d="M73.986,63.695c2.389,0,4.318,1.914,4.318,4.287v3.463c0,2.363-1.93,4.289-4.318,4.289H26.055
				c-2.377,0-4.309-1.926-4.309-4.289v-3.463c0-2.373,1.932-4.287,4.309-4.287H73.986z M72.082,71.434
				c0.957,0,1.725-0.771,1.725-1.725c0-0.939-0.768-1.715-1.725-1.715h-17.92c-0.961,0-1.725,0.775-1.725,1.715
				c0,0.953,0.764,1.725,1.725,1.725H72.082"/>
		</g>
	</g>
	<g enable-background="new    ">
		<g>
			<defs>
				<path id="SVGID_227_" d="M28.34,58.775v2.459c-3.604,0-6.535-2.916-6.535-6.494v-2.461
					C21.805,55.857,24.736,58.775,28.34,58.775z"/>
			</defs>
			<use xlink:href="#SVGID_227_"  overflow="visible" fill="#9D5125"/>
			<clipPath id="SVGID_6_">
				<use xlink:href="#SVGID_227_"  overflow="visible"/>
			</clipPath>
			<g clip-path="url(#SVGID_6_)" enable-background="new    ">
				<path fill="#9D5125" d="M28.34,58.775v2.459c-3.604,0-6.535-2.916-6.535-6.494v-2.461C21.805,55.857,24.736,58.775,28.34,58.775
					"/>
			</g>
		</g>
		<g>
			<defs>
				<path id="SVGID_229_" d="M78.238,52.279v2.461c0,3.578-2.938,6.494-6.547,6.494v-2.459
					C75.301,58.775,78.238,55.857,78.238,52.279z"/>
			</defs>
			<use xlink:href="#SVGID_229_"  overflow="visible" fill="#9D5125"/>
			<clipPath id="SVGID_8_">
				<use xlink:href="#SVGID_229_"  overflow="visible"/>
			</clipPath>
			<g clip-path="url(#SVGID_8_)" enable-background="new    ">
				<path fill="#9D5125" d="M78.238,52.279v2.461c0,0.311-0.02,0.619-0.066,0.92v-2.461C78.219,52.9,78.238,52.59,78.238,52.279"/>
				<path fill="#9D5125" d="M78.172,53.199v2.461c-0.049,0.359-0.133,0.709-0.24,1.045v-2.461
					C78.039,53.906,78.123,53.559,78.172,53.199"/>
				<path fill="#9D5125" d="M77.932,54.244v2.461c-0.127,0.398-0.293,0.779-0.49,1.141v-2.459
					C77.639,55.023,77.805,54.643,77.932,54.244"/>
				<path fill="#9D5125" d="M77.441,55.387v2.459c-1.115,2.018-3.275,3.389-5.75,3.389v-2.459
					C74.166,58.775,76.326,57.402,77.441,55.387"/>
			</g>
		</g>
		<g>
			<polygon fill="#9D5125" points="72.207,58.59 71.691,61.234 28.34,61.234 27.613,58.34 			"/>
		</g>
		<g>
			<path fill="#F58535" d="M71.691,21.512c3.609,0,6.547,2.918,6.547,6.496v24.271c0,3.578-2.938,6.496-6.547,6.496H28.34
				c-3.604,0-6.535-2.918-6.535-6.496V28.008c0-3.578,2.932-6.496,6.535-6.496H71.691z M73.664,52.279V28.008
				c0-1.078-0.883-1.951-1.973-1.951H28.34c-1.076,0-1.955,0.873-1.955,1.951v24.271c0,1.076,0.879,1.949,1.955,1.949h43.352
				C72.781,54.229,73.664,53.355,73.664,52.279"/>
		</g>
	</g>
</g>
</svg>
