<?xml version="1.0" encoding="utf-8"?>
<!-- Generator: Adobe Illustrator 16.0.0, SVG Export Plug-In . SVG Version: 6.00 Build 0)  -->
<!DOCTYPE svg PUBLIC "-//W3C//DTD SVG 1.1//EN" "http://www.w3.org/Graphics/SVG/1.1/DTD/svg11.dtd">
<svg version="1.1" id="Layer_1" xmlns="http://www.w3.org/2000/svg" xmlns:xlink="http://www.w3.org/1999/xlink" x="0px" y="0px"
	 width="100px" height="100px" viewBox="0 0 100 100" enable-background="new 0 0 100 100" xml:space="preserve">
<g>
	<g enable-background="new    ">
		<g>
			<defs>
				<path id="SVGID_215_" d="M26.001,74.748v2.42c-2.336,0-4.234-1.895-4.234-4.229v-2.42
					C21.767,72.854,23.666,74.748,26.001,74.748z"/>
			</defs>
			<use xlink:href="#SVGID_215_"  overflow="visible" fill="#737678"/>
			<clipPath id="SVGID_2_">
				<use xlink:href="#SVGID_215_"  overflow="visible"/>
			</clipPath>
			<g clip-path="url(#SVGID_2_)" enable-background="new    ">
				<path fill="#737678" d="M26.001,74.748v2.42c-2.336,0-4.234-1.895-4.234-4.229v-2.42C21.767,72.854,23.666,74.748,26.001,74.748
					"/>
			</g>
		</g>
		<g>
			<defs>
				<path id="SVGID_217_" d="M77.359,70.52v2.42c0,2.334-1.896,4.229-4.246,4.229v-2.42C75.462,74.748,77.359,72.854,77.359,70.52z"
					/>
			</defs>
			<use xlink:href="#SVGID_217_"  overflow="visible" fill="#737678"/>
			<clipPath id="SVGID_4_">
				<use xlink:href="#SVGID_217_"  overflow="visible"/>
			</clipPath>
			<g clip-path="url(#SVGID_4_)" enable-background="new    ">
				<path fill="#737678" d="M77.359,70.52v2.42c0,0.207-0.014,0.408-0.043,0.604v-2.416C77.345,70.928,77.359,70.725,77.359,70.52"
					/>
				<path fill="#737678" d="M77.316,71.127v2.416c-0.035,0.238-0.088,0.465-0.158,0.686v-2.418
					C77.228,71.592,77.281,71.359,77.316,71.127"/>
				<path fill="#737678" d="M77.158,71.811v2.418c-0.08,0.262-0.189,0.51-0.32,0.744v-2.42
					C76.968,72.318,77.078,72.068,77.158,71.811"/>
				<path fill="#737678" d="M76.837,72.553v2.42c-0.723,1.307-2.119,2.195-3.725,2.195v-2.42
					C74.718,74.748,76.115,73.861,76.837,72.553"/>
			</g>
		</g>
		<g>
			<polygon fill="#737678" points="73.976,74.392 73.113,77.168 26.001,77.168 25.434,74.101 			"/>
		</g>
		<g>
			<path fill="#C5C6C7" d="M73.113,62.914c2.35,0,4.246,1.881,4.246,4.215v3.391c0,2.334-1.896,4.229-4.246,4.229H26.001
				c-2.336,0-4.234-1.895-4.234-4.229v-3.391c0-2.334,1.898-4.215,4.234-4.215H73.113z M71.242,70.52
				c0.943,0,1.695-0.758,1.695-1.695c0-0.922-0.752-1.686-1.695-1.686H53.628c-0.943,0-1.707,0.764-1.707,1.686
				c0,0.938,0.764,1.695,1.707,1.695H71.242"/>
		</g>
	</g>
	<g enable-background="new    ">
		<g>
			<defs>
				<path id="SVGID_219_" d="M28.226,58.1v2.416c-3.543,0-6.42-2.867-6.42-6.383v-2.42C21.806,55.23,24.683,58.1,28.226,58.1z"/>
			</defs>
			<use xlink:href="#SVGID_219_"  overflow="visible" fill="#737678"/>
			<clipPath id="SVGID_6_">
				<use xlink:href="#SVGID_219_"  overflow="visible"/>
			</clipPath>
			<g clip-path="url(#SVGID_6_)" enable-background="new    ">
				<path fill="#737678" d="M28.226,58.1v2.416c-3.543,0-6.42-2.867-6.42-6.383v-2.42C21.806,55.23,24.683,58.1,28.226,58.1"/>
			</g>
		</g>
		<g>
			<defs>
				<path id="SVGID_221_" d="M77.273,51.713v2.42c0,3.516-2.891,6.383-6.434,6.383V58.1C74.382,58.1,77.273,55.23,77.273,51.713z"/>
			</defs>
			<use xlink:href="#SVGID_221_"  overflow="visible" fill="#737678"/>
			<clipPath id="SVGID_8_">
				<use xlink:href="#SVGID_221_"  overflow="visible"/>
			</clipPath>
			<g clip-path="url(#SVGID_8_)" enable-background="new    ">
				<path fill="#737678" d="M77.273,51.713v2.42c0,0.309-0.023,0.609-0.064,0.904v-2.418C77.25,52.322,77.273,52.02,77.273,51.713"
					/>
				<path fill="#737678" d="M77.208,52.619v2.418c-0.051,0.354-0.131,0.695-0.236,1.027v-2.422
					C77.078,53.314,77.158,52.971,77.208,52.619"/>
				<path fill="#737678" d="M76.972,53.643v2.422c-0.129,0.391-0.289,0.77-0.486,1.123v-2.42
					C76.683,54.41,76.843,54.035,76.972,53.643"/>
				<path fill="#737678" d="M76.486,54.768v2.42c-1.094,1.98-3.219,3.328-5.646,3.328V58.1C73.267,58.1,75.392,56.746,76.486,54.768
					"/>
			</g>
		</g>
		<g>
			<polygon fill="#737678" points="72.184,57.558 70.839,60.516 28.226,60.516 27.475,57.433 			"/>
		</g>
		<g>
			<path fill="#C5C6C7" d="M70.839,21.471c3.543,0,6.434,2.869,6.434,6.385v23.857c0,3.518-2.891,6.387-6.434,6.387H28.226
				c-3.543,0-6.42-2.869-6.42-6.387V27.855c0-3.516,2.877-6.385,6.42-6.385H70.839z M72.773,51.713V27.855
				c0-1.059-0.863-1.918-1.934-1.918H28.226c-1.057,0-1.922,0.859-1.922,1.918v23.857c0,1.061,0.865,1.922,1.922,1.922h42.613
				C71.91,53.635,72.773,52.773,72.773,51.713"/>
		</g>
	</g>
</g>
</svg>
