<?xml version="1.0" encoding="utf-8"?>
<!-- Generator: Adobe Illustrator 16.0.0, SVG Export Plug-In . SVG Version: 6.00 Build 0)  -->
<!DOCTYPE svg PUBLIC "-//W3C//DTD SVG 1.1//EN" "http://www.w3.org/Graphics/SVG/1.1/DTD/svg11.dtd">
<svg version="1.1" id="Layer_1" xmlns="http://www.w3.org/2000/svg" xmlns:xlink="http://www.w3.org/1999/xlink" x="0px" y="0px"
	 width="100px" height="100px" viewBox="0 0 100 100" enable-background="new 0 0 100 100" xml:space="preserve">
<g>
	<g>
		<g enable-background="new    ">
			<g>
				<defs>
					<path id="SVGID_235_" d="M70.438,71.933v2.521c0,1.666-1.361,3.004-3.023,3.004v-2.523
						C69.077,74.935,70.438,73.597,70.438,71.933z"/>
				</defs>
				<use xlink:href="#SVGID_235_"  overflow="visible" fill="#484A4B"/>
				<clipPath id="SVGID_2_">
					<use xlink:href="#SVGID_235_"  overflow="visible"/>
				</clipPath>
				<g clip-path="url(#SVGID_2_)" enable-background="new    ">
					<path fill="#484A4B" d="M70.438,71.933v2.521c0,0.146-0.012,0.289-0.031,0.428v-2.52C70.427,72.22,70.438,72.079,70.438,71.933
						"/>
					<path fill="#484A4B" d="M70.407,72.362v2.52c-0.021,0.166-0.061,0.33-0.111,0.484v-2.521
						C70.347,72.69,70.386,72.528,70.407,72.362"/>
					<path fill="#484A4B" d="M70.296,72.845v2.521c-0.059,0.186-0.135,0.361-0.229,0.527V73.37
						C70.161,73.206,70.237,73.03,70.296,72.845"/>
					<path fill="#484A4B" d="M70.067,73.37v2.523c-0.516,0.934-1.514,1.564-2.652,1.564v-2.523
						C68.554,74.935,69.552,74.304,70.067,73.37"/>
				</g>
			</g>
			<g>
				<polygon fill="#484A4B" points="67.415,74.935 67.415,77.458 32.368,77.458 31.677,74.782 				"/>
			</g>
			<g>
				<defs>
					<path id="SVGID_237_" d="M32.368,74.935v2.523c-1.676,0-3.023-1.338-3.023-3.004v-2.521
						C29.345,73.597,30.692,74.935,32.368,74.935z"/>
				</defs>
				<use xlink:href="#SVGID_237_"  overflow="visible" fill="#484A4B"/>
				<clipPath id="SVGID_4_">
					<use xlink:href="#SVGID_237_"  overflow="visible"/>
				</clipPath>
				<g clip-path="url(#SVGID_4_)" enable-background="new    ">
					<path fill="#484A4B" d="M32.368,74.935v2.523c-1.676,0-3.023-1.338-3.023-3.004v-2.521
						C29.345,73.597,30.692,74.935,32.368,74.935"/>
				</g>
			</g>
			<g>
				<path fill="#6D6F71" d="M67.415,21.181c1.662,0,3.023,1.342,3.023,3.006v47.746c0,1.664-1.361,3.002-3.023,3.002H32.368
					c-1.676,0-3.023-1.338-3.023-3.002V24.187c0-1.664,1.348-3.006,3.023-3.006H67.415z"/>
			</g>
		</g>
	</g>
	<g>
		<path fill="#FFFFFF" d="M57.052,27.991h8.301v3.34h-8.301V27.991z M45.675,27.991h8.305v3.34h-8.305V27.991z M34.3,27.991h8.303
			v3.34H34.3V27.991z M34.3,33.747h8.303v3.34H34.3V33.747z M34.353,39.497h8.303v3.344h-8.303V39.497z M42.673,45.255v3.342h-8.301
			v-3.342H42.673z M34.372,51.011h8.301v3.34h-8.301V51.011z M42.726,60.106h-8.305v-3.34h8.305V60.106z M45.675,33.747h8.305v3.34
			h-8.305V33.747z M45.729,39.497h8.301v3.344h-8.301V39.497z M54.048,45.255v3.342h-8.305v-3.342H54.048z M45.743,51.011h8.305
			v3.34h-8.305V51.011z M54.101,60.106h-8.299v-3.34h8.299V60.106z M57.052,33.747h8.301v3.34h-8.301V33.747z M57.104,39.497h8.303
			v3.344h-8.303V39.497z M65.425,45.255v3.342h-8.303v-3.342H65.425z M57.122,51.011h8.303v3.34h-8.303V51.011z M65.479,60.106
			h-8.307v-3.34h8.307V60.106z"/>
	</g>
</g>
</svg>
