<?xml version="1.0" encoding="utf-8"?>
<!-- Generator: Adobe Illustrator 12.0.0, SVG Export Plug-In  -->
<!DOCTYPE svg PUBLIC "-//W3C//DTD SVG 1.1//EN" "http://www.w3.org/Graphics/SVG/1.1/DTD/svg11.dtd" [
	<!ENTITY ns_flows "http://ns.adobe.com/Flows/1.0/">
	<!ENTITY ns_svg "http://www.w3.org/2000/svg">
	<!ENTITY ns_xlink "http://www.w3.org/1999/xlink">
]>
<svg  version="1.1" xmlns="&ns_svg;" xmlns:xlink="&ns_xlink;" xmlns:a="http://ns.adobe.com/AdobeSVGViewerExtensions/3.0/"
	 width="79" height="62" viewBox="-22.75 -0.75 79 62" enable-background="new -22.75 -0.75 79 62" xml:space="preserve">
<defs>
</defs>
<path fill="#19486F" d="M17.086,21.265c-0.24,0.06-0.49,0.12-0.75,0.19c-0.14,0.03-0.29,0.06-0.43,0.09L17.086,21.265z"/>
<path fill="none" d="M17.086,21.265c-0.24,0.06-0.49,0.12-0.75,0.19c-0.14,0.03-0.29,0.06-0.43,0.09"/>
<path fill="#6D6F71" d="M16.46,0c3.39,0,6.28,0.27,8.66,0.7c5.101,0.91,7.819,2.47,7.819,3.43s-2.719,2.53-7.819,3.44
	c-2.38,0.42-5.271,0.7-8.66,0.7C5.81,8.27,0,5.53,0,4.13C0,2.73,5.81,0,16.46,0z"/>
<path fill="#484A4B" d="M32.939,4.132v2.09c0,0.96-2.719,2.53-7.819,3.43c-2.38,0.42-5.271,0.71-8.66,0.71
	C5.81,10.362,0,7.622,0,6.222v-2.09c0,1.4,5.81,4.14,16.46,4.14c3.39,0,6.28-0.28,8.66-0.7C30.221,6.662,32.939,5.082,32.939,4.132z
	"/>
<path fill="#484A4B" d="M32.941,4.128v2.09c0,0.03-0.01,0.06-0.01,0.09v-2.09C32.932,4.188,32.941,4.158,32.941,4.128z"/>
<path fill="#484A4B" d="M32.93,4.217v2.09c-0.01,0.04-0.02,0.08-0.029,0.12v-2.1C32.91,4.296,32.92,4.256,32.93,4.217z"/>
<path fill="#484A4B" d="M32.896,4.331v2.09c-0.021,0.06-0.04,0.12-0.08,0.18v-2.09C32.855,4.451,32.875,4.391,32.896,4.331z"/>
<path fill="#484A4B" d="M32.82,4.512v2.09c-0.59,0.95-3.23,2.26-7.7,3.05c-2.38,0.42-5.271,0.71-8.66,0.71
	C5.81,10.362,0,7.622,0,6.222v-2.09c0,1.4,5.81,4.14,16.46,4.14c3.39,0,6.28-0.28,8.66-0.7C29.59,6.772,32.23,5.462,32.82,4.512z"/>
<path fill="#484A4B" d="M32.914,35.595c0.029-0.101,0.05-0.19,0.05-0.28v3.381c0,0.039,0,0.08-0.01,0.119
	c-0.011,0.051-0.021,0.1-0.04,0.15c0,0.01,0,0.01,0,0.01c0,0.01-0.01,0.02-0.01,0.02c-0.03,0.07-0.051,0.131-0.09,0.19
	c-0.01,0.021-0.03,0.04-0.041,0.05c-0.029,0.051-0.06,0.09-0.1,0.141c-0.04,0.05-0.09,0.109-0.14,0.17
	c-0.05,0.039-0.101,0.09-0.15,0.14c-0.06,0.06-0.13,0.12-0.2,0.17c-0.06,0.05-0.129,0.101-0.189,0.149
	c-0.09,0.061-0.18,0.121-0.27,0.181c-0.07,0.05-0.15,0.101-0.23,0.149c-0.11,0.061-0.23,0.121-0.34,0.181
	c-0.09,0.05-0.18,0.09-0.271,0.14c-0.14,0.07-0.3,0.141-0.46,0.2c-0.09,0.04-0.17,0.08-0.26,0.12c-0.26,0.1-0.53,0.2-0.82,0.301
	c-0.09,0.029-0.199,0.059-0.3,0.1c-0.21,0.06-0.42,0.129-0.649,0.189c-0.141,0.04-0.281,0.08-0.42,0.12
	c-0.221,0.05-0.431,0.11-0.65,0.16c-0.16,0.04-0.33,0.069-0.5,0.11c-0.221,0.049-0.45,0.09-0.69,0.14
	c-0.19,0.03-0.37,0.06-0.56,0.101c-0.25,0.039-0.51,0.08-0.77,0.119c-0.201,0.03-0.4,0.061-0.611,0.08
	c-0.27,0.04-0.56,0.07-0.85,0.1c-0.21,0.031-0.42,0.051-0.64,0.07c-0.31,0.03-0.64,0.061-0.97,0.08
	c-0.221,0.02-0.43,0.04-0.65,0.051c-0.38,0.02-0.77,0.039-1.17,0.049c-0.189,0.01-0.38,0.021-0.59,0.031
	c-0.61,0.02-1.23,0.029-1.881,0.029c-6.009,0-10.54-0.77-13.479-1.71c-2.19-0.771-3.76-1.62-3.94-2.28v-3.38
	c0.16,0.61,1.54,1.39,3.5,2.12l-0.04-0.2c2.94,0.931,7.95,2.07,13.95,2.07c0.66,0,1.291-0.011,1.891-0.03
	c0.199-0.01,0.39-0.02,0.58-0.029c0.4-0.011,0.8-0.031,1.18-0.051c0.221-0.01,0.42-0.029,0.63-0.05c0.341-0.021,0.681-0.05,1-0.08
	c0.21-0.021,0.41-0.04,0.61-0.06c0.31-0.041,0.6-0.07,0.89-0.11c0.19-0.021,0.38-0.05,0.57-0.08c0.28-0.04,0.55-0.08,0.819-0.13
	l3.721-0.9c0.31-0.1,0.59-0.209,0.859-0.32l0.721-0.319c0.06-0.03,0.119-0.06,0.17-0.09c0.16-0.08,0.3-0.16,0.439-0.24
	c0.061-0.03,0.11-0.069,0.17-0.101c0.121-0.08,0.23-0.149,0.33-0.219c0.051-0.041,0.1-0.08,0.15-0.121
	c0.08-0.069,0.17-0.14,0.24-0.209c0.039-0.031,0.08-0.07,0.109-0.11c0.07-0.07,0.131-0.13,0.18-0.2
	c0.021-0.04,0.051-0.07,0.08-0.109L32.914,35.595z"/>
<path fill="#6D6F71" d="M24.926,10.926c-0.461,0.09-0.91,0.15-1.36,0.22c-0.239,0.03-0.47,0.08-0.71,0.1
	c-0.42,0.05-0.85,0.09-1.279,0.14c-0.281,0.02-0.561,0.05-0.841,0.06c-0.55,0.04-1.11,0.08-1.67,0.1l-0.28,0.01
	c-0.649,0.03-1.31,0.04-2,0.05c-0.14,0-0.28,0-0.43,0c-6.54,0-13.13-1.12-16.33-3.26v28.381c0.17,0.659,1.73,1.51,3.91,2.279
	c2.95,0.939,7.49,1.71,13.49,1.71c10.979,0,15.539-2.681,15.539-4.11l0.031-28.52C31.275,9.276,28.506,10.306,24.926,10.926z"/>
</svg>
