<?xml version="1.0" encoding="utf-8"?>
<!-- Generator: Adobe Illustrator 16.0.0, SVG Export Plug-In . SVG Version: 6.00 Build 0)  -->
<!DOCTYPE svg PUBLIC "-//W3C//DTD SVG 1.1//EN" "http://www.w3.org/Graphics/SVG/1.1/DTD/svg11.dtd">
<svg version="1.1" id="Layer_1" xmlns="http://www.w3.org/2000/svg" xmlns:xlink="http://www.w3.org/1999/xlink" x="0px" y="0px"
	 width="100px" height="100px" viewBox="0 0 100 100" enable-background="new 0 0 100 100" xml:space="preserve">
<g>
	<g enable-background="new    ">
		<g>
			<defs>
				<path id="SVGID_199_" d="M85.307,58.553v2.615c0,5.852-6.381,11.779-14.258,11.779v-2.611
					C78.926,70.336,85.307,64.404,85.307,58.553z"/>
			</defs>
			<use xlink:href="#SVGID_199_"  overflow="visible" fill="#737678"/>
			<clipPath id="SVGID_2_">
				<use xlink:href="#SVGID_199_"  overflow="visible"/>
			</clipPath>
			<g clip-path="url(#SVGID_2_)" enable-background="new    ">
				<path fill="#737678" d="M85.307,58.553v2.615c0,0.398-0.029,0.797-0.088,1.195v-2.615
					C85.277,59.352,85.307,58.953,85.307,58.553"/>
				<path fill="#737678" d="M85.219,59.748v2.615c-0.07,0.498-0.188,0.992-0.346,1.48V61.23
					C85.031,60.74,85.148,60.246,85.219,59.748"/>
				<path fill="#737678" d="M84.873,61.23v2.613c-0.201,0.633-0.475,1.254-0.807,1.859v-2.617
					C84.398,62.484,84.672,61.863,84.873,61.23"/>
				<path fill="#737678" d="M84.066,63.086v2.617c-2.227,4.029-7.217,7.244-13.018,7.244v-2.611
					C76.85,70.336,81.84,67.119,84.066,63.086"/>
			</g>
		</g>
		<g>
			<polygon fill="#737678" points="71.049,70.336 71.049,72.947 29.096,72.947 27.914,69.381 			"/>
		</g>
		<g>
			<defs>
				<path id="SVGID_201_" d="M29.096,70.336v2.611c-7.861,0-14.242-5.928-14.242-11.779v-2.615
					C14.854,64.404,21.234,70.336,29.096,70.336z"/>
			</defs>
			<use xlink:href="#SVGID_201_"  overflow="visible" fill="#737678"/>
			<clipPath id="SVGID_4_">
				<use xlink:href="#SVGID_201_"  overflow="visible"/>
			</clipPath>
			<g clip-path="url(#SVGID_4_)" enable-background="new    ">
				<path fill="#737678" d="M29.096,70.336v2.611c-7.861,0-14.242-5.928-14.242-11.779v-2.615
					C14.854,64.404,21.234,70.336,29.096,70.336"/>
			</g>
		</g>
		<g>
			<path fill="#C5C6C7" d="M41.967,26.738c7.316,0,13.605,4.34,16.428,10.566c1.469-0.998,3.246-1.59,5.16-1.59
				c4.955,0,8.961,3.893,9.125,8.771c7.1,0.592,12.627,7.439,12.627,12.883v1.184c0,5.852-6.381,11.783-14.258,11.783H29.096
				c-7.861,0-14.242-5.932-14.242-11.783v-1.184c0-4.512,3.787-10.711,9.125-12.248c0-0.162-0.025-0.338-0.025-0.512
				C23.953,34.73,32.018,26.738,41.967,26.738z"/>
		</g>
	</g>
</g>
</svg>
