<?xml version="1.0" encoding="utf-8"?>
<!-- Generator: Adobe Illustrator 16.0.0, SVG Export Plug-In . SVG Version: 6.00 Build 0)  -->
<!DOCTYPE svg PUBLIC "-//W3C//DTD SVG 1.1//EN" "http://www.w3.org/Graphics/SVG/1.1/DTD/svg11.dtd">
<svg version="1.1" id="Layer_1" xmlns="http://www.w3.org/2000/svg" xmlns:xlink="http://www.w3.org/1999/xlink" x="0px" y="0px"
	 width="100px" height="100px" viewBox="0 0 100 100" enable-background="new 0 0 100 100" xml:space="preserve">
<g>
	<g>
		<g enable-background="new    ">
			<g>
				<defs>
					<path id="SVGID_239_" d="M68.275,71.823v2.533c0,1.707-1.393,3.107-3.131,3.107v-2.533
						C66.883,74.931,68.275,73.534,68.275,71.823z"/>
				</defs>
				<use xlink:href="#SVGID_239_"  overflow="visible" fill="#737678"/>
				<clipPath id="SVGID_2_">
					<use xlink:href="#SVGID_239_"  overflow="visible"/>
				</clipPath>
				<g clip-path="url(#SVGID_2_)" enable-background="new    ">
					<path fill="#737678" d="M68.275,71.823v2.533c0,0.15-0.014,0.299-0.031,0.445v-2.533
						C68.262,72.124,68.275,71.978,68.275,71.823"/>
					<path fill="#737678" d="M68.244,72.269v2.533c-0.025,0.168-0.064,0.34-0.117,0.5v-2.533
						C68.18,72.608,68.219,72.44,68.244,72.269"/>
					<path fill="#737678" d="M68.127,72.769v2.533c-0.059,0.191-0.141,0.371-0.234,0.547v-2.531
						C67.986,73.144,68.068,72.96,68.127,72.769"/>
					<path fill="#737678" d="M67.893,73.317v2.531c-0.531,0.957-1.562,1.615-2.748,1.615v-2.533
						C66.33,74.931,67.361,74.276,67.893,73.317"/>
				</g>
			</g>
			<g>
				<polygon fill="#737678" points="65.72,74.644 65.145,77.464 34.873,77.464 34.22,74.227 				"/>
			</g>
			<g>
				<defs>
					<path id="SVGID_241_" d="M34.873,74.931v2.533c-1.723,0-3.131-1.4-3.131-3.107v-2.533
						C31.742,73.534,33.15,74.931,34.873,74.931z"/>
				</defs>
				<use xlink:href="#SVGID_241_"  overflow="visible" fill="#737678"/>
				<clipPath id="SVGID_4_">
					<use xlink:href="#SVGID_241_"  overflow="visible"/>
				</clipPath>
				<g clip-path="url(#SVGID_4_)" enable-background="new    ">
					<path fill="#737678" d="M34.873,74.931v2.533c-1.723,0-3.131-1.4-3.131-3.107v-2.533C31.742,73.534,33.15,74.931,34.873,74.931
						"/>
				</g>
			</g>
			<g>
				<path fill="#C5C6C7" d="M65.145,21.175c1.738,0,3.131,1.398,3.131,3.111v47.537c0,1.711-1.393,3.107-3.131,3.107H34.873
					c-1.723,0-3.131-1.396-3.131-3.107V24.286c0-1.713,1.408-3.111,3.131-3.111H65.145z"/>
			</g>
		</g>
	</g>
	<g>
		<path fill="#FFFFFF" d="M40.881,24.626h18.207c1.127,0,2.043,0.908,2.043,2.027c0,1.121-0.916,2.029-2.043,2.029H40.881
			c-1.129,0-2.047-0.908-2.047-2.029C38.834,25.534,39.752,24.626,40.881,24.626z M49.982,73.517c-1.969,0-3.562-1.588-3.562-3.545
			c0-1.955,1.594-3.541,3.562-3.541s3.564,1.586,3.564,3.541C53.547,71.929,51.951,73.517,49.982,73.517z M64.723,62.177
			c0,1.029-0.934,1.863-2.09,1.863H37.33c-1.15,0-2.086-0.834-2.086-1.863V33.899c0-1.025,0.936-1.855,2.086-1.855h25.303
			c1.156,0,2.09,0.83,2.09,1.855V62.177z"/>
	</g>
</g>
</svg>
