<?xml version="1.0" encoding="utf-8"?>
<!-- Generator: Adobe Illustrator 16.0.0, SVG Export Plug-In . SVG Version: 6.00 Build 0)  -->
<!DOCTYPE svg PUBLIC "-//W3C//DTD SVG 1.1//EN" "http://www.w3.org/Graphics/SVG/1.1/DTD/svg11.dtd">
<svg version="1.1" id="Layer_1" xmlns="http://www.w3.org/2000/svg" xmlns:xlink="http://www.w3.org/1999/xlink" x="0px" y="0px"
	 width="100px" height="100px" viewBox="0 0 100 100" enable-background="new 0 0 100 100" xml:space="preserve">
<g>
	<g>
		<g enable-background="new    ">
			<g>
				<defs>
					<path id="SVGID_243_" d="M79.385,71.021v2.525c0,2.16-1.771,3.904-3.947,3.904v-2.525
						C77.613,74.925,79.385,73.183,79.385,71.021z"/>
				</defs>
				<use xlink:href="#SVGID_243_"  overflow="visible" fill="#737678"/>
				<clipPath id="SVGID_2_">
					<use xlink:href="#SVGID_243_"  overflow="visible"/>
				</clipPath>
				<g clip-path="url(#SVGID_2_)" enable-background="new    ">
					<path fill="#737678" d="M79.385,71.021v2.525c0,0.188-0.016,0.375-0.041,0.557v-2.525
						C79.369,71.397,79.385,71.212,79.385,71.021"/>
					<path fill="#737678" d="M79.344,71.577v2.525c-0.029,0.215-0.078,0.424-0.145,0.629v-2.527
						C79.266,72.003,79.314,71.792,79.344,71.577"/>
					<path fill="#737678" d="M79.199,72.204v2.527c-0.076,0.236-0.176,0.467-0.295,0.682V72.89
						C79.023,72.673,79.123,72.442,79.199,72.204"/>
					<path fill="#737678" d="M78.904,72.89v2.523c-0.67,1.215-1.973,2.037-3.467,2.037v-2.525
						C76.932,74.925,78.234,74.103,78.904,72.89"/>
				</g>
			</g>
			<g>
				<polygon fill="#737678" points="76.604,74.183 75.438,77.45 24.947,77.45 23.979,74.308 				"/>
			</g>
			<g>
				<defs>
					<path id="SVGID_245_" d="M24.947,74.925v2.525c-2.164,0-3.936-1.744-3.936-3.904v-2.525
						C21.012,73.183,22.783,74.925,24.947,74.925z"/>
				</defs>
				<use xlink:href="#SVGID_245_"  overflow="visible" fill="#737678"/>
				<clipPath id="SVGID_4_">
					<use xlink:href="#SVGID_245_"  overflow="visible"/>
				</clipPath>
				<g clip-path="url(#SVGID_4_)" enable-background="new    ">
					<path fill="#737678" d="M24.947,74.925v2.525c-2.164,0-3.936-1.744-3.936-3.904v-2.525
						C21.012,73.183,22.783,74.925,24.947,74.925"/>
				</g>
			</g>
			<g>
				<path fill="#C5C6C7" d="M75.438,21.188c2.176,0,3.947,1.756,3.947,3.918v45.914c0,2.162-1.771,3.904-3.947,3.904h-50.49
					c-2.164,0-3.936-1.742-3.936-3.904V25.106c0-2.162,1.771-3.918,3.936-3.918H75.438z"/>
			</g>
		</g>
	</g>
	<g>
		<g>
			<g>
				<path fill="#FFFFFF" d="M66.664,25.729c0-0.9,0.73-1.625,1.633-1.625h6.285c0.908,0,1.637,0.725,1.637,1.625v2.604
					c0,0.895-0.729,1.623-1.637,1.623h-6.285c-0.902,0-1.633-0.729-1.633-1.623V25.729z M52.562,25.729
					c0-0.9,0.729-1.625,1.631-1.625h6.283c0.906,0,1.637,0.725,1.637,1.625v2.604c0,0.895-0.73,1.623-1.637,1.623h-6.283
					c-0.902,0-1.631-0.729-1.631-1.623V25.729z M38.461,25.729c0-0.9,0.727-1.625,1.631-1.625h6.281
					c0.904,0,1.637,0.725,1.637,1.625v2.604c0,0.895-0.732,1.623-1.637,1.623h-6.281c-0.904,0-1.631-0.729-1.631-1.623V25.729z
					 M24.354,25.729c0-0.9,0.732-1.625,1.635-1.625h6.281c0.906,0,1.641,0.725,1.641,1.625v2.604c0,0.895-0.734,1.623-1.641,1.623
					h-6.281c-0.902,0-1.635-0.729-1.635-1.623V25.729z M33.91,70.39c0,0.9-0.734,1.629-1.641,1.629h-6.281
					c-0.902,0-1.635-0.729-1.635-1.629v-2.6c0-0.9,0.732-1.625,1.635-1.625h6.281c0.906,0,1.641,0.725,1.641,1.625V70.39z
					 M48.01,70.39c0,0.9-0.732,1.629-1.637,1.629h-6.281c-0.904,0-1.631-0.729-1.631-1.629v-2.6c0-0.9,0.727-1.625,1.631-1.625
					h6.281c0.904,0,1.637,0.725,1.637,1.625V70.39z M62.113,70.39c0,0.9-0.73,1.629-1.637,1.629h-6.283
					c-0.902,0-1.631-0.729-1.631-1.629v-2.6c0-0.9,0.729-1.625,1.631-1.625h6.283c0.906,0,1.637,0.725,1.637,1.625V70.39z
					 M76.219,70.39c0,0.9-0.729,1.629-1.637,1.629h-6.285c-0.902,0-1.633-0.729-1.633-1.629v-2.6c0-0.9,0.73-1.625,1.633-1.625
					h6.285c0.908,0,1.637,0.725,1.637,1.625V70.39z M75.398,63.544H25.01c-0.49,0-0.879-0.393-0.879-0.873S24.52,61.8,25.01,61.8
					h50.389c0.484,0,0.873,0.391,0.873,0.871S75.883,63.544,75.398,63.544z M42.412,47.171c0.408-3.654,3.314-6.539,7-6.947v6.947
					H42.412z M49.412,48.913v6.953c-3.686-0.412-6.592-3.295-7-6.953H49.412z M40.607,47.171h-1.506
					c0.426-5.459,4.807-9.811,10.311-10.236v1.496C44.732,38.858,41.031,42.53,40.607,47.171z M40.607,48.913
					c0.424,4.645,4.125,8.32,8.805,8.742v1.494c-5.504-0.422-9.885-4.773-10.311-10.236H40.607z M58.166,47.171h-7.004v-6.947
					C54.848,40.628,57.76,43.515,58.166,47.171z M51.162,38.431v-1.496c5.5,0.422,9.883,4.775,10.311,10.236h-1.502
					C59.547,42.53,55.842,38.849,51.162,38.431z M58.166,48.913c-0.406,3.66-3.318,6.547-7.004,6.953v-6.953H58.166z M59.971,48.913
					h1.502c-0.428,5.463-4.811,9.816-10.311,10.236v-1.494C55.842,57.235,59.547,53.56,59.971,48.913z M75.398,34.015H25.01
					c-0.49,0-0.879-0.391-0.879-0.871c0-0.482,0.389-0.867,0.879-0.867h50.389c0.484,0,0.873,0.385,0.873,0.867
					C76.271,33.624,75.883,34.015,75.398,34.015z"/>
			</g>
		</g>
	</g>
</g>
</svg>
