<?xml version="1.0" encoding="utf-8"?>
<!-- Generator: Adobe Illustrator 12.0.0, SVG Export Plug-In  -->
<!DOCTYPE svg PUBLIC "-//W3C//DTD SVG 1.1//EN" "http://www.w3.org/Graphics/SVG/1.1/DTD/svg11.dtd" [
	<!ENTITY ns_flows "http://ns.adobe.com/Flows/1.0/">
	<!ENTITY ns_svg "http://www.w3.org/2000/svg">
	<!ENTITY ns_xlink "http://www.w3.org/1999/xlink">
]>
<svg  version="1.1" xmlns="&ns_svg;" xmlns:xlink="&ns_xlink;" xmlns:a="http://ns.adobe.com/AdobeSVGViewerExtensions/3.0/"
	 width="62" height="50" viewBox="-5.192 -1.121 62 50" enable-background="new -5.192 -1.121 62 50" xml:space="preserve">
<defs>
</defs>
<rect y="11.229" fill="#484A4B" width="23.257" height="2.292"/>
<rect x="26.494" y="11.625" fill="#484A4B" width="23.257" height="2.697"/>
<path fill="#484A4B" d="M43.1,3.879c-5.81-2.75-12.74-0.27-15.49,5.54c-1.859,3.93-1.319,8.37,1.021,11.68
	c-2.7,0.68-5.36,0.74-8.56,0.72c0.54-0.53,0.7-0.72,1.13-1.35c1.3-1.87,2.06-4.14,2.06-6.59c0-6.43-5.21-11.63-11.63-11.63
	S0,7.449,0,13.879c0,6.42,5.21,11.63,11.63,11.63c2.06,0,4-0.55,5.68-1.49c0.66,0.07,1.35,0.12,2.07,0.14
	c0,0,5.49,0.649,11.39-0.771c0.721,0.58,1.51,1.1,2.381,1.51c5.799,2.75,12.739,0.271,15.489-5.54C51.38,13.56,48.9,6.62,43.1,3.879
	z"/>
<path fill="#6D6F71" d="M43.1,1.63c-5.81-2.75-12.74-0.27-15.49,5.54c-1.859,3.92-1.319,8.37,1.021,11.68
	c-2.7,0.68-5.69,1.13-8.89,1.11c2.17-2.12,3.52-5.07,3.52-8.33C23.26,5.2,18.05,0,11.63,0S0,5.2,0,11.63
	c0,6.42,5.21,11.63,11.63,11.63c2.06,0,4-0.55,5.68-1.49c0.66,0.07,1.35,0.12,2.07,0.14c0,0,5.49,0.65,11.39-0.77
	c0.721,0.58,1.51,1.1,2.381,1.51c5.799,2.75,12.739,0.271,15.489-5.54C51.38,11.31,48.9,4.37,43.1,1.63z"/>
<path fill="#FFFFFF" d="M9.016,14.407c-0.74-0.91-2.07-1.04-2.97-0.3l-1.64,1.34c-0.9,0.73-1.04,2.07-0.3,2.97l0.15,0.18
	c0.74,0.91,2.07,1.04,2.97,0.3l1.64-1.34c0.91-0.74,1.04-2.07,0.3-2.97L9.016,14.407z"/>
<path fill="#FFFFFF" d="M21.908,12.193c0.02-1.16-0.92-2.12-2.09-2.14l-2.11-0.03c-1.17-0.01-2.12,0.92-2.14,2.09v0.23
	c-0.02,1.17,0.92,2.13,2.08,2.15l2.11,0.02c1.17,0.02,2.13-0.91,2.15-2.08V12.193z"/>
<path fill="#FFFFFF" d="M10.573,7.543c1.11-0.37,1.71-1.57,1.33-2.67l-0.67-2.01c-0.37-1.11-1.57-1.7-2.67-1.33l-0.23,0.07
	c-1.1,0.38-1.7,1.58-1.33,2.68l0.67,2.01c0.37,1.1,1.57,1.7,2.68,1.33L10.573,7.543z"/>
<ellipse fill="#FFFFFF" cx="11.629" cy="11.626" rx="1.645" ry="1.645"/>
<path fill="#FFFFFF" d="M39.512,15.686c-1.13,0.28-1.82,1.43-1.54,2.56l0.511,2.06c0.279,1.13,1.43,1.82,2.56,1.54l0.229-0.06
	c1.131-0.28,1.83-1.43,1.541-2.56l-0.511-2.05c-0.28-1.13-1.43-1.83-2.56-1.54L39.512,15.686z"/>
<path fill="#FFFFFF" d="M43.033,3.096c-1.051-0.52-2.311-0.08-2.83,0.96l-0.93,1.9c-0.511,1.05-0.08,2.32,0.969,2.83l0.211,0.11
	c1.05,0.51,2.32,0.08,2.83-0.97l0.93-1.9c0.52-1.05,0.08-2.32-0.971-2.83L43.033,3.096z"/>
<path fill="#FFFFFF" d="M33.98,11.351c0.141-1.16-0.689-2.22-1.85-2.35l-2.1-0.25c-1.15-0.14-2.21,0.69-2.35,1.85l-0.021,0.23
	c-0.14,1.16,0.69,2.21,1.851,2.35l2.1,0.25c1.16,0.14,2.21-0.69,2.35-1.85L33.98,11.351z"/>
<ellipse fill="#FFFFFF" cx="38.123" cy="12.139" rx="1.645" ry="1.645"/>
</svg>
