<?xml version="1.0" encoding="utf-8"?>
<!-- Generator: Adobe Illustrator 16.0.0, SVG Export Plug-In . SVG Version: 6.00 Build 0)  -->
<!DOCTYPE svg PUBLIC "-//W3C//DTD SVG 1.1//EN" "http://www.w3.org/Graphics/SVG/1.1/DTD/svg11.dtd">
<svg version="1.1" id="Layer_1" xmlns="http://www.w3.org/2000/svg" xmlns:xlink="http://www.w3.org/1999/xlink" x="0px" y="0px"
	 width="100px" height="100px" viewBox="0 0 100 100" enable-background="new 0 0 100 100" xml:space="preserve">
<g>
	<g enable-background="new    ">
		<g>
			<path fill="#C5C6C7" d="M64.948,21.735c4.389,0,7.967,3.65,7.967,8.143c0,4.506-3.578,8.156-7.967,8.156s-7.967-3.65-7.967-8.156
				C56.981,25.386,60.56,21.735,64.948,21.735z"/>
		</g>
		<g>
			<defs>
				<path id="SVGID_203_" d="M72.915,29.878v2.402c0,4.506-3.578,8.156-7.967,8.156s-7.967-3.65-7.967-8.156v-2.402
					c0,4.506,3.578,8.156,7.967,8.156S72.915,34.384,72.915,29.878z"/>
			</defs>
			<use xlink:href="#SVGID_203_"  overflow="visible" fill="#737678"/>
			<clipPath id="SVGID_2_">
				<use xlink:href="#SVGID_203_"  overflow="visible"/>
			</clipPath>
			<g clip-path="url(#SVGID_2_)" enable-background="new    ">
				<path fill="#737678" d="M72.915,29.878v2.402c0,0.408-0.027,0.811-0.086,1.199v-2.4C72.888,30.687,72.915,30.286,72.915,29.878"
					/>
				<path fill="#737678" d="M72.829,31.079v2.4c-0.066,0.461-0.17,0.91-0.311,1.342v-2.4C72.659,31.989,72.763,31.538,72.829,31.079
					"/>
				<path fill="#737678" d="M72.519,32.421v2.4c-0.162,0.512-0.375,1-0.627,1.463v-2.402C72.144,33.419,72.356,32.933,72.519,32.421
					"/>
				<path fill="#737678" d="M71.892,33.882v2.402c-1.371,2.477-3.971,4.152-6.943,4.152c-4.389,0-7.967-3.65-7.967-8.156v-2.402
					c0,4.506,3.578,8.156,7.967,8.156C67.921,38.034,70.521,36.36,71.892,33.882"/>
			</g>
		</g>
	</g>
	<g enable-background="new    ">
		<g>
			<path fill="#C5C6C7" d="M49.798,32.874c3.904,0,7.068,3.244,7.068,7.227c0,3.988-3.164,7.229-7.068,7.229
				c-3.891,0-7.057-3.24-7.057-7.229C42.741,36.118,45.907,32.874,49.798,32.874z"/>
		</g>
		<g>
			<defs>
				<path id="SVGID_205_" d="M56.866,40.101v2.402c0,3.986-3.164,7.229-7.068,7.229c-3.891,0-7.057-3.242-7.057-7.229v-2.402
					c0,3.988,3.166,7.229,7.057,7.229C53.702,47.329,56.866,44.089,56.866,40.101z"/>
			</defs>
			<use xlink:href="#SVGID_205_"  overflow="visible" fill="#737678"/>
			<clipPath id="SVGID_4_">
				<use xlink:href="#SVGID_205_"  overflow="visible"/>
			</clipPath>
			<g clip-path="url(#SVGID_4_)" enable-background="new    ">
				<path fill="#737678" d="M56.866,40.101v2.402c0,0.361-0.025,0.715-0.074,1.061v-2.402
					C56.841,40.815,56.866,40.462,56.866,40.101"/>
				<path fill="#737678" d="M56.792,41.161v2.402c-0.061,0.408-0.15,0.807-0.275,1.193v-2.402
					C56.642,41.97,56.731,41.571,56.792,41.161"/>
				<path fill="#737678" d="M56.517,42.354v2.402c-0.145,0.449-0.332,0.883-0.557,1.293v-2.4
					C56.185,43.241,56.372,42.806,56.517,42.354"/>
				<path fill="#737678" d="M55.96,43.649v2.4c-1.215,2.195-3.52,3.682-6.162,3.682c-3.891,0-7.057-3.242-7.057-7.229v-2.402
					c0,3.988,3.166,7.229,7.057,7.229C52.44,47.329,54.745,45.843,55.96,43.649"/>
			</g>
		</g>
		<g>
			<polygon fill="#737678" points="55.462,51.981 54.849,54.608 50.673,54.608 50.673,52.208 			"/>
		</g>
		<g>
			<polygon fill="#737678" points="48.927,52.208 48.927,54.608 44.749,54.608 43.962,51.981 			"/>
		</g>
		<g>
			<rect x="73.13" y="54.038" fill="#737678" width="1.309" height="2.402"/>
		</g>
		<g>
			<rect x="25.396" y="54.052" fill="#737678" width="1.299" height="2.402"/>
		</g>
		<g>
			<rect x="26.694" y="61.218" fill="#737678" width="7.145" height="2.4"/>
		</g>
		<g>
			<rect x="20.382" y="61.218" fill="#737678" width="5.014" height="2.4"/>
		</g>
		<g>
			<path fill="#C5C6C7" d="M69.985,42.329c5.438,0,9.229,3.418,9.229,8.295v10.594h-4.775v-7.18H73.13v7.18h-7.373
				c-0.482-5.357-4.822-9.01-10.908-9.01h-4.176v-0.906c4.662-0.42,8.377-4.207,8.789-8.949c0.15-0.01,0.287-0.023,0.438-0.023
				H69.985z"/>
		</g>
		<g>
			<rect x="74.438" y="61.218" fill="#737678" width="4.775" height="2.4"/>
		</g>
		<g>
			<rect x="65.757" y="61.218" fill="#737678" width="7.373" height="2.4"/>
		</g>
		<g>
			<defs>
				<path id="SVGID_207_" d="M65.757,61.218v2.4c-0.482-5.357-4.822-9.01-10.908-9.01v-2.4
					C60.935,52.208,65.274,55.86,65.757,61.218z"/>
			</defs>
			<use xlink:href="#SVGID_207_"  overflow="visible" fill="#737678"/>
			<clipPath id="SVGID_6_">
				<use xlink:href="#SVGID_207_"  overflow="visible"/>
			</clipPath>
			<g clip-path="url(#SVGID_6_)" enable-background="new    ">
				<path fill="#737678" d="M65.757,61.218v2.4c-0.482-5.357-4.822-9.01-10.908-9.01v-2.4C60.935,52.208,65.274,55.86,65.757,61.218
					"/>
			</g>
		</g>
		<g>
			<path fill="#C5C6C7" d="M39.696,42.343c0.152,0,0.301,0.01,0.449,0.01c0.414,4.742,4.127,8.529,8.781,8.949v0.906h-4.178
				c-6.084,0-10.436,3.652-10.91,9.01h-7.145v-7.166h-1.299v7.166h-5.014V50.636c0-4.889,3.793-8.293,9.23-8.293H39.696z"/>
		</g>
		<g>
			<defs>
				<path id="SVGID_209_" d="M44.749,52.208v2.4c-6.084,0-10.436,3.652-10.91,9.01v-2.4C34.313,55.86,38.665,52.208,44.749,52.208z"
					/>
			</defs>
			<use xlink:href="#SVGID_209_"  overflow="visible" fill="#737678"/>
			<clipPath id="SVGID_8_">
				<use xlink:href="#SVGID_209_"  overflow="visible"/>
			</clipPath>
			<g clip-path="url(#SVGID_8_)" enable-background="new    ">
				<path fill="#737678" d="M44.749,52.208v2.4c-4.471,0-8.004,1.969-9.752,5.139v-2.404C36.745,54.175,40.278,52.208,44.749,52.208
					"/>
				<path fill="#737678" d="M34.997,57.343v2.404c-0.289,0.52-0.529,1.076-0.717,1.66v-2.4
					C34.468,58.423,34.708,57.866,34.997,57.343"/>
				<path fill="#737678" d="M34.28,59.007v2.4c-0.166,0.523-0.293,1.066-0.375,1.631v-2.4C33.987,60.071,34.114,59.528,34.28,59.007
					"/>
				<path fill="#737678" d="M33.905,60.638v2.4c-0.027,0.189-0.047,0.383-0.066,0.58v-2.4
					C33.858,61.022,33.878,60.829,33.905,60.638"/>
			</g>
		</g>
		<g>
			<rect x="57.991" y="68.384" fill="#737678" width="1.297" height="2.398"/>
		</g>
		<g>
			<rect x="40.534" y="68.384" fill="#737678" width="1.309" height="2.398"/>
		</g>
		<g>
			<path fill="#C5C6C7" d="M54.849,56.673c5.438,0,9.229,3.418,9.229,8.293v10.586h-4.789v-7.168h-1.297v7.168H41.843v-7.168h-1.309
				v7.168h-5.012V64.966c0-4.875,3.789-8.293,9.227-8.293H54.849z"/>
		</g>
		<g>
			<rect x="59.288" y="75.552" fill="#737678" width="4.789" height="2.398"/>
		</g>
		<g>
			<rect x="41.843" y="75.552" fill="#737678" width="16.148" height="2.398"/>
		</g>
		<g>
			<rect x="35.522" y="75.552" fill="#737678" width="5.012" height="2.398"/>
		</g>
	</g>
	<g enable-background="new    ">
		<g>
			<path fill="#C5C6C7" d="M34.649,21.735c4.4,0,7.98,3.664,7.98,8.143c0,4.506-3.58,8.156-7.98,8.156
				c-4.391,0-7.955-3.65-7.955-8.156C26.694,25.399,30.259,21.735,34.649,21.735z"/>
		</g>
		<g>
			<defs>
				<path id="SVGID_211_" d="M42.63,29.878v2.402c0,4.506-3.58,8.156-7.98,8.156c-4.391,0-7.955-3.65-7.955-8.156v-2.402
					c0,4.506,3.564,8.156,7.955,8.156C39.05,38.034,42.63,34.384,42.63,29.878z"/>
			</defs>
			<use xlink:href="#SVGID_211_"  overflow="visible" fill="#737678"/>
			<clipPath id="SVGID_10_">
				<use xlink:href="#SVGID_211_"  overflow="visible"/>
			</clipPath>
			<g clip-path="url(#SVGID_10_)" enable-background="new    ">
				<path fill="#737678" d="M42.63,29.878v2.402c0,0.408-0.031,0.809-0.086,1.199v-2.402C42.599,30.687,42.63,30.286,42.63,29.878"
					/>
				<path fill="#737678" d="M42.544,31.077v2.402c-0.066,0.461-0.172,0.91-0.312,1.342v-2.4
					C42.372,31.989,42.478,31.538,42.544,31.077"/>
				<path fill="#737678" d="M42.231,32.421v2.4c-0.162,0.51-0.373,0.998-0.627,1.459v-2.4
					C41.858,33.419,42.069,32.933,42.231,32.421"/>
				<path fill="#737678" d="M41.604,33.88v2.4c-1.371,2.48-3.975,4.156-6.955,4.156c-4.391,0-7.955-3.65-7.955-8.156v-2.402
					c0,4.506,3.564,8.156,7.955,8.156C37.63,38.034,40.233,36.36,41.604,33.88"/>
			</g>
		</g>
	</g>
</g>
</svg>
