<?xml version="1.0" encoding="utf-8"?>
<!-- Generator: Adobe Illustrator 16.0.0, SVG Export Plug-In . SVG Version: 6.00 Build 0)  -->
<!DOCTYPE svg PUBLIC "-//W3C//DTD SVG 1.1//EN" "http://www.w3.org/Graphics/SVG/1.1/DTD/svg11.dtd">
<svg version="1.1" id="Layer_1" xmlns="http://www.w3.org/2000/svg" xmlns:xlink="http://www.w3.org/1999/xlink" x="0px" y="0px"
	 width="100px" height="100px" viewBox="0 0 100 100" enable-background="new 0 0 100 100" xml:space="preserve">
<g>
	<g enable-background="new    ">
		<g>
			<path fill="#C5C6C7" d="M49.759,21.873c6.502,0,11.775,5.236,11.775,11.68c0,6.453-5.273,11.689-11.775,11.689
				c-6.506,0-11.768-5.236-11.768-11.689C37.991,27.109,43.253,21.873,49.759,21.873z"/>
		</g>
		<g>
			<defs>
				<path id="SVGID_213_" d="M61.534,33.553v2.52c0,6.455-5.273,11.691-11.775,11.691c-6.506,0-11.768-5.236-11.768-11.691v-2.52
					c0,6.453,5.262,11.689,11.768,11.689C56.261,45.242,61.534,40.006,61.534,33.553z"/>
			</defs>
			<use xlink:href="#SVGID_213_"  overflow="visible" fill="#737678"/>
			<clipPath id="SVGID_2_">
				<use xlink:href="#SVGID_213_"  overflow="visible"/>
			</clipPath>
			<g clip-path="url(#SVGID_2_)" enable-background="new    ">
				<path fill="#737678" d="M61.534,33.553v2.52c0,0.566-0.041,1.125-0.117,1.672l-0.107-2.246
					C61.386,34.953,61.534,34.119,61.534,33.553"/>
				<path fill="#737678" d="M61.417,35.223v2.521c-0.094,0.646-0.242,1.273-0.436,1.883l-0.453-2.098
					C60.722,36.92,61.323,35.867,61.417,35.223"/>
				<path fill="#737678" d="M60.981,37.109v2.518c-0.23,0.719-0.527,1.404-0.887,2.057v-2.521
					C60.454,38.512,60.751,37.824,60.981,37.109"/>
				<path fill="#737678" d="M60.095,39.162v2.521c-2,3.619-5.881,6.08-10.336,6.08c-6.506,0-11.768-5.236-11.768-11.691v-2.52
					c0,6.453,5.262,11.689,11.768,11.689C54.214,45.242,58.095,42.787,60.095,39.162"/>
			</g>
		</g>
	</g>
	<g enable-background="new    ">
		<g>
			<rect x="60.87" y="64.885" fill="#737678" width="1.32" height="2.521"/>
		</g>
		<g>
			<rect x="37.612" y="64.885" fill="#737678" width="1.332" height="2.521"/>
		</g>
		<g>
			<path fill="#C5C6C7" d="M56.483,48.582c7.436,0,13.455,4.51,13.455,11.871v14.838H62.19V64.885h-1.32v10.406H38.944V64.885
				h-1.332v10.406h-8.037V60.453c0-7.361,6.018-11.871,13.457-11.871H56.483z"/>
		</g>
		<g>
			<rect x="62.19" y="75.291" fill="#737678" width="7.748" height="2.521"/>
		</g>
		<g>
			<rect x="38.944" y="75.291" fill="#737678" width="21.926" height="2.521"/>
		</g>
		<g>
			<rect x="29.575" y="75.291" fill="#737678" width="8.037" height="2.521"/>
		</g>
	</g>
</g>
</svg>
