<?xml version="1.0" encoding="UTF-8" standalone="no"?>
<!DOCTYPE svg PUBLIC "-//W3C//DTD SVG 1.0//EN" "http://www.w3.org/TR/2001/REC-SVG-20010904/DTD/svg10.dtd">
<!-- Generated by Microsoft Visio 11.0, SVG Export, v1.0 Android.svg Page-1 -->
<svg xmlns="http://www.w3.org/2000/svg" xmlns:xlink="http://www.w3.org/1999/xlink" xmlns:ev="http://www.w3.org/2001/xml-events"
		xmlns:v="http://schemas.microsoft.com/visio/2003/SVGExtensions/" width="0.697002in" height="0.997973in"
		viewBox="0 0 50.1842 71.8541" xml:space="preserve" color-interpolation-filters="sRGB" class="st5">
	<v:documentProperties v:langID="1033" v:viewMarkup="false"/>

	<style type="text/css">
	<![CDATA[
		.st1 {fill:#ffffff;stroke:#464646;stroke-linecap:butt;stroke-width:1.70408}
		.st2 {fill:#96bf3d;stroke:#ffffff;stroke-linecap:butt;stroke-width:1.70408}
		.st3 {fill:none;stroke:none;stroke-linecap:round;stroke-linejoin:round;stroke-width:0.75}
		.st4 {fill:#000000;font-family:Verdana;font-size:0.666664em}
		.st5 {fill:none;fill-rule:evenodd;font-size:12px;overflow:visible;stroke-linecap:square;stroke-miterlimit:3}
	]]>
	</style>

	<g v:mID="0" v:index="1" v:groupContext="foregroundPage">
		<title>Page-1</title>
		<v:pageProperties v:drawingScale="1" v:pageScale="1" v:drawingUnits="19" v:shadowOffsetX="9" v:shadowOffsetY="-9"/>
		<g id="group1-1" transform="translate(1.70407,-0.75)" v:mID="1" v:groupContext="group">
			<title>Android</title>
			<g id="group2-2" transform="translate(0,-15.4)" v:mID="2" v:groupContext="group">
				<title>Sheet.2</title>
				<g id="group3-3" v:mID="3" v:groupContext="group">
					<title>Sheet.3</title>
					<g id="group4-4" v:mID="4" v:groupContext="group">
						<title>Sheet.4</title>
						<g id="shape5-5" v:mID="5" v:groupContext="shape">
							<title>Sheet.5</title>
							<path d="M23.38 71.85 L0 58.35 L0.01 31.35 L23.4 17.85 L46.78 31.36 L46.77 58.36 L23.38 71.85 Z"
									class="st1"/>
						</g>
						<g id="shape6-7" v:mID="6" v:groupContext="shape" transform="translate(0.0105,-27.0007)">
							<title>Sheet.6</title>
							<path d="M0 58.35 L0 58.35 L23.37 71.85 L46.76 58.36 L46.76 58.36 L23.39 44.85 L0 58.35 Z" class="st1"/>
						</g>
						<g id="shape7-9" v:mID="7" v:groupContext="shape" transform="translate(0,-0.40575)">
							<title>Sheet.7</title>
							<path d="M0.01 31.76 L0 31.76 L0.45 58.75 L24.06 71.85 L24.07 71.85 L23.61 44.87 L0.01 31.76 Z"
									class="st1"/>
						</g>
					</g>
					<g id="group8-11" transform="translate(10.6005,-12.237)" v:mID="8" v:groupContext="group">
						<title>Sheet.8</title>
						<g id="shape9-12" v:mID="9" v:groupContext="shape">
							<title>Sheet.9</title>
							<path d="M12.78 71.85 L0 64.47 L0 49.71 L12.79 42.33 L25.58 49.71 L25.57 64.48 L12.78 71.85 Z"
									class="st2"/>
						</g>
						<g id="shape10-14" v:mID="10" v:groupContext="shape" transform="translate(0.0045,-14.7637)">
							<title>Sheet.10</title>
							<path d="M0 64.47 L0 64.47 L12.78 71.85 L25.57 64.48 L25.57 64.47 L12.79 57.09 L0 64.47 Z" class="st2"/>
						</g>
						<g id="shape11-16" v:mID="11" v:groupContext="shape" transform="translate(0,-0.222)">
							<title>Sheet.11</title>
							<path d="M0 49.93 L0 49.93 L0.25 64.69 L13.16 71.85 L13.16 71.85 L12.91 57.1 L0 49.93 Z" class="st2"/>
						</g>
					</g>
				</g>
			</g>
			<g id="shape12-18" v:mID="12" v:groupContext="shape" transform="translate(2.488,0)">
				<title>Sheet.12</title>
				<desc>Android</desc>
				<v:textBlock v:margins="rect(4,4,4,4)"/>
				<v:textRect cx="20.9" cy="66.9666" width="41.8" height="9.775"/>
				<rect x="0" y="62.0791" width="41.8" height="9.775" class="st3"/>
				<text x="5.42" y="69.37" class="st4" v:langID="1033"><v:paragraph v:horizAlign="1"/><v:tabList/>Android</text>			</g>
		</g>
	</g>
</svg>
