<?xml version="1.0" encoding="utf-8"?>
<!-- Generator: Adobe Illustrator 12.0.0, SVG Export Plug-In  -->
<!DOCTYPE svg PUBLIC "-//W3C//DTD SVG 1.1//EN" "http://www.w3.org/Graphics/SVG/1.1/DTD/svg11.dtd" [
	<!ENTITY ns_flows "http://ns.adobe.com/Flows/1.0/">
	<!ENTITY ns_svg "http://www.w3.org/2000/svg">
	<!ENTITY ns_xlink "http://www.w3.org/1999/xlink">
]>
<svg  version="1.1" xmlns="&ns_svg;" xmlns:xlink="&ns_xlink;" xmlns:a="http://ns.adobe.com/AdobeSVGViewerExtensions/3.0/"
	 width="49" height="72" viewBox="-0.547 -0.473 49 72" enable-background="new -0.547 -0.473 49 72" xml:space="preserve">
<defs>
</defs>
<path fill="#FFFFFF" stroke="#444444" stroke-width="1.125" stroke-miterlimit="3" d="M27.351,45.995L7.88,34.365l0.341-22.67
	l19.81-11.04l19.46,11.63l-0.34,22.67L27.351,45.995z"/>
<path fill="#FFFFFF" stroke="#444444" stroke-width="1.125" stroke-miterlimit="3" d="M8.222,11.689v0.01l19.46,11.62l19.8-11.03
	v-0.01l-19.45-11.63L8.222,11.689z"/>
<path fill="#FFFFFF" stroke="#444444" stroke-width="1.125" stroke-miterlimit="3" d="M8.213,11.703L8.213,11.703l0.05,22.67
	l19.66,11.29h0.01l-0.05-22.67L8.213,11.703z"/>
<path fill="#FFFFFF" stroke="#444444" stroke-width="1.125" stroke-miterlimit="3" d="M12.088,53.128l-11.51-6.64l0.01-13.3
	l11.511-6.64l11.51,6.65l-0.01,13.291L12.088,53.128z"/>
<path fill="#FFFFFF" stroke="#444444" stroke-width="1.125" stroke-miterlimit="3" d="M0.584,33.186v0.01l11.5,6.64l11.52-6.64l0,0
	l-11.51-6.65L0.584,33.186z"/>
<path fill="#FFFFFF" stroke="#444444" stroke-width="1.125" stroke-miterlimit="3" d="M0.579,33.198L0.579,33.198l0.221,13.28
	l11.619,6.449h0.011l-0.23-13.279L0.579,33.198z"/>
<path fill="#FFFFFF" stroke="#444444" stroke-width="1.125" stroke-miterlimit="3" d="M24.278,54.647l-6.81-3.931v-7.869l6.819-3.93
	l6.811,3.939v7.859L24.278,54.647z"/>
<path fill="#FFFFFF" stroke="#444444" stroke-width="1.125" stroke-miterlimit="3" d="M17.471,42.851L17.471,42.851l6.81,3.931
	l6.811-3.921v-0.01l-6.811-3.931L17.471,42.851z"/>
<path fill="#FFFFFF" stroke="#444444" stroke-width="1.125" stroke-miterlimit="3" d="M17.468,42.85L17.468,42.85l0.13,7.87
	l6.88,3.81l0,0l-0.13-7.859L17.468,42.85z"/>
</svg>
