<?xml version="1.0" encoding="utf-8"?>
<!-- Generator: Adobe Illustrator 12.0.0, SVG Export Plug-In  -->
<!DOCTYPE svg PUBLIC "-//W3C//DTD SVG 1.1//EN" "http://www.w3.org/Graphics/SVG/1.1/DTD/svg11.dtd" [
	<!ENTITY ns_flows "http://ns.adobe.com/Flows/1.0/">
	<!ENTITY ns_svg "http://www.w3.org/2000/svg">
	<!ENTITY ns_xlink "http://www.w3.org/1999/xlink">
]>
<svg  version="1.1" xmlns="&ns_svg;" xmlns:xlink="&ns_xlink;" xmlns:a="http://ns.adobe.com/AdobeSVGViewerExtensions/3.0/"
	 width="103" height="71" viewBox="-28.12 -0.647 103 71" enable-background="new -28.12 -0.647 103 71" xml:space="preserve">
<defs>
</defs>
<path fill="#342074" stroke="#FFFFFF" stroke-width="1.5428" stroke-miterlimit="3" d="M27.287,46.241l-19.47-11.63l0.34-22.67
	l19.81-11.05l19.46,11.64l-0.34,22.67L27.287,46.241z"/>
<path fill="#342074" stroke="#FFFFFF" stroke-width="1.5428" stroke-miterlimit="3" d="M8.158,11.935v0.01l19.46,11.62l19.8-11.04
	l0,0l-19.45-11.63L8.158,11.935z"/>
<path fill="#342074" stroke="#FFFFFF" stroke-width="1.5428" stroke-miterlimit="3" d="M8.149,11.938v0.01l0.05,22.66l19.659,11.3
	h0.011l-0.05-22.67L8.149,11.938z"/>
<path fill="#FFFFFF" stroke="#444444" stroke-width="1.0286" stroke-miterlimit="3" d="M12.025,53.374l-11.51-6.65l0.01-13.29
	l11.51-6.64l11.51,6.65l-0.01,13.29L12.025,53.374z"/>
<path fill="#FFFFFF" stroke="#444444" stroke-width="1.0286" stroke-miterlimit="3" d="M0.52,33.431v0.01l11.5,6.64l11.52-6.64l0,0
	l-11.51-6.65L0.52,33.431z"/>
<path fill="#FFFFFF" stroke="#444444" stroke-width="1.0286" stroke-miterlimit="3" d="M0.515,33.434v0.01l0.22,13.28l11.62,6.451
	h0.01l-0.23-13.281L0.515,33.434z"/>
<path fill="#33385A" stroke="#FFFFFF" stroke-width="1.0286" stroke-miterlimit="3" d="M24.214,54.893l-6.81-3.93v-7.871l6.819-3.93
	l6.811,3.939v7.861L24.214,54.893z"/>
<path fill="#33385A" stroke="#FFFFFF" stroke-width="1.0286" stroke-miterlimit="3" d="M17.407,43.096L17.407,43.096l6.811,3.93
	l6.809-3.93l0,0l-6.809-3.93L17.407,43.096z"/>
<path fill="#33385A" stroke="#FFFFFF" stroke-width="1.0286" stroke-miterlimit="3" d="M17.404,43.094L17.404,43.094l0.13,7.861
	l6.88,3.819l0,0l-0.13-7.86L17.404,43.094z"/>
</svg>
