<?xml version="1.0" encoding="utf-8"?>
<!-- Generator: Adobe Illustrator 12.0.0, SVG Export Plug-In  -->
<!DOCTYPE svg PUBLIC "-//W3C//DTD SVG 1.1//EN" "http://www.w3.org/Graphics/SVG/1.1/DTD/svg11.dtd" [
	<!ENTITY ns_flows "http://ns.adobe.com/Flows/1.0/">
	<!ENTITY ns_svg "http://www.w3.org/2000/svg">
	<!ENTITY ns_xlink "http://www.w3.org/1999/xlink">
]>
<svg  version="1.1" xmlns="&ns_svg;" xmlns:xlink="&ns_xlink;" xmlns:a="http://ns.adobe.com/AdobeSVGViewerExtensions/3.0/"
	 width="154" height="75" viewBox="-52.437 -0.652 154 75" enable-background="new -52.437 -0.652 154 75" xml:space="preserve">
<defs>
</defs>
<path fill="#737373" stroke="#FFFFFF" stroke-width="1.5428" stroke-miterlimit="3" d="M27.795,46.24L8.325,34.611l0.34-22.68
	l19.811-11.04l19.459,11.63l-0.34,22.67L27.795,46.24z"/>
<path fill="#737373" stroke="#FFFFFF" stroke-width="1.5428" stroke-miterlimit="3" d="M8.666,11.935L8.666,11.935l19.46,11.63
	l19.801-11.04v-0.01L28.476,0.895L8.666,11.935z"/>
<path fill="#737373" stroke="#FFFFFF" stroke-width="1.5428" stroke-miterlimit="3" d="M8.657,11.938L8.657,11.938l0.05,22.67
	l19.66,11.3l0.011-0.01l-0.051-22.66L8.657,11.938z"/>
<path fill="#FFFFFF" stroke="#444444" stroke-width="1.0286" stroke-miterlimit="3" d="M12.533,53.373l-11.51-6.65l0.01-13.29
	l11.51-6.65l11.51,6.65l-0.01,13.3L12.533,53.373z"/>
<path fill="#FFFFFF" stroke="#444444" stroke-width="1.0286" stroke-miterlimit="3" d="M1.028,33.431L1.028,33.431l11.5,6.65
	l11.52-6.64v-0.01l-11.51-6.64L1.028,33.431z"/>
<path fill="#FFFFFF" stroke="#444444" stroke-width="1.0286" stroke-miterlimit="3" d="M1.023,33.434L1.023,33.434l0.22,13.28
	l11.62,6.46h0.01l-0.23-13.29L1.023,33.434z"/>
<path fill="#115193" stroke="#FFFFFF" stroke-width="1.0286" stroke-miterlimit="3" d="M24.722,54.893l-6.81-3.939v-7.86l6.82-3.94
	l6.81,3.94v7.87L24.722,54.893z"/>
<path fill="#115193" stroke="#FFFFFF" stroke-width="1.0286" stroke-miterlimit="3" d="M17.915,43.086L17.915,43.086l6.81,3.939
	l6.81-3.93v-0.01l-6.81-3.93L17.915,43.086z"/>
<path fill="#115193" stroke="#FFFFFF" stroke-width="1.0286" stroke-miterlimit="3" d="M17.912,43.096L17.912,43.096l0.13,7.859
	l6.881,3.82l0,0l-0.131-7.87L17.912,43.096z"/>
</svg>
