<?xml version="1.0" encoding="UTF-8" standalone="no"?>
<!DOCTYPE svg PUBLIC "-//W3C//DTD SVG 1.0//EN" "http://www.w3.org/TR/2001/REC-SVG-20010904/DTD/svg10.dtd">
<!-- Generated by Microsoft Visio 11.0, SVG Export, v1.0 JavaScripte.svg Page-1 -->
<svg xmlns="http://www.w3.org/2000/svg" xmlns:xlink="http://www.w3.org/1999/xlink" xmlns:ev="http://www.w3.org/2001/xml-events"
		xmlns:v="http://schemas.microsoft.com/visio/2003/SVGExtensions/" width="0.717014in" height="0.998494in"
		viewBox="0 0 51.625 71.8916" xml:space="preserve" color-interpolation-filters="sRGB" class="st5">
	<v:documentProperties v:langID="1033" v:viewMarkup="false"/>

	<style type="text/css">
	<![CDATA[
		.st1 {fill:none;stroke:none;stroke-linecap:round;stroke-linejoin:round;stroke-width:0.75}
		.st2 {fill:#000000;font-family:Verdana;font-size:0.666664em}
		.st3 {fill:#ffffff;stroke:#464646;stroke-linecap:butt;stroke-width:1.70408}
		.st4 {fill:#205e00;stroke:#ffffff;stroke-linecap:butt;stroke-width:1.70408}
		.st5 {fill:none;fill-rule:evenodd;font-size:12px;overflow:visible;stroke-linecap:square;stroke-miterlimit:3}
	]]>
	</style>

	<g v:mID="0" v:index="1" v:groupContext="foregroundPage">
		<title>Page-1</title>
		<v:pageProperties v:drawingScale="1" v:pageScale="1" v:drawingUnits="19" v:shadowOffsetX="9" v:shadowOffsetY="-9"/>
		<g id="group1-1" transform="translate(0.75,-0.75)" v:mID="1" v:groupContext="group">
			<title>JavaScript</title>
			<g id="shape2-2" v:mID="2" v:groupContext="shape">
				<title>Sheet.2</title>
				<desc>JavaScript</desc>
				<v:textBlock v:margins="rect(4,4,4,4)"/>
				<v:textRect cx="25.0625" cy="66.4228" width="50.13" height="10.9375"/>
				<rect x="0" y="60.9541" width="50.125" height="10.9375" class="st1"/>
				<text x="4.38" y="68.82" class="st2" v:langID="1033"><v:paragraph v:horizAlign="1"/><v:tabList/>JavaScript</text>			</g>
			<g id="group3-5" transform="translate(1.362,-15.4375)" v:mID="3" v:groupContext="group">
				<title>Sheet.3</title>
				<g id="group4-6" v:mID="4" v:groupContext="group">
					<title>Sheet.4</title>
					<g id="group5-7" v:mID="5" v:groupContext="group">
						<title>Sheet.5</title>
						<g id="shape6-8" v:mID="6" v:groupContext="shape">
							<title>Sheet.6</title>
							<path d="M23.38 71.89 L0 58.38 L0.01 31.38 L23.4 17.89 L46.78 31.4 L46.77 58.4 L23.38 71.89 Z"
									class="st3"/>
						</g>
						<g id="shape7-10" v:mID="7" v:groupContext="shape" transform="translate(0.0105,-27.0007)">
							<title>Sheet.7</title>
							<path d="M0 58.38 L0 58.39 L23.37 71.89 L46.76 58.4 L46.76 58.39 L23.39 44.89 L0 58.38 Z" class="st3"/>
						</g>
						<g id="shape8-12" v:mID="8" v:groupContext="shape" transform="translate(0,-0.40575)">
							<title>Sheet.8</title>
							<path d="M0.01 31.8 L0 31.8 L0.45 58.79 L24.06 71.89 L24.07 71.89 L23.61 44.9 L0.01 31.8 Z" class="st3"/>
						</g>
					</g>
					<g id="group9-14" transform="translate(10.5997,-12.237)" v:mID="9" v:groupContext="group">
						<title>Sheet.9</title>
						<g id="shape10-15" v:mID="10" v:groupContext="shape">
							<title>Sheet.10</title>
							<path d="M12.78 71.89 L0 64.51 L0 49.74 L12.79 42.36 L25.58 49.75 L25.57 64.52 L12.78 71.89 Z"
									class="st4"/>
						</g>
						<g id="shape11-17" v:mID="11" v:groupContext="shape" transform="translate(0.0045,-14.7637)">
							<title>Sheet.11</title>
							<path d="M0 64.51 L0 64.51 L12.78 71.89 L25.57 64.52 L25.57 64.51 L12.79 57.13 L0 64.51 Z" class="st4"/>
						</g>
						<g id="shape12-19" v:mID="12" v:groupContext="shape" transform="translate(-1.27898E-013,-0.222)">
							<title>Sheet.12</title>
							<path d="M0 49.97 L0 49.97 L0.25 64.73 L13.16 71.89 L13.16 71.89 L12.91 57.13 L0 49.97 Z" class="st4"/>
						</g>
					</g>
				</g>
			</g>
		</g>
	</g>
</svg>
