<?xml version="1.0" encoding="UTF-8" standalone="no"?>
<!DOCTYPE svg PUBLIC "-//W3C//DTD SVG 1.0//EN" "http://www.w3.org/TR/2001/REC-SVG-20010904/DTD/svg10.dtd">
<!-- Generated by Microsoft Visio 11.0, SVG Export, v1.0 Java.svg Page-1 -->
<svg xmlns="http://www.w3.org/2000/svg" xmlns:xlink="http://www.w3.org/1999/xlink" xmlns:ev="http://www.w3.org/2001/xml-events"
		xmlns:v="http://schemas.microsoft.com/visio/2003/SVGExtensions/" width="0.697002in" height="0.965334in"
		viewBox="0 0 50.1842 69.5041" xml:space="preserve" color-interpolation-filters="sRGB" class="st5">
	<v:documentProperties v:langID="1033" v:viewMarkup="false"/>

	<style type="text/css">
	<![CDATA[
		.st1 {fill:#ffffff;stroke:#464646;stroke-linecap:butt;stroke-width:1.70408}
		.st2 {fill:#ee472a;stroke:#ffffff;stroke-linecap:butt;stroke-width:1.70408}
		.st3 {fill:none;stroke:none;stroke-linecap:round;stroke-linejoin:round;stroke-width:0.75}
		.st4 {fill:#000000;font-family:Verdana;font-size:0.666664em}
		.st5 {fill:none;fill-rule:evenodd;font-size:12px;overflow:visible;stroke-linecap:square;stroke-miterlimit:3}
	]]>
	</style>

	<g v:mID="0" v:index="1" v:groupContext="foregroundPage">
		<title>Page-1</title>
		<v:pageProperties v:drawingScale="1" v:pageScale="1" v:drawingUnits="19" v:shadowOffsetX="9" v:shadowOffsetY="-9"/>
		<g id="group1-1" transform="translate(1.70407,-0.75)" v:mID="1" v:groupContext="group">
			<title>Java</title>
			<g id="group2-2" transform="translate(0,-13.05)" v:mID="2" v:groupContext="group">
				<title>Sheet.2</title>
				<g id="group3-3" v:mID="3" v:groupContext="group">
					<title>Sheet.3</title>
					<g id="group4-4" v:mID="4" v:groupContext="group">
						<title>Sheet.4</title>
						<g id="shape5-5" v:mID="5" v:groupContext="shape">
							<title>Sheet.5</title>
							<path d="M23.38 69.5 L0 56 L0.01 29 L23.4 15.5 L46.78 29.01 L46.77 56.01 L23.38 69.5 Z" class="st1"/>
						</g>
						<g id="shape6-7" v:mID="6" v:groupContext="shape" transform="translate(0.00975,-27.0007)">
							<title>Sheet.6</title>
							<path d="M0 56 L0 56 L23.37 69.5 L46.76 56.01 L46.76 56.01 L23.39 42.5 L0 56 Z" class="st1"/>
						</g>
						<g id="shape7-9" v:mID="7" v:groupContext="shape" transform="translate(0,-0.40575)">
							<title>Sheet.7</title>
							<path d="M0.01 29.41 L0 29.41 L0.46 56.4 L24.06 69.5 L24.07 69.5 L23.61 42.52 L0.01 29.41 Z"
									class="st1"/>
						</g>
					</g>
					<g id="group8-11" transform="translate(10.6005,-12.237)" v:mID="8" v:groupContext="group">
						<title>Sheet.8</title>
						<g id="shape9-12" v:mID="9" v:groupContext="shape">
							<title>Sheet.9</title>
							<path d="M12.78 69.5 L0 62.12 L0 47.36 L12.79 39.98 L25.58 47.36 L25.57 62.13 L12.78 69.5 Z"
									class="st2"/>
						</g>
						<g id="shape10-14" v:mID="10" v:groupContext="shape" transform="translate(0.0045,-14.7637)">
							<title>Sheet.10</title>
							<path d="M0 62.12 L0 62.12 L12.78 69.5 L25.57 62.13 L25.57 62.12 L12.79 54.74 L0 62.12 Z" class="st2"/>
						</g>
						<g id="shape11-16" v:mID="11" v:groupContext="shape" transform="translate(0,-0.222)">
							<title>Sheet.11</title>
							<path d="M0 47.58 L0 47.58 L0.25 62.34 L13.16 69.5 L13.16 69.5 L12.91 54.75 L0 47.58 Z" class="st2"/>
						</g>
					</g>
				</g>
			</g>
			<g id="shape12-18" v:mID="12" v:groupContext="shape" transform="translate(9.55,0)">
				<title>Sheet.12</title>
				<desc>Java</desc>
				<v:textBlock v:margins="rect(4,4,4,4)"/>
				<v:textRect cx="14.075" cy="65.1791" width="28.16" height="8.65"/>
				<rect x="0" y="60.8541" width="28.15" height="8.65" class="st3"/>
				<text x="5.09" y="67.58" class="st4" v:langID="1033"><v:paragraph v:horizAlign="1"/><v:tabList/>Java</text>			</g>
		</g>
	</g>
</svg>
