<?xml version="1.0" encoding="UTF-8" standalone="no"?>
<!DOCTYPE svg PUBLIC "-//W3C//DTD SVG 1.0//EN" "http://www.w3.org/TR/2001/REC-SVG-20010904/DTD/svg10.dtd">
<!-- Generated by Microsoft Visio 11.0, SVG Export, v1.0 NodeJS.svg Page-1 -->
<svg xmlns="http://www.w3.org/2000/svg" xmlns:xlink="http://www.w3.org/1999/xlink" xmlns:ev="http://www.w3.org/2001/xml-events"
		xmlns:v="http://schemas.microsoft.com/visio/2003/SVGExtensions/" width="1.07625in" height="1.02708in"
		viewBox="0 0 77.4898 73.95" xml:space="preserve" color-interpolation-filters="sRGB" class="st5">
	<v:documentProperties v:langID="1033" v:viewMarkup="false"/>

	<style type="text/css">
	<![CDATA[
		.st1 {fill:#ffffff;stroke:#464646;stroke-linecap:butt;stroke-width:1.70408}
		.st2 {fill:#8cc64f;stroke:#ffffff;stroke-linecap:butt;stroke-width:1.70408}
		.st3 {fill:none;stroke:none;stroke-linecap:round;stroke-linejoin:round;stroke-width:0.75}
		.st4 {fill:#000000;font-family:Verdana;font-size:0.666664em}
		.st5 {fill:none;fill-rule:evenodd;font-size:12px;overflow:visible;stroke-linecap:square;stroke-miterlimit:3}
	]]>
	</style>

	<g v:mID="0" v:index="1" v:groupContext="foregroundPage">
		<title>Page-1</title>
		<v:pageProperties v:drawingScale="1" v:pageScale="1" v:drawingUnits="19" v:shadowOffsetX="9" v:shadowOffsetY="-9"/>
		<g id="group1-1" v:mID="1" v:groupContext="group">
			<title>Node.js</title>
			<g id="group2-2" v:mID="2" v:groupContext="group">
				<title>Sheet.2</title>
				<g id="group3-3" v:mID="3" v:groupContext="group">
					<title>Layer_1</title>
					<g id="group4-4" transform="translate(14.8798,-16.248)" v:mID="4" v:groupContext="group">
						<title>Sheet.4</title>
						<g id="group5-5" v:mID="5" v:groupContext="group">
							<title>Sheet.5</title>
							<g id="shape6-6" v:mID="6" v:groupContext="shape">
								<title>Sheet.6</title>
								<path d="M23.38 73.95 L0 60.44 L0.01 33.44 L23.4 19.95 L46.78 33.46 L46.77 60.46 L23.38 73.95 Z"
										class="st1"/>
							</g>
							<g id="shape7-8" v:mID="7" v:groupContext="shape" transform="translate(0.0105,-27.0007)">
								<title>Sheet.7</title>
								<path d="M0 60.44 L0 60.45 L23.37 73.95 L46.76 60.46 L46.76 60.45 L23.39 46.95 L0 60.44 Z"
										class="st1"/>
							</g>
							<g id="shape8-10" v:mID="8" v:groupContext="shape" transform="translate(0,-0.40575)">
								<title>Sheet.8</title>
								<path d="M0.01 33.86 L0 33.86 L0.45 60.84 L24.06 73.95 L24.07 73.95 L23.61 46.96 L0.01 33.86 Z"
										class="st1"/>
							</g>
						</g>
						<g id="group9-12" transform="translate(10.6005,-12.237)" v:mID="9" v:groupContext="group">
							<title>Sheet.9</title>
							<g id="shape10-13" v:mID="10" v:groupContext="shape">
								<title>Sheet.10</title>
								<path d="M12.78 73.95 L0 66.56 L0 51.8 L12.79 44.42 L25.58 51.81 L25.57 66.57 L12.78 73.95 Z"
										class="st2"/>
							</g>
							<g id="shape11-15" v:mID="11" v:groupContext="shape" transform="translate(0.0045,-14.7637)">
								<title>Sheet.11</title>
								<path d="M0 66.56 L0 66.57 L12.78 73.95 L25.57 66.57 L25.57 66.57 L12.79 59.19 L0 66.56 Z"
										class="st2"/>
							</g>
							<g id="shape12-17" v:mID="12" v:groupContext="shape" transform="translate(0,-0.222)">
								<title>Sheet.12</title>
								<path d="M0 52.03 L0 52.03 L0.25 66.79 L13.16 73.95 L13.16 73.95 L12.91 59.19 L0 52.03 Z"
										class="st2"/>
							</g>
						</g>
					</g>
				</g>
			</g>
			<g id="shape13-19" v:mID="13" v:groupContext="shape" transform="translate(17.2444,-2.27296)">
				<title>Sheet.13</title>
				<desc>Node.js</desc>
				<v:textBlock v:margins="rect(4,4,4,4)"/>
				<v:textRect cx="21.0234" cy="69.2125" width="42.05" height="9.475"/>
				<rect x="0" y="64.475" width="42.0469" height="9.475" class="st3"/>
				<text x="5.81" y="71.61" class="st4" v:langID="1033"><v:paragraph v:horizAlign="1"/><v:tabList/>Node.js</text>			</g>
		</g>
	</g>
</svg>
