<?xml version="1.0" encoding="UTF-8" standalone="no"?>
<!DOCTYPE svg PUBLIC "-//W3C//DTD SVG 1.0//EN" "http://www.w3.org/TR/2001/REC-SVG-20010904/DTD/svg10.dtd">
<!-- Generated by Microsoft Visio 11.0, SVG Export, v1.0 PHP.svg Page-1 -->
<svg xmlns="http://www.w3.org/2000/svg" xmlns:xlink="http://www.w3.org/1999/xlink" xmlns:ev="http://www.w3.org/2001/xml-events"
		xmlns:v="http://schemas.microsoft.com/visio/2003/SVGExtensions/" width="0.697002in" height="0.968633in"
		viewBox="0 0 50.1842 69.7416" xml:space="preserve" color-interpolation-filters="sRGB" class="st5">
	<v:documentProperties v:langID="1033" v:viewMarkup="false"/>

	<style type="text/css">
	<![CDATA[
		.st1 {fill:#ffffff;stroke:#464646;stroke-linecap:butt;stroke-width:1.70408}
		.st2 {fill:#5a69a4;stroke:#ffffff;stroke-linecap:butt;stroke-width:1.70408}
		.st3 {fill:none;stroke:none;stroke-linecap:round;stroke-linejoin:round;stroke-width:0.75}
		.st4 {fill:#000000;font-family:Verdana;font-size:0.666664em}
		.st5 {fill:none;fill-rule:evenodd;font-size:12px;overflow:visible;stroke-linecap:square;stroke-miterlimit:3}
	]]>
	</style>

	<g v:mID="0" v:index="1" v:groupContext="foregroundPage">
		<title>Page-1</title>
		<v:pageProperties v:drawingScale="1" v:pageScale="1" v:drawingUnits="19" v:shadowOffsetX="9" v:shadowOffsetY="-9"/>
		<g id="group1-1" transform="translate(1.70407,-0.75)" v:mID="1" v:groupContext="group">
			<title>PHP</title>
			<g id="group2-2" transform="translate(0,-13.2875)" v:mID="2" v:groupContext="group">
				<title>Sheet.2</title>
				<g id="group3-3" v:mID="3" v:groupContext="group">
					<title>Sheet.3</title>
					<g id="group4-4" v:mID="4" v:groupContext="group">
						<title>Sheet.4</title>
						<g id="shape5-5" v:mID="5" v:groupContext="shape">
							<title>Sheet.5</title>
							<path d="M23.38 69.74 L0 56.23 L0.01 29.23 L23.4 15.74 L46.78 29.25 L46.77 56.25 L23.38 69.74 Z"
									class="st1"/>
						</g>
						<g id="shape6-7" v:mID="6" v:groupContext="shape" transform="translate(0.0105,-27.0007)">
							<title>Sheet.6</title>
							<path d="M0 56.23 L0 56.24 L23.37 69.74 L46.76 56.25 L46.76 56.24 L23.39 42.74 L0 56.23 Z" class="st1"/>
						</g>
						<g id="shape7-9" v:mID="7" v:groupContext="shape" transform="translate(0,-0.40575)">
							<title>Sheet.7</title>
							<path d="M0.01 29.65 L0 29.65 L0.45 56.64 L24.06 69.74 L24.07 69.74 L23.61 42.75 L0.01 29.65 Z"
									class="st1"/>
						</g>
					</g>
					<g id="group8-11" transform="translate(10.6005,-12.237)" v:mID="8" v:groupContext="group">
						<title>Sheet.8</title>
						<g id="shape9-12" v:mID="9" v:groupContext="shape">
							<title>Sheet.9</title>
							<path d="M12.78 69.74 L0 62.36 L0 47.59 L12.79 40.21 L25.58 47.6 L25.57 62.37 L12.78 69.74 Z"
									class="st2"/>
						</g>
						<g id="shape10-14" v:mID="10" v:groupContext="shape" transform="translate(0.0045,-14.7637)">
							<title>Sheet.10</title>
							<path d="M0 62.36 L0 62.36 L12.78 69.74 L25.57 62.37 L25.57 62.36 L12.79 54.98 L0 62.36 Z" class="st2"/>
						</g>
						<g id="shape11-16" v:mID="11" v:groupContext="shape" transform="translate(0,-0.222)">
							<title>Sheet.11</title>
							<path d="M0 47.82 L0 47.82 L0.25 62.58 L13.16 69.74 L13.16 69.74 L12.91 54.98 L0 47.82 Z" class="st2"/>
						</g>
					</g>
				</g>
			</g>
			<g id="shape12-18" v:mID="12" v:groupContext="shape" transform="translate(11.013,0)">
				<title>Sheet.12</title>
				<desc>PHP</desc>
				<v:textBlock v:margins="rect(4,4,4,4)"/>
				<v:textRect cx="12.0937" cy="65.4541" width="24.19" height="8.575"/>
				<rect x="0" y="61.1666" width="24.1875" height="8.575" class="st3"/>
				<text x="4.26" y="67.85" class="st4" v:langID="1033"><v:paragraph v:horizAlign="1"/><v:tabList/>PHP</text>			</g>
		</g>
	</g>
</svg>
