<?xml version="1.0" encoding="UTF-8" standalone="no"?>
<!DOCTYPE svg PUBLIC "-//W3C//DTD SVG 1.0//EN" "http://www.w3.org/TR/2001/REC-SVG-20010904/DTD/svg10.dtd">
<!-- Generated by Microsoft Visio 11.0, SVG Export, v1.0 Python.svg Page-1 -->
<svg xmlns="http://www.w3.org/2000/svg" xmlns:xlink="http://www.w3.org/1999/xlink" xmlns:ev="http://www.w3.org/2001/xml-events"
		xmlns:v="http://schemas.microsoft.com/visio/2003/SVGExtensions/" width="0.912847in" height="1.00283in"
		viewBox="0 0 65.725 72.2041" xml:space="preserve" color-interpolation-filters="sRGB" class="st5">
	<v:documentProperties v:langID="1033" v:viewMarkup="false"/>

	<style type="text/css">
	<![CDATA[
		.st1 {fill:#ffffff;stroke:#464646;stroke-linecap:butt;stroke-width:1.70408}
		.st2 {fill:#ffd44f;stroke:#ffffff;stroke-linecap:butt;stroke-width:1.70408}
		.st3 {fill:none;stroke:none;stroke-linecap:round;stroke-linejoin:round;stroke-width:0.75}
		.st4 {fill:#000000;font-family:Verdana;font-size:0.666664em}
		.st5 {fill:none;fill-rule:evenodd;font-size:12px;overflow:visible;stroke-linecap:square;stroke-miterlimit:3}
	]]>
	</style>

	<g v:mID="0" v:index="1" v:groupContext="foregroundPage">
		<title>Page-1</title>
		<v:pageProperties v:drawingScale="1" v:pageScale="1" v:drawingUnits="19" v:shadowOffsetX="9" v:shadowOffsetY="-9"/>
		<g id="group1-1" transform="translate(0.75,-0.75)" v:mID="1" v:groupContext="group">
			<title>Python (boto)</title>
			<g id="group2-2" transform="translate(8.212,-15.75)" v:mID="2" v:groupContext="group">
				<title>Sheet.2</title>
				<g id="group3-3" v:mID="3" v:groupContext="group">
					<title>Sheet.3</title>
					<g id="group4-4" v:mID="4" v:groupContext="group">
						<title>Sheet.4</title>
						<g id="shape5-5" v:mID="5" v:groupContext="shape">
							<title>Sheet.5</title>
							<path d="M23.38 72.2 L0 58.7 L0.01 31.7 L23.4 18.2 L46.78 31.71 L46.77 58.71 L23.38 72.2 Z" class="st1"/>
						</g>
						<g id="shape6-7" v:mID="6" v:groupContext="shape" transform="translate(0.0105,-27.0007)">
							<title>Sheet.6</title>
							<path d="M0 58.7 L0 58.7 L23.37 72.2 L46.76 58.71 L46.76 58.71 L23.39 45.2 L0 58.7 Z" class="st1"/>
						</g>
						<g id="shape7-9" v:mID="7" v:groupContext="shape" transform="translate(0,-0.40575)">
							<title>Sheet.7</title>
							<path d="M0.01 32.11 L0 32.11 L0.45 59.1 L24.06 72.2 L24.07 72.2 L23.61 45.22 L0.01 32.11 Z"
									class="st1"/>
						</g>
					</g>
					<g id="group8-11" transform="translate(10.5997,-12.237)" v:mID="8" v:groupContext="group">
						<title>Sheet.8</title>
						<g id="shape9-12" v:mID="9" v:groupContext="shape">
							<title>Sheet.9</title>
							<path d="M12.78 72.2 L0 64.82 L0 50.06 L12.79 42.68 L25.58 50.06 L25.57 64.83 L12.78 72.2 Z"
									class="st2"/>
						</g>
						<g id="shape10-14" v:mID="10" v:groupContext="shape" transform="translate(0.0045,-14.7637)">
							<title>Sheet.10</title>
							<path d="M0 64.82 L0 64.82 L12.78 72.2 L25.57 64.83 L25.57 64.82 L12.79 57.44 L0 64.82 Z" class="st2"/>
						</g>
						<g id="shape11-16" v:mID="11" v:groupContext="shape" transform="translate(-1.27898E-013,-0.222)">
							<title>Sheet.11</title>
							<path d="M0 50.28 L0 50.28 L0.25 65.04 L13.16 72.2 L13.16 72.2 L12.91 57.45 L0 50.28 Z" class="st2"/>
						</g>
					</g>
				</g>
			</g>
			<g id="shape12-18" v:mID="12" v:groupContext="shape">
				<title>Sheet.12</title>
				<desc>Python (boto)</desc>
				<v:textBlock v:margins="rect(4,4,4,4)"/>
				<v:textRect cx="32.1125" cy="66.0166" width="64.23" height="12.375"/>
				<rect x="0" y="59.8291" width="64.225" height="12.375" class="st3"/>
				<text x="4.3" y="68.42" class="st4" v:langID="1033"><v:paragraph v:horizAlign="1"/><v:tabList/>Python (boto)</text>			</g>
		</g>
	</g>
</svg>
