<?xml version="1.0" encoding="UTF-8" standalone="no"?>
<!DOCTYPE svg PUBLIC "-//W3C//DTD SVG 1.0//EN" "http://www.w3.org/TR/2001/REC-SVG-20010904/DTD/svg10.dtd">
<!-- Generated by Microsoft Visio 11.0, SVG Export, v1.0 Ruby.svg Page-1 -->
<svg xmlns="http://www.w3.org/2000/svg" xmlns:xlink="http://www.w3.org/1999/xlink" xmlns:ev="http://www.w3.org/2001/xml-events"
		xmlns:v="http://schemas.microsoft.com/visio/2003/SVGExtensions/" width="0.764902in" height="1.25275in"
		viewBox="0 0 55.0729 90.198" xml:space="preserve" color-interpolation-filters="sRGB" class="st5">
	<v:documentProperties v:langID="1033" v:viewMarkup="false"/>

	<style type="text/css">
	<![CDATA[
		.st1 {fill:#ffffff;stroke:#464646;stroke-linecap:butt;stroke-width:1.70408}
		.st2 {fill:#ae1f23;stroke:#ffffff;stroke-linecap:butt;stroke-width:1.70408}
		.st3 {fill:none;stroke:none;stroke-linecap:round;stroke-linejoin:round;stroke-width:0.75}
		.st4 {fill:#000000;font-family:Verdana;font-size:0.666664em}
		.st5 {fill:none;fill-rule:evenodd;font-size:12px;overflow:visible;stroke-linecap:square;stroke-miterlimit:3}
	]]>
	</style>

	<g v:mID="0" v:index="1" v:groupContext="foregroundPage">
		<title>Page-1</title>
		<v:pageProperties v:drawingScale="1" v:pageScale="1" v:drawingUnits="19" v:shadowOffsetX="9" v:shadowOffsetY="-9"/>
		<g id="group1-1" v:mID="1" v:groupContext="group">
			<title>Ruby</title>
			<g id="group2-2" v:mID="2" v:groupContext="group">
				<title>Sheet.2</title>
				<g id="group3-3" transform="translate(2.47301,-16.248)" v:mID="3" v:groupContext="group">
					<title>Layer_1</title>
					<g id="group4-4" v:mID="4" v:groupContext="group">
						<title>Sheet.4</title>
						<g id="group5-5" v:mID="5" v:groupContext="group">
							<title>Sheet.5</title>
							<g id="shape6-6" v:mID="6" v:groupContext="shape">
								<title>Sheet.6</title>
								<path d="M23.38 90.2 L0 76.69 L0.01 49.69 L23.4 36.2 L46.78 49.71 L46.77 76.71 L23.38 90.2 Z"
										class="st1"/>
							</g>
							<g id="shape7-8" v:mID="7" v:groupContext="shape" transform="translate(0.0105,-27.0007)">
								<title>Sheet.7</title>
								<path d="M0 76.69 L0 76.7 L23.37 90.2 L46.76 76.71 L46.76 76.7 L23.39 63.2 L0 76.69 Z" class="st1"/>
							</g>
							<g id="shape8-10" v:mID="8" v:groupContext="shape" transform="translate(0,-0.40575)">
								<title>Sheet.8</title>
								<path d="M0.01 50.1 L0 50.11 L0.45 77.09 L24.06 90.2 L24.07 90.19 L23.61 63.21 L0.01 50.1 Z"
										class="st1"/>
							</g>
						</g>
						<g id="group9-12" transform="translate(10.5997,-12.237)" v:mID="9" v:groupContext="group">
							<title>Sheet.9</title>
							<g id="shape10-13" v:mID="10" v:groupContext="shape">
								<title>Sheet.10</title>
								<path d="M12.78 90.2 L0 82.81 L0 68.05 L12.79 60.67 L25.58 68.06 L25.57 82.82 L12.78 90.2 Z"
										class="st2"/>
							</g>
							<g id="shape11-15" v:mID="11" v:groupContext="shape" transform="translate(0.0045,-14.7637)">
								<title>Sheet.11</title>
								<path d="M0 82.81 L0 82.82 L12.78 90.2 L25.57 82.82 L25.57 82.82 L12.79 75.43 L0 82.81 Z"
										class="st2"/>
							</g>
							<g id="shape12-17" v:mID="12" v:groupContext="shape" transform="translate(-1.27898E-013,-0.222)">
								<title>Sheet.12</title>
								<path d="M0 68.27 L0 68.28 L0.25 83.03 L13.16 90.2 L13.16 90.2 L12.91 75.44 L0 68.27 Z" class="st2"/>
							</g>
						</g>
					</g>
				</g>
			</g>
			<g id="shape13-19" v:mID="13" v:groupContext="shape" transform="translate(11.1979,-2.42296)">
				<title>Sheet.13</title>
				<desc>Ruby</desc>
				<v:textBlock v:margins="rect(4,4,4,4)"/>
				<v:textRect cx="14.7125" cy="86.098" width="29.43" height="8.2"/>
				<rect x="0" y="81.998" width="29.425" height="8.2" class="st3"/>
				<text x="4.54" y="88.5" class="st4" v:langID="1033"><v:paragraph v:horizAlign="1"/><v:tabList/>Ruby</text>			</g>
		</g>
	</g>
</svg>
