<?xml version="1.0" encoding="utf-8"?>
<!-- Generator: Adobe Illustrator 12.0.0, SVG Export Plug-In  -->
<!DOCTYPE svg PUBLIC "-//W3C//DTD SVG 1.1//EN" "http://www.w3.org/Graphics/SVG/1.1/DTD/svg11.dtd" [
	<!ENTITY ns_flows "http://ns.adobe.com/Flows/1.0/">
	<!ENTITY ns_svg "http://www.w3.org/2000/svg">
	<!ENTITY ns_xlink "http://www.w3.org/1999/xlink">
]>
<svg  version="1.1" xmlns="&ns_svg;" xmlns:xlink="&ns_xlink;" xmlns:a="http://ns.adobe.com/AdobeSVGViewerExtensions/3.0/"
	 width="100" height="100" viewBox="4.834 -14.048 100 100" enable-background="new 4.834 -14.048 100 100" xml:space="preserve">
<defs>
</defs>
<polygon fill="#8C3123" points="54.835,53.353 79.818,59.399 79.818,12.492 54.835,18.541 "/>
<polygon fill="#E05243" points="79.816,12.492 84.618,14.892 84.618,57.015 79.816,59.412 "/>
<polygon fill="#E05243" points="54.835,53.353 29.851,59.399 29.851,12.492 54.835,18.541 "/>
<polygon fill="#8C3123" points="29.851,12.492 25.05,14.892 25.05,57.015 29.851,59.412 "/>
<polygon fill="#E05243" points="54.835,71.904 54.835,0 65.73,5.448 65.73,66.457 "/>
<polygon fill="#8C3123" points="54.835,71.904 54.835,0 43.938,5.448 43.938,66.457 "/>
<text transform="matrix(1 0 0 1 0 29.1523)" display="none" enable-background="new    " font-family="'MyriadPro-Regular'" font-size="12">e</text>
<text transform="matrix(1 0 0 1 6.3477 29.1523)" display="none" enable-background="new    " font-family="'MyriadPro-Regular'" font-size="12">-</text>
<text transform="matrix(1 0 0 1 10.0313 29.1523)" display="none" enable-background="new    " font-family="'MyriadPro-Regular'" font-size="12">I</text>
<text transform="matrix(1 0 0 1 12.8994 29.1523)" display="none" enable-background="new    " font-family="'MyriadPro-Regular'" font-size="12">c</text>
<text transform="matrix(1 0 0 1 18.2041 29.1523)" display="none" enable-background="new    " font-family="'MyriadPro-Regular'" font-size="12">o</text>
<text transform="matrix(1 0 0 1 24.792 29.1523)" display="none" enable-background="new    " font-family="'MyriadPro-Regular'" font-size="12">n</text>
<text transform="matrix(1 0 0 1 31.4521 29.1523)" display="none" enable-background="new    " font-family="'MyriadPro-Regular'" font-size="12">s</text>
<text transform="matrix(1 0 0 1 36.2041 29.1523)" display="none" enable-background="new    " font-family="'MyriadPro-Regular'" font-size="12">%</text>
<text transform="matrix(1 0 0 1 45.708 29.1523)" display="none" enable-background="new    " font-family="'MyriadPro-Regular'" font-size="12">2</text>
<text transform="matrix(1 0 0 1 51.8643 29.1523)" display="none" enable-background="new    " font-family="'MyriadPro-Regular'" font-size="12">0</text>
<text transform="matrix(1 0 0 1 58.0205 29.1523)" display="none" enable-background="new    " font-family="'MyriadPro-Regular'" font-size="12">2</text>
<text transform="matrix(1 0 0 1 64.1768 29.1523)" display="none" enable-background="new    " font-family="'MyriadPro-Regular'" font-size="12">/</text>
<text transform="matrix(1 0 0 1 68.293 29.1523)" display="none" enable-background="new    " font-family="'MyriadPro-Regular'" font-size="12">S</text>
<text transform="matrix(1 0 0 1 74.1729 29.1523)" display="none" enable-background="new    " font-family="'MyriadPro-Regular'" font-size="12">t</text>
<text transform="matrix(1 0 0 1 78.0723 29.1523)" display="none" enable-background="new    " font-family="'MyriadPro-Regular'" font-size="12">o</text>
<text transform="matrix(1 0 0 1 84.6602 29.1523)" display="none" enable-background="new    " font-family="'MyriadPro-Regular'" font-size="12">r</text>
<text transform="matrix(1 0 0 1 88.5244 29.1523)" display="none" enable-background="new    " font-family="'MyriadPro-Regular'" font-size="12">a</text>
<text transform="matrix(1 0 0 1 94.3086 29.1523)" display="none" enable-background="new    " font-family="'MyriadPro-Regular'" font-size="12">g</text>
<text transform="matrix(1 0 0 1 101.0166 29.1523)" display="none" enable-background="new    " font-family="'MyriadPro-Regular'" font-size="12">e</text>
</svg>
