<?xml version="1.0" encoding="utf-8"?>
<!-- Generator: Adobe Illustrator 12.0.0, SVG Export Plug-In  -->
<!DOCTYPE svg PUBLIC "-//W3C//DTD SVG 1.1//EN" "http://www.w3.org/Graphics/SVG/1.1/DTD/svg11.dtd" [
	<!ENTITY ns_flows "http://ns.adobe.com/Flows/1.0/">
	<!ENTITY ns_svg "http://www.w3.org/2000/svg">
	<!ENTITY ns_xlink "http://www.w3.org/1999/xlink">
]>
<svg  version="1.1" xmlns="&ns_svg;" xmlns:xlink="&ns_xlink;" xmlns:a="http://ns.adobe.com/AdobeSVGViewerExtensions/3.0/"
	 width="100" height="100" viewBox="-26.6 -17 100 100" enable-background="new -26.6 -17 100 100" xml:space="preserve">
<defs>
</defs>
<rect y="12.1" fill="#E05243" width="46.8" height="51.4"/>
<polygon fill="#E05243" points="39.4,0 7.5,0 0.6,6.4 1.1,6.4 45.7,6.4 "/>
<rect y="63.5" fill="#8C3123" width="46.8" height="2.5"/>
<rect x="0.6" y="6.4" fill="#8C3123" width="45.1" height="2.5"/>
<path fill="#8C3123" d="M19.6,33.7c1.1-0.8,2.4-1.3,3.8-1.3c1.8,0,3.4,0.7,4.6,2l3.5-1.7v-2c0,0-5.3-2.1-8.1-2.1c-2.3,0-7,0.8-7,0.8
	v2L19.6,33.7z"/>
<path fill="#8C3123" d="M29.8,38c0,0.3,0.1,0.6,0.1,0.9c0,3.1-2.6,7.5-5.5,8.1v2c5.2-0.4,9.5-5.1,9.5-10.4
	c0-0.899-0.3-3.399-0.5-4.199L29.8,38z"/>
<path fill="#8C3123" d="M20.6,44.7v-2c0,0-0.8,0.3-1.3,0C18.2,42,17,40.1,17,38.9c0-0.601,0.1-1.301,0.3-1.9v-2l-3.2-2.3
	c-1,2.899-1,4.399-1,5.899c0,4.5,3.1,8.601,7.2,9.9L20.6,44.7z"/>
<path fill="#FFFFFF" d="M39.5,30.2L38.6,28.4l-11,5.3c-1-1.3-2.601-2.2-4.3-2.2c-1.5,0-2.8,0.6-3.8,1.5l-9.4-6.8l-1.2,1.6l9.4,6.8
	c-0.3,0.7-0.5,1.5-0.5,2.301c0,2.399,1.6,4.399,3.7,5.1l-1,11.2l2,0.2l1-11.101c2.9-0.2,5.1-2.5,5.1-5.399c0-0.5-0.101-1-0.2-1.4
	L39.5,30.2z"/>
<path fill="#FFFFFF" d="M19.6,31.7c1.1-0.8,2.4-1.3,3.8-1.3c1.8,0,3.4,0.7,4.6,2l3.5-1.7c-1.899-2.5-4.8-4.1-8.1-4.1
	c-2.7,0-5.2,1.1-7,2.8L19.6,31.7z"/>
<path fill="#FFFFFF" d="M29.8,36c0,0.3,0.1,0.6,0.1,0.9c0,3.1-2.2,5.699-5.2,6.3L24.3,47c5.199-0.4,9.3-4.8,9.3-10.1
	c0-0.9-0.101-1.7-0.3-2.5L29.8,36z"/>
<path fill="#FFFFFF" d="M20.6,42.7c-2.2-1.101-3.7-3.3-3.7-5.8c0-0.601,0.1-1.301,0.3-1.9L14,32.7c-0.6,1.3-0.9,2.6-0.9,4.1
	c0,4.5,3,8.4,7.1,9.7L20.6,42.7z"/>
</svg>
