<?xml version="1.0" encoding="utf-8"?>
<!-- Generator: Adobe Illustrator 12.0.0, SVG Export Plug-In  -->
<!DOCTYPE svg PUBLIC "-//W3C//DTD SVG 1.1//EN" "http://www.w3.org/Graphics/SVG/1.1/DTD/svg11.dtd" [
	<!ENTITY ns_flows "http://ns.adobe.com/Flows/1.0/">
	<!ENTITY ns_svg "http://www.w3.org/2000/svg">
	<!ENTITY ns_xlink "http://www.w3.org/1999/xlink">
]>
<svg  version="1.1" xmlns="&ns_svg;" xmlns:xlink="&ns_xlink;" xmlns:a="http://ns.adobe.com/AdobeSVGViewerExtensions/3.0/"
	 width="90" height="64" viewBox="-23.312 -0.751 90 64" enable-background="new -23.312 -0.751 90 64" xml:space="preserve">
<defs>
</defs>
<path fill="#8C3323" d="M41.923,4.348v1.96c0,0.05,0,0.11-0.01,0.16v-1.96C41.923,4.448,41.923,4.398,41.923,4.348z"/>
<path fill="#8C3323" d="M41.913,4.503v1.96c-0.011,0.07-0.031,0.13-0.051,0.19v-1.96C41.882,4.633,41.902,4.573,41.913,4.503z"/>
<path fill="#8C3323" d="M41.86,4.689v1.96c-0.029,0.09-0.08,0.18-0.14,0.27v-1.96C41.78,4.869,41.831,4.779,41.86,4.689z"/>
<path fill="#8C3323" d="M41.72,4.961v1.96c-1.439,2.11-10.18,3.73-20.76,3.73C9.39,10.651,0,8.711,0,6.301v-1.96
	c0,2.41,9.39,4.35,20.96,4.35C31.54,8.691,40.28,7.071,41.72,4.961z"/>
<path fill="#8C3323" d="M41.93,4.341v1.96c0,2.41-9.38,4.35-20.97,4.35C9.39,10.651,0,8.711,0,6.301v-1.96
	c0,2.41,9.39,4.35,20.96,4.35C32.55,8.691,41.93,6.751,41.93,4.341z"/>
<path fill="#E15343" d="M20.96,0c11.59,0,20.97,1.94,20.97,4.34c0,2.41-9.38,4.35-20.97,4.35C9.39,8.69,0,6.75,0,4.34
	C0,1.94,9.39,0,20.96,0z"/>
<path fill="#8C3323" d="M28.931,17.817v1.96H17.631l-0.14-2.08L28.931,17.817z"/>
<path fill="#8C3323" d="M18.32,17.807l-0.69,1.97l-7.69-5.21l-0.34-2.29L18.32,17.807z"/>
<path fill="#8C3323" d="M3.35,17.951l-0.45,2.14L0.12,9.651v-1.96L3.35,17.951z"/>
<rect x="2.901" y="18.129" fill="#8C3323" width="7.038" height="1.961"/>
<path fill="#8C3323" d="M41.813,7.69v1.96l-3,11.29l-0.261-2.24L41.813,7.69z"/>
<path fill="#E15343" d="M41.81,7.688l-3,11.29l-9.88-6.68v5.52h-11.3l-7.69-5.21v5.52H2.9L0.12,7.688
	c1.14,2.18,10.04,3.87,20.84,3.87C31.77,11.559,40.67,9.869,41.81,7.688z"/>
<path fill="#8C3323" d="M38.812,18.979v1.96l-9.88-6.68V12.3L38.812,18.979z"/>
<path fill="#8C3323" d="M27.771,25.54v1.96l-5.61-4.12v-1.97L27.771,25.54z"/>
<path fill="#8C3323" d="M32.04,28.935v1.96l-9.311-0.04v-1.96L32.04,28.935z"/>
<path fill="#8C3323" d="M22.681,25.588v1.96l-4.87,3.46v-1.96L22.681,25.588z"/>
<rect x="1.935" y="29.248" fill="#8C3323" width="9.804" height="1.961"/>
<path fill="#8C3323" d="M43.32,25.246v1.96l-11.28,7.551v-1.961L43.32,25.246z"/>
<path fill="#E15343" d="M32.04,17.605l11.28,7.64l-11.28,7.55v-3.86l-9.311-0.04l5.041-3.36l-5.61-4.12l9.88,0.04V17.605z"/>
<path fill="#E15343" d="M11.735,17.918l4.94,3.33l6.01,4.34l-4.78,3.4l-6.17,4.12v-3.86h-9.8v-7.48h9.8V17.918z"/>
<path fill="#8C3323" d="M17.909,28.99v1.96l-6.17,4.12V33.11L17.909,28.99z"/>
<path fill="#8C3323" d="M35.582,34.764v1.96l-0.69,2.87l-0.119-1.71L35.582,34.764z"/>
<path fill="#8C3323" d="M7.442,37.96l-0.45,1.801l-1.31-4.91V32.89L7.442,37.96z"/>
<path fill="#8C3323" d="M34.891,37.63v1.959c0,0.03,0,0.061-0.01,0.09V37.72C34.891,37.689,34.891,37.659,34.891,37.63z"/>
<path fill="#8C3323" d="M34.883,37.72v1.96c-0.01,0.03-0.021,0.07-0.03,0.101v-1.961C34.862,37.79,34.873,37.75,34.883,37.72z"/>
<path fill="#8C3323" d="M34.85,37.819v1.959c-0.021,0.051-0.05,0.101-0.08,0.15v-1.96C34.8,37.919,34.829,37.869,34.85,37.819z"/>
<path fill="#8C3323" d="M34.772,37.972v1.959c-1.051,1.48-6.621,2.73-13.811,2.73c-7.72,0-13.97-1.29-13.97-2.9l-0.11-2.729
	c0,1.601,6.36,3.67,14.08,3.67C28.151,40.701,33.712,39.451,34.772,37.972z"/>
<path fill="#8C3323" d="M34.888,37.63v1.961c0,1.6-6.2,3.07-13.92,3.07c-7.73,0-13.98-1.291-13.98-2.9v-1.96
	c0,1.61,6.25,2.899,13.98,2.899C28.688,40.7,34.888,39.23,34.888,37.63z"/>
<path fill="#E15343" d="M31.093,32.22v5.5l4.49-2.96l-0.69,2.87c0,1.6-6.2,3.07-13.93,3.07c-7.72,0-13.98-1.29-13.98-2.9l-1.3-4.91
	h4.26v5.51l8.68-5.83L31.093,32.22z"/>
</svg>
