<?xml version="1.0" encoding="utf-8"?>
<!-- Generator: Adobe Illustrator 12.0.0, SVG Export Plug-In  -->
<!DOCTYPE svg PUBLIC "-//W3C//DTD SVG 1.1//EN" "http://www.w3.org/Graphics/SVG/1.1/DTD/svg11.dtd" [
	<!ENTITY ns_flows "http://ns.adobe.com/Flows/1.0/">
	<!ENTITY ns_svg "http://www.w3.org/2000/svg">
	<!ENTITY ns_xlink "http://www.w3.org/1999/xlink">
]>
<svg  version="1.1" xmlns="&ns_svg;" xmlns:xlink="&ns_xlink;" xmlns:a="http://ns.adobe.com/AdobeSVGViewerExtensions/3.0/"
	 width="100" height="100" viewBox="-23.675 -21.387 100 100" enable-background="new -23.675 -21.387 100 100"
	 xml:space="preserve">
<defs>
</defs>
<path fill="#E05243" d="M27.601,0c15.244,0,27.6,12.26,27.6,27.373c0,15.125-12.355,27.379-27.6,27.379
	C12.358,54.751,0,42.498,0,27.373C0.001,12.259,12.358,0,27.601,0z"/>
<path fill="#8C3123" d="M55.2,27.373v2.477c0,1.39-0.104,2.753-0.305,4.082v-2.477C55.097,30.126,55.2,28.767,55.2,27.373"/>
<path fill="#8C3123" d="M54.896,31.455v2.477c-0.234,1.562-0.602,3.076-1.094,4.541v-2.479
	C54.296,34.535,54.661,33.017,54.896,31.455"/>
<path fill="#8C3123" d="M53.804,35.992v2.48c-0.569,1.713-1.315,3.36-2.205,4.908v-2.472C52.487,39.361,53.233,37.714,53.804,35.992
	"/>
<path fill="#8C3123" d="M51.599,40.91v2.471c-4.75,8.267-13.717,13.847-23.998,13.847C12.358,57.227,0,44.966,0,29.849v-2.477
	c0,15.125,12.357,27.379,27.601,27.379C37.882,54.751,46.849,49.175,51.599,40.91"/>
<path fill="#8C3123" d="M55.2,27.373v2.477c0,15.117-12.355,27.378-27.6,27.378C12.358,57.227,0,44.966,0,29.849v-2.477
	c0,15.125,12.357,27.379,27.601,27.379C42.845,54.751,55.2,42.498,55.2,27.373z"/>
<path fill="#FFFFFF" d="M38.278,31.894h2.37v1.963h-2.37V31.894z M32.554,4.656h2.965v2.943h-1.977V6.62h-0.988V4.656z
	 M33.538,21.197l0.002-3.881h1.977l-0.002,3.883L33.538,21.197z M35.513,24.117v3.885L33.537,28v-3.887L35.513,24.117z
	 M33.54,14.396l0.002-3.885l1.977,0.002l-0.002,3.883H33.54z M25.631,4.656h3.958v1.965h-3.958V4.656z M19.698,4.656h2.963v1.965
	h-0.986V7.6h-1.977V4.656z M19.698,10.523h1.977v3.9h-1.977V10.523z M19.698,17.347h1.977v3.9h-1.977V17.347z M19.698,24.172h1.977
	v3.9h-1.977V24.172z M14.562,31.974h2.371v1.963h-2.371V31.974z M12.784,33.761v0.176h-0.178l-1.083,1.096l-3.128-3.059h4.389v1.537
	l0.124,0.123L12.784,33.761z M17.278,40.658l-3.289-3.215l1.385-1.4l3.29,3.213L17.278,40.658z M18.71,31.974h0.988v-0.982h1.977
	v2.945H18.71V31.974z M23.034,46.281l-3.289-3.215l1.385-1.4l3.289,3.215L23.034,46.281z M27.603,50.744l-2.104-2.053l1.387-1.398
	l0.715,0.695l0.711-0.699l1.389,1.396L27.603,50.744z M32.171,46.265l-1.391-1.398l3.293-3.23l1.389,1.396L32.171,46.265z
	 M36.5,33.857h-2.963v-2.943h1.976v0.98H36.5V33.857z M37.931,40.607l-1.389-1.395l3.293-3.231l1.389,1.397L37.931,40.607z
	 M43.692,34.953l-1.09-1.096h-0.174v-0.176l-0.125-0.123l0.125-0.125v-1.539h4.379L43.692,34.953z"/>
</svg>
