<?xml version="1.0" encoding="utf-8"?>
<!-- Generator: Adobe Illustrator 12.0.0, SVG Export Plug-In  -->
<!DOCTYPE svg PUBLIC "-//W3C//DTD SVG 1.1//EN" "http://www.w3.org/Graphics/SVG/1.1/DTD/svg11.dtd" [
	<!ENTITY ns_flows "http://ns.adobe.com/Flows/1.0/">
	<!ENTITY ns_svg "http://www.w3.org/2000/svg">
	<!ENTITY ns_xlink "http://www.w3.org/1999/xlink">
]>
<svg  version="1.1" xmlns="&ns_svg;" xmlns:xlink="&ns_xlink;" xmlns:a="http://ns.adobe.com/AdobeSVGViewerExtensions/3.0/"
	 width="100" height="100" viewBox="0.418 -14 100 100" enable-background="new 0.418 -14 100 100" xml:space="preserve">
<defs>
</defs>
<polygon fill="#8C3123" points="59.293,29.851 73.139,28.787 73.139,11.359 59.293,14.957 "/>
<polygon fill="#E05243" points="64.705,27.619 50.276,25.527 50.276,0 64.705,7.215 "/>
<polygon fill="#E05243" points="80.346,29.866 73.139,28.821 73.139,11.359 80.346,14.965 "/>
<polygon fill="#5E1F18" points="59.293,29.851 72.98,28.799 80.346,29.867 67.122,30.656 "/>
<polygon fill="#8C3123" points="59.293,42.148 73.139,43.211 73.139,60.641 59.293,57.043 "/>
<polygon fill="#E05243" points="64.705,44.38 50.276,46.473 50.276,72 64.705,64.785 "/>
<polygon fill="#E05243" points="80.204,42.133 72.996,43.178 72.996,60.641 80.204,57.035 "/>
<polygon fill="#F2B0A9" points="59.293,42.148 72.98,43.2 80.346,42.133 67.122,41.342 "/>
<polygon fill="#E05243" points="41.401,29.851 27.557,28.787 27.557,11.359 41.401,14.957 "/>
<polygon fill="#8C3123" points="35.989,27.619 50.418,25.527 50.418,0 35.989,7.215 "/>
<polygon fill="#8C3123" points="20.49,29.866 27.698,28.821 27.698,11.359 20.49,14.965 "/>
<polygon fill="#5E1F18" points="41.543,29.851 27.854,28.799 20.49,29.867 33.714,30.656 "/>
<polygon fill="#E05243" points="41.401,42.148 27.557,43.211 27.557,60.641 41.401,57.043 "/>
<polygon fill="#8C3123" points="35.989,44.38 50.418,46.473 50.418,72 35.989,64.785 "/>
<polygon fill="#8C3123" points="20.49,42.133 27.698,43.178 27.698,60.641 20.49,57.035 "/>
<polygon fill="#F2B0A9" points="41.543,42.148 27.854,43.2 20.49,42.133 33.714,41.342 "/>
<polygon fill="#F2B0A9" points="64.848,44.38 50.418,42.971 35.989,44.38 50.418,46.495 "/>
<polygon fill="#5E1F18" points="64.848,27.619 50.418,29.012 35.989,27.619 50.418,25.527 "/>
<text transform="matrix(1 0 0 1 0 29.2002)" display="none" enable-background="new    " font-family="'MyriadPro-Regular'" font-size="12">l</text>
<text transform="matrix(1 0 0 1 2.832 29.2002)" display="none" enable-background="new    " font-family="'MyriadPro-Regular'" font-size="12">i</text>
<text transform="matrix(1 0 0 1 5.6396 29.2002)" display="none" enable-background="new    " font-family="'MyriadPro-Regular'" font-size="12">v</text>
<text transform="matrix(1 0 0 1 11.291 29.2002)" display="none" enable-background="new    " font-family="'MyriadPro-Regular'" font-size="12">e</text>
<text transform="matrix(1 0 0 1 17.3027 29.2002)" display="none" enable-background="new    " font-family="'MyriadPro-Regular'" font-size="12">r</text>
<text transform="matrix(1 0 0 1 21.5264 29.2002)" display="none" enable-background="new    " font-family="'MyriadPro-Regular'" font-size="12">y</text>
<text transform="matrix(1 0 0 1 27.1787 29.2002)" display="none" enable-background="new    " font-family="'MyriadPro-Regular'" font-size="12">/</text>
<text transform="matrix(1 0 0 1 31.2949 29.2002)" display="none" enable-background="new    " font-family="'MyriadPro-Regular'" font-size="12">E</text>
<text transform="matrix(1 0 0 1 37.1992 29.2002)" display="none" enable-background="new    " font-family="'MyriadPro-Regular'" font-size="12">P</text>
<text transform="matrix(1 0 0 1 43.583 29.2002)" display="none" enable-background="new    " font-family="'MyriadPro-Regular'" font-size="12">S</text>
<text transform="matrix(1 0 0 1 49.499 29.2002)" display="none" enable-background="new    " font-family="'MyriadPro-Regular'" font-size="12">&lt;</text>
<text transform="matrix(1 0 0 1 56.6514 29.2002)" display="none" enable-background="new    " font-family="'MyriadPro-Regular'" font-size="12">/</text>
<text transform="matrix(1 0 0 1 60.7676 29.2002)" display="none" enable-background="new    " font-family="'MyriadPro-Regular'" font-size="12">n</text>
<text transform="matrix(1 0 0 1 67.2725 29.2002)" display="none" enable-background="new    " font-family="'MyriadPro-Regular'" font-size="12">y</text>
<text transform="matrix(1 0 0 1 72.9248 29.2002)" display="none" enable-background="new    " font-family="'MyriadPro-Regular'" font-size="12">t</text>
<text transform="matrix(1 0 0 1 76.8965 29.2002)" display="none" enable-background="new    " font-family="'MyriadPro-Regular'" font-size="12">_</text>
<text transform="matrix(1 0 0 1 82.8965 29.2002)" display="none" enable-background="new    " font-family="'MyriadPro-Regular'" font-size="12">b</text>
<text transform="matrix(1 0 0 1 89.7246 29.2002)" display="none" enable-background="new    " font-family="'MyriadPro-Regular'" font-size="12">a</text>
<text transform="matrix(1 0 0 1 95.5088 29.2002)" display="none" enable-background="new    " font-family="'MyriadPro-Regular'" font-size="12">s</text>
<text transform="matrix(1 0 0 1 100.2607 29.2002)" display="none" enable-background="new    " font-family="'MyriadPro-Regular'" font-size="12">e</text>
</svg>
