<?xml version="1.0" encoding="utf-8"?>
<!-- Generator: Adobe Illustrator 12.0.0, SVG Export Plug-In  -->
<!DOCTYPE svg PUBLIC "-//W3C//DTD SVG 1.1//EN" "http://www.w3.org/Graphics/SVG/1.1/DTD/svg11.dtd" [
	<!ENTITY ns_flows "http://ns.adobe.com/Flows/1.0/">
	<!ENTITY ns_svg "http://www.w3.org/2000/svg">
	<!ENTITY ns_xlink "http://www.w3.org/1999/xlink">
]>
<svg  version="1.1" xmlns="&ns_svg;" xmlns:xlink="&ns_xlink;" xmlns:a="http://ns.adobe.com/AdobeSVGViewerExtensions/3.0/"
	 width="100" height="100" viewBox="-23.756 -24.679 100 100" enable-background="new -23.756 -24.679 100 100"
	 xml:space="preserve">
<defs>
</defs>
<rect x="18" y="16.818" fill="#8C3123" width="15.477" height="3.18"/>
<path fill="#8C3123" d="M52.205,26.66v3.179c-4.588-2.095-10.809-4.062-18.729-4.747v-3.18
	C41.396,22.599,47.617,24.566,52.205,26.66"/>
<path fill="#8C3123" d="M52.205,26.66v3.179c-4.588-2.095-10.809-4.062-18.729-4.747v-3.18
	C41.396,22.599,47.617,24.566,52.205,26.66z"/>
<path fill="#8C3123" d="M18,22.418v3.18c-7.473,1.229-13.611,3.717-18,6.028v-3.179C4.389,26.135,10.527,23.65,18,22.418"/>
<path fill="#8C3123" d="M18,22.418v3.18c-7.473,1.229-13.611,3.717-18,6.028v-3.179C4.389,26.135,10.527,23.65,18,22.418z"/>
<path fill="#E05243" d="M52.205,0v28.463V26.66c-4.588-2.094-10.809-4.061-18.729-4.748v-5.094H18v5.6
	c-7.473,1.232-13.611,3.719-18,6.029V0H52.205z"/>
<path fill="#E05243" d="M33.477,27.281c7.854,0.705,14.106,2.688,18.729,4.806v21.547H0V33.621c4.322-2.274,10.41-4.715,18-5.914
	v6.291h15.477V27.281L33.477,27.281z"/>
<rect y="53.633" fill="#8C3123" width="52.205" height="3.178"/>
</svg>
