<?xml version="1.0" encoding="utf-8"?>
<!-- Generator: Adobe Illustrator 12.0.0, SVG Export Plug-In  -->
<!DOCTYPE svg PUBLIC "-//W3C//DTD SVG 1.1//EN" "http://www.w3.org/Graphics/SVG/1.1/DTD/svg11.dtd" [
	<!ENTITY ns_flows "http://ns.adobe.com/Flows/1.0/">
	<!ENTITY ns_svg "http://www.w3.org/2000/svg">
	<!ENTITY ns_xlink "http://www.w3.org/1999/xlink">
]>
<svg  version="1.1" xmlns="&ns_svg;" xmlns:xlink="&ns_xlink;" xmlns:a="http://ns.adobe.com/AdobeSVGViewerExtensions/3.0/"
	 width="100" height="100" viewBox="-22.495 -21.483 100 100" enable-background="new -22.495 -21.483 100 100"
	 xml:space="preserve">
<defs>
</defs>
<path fill="#E05243" d="M27.505,0C42.694,0,55.01,12.221,55.01,27.285c0,15.068-12.313,27.283-27.505,27.283
	C12.314,54.568,0,42.354,0,27.286C0,12.221,12.315,0,27.505,0z"/>
<path fill="#8C3123" d="M55.01,27.286v2.465c0,1.385-0.104,2.744-0.303,4.065v-2.461C54.905,30.026,55.01,28.672,55.01,27.286"/>
<path fill="#8C3123" d="M54.707,31.356v2.461c-0.231,1.558-0.599,3.068-1.089,4.527v-2.474
	C54.108,34.422,54.476,32.906,54.707,31.356"/>
<path fill="#8C3123" d="M53.618,35.871v2.474c-0.569,1.707-1.312,3.348-2.196,4.891v-2.461
	C52.307,39.229,53.049,37.587,53.618,35.871"/>
<path fill="#8C3123" d="M51.422,40.774v2.461c-4.733,8.24-13.67,13.8-23.917,13.8C12.315,57.035,0,44.817,0,29.751v-2.465
	c0,15.068,12.314,27.283,27.505,27.283C37.752,54.569,46.688,49.012,51.422,40.774"/>
<path fill="#8C3123" d="M55.01,27.286v2.465c0,15.065-12.315,27.283-27.505,27.283C12.315,57.035,0,44.817,0,29.75v-2.464
	c0,15.068,12.314,27.283,27.505,27.283C42.696,54.568,55.01,42.354,55.01,27.286z"/>
<path fill="#FFFFFF" d="M34.653,5.053H20.365v27.228H10.163l17.341,16.94l17.343-17.022H34.649L34.653,5.053z M40.053,34.156
	L27.5,46.475L14.973,34.237h7.361V7.008h10.353l-0.008,27.146h7.374V34.156z"/>
</svg>
