<?xml version="1.0" encoding="utf-8"?>
<!-- Generator: Adobe Illustrator 12.0.0, SVG Export Plug-In  -->
<!DOCTYPE svg PUBLIC "-//W3C//DTD SVG 1.1//EN" "http://www.w3.org/Graphics/SVG/1.1/DTD/svg11.dtd" [
	<!ENTITY ns_flows "http://ns.adobe.com/Flows/1.0/">
	<!ENTITY ns_svg "http://www.w3.org/2000/svg">
	<!ENTITY ns_xlink "http://www.w3.org/1999/xlink">
]>
<svg  version="1.1" xmlns="&ns_svg;" xmlns:xlink="&ns_xlink;" xmlns:a="http://ns.adobe.com/AdobeSVGViewerExtensions/3.0/"
	 width="100" height="100" viewBox="-19.914 -14.514 100 100" enable-background="new -19.914 -14.514 100 100"
	 xml:space="preserve">
<defs>
</defs>
<polygon fill="#E05243" points="59.813,42.304 51.468,43.546 51.468,61.22 59.813,57.06 "/>
<polygon fill="#E05243" points="24.483,26.181 13.962,24.846 13.962,38.693 24.483,38.37 "/>
<polygon fill="#8C3123" points="7.216,26.127 13.962,24.778 13.962,38.693 7.216,38.369 "/>
<polygon fill="#8C3123" points="35.227,26.181 45.747,24.846 45.747,38.693 35.227,38.37 "/>
<polygon fill="#E05243" points="40.598,23.748 29.855,21.6 29.855,39.456 40.598,38.94 "/>
<polygon fill="#E05243" points="52.493,26.127 45.747,24.778 45.747,38.693 52.493,38.369 "/>
<polygon fill="#E05243" points="38.775,4.46 29.855,0 29.855,14.4 38.775,17.076 "/>
<polygon fill="#8C3123" points="19.112,23.748 29.855,21.6 29.855,39.456 19.112,38.94 "/>
<polygon fill="#8C3123" points="20.934,4.46 29.855,0 29.855,14.4 20.934,17.076 "/>
<polygon fill="#5E1F18" points="38.775,17.076 29.855,19.162 20.934,17.076 29.855,14.4 "/>
<polygon fill="#F2B0A9" points="36.48,42.343 51.468,43.546 59.813,42.304 45.816,41.444 "/>
<polygon fill="#8C3123" points="36.48,42.343 51.468,43.546 51.468,61.22 36.48,57.19 "/>
<polygon fill="#E05243" points="45.747,44.396 29.855,46.759 29.855,72 45.747,64.074 "/>
<polygon fill="#8C3123" points="0,42.304 8.345,43.546 8.345,61.22 0,57.06 "/>
<polygon fill="#F2B0A9" points="23.333,42.343 8.345,43.546 0,42.304 13.997,41.444 "/>
<polygon fill="#E05243" points="23.333,42.343 8.345,43.546 8.345,61.22 23.333,57.19 "/>
<polygon fill="#8C3123" points="14.066,44.396 29.958,46.759 29.958,72 14.066,64.074 "/>
<polygon fill="#F2B0A9" points="45.747,44.396 29.905,42.89 14.066,44.396 29.909,46.751 "/>
</svg>
