<?xml version="1.0" encoding="utf-8"?>
<!-- Generator: Adobe Illustrator 12.0.0, SVG Export Plug-In  -->
<!DOCTYPE svg PUBLIC "-//W3C//DTD SVG 1.1//EN" "http://www.w3.org/Graphics/SVG/1.1/DTD/svg11.dtd" [
	<!ENTITY ns_flows "http://ns.adobe.com/Flows/1.0/">
	<!ENTITY ns_svg "http://www.w3.org/2000/svg">
	<!ENTITY ns_xlink "http://www.w3.org/1999/xlink">
]>
<svg  version="1.1" xmlns="&ns_svg;" xmlns:xlink="&ns_xlink;" xmlns:a="http://ns.adobe.com/AdobeSVGViewerExtensions/3.0/"
	 width="100" height="100" viewBox="-22.6 -21.8 100 100" enable-background="new -22.6 -21.8 100 100" xml:space="preserve">
<defs>
</defs>
<path fill="#8C3123" d="M0.2,13.9C0.1,13.7,0,13.4,0,13.2L0.2,13.9z"/>
<path fill="#8C3123" d="M54.6,13.9l0.2-0.7C54.8,13.4,54.7,13.7,54.6,13.9z"/>
<polygon fill="#8C3123" points="54.8,10.9 54.8,13.2 54.6,13.9 54.6,11.6 "/>
<polygon fill="#8C3123" points="0.2,11.6 0.2,13.9 0,13.2 0,10.9 "/>
<path fill="#8C3123" d="M54.8,6.4v2.3c0,0.1,0,0.2,0,0.3V6.7C54.7,6.6,54.8,6.5,54.8,6.4"/>
<path fill="#8C3123" d="M54.7,6.7V9c0,0.1,0,0.2-0.1,0.3V7C54.7,6.9,54.7,6.8,54.7,6.7"/>
<path fill="#8C3123" d="M54.7,7v2.3c0,0.1-0.1,0.3-0.2,0.4V7.4C54.5,7.2,54.6,7.1,54.7,7"/>
<path fill="#8C3123" d="M54.5,7.4v2.3c-2,3.1-13.399,5.5-27.1,5.5C12.3,15.2,0,12.3,0,8.8V6.5c0,3.6,12.2,6.4,27.4,6.4
	C41.1,12.9,52.5,10.5,54.5,7.4"/>
<path fill="#8C3123" d="M54.8,6.4v2.3c0,3.6-12.301,6.4-27.4,6.4C12.3,15.1,0,12.2,0,8.7V6.4c0,3.6,12.2,6.4,27.4,6.4
	C42.5,12.9,54.8,10,54.8,6.4z"/>
<path fill="#E05243" d="M27.4,0c15.1,0,27.4,2.9,27.4,6.4c0,3.6-12.301,6.4-27.4,6.4C12.3,12.8,0,9.9,0,6.4S12.3,0,27.4,0z"/>
<polygon fill="#8C3123" points="54.6,11.6 54.6,13.9 45.6,52.101 45.6,49.8 "/>
<polygon fill="#8C3123" points="9.2,49.8 9.2,52.101 0.2,13.9 0.2,11.6 "/>
<path fill="#8C3123" d="M45.6,50.101v2.3c0,0.1-0.101,0.2-0.101,0.3v-2.3C45.5,50.3,45.5,50.2,45.6,50.101"/>
<path fill="#8C3123" d="M45.4,50.4v2.3c-1.3,2.1-8.9,3.7-18.1,3.7c-10.1,0-18.2-1.9-18.2-4.3V49.8c0,2.4,8.2,4.301,18.2,4.301
	C36.6,54.101,44.2,52.5,45.4,50.4"/>
<path fill="#8C3123" d="M45.6,49.8v2.301c0,2.399-8.2,4.3-18.2,4.3c-10.1,0-18.2-1.9-18.2-4.3V49.8c0,2.4,8.2,4.301,18.2,4.301
	C37.5,54.101,45.6,52.2,45.6,49.8z"/>
<path fill="#E05243" d="M27.4,17.3c14.1,0,25.7-2.5,27.2-5.7l-8.9,38.2c0,2.4-8.2,4.301-18.2,4.301c-10.1,0-18.2-1.9-18.2-4.301
	L0.4,11.6C1.7,14.8,13.3,17.3,27.4,17.3z"/>
</svg>
