<?xml version="1.0" encoding="utf-8"?>
<!-- Generator: Adobe Illustrator 12.0.0, SVG Export Plug-In  -->
<!DOCTYPE svg PUBLIC "-//W3C//DTD SVG 1.1//EN" "http://www.w3.org/Graphics/SVG/1.1/DTD/svg11.dtd" [
	<!ENTITY ns_flows "http://ns.adobe.com/Flows/1.0/">
	<!ENTITY ns_svg "http://www.w3.org/2000/svg">
	<!ENTITY ns_xlink "http://www.w3.org/1999/xlink">
]>
<svg  version="1.1" xmlns="&ns_svg;" xmlns:xlink="&ns_xlink;" xmlns:a="http://ns.adobe.com/AdobeSVGViewerExtensions/3.0/"
	 width="92" height="55" viewBox="-14.094 -0.75 92 55" enable-background="new -14.094 -0.75 92 55" xml:space="preserve">
<defs>
</defs>
<path fill="#8C3323" d="M10.189,10.43c-0.08-0.17-0.13-0.36-0.13-0.54L10.189,10.43z"/>
<path fill="#8C3323" d="M50.969,10.43l0.13-0.54C51.099,10.069,51.049,10.25,50.969,10.43z"/>
<path fill="#8C3323" d="M51.099,8.149v1.74l-0.13,0.54v-1.74L51.099,8.149z"/>
<path fill="#8C3323" d="M10.189,8.689v1.74l-0.13-0.54v-1.74L10.189,8.689z"/>
<path fill="#8C3323" d="M51.099,4.813v1.75c0,2.67-9.189,4.82-20.52,4.82c-11.33,0-20.52-2.15-20.52-4.82v-1.75
	c0,2.68,9.19,4.83,20.52,4.83C41.91,9.644,51.099,7.494,51.099,4.813z"/>
<path fill="#8C3323" d="M51.099,4.82v1.74c0,0.07-0.01,0.13-0.02,0.19V5.01C51.089,4.94,51.099,4.88,51.099,4.82z"/>
<path fill="#8C3323" d="M51.082,5.011v1.74c-0.01,0.07-0.029,0.15-0.06,0.22v-1.75C51.052,5.15,51.072,5.081,51.082,5.011z"/>
<path fill="#8C3323" d="M51.017,5.23v1.74c-0.029,0.1-0.08,0.2-0.141,0.3V5.53C50.937,5.43,50.988,5.33,51.017,5.23z"/>
<path fill="#8C3323" d="M50.879,5.523v1.75c-1.46,2.33-9.99,4.11-20.3,4.11c-11.33,0-20.52-2.15-20.52-4.82v-1.75
	c0,2.68,9.19,4.83,20.52,4.83C40.889,9.643,49.419,7.863,50.879,5.523z"/>
<path fill="#E15343" d="M30.579,0c11.329,0,20.521,2.16,20.521,4.82c0,2.67-9.191,4.82-20.521,4.82c-11.33,0-20.52-2.15-20.52-4.82
	C10.059,2.16,19.249,0,30.579,0z"/>
<path fill="#8C3323" d="M50.968,8.686v1.74l-6.71,28.65v-1.739L50.968,8.686z"/>
<path fill="#8C3323" d="M16.896,37.336v1.739l-6.71-28.65v-1.74L16.896,37.336z"/>
<path fill="#8C3323" d="M44.258,37.339v1.74c0,1.78-6.12,3.21-13.68,3.21c-7.56,0-13.68-1.43-13.68-3.21v-1.74
	c0,1.771,6.12,3.21,13.68,3.21C38.138,40.549,44.258,39.11,44.258,37.339z"/>
<path fill="#8C3323" d="M44.255,37.334v1.74c0,0.05,0,0.09-0.01,0.13v-1.75C44.255,37.415,44.255,37.375,44.255,37.334z"/>
<path fill="#8C3323" d="M44.25,37.459v1.75c-0.011,0.04-0.03,0.09-0.04,0.141v-1.74C44.22,37.559,44.24,37.509,44.25,37.459z"/>
<path fill="#8C3323" d="M44.212,37.61v1.74c-0.03,0.07-0.061,0.131-0.1,0.2V37.8C44.152,37.741,44.182,37.67,44.212,37.61z"/>
<path fill="#8C3323" d="M44.109,37.809v1.74c-0.971,1.561-6.66,2.74-13.53,2.74c-7.56,0-13.68-1.43-13.68-3.21v-1.74
	c0,1.771,6.12,3.21,13.68,3.21C37.449,40.549,43.138,39.36,44.109,37.809z"/>
<path fill="#E15343" d="M30.577,12.964c10.56,0,19.261-1.87,20.39-4.28l-6.709,28.65c0,1.779-6.121,3.21-13.681,3.21
	c-7.56,0-13.68-1.431-13.68-3.21l-6.71-28.65C11.317,11.094,20.017,12.964,30.577,12.964z"/>
<path fill="#146EB4" d="M51.162,8.442c0.011,0.03,0.021,0.05,0.03,0.08l-0.01-0.05C51.172,8.462,51.162,8.452,51.162,8.442z"/>
<path fill="#146EB4" d="M51.136,8.374c-0.01-0.05-0.03-0.1-0.04-0.15C51.106,8.274,51.126,8.324,51.136,8.374z"/>
<path fill="none" stroke="#FFFFFF" stroke-width="1.5" stroke-miterlimit="3" d="M30.102,22.898l-2.88,1.72l-1.11-0.24l-1.21-1.24
	l-3.16,0.29l-1.31-2.28l-3.73,0.05l-0.86-0.04c-0.03-0.07-0.75-1.25-1.86-2.06c-1.47-1.18-3.28-1.78-5.1-1.78
	c-1.81,0-3.64,0.6-5.14,1.83c-2.18,1.75-3.19,4.39-2.96,6.97c-0.02-0.24-0.03-0.49-0.03-0.73v1.96c0,1.8,0.6,3.609,1.84,5.12
	c0.21,0.239,0.42,0.47,0.65,0.68c1.55,1.5,3.59,2.271,5.65,2.271c1.82,0,3.63-0.601,5.14-1.82c0.16-0.13,0.32-0.28,0.48-0.43
	c0.19-0.181,0.35-0.36,0.51-0.541l0,0c0,0,0.01-0.01,0.02-0.02c0.02-0.029,0.06-0.07,0.09-0.1v-0.021c0.07-0.09,0.15-0.19,0.23-0.31
	c0.12-0.15,0.23-0.311,0.33-0.471l0.01,0.03c0.05-0.1,0.12-0.22,0.18-0.34c0.03-0.05,0.06-0.09,0.09-0.14
	c0.25-0.461,0.41-0.811,0.45-0.94l0.01-0.021c0,0,0,0,0-0.01l15.28-0.209l1.33-2.48v-1.96L30.102,22.898z"/>
<path fill="#4D622C" d="M33.042,25.638v1.96l-1.33,2.48v-1.961L33.042,25.638z"/>
<path fill="#4D622C" d="M32.293,27.54l-0.58,2.541l-15.28,0.209l-0.31-2.09L32.293,27.54z"/>
<path fill="#4D622C" d="M16.439,28.329v1.96c-0.04,0.11-0.2,0.479-0.47,0.97v-1.96C16.239,28.809,16.399,28.438,16.439,28.329z"/>
<path fill="#4D622C" d="M16.433,28.339v1.96c-0.03,0.109-0.47,0.97-0.73,1.439l-0.19-2.41C15.773,28.849,16.403,28.45,16.433,28.339
	z"/>
<path fill="#4D622C" d="M16.12,28.997l-0.15,2.26c-0.23,0.44-0.55,0.9-0.89,1.28l0.05-1.99C15.47,30.167,15.9,29.436,16.12,28.997z"
	/>
<path fill="#4D622C" d="M16.261,28.72l-0.26,2.45c-0.2,0.37-0.69,1.13-0.98,1.46l0.02-2.04c0.3-0.34,1.06-1.54,1.27-1.92
	L16.261,28.72z"/>
<path fill="none" d="M16.261,28.72l-0.26,2.45c-0.2,0.37-0.69,1.13-0.98,1.46l0.02-2.04c0.3-0.34,1.06-1.54,1.27-1.92"/>
<path fill="#4D622C" d="M15.2,30.284l-0.07,2.221c-0.3,0.38-0.7,0.779-1.13,1.109l-0.21-1.979
	C14.22,31.304,14.891,30.674,15.2,30.284z"/>
<path fill="#4D622C" d="M15.288,30.275l-0.1,2.14c-0.31,0.391-0.73,0.85-1.15,1.18l-0.4-2.109c0.43-0.33,1.35-0.811,1.65-1.2V30.275
	z"/>
<path fill="none" d="M15.288,30.275l-0.1,2.14c-0.31,0.391-0.73,0.85-1.15,1.18l-0.4-2.109c0.43-0.33,1.35-0.811,1.65-1.2"/>
<path fill="#4D622C" d="M0.752,27.347v-1.96c0,1.8,0.61,3.609,1.85,5.12c0.2,0.239,0.41,0.47,0.64,0.68
	c1.55,1.5,3.6,2.271,5.65,2.271c1.82,0,3.63-0.6,5.14-1.82v1.96c-1.51,1.22-3.32,1.82-5.14,1.82c-2.05,0-4.1-0.771-5.65-2.271
	c-0.23-0.21-0.44-0.439-0.64-0.68C1.353,30.958,0.752,29.147,0.752,27.347z"/>
<path fill="#4D622C" d="M14.393,31.017c-1.51,1.22-3.68,2.44-5.5,2.44c-2.05,0-4.1-0.771-5.65-2.271c-0.23-0.21-0.44-0.44-0.64-0.68
	c-1.24-1.511-1.85-3.32-1.85-5.12v1.96c0,1.8,0.61,3.61,1.85,5.12c0.2,0.24,0.42,0.47,0.64,0.68c1.55,1.5,3.6,2.271,5.65,2.271
	c1.82,0,3.63-0.601,5.14-1.82L14.393,31.017z"/>
<path fill="#769B3F" d="M30.098,22.897l2.95,2.74l-1.34,2.48l-15.27,0.21c-0.03,0.11-0.19,0.479-0.47,0.97
	c-0.22,0.439-0.5,0.86-0.83,1.25c-0.31,0.38-0.68,0.75-1.1,1.09c-1.51,1.221-3.33,1.82-5.14,1.82c-2.06,0-4.1-0.77-5.66-2.27
	c-0.22-0.211-0.44-0.44-0.64-0.681c-2.85-3.46-2.34-8.54,1.14-11.36c1.51-1.24,3.33-1.83,5.15-1.83c1.82,0,3.63,0.6,5.1,1.78
	c1.11,0.81,1.82,1.99,1.86,2.06l0.85,0.04l3.73-0.05l1.31,2.28l3.16-0.29l1.21,1.24l1.11,0.24L30.098,22.897z M5.317,27.377
	c1.18-0.01,2.12-0.98,2.11-2.14c-0.02-1.17-0.98-2.09-2.15-2.09c-0.01,0-0.02,0-0.02,0c-1.17,0.02-2.12,0.98-2.1,2.15
	c0.01,1.15,0.96,2.08,2.12,2.08C5.288,27.377,5.308,27.377,5.317,27.377z"/>
</svg>
