<?xml version="1.0" encoding="utf-8"?>
<!-- Generator: Adobe Illustrator 12.0.0, SVG Export Plug-In  -->
<!DOCTYPE svg PUBLIC "-//W3C//DTD SVG 1.1//EN" "http://www.w3.org/Graphics/SVG/1.1/DTD/svg11.dtd" [
	<!ENTITY ns_flows "http://ns.adobe.com/Flows/1.0/">
	<!ENTITY ns_svg "http://www.w3.org/2000/svg">
	<!ENTITY ns_xlink "http://www.w3.org/1999/xlink">
]>
<svg  version="1.1" xmlns="&ns_svg;" xmlns:xlink="&ns_xlink;" xmlns:a="http://ns.adobe.com/AdobeSVGViewerExtensions/3.0/"
	 width="100" height="100" viewBox="-22.414 -21.628 100 100" enable-background="new -22.414 -21.628 100 100"
	 xml:space="preserve">
<defs>
</defs>
<path fill="#8C3123" d="M55.172,6.433v2.772c0,0.084-0.006,0.168-0.02,0.25V6.684C55.166,6.6,55.172,6.517,55.172,6.433"/>
<path fill="#8C3123" d="M55.152,6.684v2.771c-0.019,0.098-0.039,0.193-0.074,0.289V6.971C55.113,6.875,55.135,6.779,55.152,6.684"/>
<path fill="#8C3123" d="M55.078,6.971v2.773c-0.049,0.135-0.113,0.268-0.195,0.4V7.371C54.965,7.238,55.029,7.106,55.078,6.971"/>
<path fill="#8C3123" d="M54.883,7.371v2.773c-1.945,3.111-13.42,5.493-27.289,5.493C12.344,15.637,0,12.763,0,9.204V6.432
	c0,3.559,12.344,6.432,27.594,6.432C41.463,12.864,52.938,10.482,54.883,7.371"/>
<path fill="#8C3123" d="M55.172,6.433v2.772c0,3.559-12.344,6.433-27.578,6.433C12.344,15.638,0,12.764,0,9.205V6.433
	c0,3.559,12.344,6.432,27.594,6.432C42.828,12.864,55.172,9.991,55.172,6.433z"/>
<path fill="#E05243" d="M27.594,0c15.234,0,27.578,2.875,27.578,6.433c0,3.559-12.344,6.432-27.578,6.432
	C12.344,12.865,0,9.992,0,6.433C0,2.875,12.344,0,27.594,0z"/>
<polygon fill="#8C3123" points="55.014,11.378 55.014,14.151 45.973,52.44 45.256,50.629 "/>
<polygon fill="#8C3123" points="9.199,49.668 9.199,52.44 0.158,14.151 0.158,11.378 "/>
<path fill="#8C3123" d="M45.973,49.668v2.772c0,0.058-0.004,0.113-0.012,0.168v-2.771C45.969,49.781,45.973,49.726,45.973,49.668"/>
<path fill="#8C3123" d="M45.961,49.838v2.771c-0.012,0.066-0.027,0.132-0.051,0.197v-2.772
	C45.934,49.968,45.949,49.902,45.961,49.838"/>
<path fill="#8C3123" d="M45.91,50.033v2.772c-0.033,0.09-0.076,0.18-0.131,0.268v-2.771C45.834,50.211,45.877,50.123,45.91,50.033"
	/>
<path fill="#8C3123" d="M46.256,49.379l-0.477,3.694c-1.301,2.084-8.939,3.671-18.187,3.671c-10.162,0-18.395-1.916-18.395-4.304
	v-2.772c0,2.39,8.232,4.304,18.395,4.304c9.246,0,16.886-1.586,18.187-3.67"/>
<path fill="#8C3123" d="M45.973,49.668v2.772c0,2.388-8.217,4.304-18.379,4.304c-10.162,0-18.395-1.916-18.395-4.304v-2.772
	c0,2.39,8.232,4.304,18.395,4.304C37.757,53.972,45.973,52.058,45.973,49.668z"/>
<path fill="#E05243" d="M27.594,17.124c14.24,0,25.951-2.515,27.42-5.746l-9.041,38.29c0,2.39-8.217,4.304-18.379,4.304
	c-10.162,0-18.395-1.914-18.395-4.304l-9.041-38.29C1.629,14.609,13.356,17.124,27.594,17.124z"/>
<rect x="21.348" y="21.226" fill="#FFFFFF" width="11.476" height="11.398"/>
<ellipse fill="#FFFFFF" cx="17.873" cy="42.272" rx="5.658" ry="5.62"/>
<polygon fill="#FFFFFF" points="41.676,47.629 30.334,47.629 36.006,37.156 "/>
</svg>
