<?xml version="1.0" encoding="utf-8"?>
<!-- Generator: Adobe Illustrator 12.0.0, SVG Export Plug-In  -->
<!DOCTYPE svg PUBLIC "-//W3C//DTD SVG 1.1//EN" "http://www.w3.org/Graphics/SVG/1.1/DTD/svg11.dtd" [
	<!ENTITY ns_flows "http://ns.adobe.com/Flows/1.0/">
	<!ENTITY ns_svg "http://www.w3.org/2000/svg">
	<!ENTITY ns_xlink "http://www.w3.org/1999/xlink">
]>
<svg  version="1.1" xmlns="&ns_svg;" xmlns:xlink="&ns_xlink;" xmlns:a="http://ns.adobe.com/AdobeSVGViewerExtensions/3.0/"
	 width="49" height="60" viewBox="-3.815 -0.753 49 60" enable-background="new -3.815 -0.753 49 60" xml:space="preserve">
<defs>
</defs>
<path fill="none" d="M24.931,20.082c3.02-0.2,5.77-0.56,8.07-1.05C30.491,19.552,27.621,19.892,24.931,20.082z"/>
<path fill="none" d="M33.382,16.783c-2.27,0.5-5.06,0.88-8.17,1.09C28.703,17.653,31.363,17.253,33.382,16.783z"/>
<path fill="none" d="M19.886,18.047c-4.9,0-9.37-0.43-12.8-1.12C10.336,17.627,14.686,18.077,19.886,18.047z"/>
<path fill="none" d="M19.983,20.237c-11.66-0.15-18.95-2.27-19.9-4.51l0.01,0.05C1.184,18.287,9.673,20.237,19.983,20.237z"/>
<path fill="#146EB4" d="M0.067,15.692c0.01,0.03,0.02,0.06,0.03,0.09l-0.01-0.05C0.077,15.722,0.067,15.712,0.067,15.692z"/>
<path fill="#146EB4" d="M0.04,15.633c-0.01-0.05-0.03-0.1-0.04-0.15C0.01,15.533,0.03,15.583,0.04,15.633z"/>
<path fill="#146EB4" d="M39.999,15.233l-0.01,0.02v0.01C39.989,15.253,39.999,15.244,39.999,15.233z"/>
<path fill="#E15343" d="M30.498,4.967v0.11h-21v-0.11h-0.36v3.55h21.721v-3.55H30.498z"/>
<path fill="#E15343" d="M28.248,0h-16.5l-2.25,2.25h21L28.248,0z"/>
<rect x="9.498" y="2.247" fill="#8C3323" width="21" height="1.388"/>
<rect x="30.339" y="4.971" fill="#8C3323" width="0.517" height="3.572"/>
<rect x="9.138" y="4.971" fill="#8C3323" width="0.516" height="3.572"/>
<path fill="#8C3323" d="M0.242,17.892c-0.07-0.17-0.12-0.35-0.12-0.52L0.242,17.892z"/>
<path fill="#8C3323" d="M39.75,17.892l0.12-0.52C39.87,17.542,39.83,17.712,39.75,17.892z"/>
<path fill="#8C3323" d="M39.87,15.672v1.7l-0.12,0.52v-1.69L39.87,15.672z"/>
<path fill="#8C3323" d="M0.242,16.202v1.69l-0.12-0.52v-1.7L0.242,16.202z"/>
<path fill="#8C3323" d="M39.876,12.447v1.69c0,0.07-0.01,0.13-0.021,0.19v-1.69C39.867,12.578,39.876,12.507,39.876,12.447z"/>
<path fill="#8C3323" d="M39.851,12.632v1.69c-0.01,0.07-0.02,0.15-0.05,0.22v-1.69C39.822,12.782,39.841,12.702,39.851,12.632z"/>
<path fill="#8C3323" d="M39.799,12.852v1.69c-0.03,0.09-0.079,0.19-0.14,0.29v-1.69C39.72,13.042,39.769,12.942,39.799,12.852z"/>
<path fill="#8C3323" d="M39.662,13.135v1.69c-1.41,2.26-9.68,3.99-19.67,3.99c-10.97,0-19.87-2.09-19.87-4.67v-1.69
	c0,2.58,8.9,4.67,19.87,4.67C29.982,17.125,38.251,15.396,39.662,13.135z"/>
<path fill="#8C3323" d="M39.872,12.456v1.69c0,2.58-8.899,4.67-19.88,4.67c-10.97,0-19.87-2.09-19.87-4.67v-1.69
	c0,2.58,8.9,4.67,19.87,4.67C30.972,17.126,39.872,15.036,39.872,12.456z"/>
<path fill="#E15343" d="M19.992,7.787c10.98,0,19.88,2.09,19.88,4.66c0,2.59-8.899,4.68-19.88,4.68c-10.97,0-19.87-2.09-19.87-4.68
	C0.122,9.876,9.021,7.787,19.992,7.787z"/>
<path fill="#8C3323" d="M39.75,16.2v1.69l-6.5,27.75v-1.69L39.75,16.2z"/>
<path fill="#8C3323" d="M6.746,43.95v1.69l-6.5-27.75V16.2L6.746,43.95z"/>
<path fill="#8C3323" d="M33.247,43.946v1.689c0,0.04,0,0.09-0.011,0.13v-1.7C33.247,44.026,33.247,43.985,33.247,43.946z"/>
<path fill="#8C3323" d="M33.232,44.067v1.699c0,0.04-0.01,0.09-0.029,0.141v-1.69C33.222,44.167,33.232,44.116,33.232,44.067z"/>
<path fill="#8C3323" d="M33.197,44.209v1.69c-0.02,0.069-0.049,0.13-0.09,0.2v-1.7C33.148,44.34,33.177,44.28,33.197,44.209z"/>
<path fill="#8C3323" d="M33.107,44.403v1.69c-0.939,1.511-6.449,2.66-13.11,2.66c-7.32,0-13.25-1.39-13.25-3.12v-1.68
	c0,1.72,5.93,3.109,13.25,3.109C26.658,47.063,32.167,45.913,33.107,44.403z"/>
<path fill="#8C3323" d="M33.248,43.954v1.68c0,1.73-5.93,3.12-13.25,3.12c-7.32,0-13.25-1.39-13.25-3.12v-1.68
	c0,1.72,5.93,3.109,13.25,3.109C27.318,47.063,33.248,45.673,33.248,43.954z"/>
<path fill="#E15343" d="M19.996,20.343c10.23,0,18.66-1.81,19.75-4.14l-6.5,27.75c0,1.72-5.93,3.11-13.25,3.11
	s-13.25-1.391-13.25-3.11l-6.5-27.75C1.345,18.533,9.766,20.343,19.996,20.343z"/>
</svg>
