<?xml version="1.0" encoding="utf-8"?>
<!-- Generator: Adobe Illustrator 12.0.0, SVG Export Plug-In  -->
<!DOCTYPE svg PUBLIC "-//W3C//DTD SVG 1.1//EN" "http://www.w3.org/Graphics/SVG/1.1/DTD/svg11.dtd" [
	<!ENTITY ns_flows "http://ns.adobe.com/Flows/1.0/">
	<!ENTITY ns_svg "http://www.w3.org/2000/svg">
	<!ENTITY ns_xlink "http://www.w3.org/1999/xlink">
]>
<svg  version="1.1" xmlns="&ns_svg;" xmlns:xlink="&ns_xlink;" xmlns:a="http://ns.adobe.com/AdobeSVGViewerExtensions/3.0/"
	 width="99" height="99" viewBox="-22.709 -16.516 99 99" enable-background="new -22.709 -16.516 99 99" xml:space="preserve">
<defs>
</defs>
<rect x="18.832" y="53.374" fill="#8C3123" width="15.609" height="3.222"/>
<polygon fill="#E05243" points="53.373,0 53.373,63.544 34.441,63.544 34.441,53.374 18.832,53.374 18.832,63.243 0,63.243 0,0 "/>
<rect x="34.441" y="63.243" fill="#8C3123" width="18.832" height="3.222"/>
<rect y="63.243" fill="#8C3123" width="18.832" height="3.222"/>
<path fill="#8C3123" d="M44.612,28.398c-5.438-2.518-11.884-0.201-14.401,5.136c-1.711,3.625-1.208,7.754,0.906,10.876
	c-2.518,0.604-5.035,0.705-7.955,0.705c0.503-0.503,0.705-0.705,1.007-1.208c1.208-1.713,1.914-3.828,1.914-6.144
	c0-5.942-4.834-10.775-10.775-10.775S4.532,31.822,4.532,37.764c0,5.941,4.834,10.775,10.775,10.775
	c1.914,0,3.726-0.503,5.237-1.409c0.604,0.1,1.208,0.1,1.913,0.1c0,0,5.137,0.604,10.574-0.705c0.705,0.504,1.41,1.008,2.215,1.41
	c5.438,2.518,11.884,0.201,14.401-5.136C52.367,37.361,50.051,30.916,44.612,28.398z"/>
<path fill="#FFFFFF" d="M44.612,26.284c-5.438-2.518-11.884-0.201-14.401,5.136c-1.711,3.625-1.208,7.753,0.906,10.876
	C28.6,42.9,25.78,43.302,22.86,43.302c2.014-2.014,3.323-4.732,3.323-7.754c0-5.941-4.833-10.775-10.775-10.775
	c-5.941,0-10.775,4.833-10.775,10.775s4.834,10.775,10.775,10.775c1.914,0,3.726-0.504,5.237-1.41
	c0.604,0.102,1.208,0.102,1.914,0.102c0,0,5.135,0.604,10.574-0.705c0.705,0.504,1.41,1.007,2.216,1.41
	c5.438,2.518,11.883,0.201,14.4-5.137C52.266,35.247,50.051,28.801,44.612,26.284z"/>
<path fill="#E05243" d="M12.89,38.167c-0.705-0.807-1.913-1.008-2.82-0.303l-1.51,1.309c-0.806,0.705-1.007,1.914-0.302,2.72
	l0.101,0.201c0.705,0.806,1.914,1.007,2.719,0.302l1.51-1.208c0.806-0.704,1.007-1.913,0.302-2.819V38.167z"/>
<path fill="#E05243" d="M24.874,36.153c0-1.108-0.806-2.015-1.913-2.015h-2.014c-1.108,0-2.014,0.807-2.014,1.914v0.201
	c0,1.107,0.806,2.014,1.913,2.014h2.014c1.108,0,2.014-0.805,2.014-1.912V36.153z"/>
<path fill="#E05243" d="M14.3,31.822c1.007-0.302,1.611-1.51,1.208-2.518l-0.604-1.913c-0.302-1.007-1.511-1.611-2.518-1.208
	l-0.202,0.101c-1.007,0.302-1.611,1.511-1.208,2.518l0.604,1.914c0.302,1.007,1.511,1.611,2.518,1.208L14.3,31.822z"/>
<circle fill="#E05243" cx="15.307" cy="35.549" r="1.51"/>
<path fill="#E05243" d="M41.289,39.375c-1.008,0.302-1.712,1.31-1.41,2.417l0.504,1.913c0.302,1.007,1.309,1.712,2.417,1.41
	l0.201-0.101c1.007-0.303,1.712-1.31,1.409-2.417l-0.503-1.813c-0.302-1.006-1.31-1.711-2.417-1.409H41.289z"/>
<path fill="#E05243" d="M44.512,27.694c-1.008-0.504-2.115-0.101-2.619,0.906l-0.906,1.813c-0.503,1.007-0.1,2.115,0.906,2.619
	l0.202,0.101c1.007,0.503,2.114,0.101,2.618-0.906l0.906-1.813c0.504-1.007,0.102-2.115-0.906-2.618L44.512,27.694z"/>
<path fill="#E05243" d="M36.152,35.347c0.102-1.107-0.604-2.014-1.711-2.215l-1.914-0.202c-1.107-0.101-2.014,0.604-2.215,1.712
	v0.201c-0.102,1.107,0.604,2.015,1.711,2.216l1.914,0.202c1.107,0.1,2.014-0.605,2.215-1.713V35.347z"/>
<path fill="#E05243" d="M40.685,34.642c-0.806-0.402-1.712,0-2.014,0.705c-0.403,0.806,0,1.712,0.704,2.014
	c0.807,0.403,1.713,0,2.015-0.705S41.39,35.044,40.685,34.642z"/>
<path fill="#8C3123" d="M24.874,36.153c0-1.108-0.806-2.015-1.913-2.015h-2.014c-1.108,0-2.014,1.008-2.014,1.914
	C22.558,35.146,24.874,36.153,24.874,36.153z"/>
<path fill="#8C3123" d="M30.211,34.542c0.102-1.108,1.108-1.813,2.216-1.712l1.913,0.202c1.108,0.101,1.914,1.309,1.713,2.215
	C32.729,33.836,30.211,34.542,30.211,34.542z"/>
<path fill="#8C3123" d="M13.394,39.173c0,0-0.101-0.503-0.503-1.006c-0.403-0.504-1.108-1.108-2.518-0.504l-1.813,1.51
	c-0.705,0.807-0.705,1.209-0.705,1.108C7.956,40.181,10.775,37.965,13.394,39.173z"/>
<path fill="#8C3123" d="M15.005,27.392c-0.302-1.007-1.51-1.611-2.518-1.208l-0.201,0.101c-1.007,0.302-1.611,1.41-1.208,2.518
	C12.588,26.586,15.005,27.392,15.005,27.392z"/>
<path fill="#8C3123" d="M41.793,28.801c0.302-1.007,1.51-1.611,2.518-1.208l0.201,0.101c1.007,0.302,1.611,1.41,1.209,2.518
	C44.209,27.895,41.793,28.801,41.793,28.801z"/>
<path fill="#8C3123" d="M39.778,41.49c-0.101-1.107,0.705-2.114,1.712-2.215h0.201c1.108-0.102,2.115,0.705,2.216,1.813
	C41.691,39.677,39.778,41.49,39.778,41.49z"/>
<path fill="#8C3123" d="M13.796,35.347c0,0,0.302-1.309,1.511-1.309s1.511,1.309,1.511,1.309S15.408,34.34,13.796,35.347z"/>
<path fill="#8C3123" d="M38.469,35.951c0,0,0.303-1.309,1.512-1.409c1.208-0.101,2.014,1.813,2.014,1.813
	S39.98,34.843,38.469,35.951z"/>
<text transform="matrix(1 0 0 1 14.4849 16.5732)" fill="#FFFFFF" font-family="'ArialMT'" font-size="16.1128">V</text>
<text transform="matrix(1 0 0 1 24.1362 16.5732)" fill="#FFFFFF" font-family="'ArialMT'" font-size="16.1128">T</text>
<text transform="matrix(1 0 0 1 32.5137 16.5732)" fill="#FFFFFF" font-family="'ArialMT'" font-size="16.1128">L</text>
</svg>
