<?xml version="1.0" encoding="utf-8"?>
<!-- Generator: Adobe Illustrator 12.0.0, SVG Export Plug-In  -->
<!DOCTYPE svg PUBLIC "-//W3C//DTD SVG 1.1//EN" "http://www.w3.org/Graphics/SVG/1.1/DTD/svg11.dtd" [
	<!ENTITY ns_flows "http://ns.adobe.com/Flows/1.0/">
	<!ENTITY ns_svg "http://www.w3.org/2000/svg">
	<!ENTITY ns_xlink "http://www.w3.org/1999/xlink">
]>
<svg  version="1.1" xmlns="&ns_svg;" xmlns:xlink="&ns_xlink;" xmlns:a="http://ns.adobe.com/AdobeSVGViewerExtensions/3.0/"
	 width="99" height="99" viewBox="-22.419 -17 99 99" enable-background="new -22.419 -17 99 99" xml:space="preserve">
<defs>
</defs>
<rect x="18.728" y="52.98" fill="#8C3123" width="15.477" height="3.18"/>
<polygon fill="#E05243" points="52.935,0 52.935,63.083 34.205,63.083 34.205,52.98 18.728,52.98 18.728,62.82 0,62.82 0,0 "/>
<rect x="34.205" y="62.82" fill="#8C3123" width="18.729" height="3.18"/>
<rect y="62.82" fill="#8C3123" width="18.729" height="3.18"/>
<path fill="#FFFFFF" d="M13.994,15.467v0.232c0,2.002-0.812,3.957-3.439,3.957c-2.812,0-3.688-1.799-3.688-5.758
	c0-3.957,0.875-5.758,3.705-5.758c3.172,0,3.357,2.328,3.357,3.477v0.201H12.15v-0.186c0-1.023-0.314-2.203-1.596-2.156
	c-1.311,0-1.904,0.807-1.904,4.375c0,3.57,0.594,4.471,1.904,4.471c1.486,0,1.66-1.646,1.66-2.67v-0.186L13.994,15.467
	L13.994,15.467z"/>
<path fill="#FFFFFF" d="M17.352,8.359h2.281l2.936,11.08h-1.858l-0.689-2.717h-3.264l-0.721,2.717H14.18L17.352,8.359z
	 M19.725,15.311L18.444,9.85h-0.031l-1.328,5.461H19.725z"/>
<path fill="#FFFFFF" d="M30.207,15.467v0.232c0,2.002-0.812,3.957-3.438,3.957c-2.812,0-3.688-1.799-3.688-5.758
	c0-3.957,0.875-5.758,3.705-5.758c3.172,0,3.359,2.328,3.359,3.477v0.201H28.36v-0.186c0-1.023-0.311-2.203-1.591-2.156
	c-1.314,0-1.906,0.807-1.906,4.375c0,3.57,0.592,4.471,1.906,4.471c1.486,0,1.656-1.646,1.656-2.67v-0.186L30.207,15.467
	L30.207,15.467z"/>
<path fill="#FFFFFF" d="M31.453,8.359h1.782v4.438h3.281V8.359h1.779v11.08h-1.779v-5.152h-3.281v5.152h-1.782V8.359z"/>
<path fill="#FFFFFF" d="M40.14,8.359h6.032v1.49h-4.25v3.072h3.998v1.49h-3.998v3.537h4.373v1.49H40.14V8.359z"/>
</svg>
