<?xml version="1.0" encoding="utf-8"?>
<!-- Generator: Adobe Illustrator 12.0.0, SVG Export Plug-In  -->
<!DOCTYPE svg PUBLIC "-//W3C//DTD SVG 1.1//EN" "http://www.w3.org/Graphics/SVG/1.1/DTD/svg11.dtd" [
	<!ENTITY ns_flows "http://ns.adobe.com/Flows/1.0/">
	<!ENTITY ns_svg "http://www.w3.org/2000/svg">
	<!ENTITY ns_xlink "http://www.w3.org/1999/xlink">
]>
<svg  version="1.1" xmlns="&ns_svg;" xmlns:xlink="&ns_xlink;" xmlns:a="http://ns.adobe.com/AdobeSVGViewerExtensions/3.0/"
	 width="72" height="72" viewBox="-8.611 0 72 72" enable-background="new -8.611 0 72 72" xml:space="preserve">
<defs>
</defs>
<polygon fill="#D9A740" points="50.489,30.47 58.771,31.357 58.771,14.693 50.489,10.552 "/>
<polygon fill="#886A2A" points="35.304,14.693 50.489,10.552 50.489,30.47 35.304,31.357 "/>
<polygon fill="#634B1E" points="58.771,31.357 44.474,31.95 35.304,31.357 50.489,30.47 "/>
<polygon fill="#D9A740" points="29.386,12.326 45.953,17.652 45.953,25.935 29.386,22.977 "/>
<polygon fill="#634B1E" points="21.892,24.357 29.484,22.977 45.953,25.935 38.557,26.723 "/>
<polygon fill="#886A2A" points="8.283,30.569 0,31.357 0,14.595 8.283,10.552 "/>
<polygon fill="#D9A740" points="23.469,14.693 8.283,10.552 8.283,30.47 23.469,31.357 "/>
<polygon fill="#634B1E" points="0,31.357 14.299,31.95 23.469,31.357 8.283,30.47 "/>
<polygon fill="#886A2A" points="29.386,12.326 12.819,17.652 12.819,25.935 29.386,22.977 "/>
<polygon fill="#634B1E" points="36.881,24.357 29.288,22.977 12.819,25.935 20.216,26.723 "/>
<polygon fill="#D9A740" points="50.489,40.727 58.771,39.938 58.771,56.604 50.489,60.744 "/>
<polygon fill="#886A2A" points="35.304,56.604 50.489,60.744 50.489,40.727 35.304,39.938 "/>
<polygon fill="#FAD791" points="58.771,39.938 44.474,39.346 35.304,39.938 50.489,40.727 "/>
<polygon fill="#D9A740" points="29.386,58.969 45.953,53.546 45.953,45.361 29.386,48.319 "/>
<polygon fill="#FAD791" points="21.892,46.939 29.484,48.221 45.953,45.361 38.557,44.571 "/>
<polygon fill="#886A2A" points="8.283,40.727 0,39.938 0,56.604 8.283,60.744 "/>
<polygon fill="#D9A740" points="23.469,56.604 8.283,60.744 8.283,40.727 23.469,39.938 "/>
<polygon fill="#FAD791" points="0,39.938 14.299,39.346 23.469,39.938 8.283,40.727 "/>
<polygon fill="#886A2A" points="29.386,58.969 12.819,53.546 12.819,45.361 29.386,48.319 "/>
<polygon fill="#FAD791" points="36.881,46.939 29.288,48.221 12.819,45.361 20.216,44.571 "/>
<polygon fill="#D9A740" points="38.163,66.563 29.386,71 29.386,0 38.163,4.438 "/>
<polygon fill="#886A2A" points="20.609,66.563 29.386,71 29.386,0 20.609,4.438 "/>
</svg>
