<?xml version="1.0" encoding="utf-8"?>
<!-- Generator: Adobe Illustrator 12.0.0, SVG Export Plug-In  -->
<!DOCTYPE svg PUBLIC "-//W3C//DTD SVG 1.1//EN" "http://www.w3.org/Graphics/SVG/1.1/DTD/svg11.dtd" [
	<!ENTITY ns_flows "http://ns.adobe.com/Flows/1.0/">
	<!ENTITY ns_svg "http://www.w3.org/2000/svg">
	<!ENTITY ns_xlink "http://www.w3.org/1999/xlink">
]>
<svg  version="1.1" xmlns="&ns_svg;" xmlns:xlink="&ns_xlink;" xmlns:a="http://ns.adobe.com/AdobeSVGViewerExtensions/3.0/"
	 width="100" height="100" viewBox="-20.2 -14 100 100" enable-background="new -20.2 -14 100 100" xml:space="preserve">
<defs>
</defs>
<polygon fill="#FAD791" points="48.6,57.3 29.8,52.9 11,57.3 29.8,64.8 "/>
<polygon fill="#D9A741" points="59.6,23.3 29.8,14.4 29.8,0 59.6,14.9 "/>
<polygon fill="#D9A741" points="48.6,62.6 29.8,72 29.8,64.8 48.6,57.3 "/>
<polygon fill="#876929" points="29.8,72 11,62.6 11,57.3 29.8,64.8 "/>
<polygon fill="#876929" points="0,23.3 29.8,14.4 29.8,0 0,14.9 "/>
<polygon fill="#624A1E" points="59.6,23.3 29.8,27.1 0,23.3 29.8,14.4 "/>
<polygon fill="#D9A741" points="45.7,52.8 42.399,53.8 42.399,41.9 45.7,41.6 "/>
<polygon fill="#D9A741" points="34.6,56.2 29.8,57.6 29.8,28.8 34.6,29.3 "/>
<polygon fill="#876929" points="17.2,41.9 13.9,41.6 13.9,30.4 17.2,30.1 "/>
<polygon fill="#876929" points="25,56.2 29.8,57.6 29.8,28.8 25,29.3 "/>
<polygon fill="#876929" points="38.8,53.1 42.399,53.8 42.399,41.9 38.8,41.7 "/>
<polygon fill="#D9A741" points="20.9,41.7 17.2,41.9 17.2,30.1 20.9,30.3 "/>
<polygon fill="#FAD791" points="45.7,41.6 42.1,41.4 38.8,41.7 42.399,41.9 "/>
</svg>
