<?xml version="1.0" encoding="utf-8"?>
<!-- Generator: Adobe Illustrator 12.0.0, SVG Export Plug-In  -->
<!DOCTYPE svg PUBLIC "-//W3C//DTD SVG 1.1//EN" "http://www.w3.org/Graphics/SVG/1.1/DTD/svg11.dtd" [
	<!ENTITY ns_flows "http://ns.adobe.com/Flows/1.0/">
	<!ENTITY ns_svg "http://www.w3.org/2000/svg">
	<!ENTITY ns_xlink "http://www.w3.org/1999/xlink">
]>
<svg  version="1.1" xmlns="&ns_svg;" xmlns:xlink="&ns_xlink;" xmlns:a="http://ns.adobe.com/AdobeSVGViewerExtensions/3.0/"
	 width="100" height="100" viewBox="0 10.044 100 100" enable-background="new 0 10.044 100 100" xml:space="preserve">
<defs>
</defs>
<polygon fill="#876929" points="45.164,39.895 50.061,38.428 73.781,45.544 69.32,46.217 "/>
<polygon fill="#876929" points="54.836,39.895 49.939,38.428 26.219,45.544 30.679,46.217 "/>
<polygon fill="#FAD791" points="50,71.155 45.104,70.394 69.32,67.101 73.782,67.449 "/>
<polygon fill="#FAD791" points="50,71.155 54.896,70.394 30.679,67.101 26.218,67.449 "/>
<polygon fill="#D9A741" points="79.752,47.336 50,38.41 50,24.044 79.752,38.92 "/>
<polygon fill="#D9A741" points="79.752,74.935 50,85.522 50,71.155 79.752,66.519 "/>
<polygon fill="#D9A741" points="73.781,36.067 79.752,39.036 79.752,74.935 73.781,77.058 "/>
<polygon fill="#D9A741" points="58.898,72.544 49.98,74.327 49.98,96.044 58.898,91.565 "/>
<polygon fill="#876929" points="69.32,46.217 73.781,45.544 73.781,67.449 69.32,67.101 "/>
<polygon fill="#876929" points="20.248,47.336 50,38.41 50,24.044 20.248,38.92 "/>
<polygon fill="#876929" points="20.248,74.935 50,85.522 50,71.155 20.248,66.519 "/>
<polygon fill="#876929" points="26.219,36.067 20.248,39.036 20.248,74.935 26.219,77.058 "/>
<polygon fill="#876929" points="41.101,72.544 50.02,74.327 50.02,96.044 41.101,91.565 "/>
<polygon fill="#876929" points="30.679,46.217 26.219,45.544 26.219,67.449 30.679,67.101 "/>
<text transform="matrix(1 0 0 1 0 10.0439)" display="none" enable-background="new    " font-family="'MyriadPro-Regular'" font-size="12">&lt;nyt_prefs&gt;</text>
<text transform="matrix(1 0 0 1 0 24.4443)" display="none" enable-background="new    " font-family="'MyriadPro-Regular'" font-size="12">  &lt;nyt_prefix&gt;&lt;/nyt_prefix&gt;</text>
<text transform="matrix(1 0 0 1 0 38.8438)" display="none" enable-background="new    " font-family="'MyriadPro-Regular'" font-size="12">  &lt;nyt_suffix&gt;&lt;/nyt_suffix&gt;</text>
<text transform="matrix(1 0 0 1 0 53.2441)" display="none" enable-background="new    " font-family="'MyriadPro-Regular'" font-size="12">  &lt;nyt_base_path&gt;~/Desktop/wip/Architecture%20Icons%20-%20Update%20all%20customer-facing%20files%20/AWS-Simple-Icons%202/App%20Services/EPS&lt;/nyt_base_path&gt;</text>
<text transform="matrix(1 0 0 1 0 67.6436)" display="none" enable-background="new    " font-family="'MyriadPro-Regular'" font-size="12">  &lt;nyt_scaling&gt;100&lt;/nyt_scaling&gt;</text>
<text transform="matrix(1 0 0 1 0 82.0439)" display="none" enable-background="new    " font-family="'MyriadPro-Regular'" font-size="12">  &lt;nyt_transparency&gt;true&lt;/nyt_transparency&gt;</text>
<text transform="matrix(1 0 0 1 0 96.4443)" display="none" enable-background="new    " font-family="'MyriadPro-Regular'" font-size="12">  &lt;nyt_format&gt;EPS&lt;/nyt_format&gt;</text>
<text transform="matrix(1 0 0 1 0 110.8438)" display="none" enable-background="new    " font-family="'MyriadPro-Regular'" font-size="12">  &lt;nyt_export_code&gt;artboards&lt;/nyt_export_code&gt;</text>
</svg>
