<?xml version="1.0" encoding="utf-8"?>
<!-- Generator: Adobe Illustrator 12.0.0, SVG Export Plug-In  -->
<!DOCTYPE svg PUBLIC "-//W3C//DTD SVG 1.1//EN" "http://www.w3.org/Graphics/SVG/1.1/DTD/svg11.dtd" [
	<!ENTITY ns_flows "http://ns.adobe.com/Flows/1.0/">
	<!ENTITY ns_svg "http://www.w3.org/2000/svg">
	<!ENTITY ns_xlink "http://www.w3.org/1999/xlink">
]>
<svg  version="1.1" xmlns="&ns_svg;" xmlns:xlink="&ns_xlink;" xmlns:a="http://ns.adobe.com/AdobeSVGViewerExtensions/3.0/"
	 width="100" height="100" viewBox="-20.155 -14 100 100" enable-background="new -20.155 -14 100 100" xml:space="preserve">
<defs>
</defs>
<polygon fill="#D9A741" points="59.642,25.572 54.705,24.355 54.705,12.43 59.642,14.898 "/>
<polygon fill="#624A1E" points="59.691,25.584 53.373,26.228 48.128,25.174 54.793,24.377 "/>
<polygon fill="#876929" points="54.705,12.43 48.128,14.028 48.128,25.174 54.705,24.388 "/>
<polygon fill="#D9A741" points="59.628,42.279 29.845,46.754 29.845,25.584 59.628,29.879 "/>
<polygon fill="#D9A741" points="51.804,23.641 44.703,21.89 44.703,7.429 51.804,10.979 "/>
<polygon fill="#876929" points="37.599,23.057 44.703,21.908 44.703,7.429 37.599,9.764 "/>
<polygon fill="#624A1E" points="51.804,23.641 44.963,24.537 37.599,23.057 44.746,21.9 "/>
<polygon fill="#D9A741" points="40.775,20.922 29.845,18.227 29.845,0 40.775,5.465 "/>
<polygon fill="#876929" points="0.048,25.572 4.986,24.355 4.986,12.43 0.048,14.898 "/>
<polygon fill="#624A1E" points="0,25.584 6.318,26.228 11.562,25.174 4.896,24.377 "/>
<polygon fill="#D9A741" points="4.986,12.43 11.562,14.028 11.562,25.174 4.986,24.388 "/>
<polygon fill="#876929" points="0.062,42.279 29.845,46.754 29.845,25.584 0.062,29.879 "/>
<polygon fill="#876929" points="7.886,23.641 14.988,21.89 14.988,7.429 7.886,10.979 "/>
<polygon fill="#D9A741" points="22.091,23.057 14.988,21.908 14.988,7.429 22.091,9.764 "/>
<polygon fill="#624A1E" points="7.886,23.641 14.726,24.537 22.091,23.057 14.944,21.9 "/>
<polygon fill="#876929" points="18.915,20.922 29.845,18.227 29.845,0 18.915,5.465 "/>
<polygon fill="#624A1E" points="40.775,20.922 29.845,22.904 18.915,20.922 29.845,18.227 "/>
<polygon fill="#D9A741" points="59.642,46.428 54.705,47.645 54.705,59.57 59.642,57.102 "/>
<polygon fill="#FAD791" points="59.691,46.416 53.373,45.771 48.128,46.826 54.793,47.623 "/>
<polygon fill="#876929" points="54.705,59.57 48.128,57.973 48.128,46.826 54.705,47.611 "/>
<polygon fill="#D9A741" points="51.804,48.359 44.703,50.109 44.703,64.57 51.804,61.021 "/>
<polygon fill="#876929" points="37.599,48.941 44.703,50.093 44.703,64.57 37.599,62.236 "/>
<polygon fill="#FAD791" points="51.804,48.359 44.963,47.462 37.599,48.941 44.746,50.1 "/>
<polygon fill="#D9A741" points="40.775,51.079 29.845,53.771 29.845,72 40.775,66.535 "/>
<polygon fill="#876929" points="0.048,46.428 4.986,47.645 4.986,59.57 0.048,57.102 "/>
<polygon fill="#FAD791" points="0,46.416 6.318,45.771 11.562,46.826 4.896,47.623 "/>
<polygon fill="#D9A741" points="4.986,59.57 11.562,57.973 11.562,46.826 4.986,47.611 "/>
<polygon fill="#876929" points="7.886,48.359 14.988,50.109 14.988,64.57 7.886,61.021 "/>
<polygon fill="#D9A741" points="22.091,48.941 14.988,50.093 14.988,64.57 22.091,62.236 "/>
<polygon fill="#FAD791" points="7.886,48.359 14.726,47.462 22.091,48.941 14.944,50.1 "/>
<polygon fill="#876929" points="18.915,51.079 29.845,53.771 29.845,72 18.915,66.535 "/>
<polygon fill="#FAD791" points="40.775,51.079 29.845,49.096 18.915,51.079 29.845,53.771 "/>
</svg>
