<?xml version="1.0" encoding="utf-8"?>
<!-- Generator: Adobe Illustrator 12.0.0, SVG Export Plug-In  -->
<!DOCTYPE svg PUBLIC "-//W3C//DTD SVG 1.1//EN" "http://www.w3.org/Graphics/SVG/1.1/DTD/svg11.dtd" [
	<!ENTITY ns_flows "http://ns.adobe.com/Flows/1.0/">
	<!ENTITY ns_svg "http://www.w3.org/2000/svg">
	<!ENTITY ns_xlink "http://www.w3.org/1999/xlink">
]>
<svg  version="1.1" xmlns="&ns_svg;" xmlns:xlink="&ns_xlink;" xmlns:a="http://ns.adobe.com/AdobeSVGViewerExtensions/3.0/"
	 width="100" height="100" viewBox="-14.022 -22.9 100 100" enable-background="new -14.022 -22.9 100 100" xml:space="preserve">
<defs>
</defs>
<path fill="#D9A741" d="M71.978,11.9c0,0,0,0,0,39.9c0,0,0,0-63.1,0c0,0,0,0,0-24.5c1,0.2,2,0.3,3,0.3c4.6,0,8.8-2.1,11.5-5.3
	c3.5,2.3,8.8,5.7,16.6,10.8L71.978,11.9z"/>
<path id="SVGID_3_" fill="#876929" d="M71.978,51.8V54.2c0,0,0,0-63.1,0V51.8C71.978,51.8,71.978,51.8,71.978,51.8z"/>
<g>
	<defs>
		<path id="XMLID_1_" d="M71.978,51.8V54.2c0,0,0,0-63.1,0V51.8C71.978,51.8,71.978,51.8,71.978,51.8z"/>
	</defs>
	<clipPath id="XMLID_12_">
		<use xlink:href="#XMLID_1_" />
	</clipPath>
	<g clip-path="url(#XMLID_12_)" enable-background="new    ">
		<path fill="#876929" d="M71.978,51.8V54.2c0,0,0,0-63.1,0V51.8C71.978,51.8,71.978,51.8,71.978,51.8"/>
	</g>
</g>
<path fill="#D9A741" d="M26.778,8.4c6.6,0,19,0,42.7,0l-29.5,19.5c0,0-0.1-0.1-15.5-9.9c1.5-2.3,2.4-5.1,2.4-8.1
	C26.878,9.4,26.878,8.9,26.778,8.4z"/>
<polygon fill="#876929" points="69.478,8.4 69.478,10.8 39.978,30.3 39.978,27.9 "/>
<path id="SVGID_2_" fill="#876929" d="M39.978,27.9v2.4c0,0-0.1-0.101-15.5-9.9V18C39.878,27.9,39.978,27.9,39.978,27.9z"/>
<g>
	<defs>
		<path id="XMLID_15_" d="M39.978,27.9v2.4c0,0-0.1-0.101-15.5-9.9V18C39.878,27.9,39.978,27.9,39.978,27.9z"/>
	</defs>
	<clipPath id="XMLID_13_">
		<use xlink:href="#XMLID_15_" />
	</clipPath>
	<g clip-path="url(#XMLID_13_)" enable-background="new    ">
		<path fill="#876929" d="M39.978,27.9v2.4c0,0-0.1-0.101-15.5-9.9V18C39.878,27.9,39.978,27.9,39.978,27.9"/>
	</g>
</g>
<path fill="#D9A741" d="M22.478,5.5c1.6,3.1,1.6,6.5,0.5,9.7c-0.6,1.6-1.7,3.2-3.5,4.1c-0.5,0.3-1.2,0.4-1.8,0.4
	c-1.6,0-3.2-0.9-3.9-2.1c-0.1-0.2-0.2-0.4-0.4-0.6c-1.2,1.2-2,1.5-3.5,1.5c-1.8,0-3.2-1.1-3.2-3.3c0-1.7,0.9-2.9,2.3-3.4
	c1.2-0.5,2.8-0.6,4-0.7v-0.3c0-0.5,0-1.1-0.3-1.5c-0.3-0.4-0.8-0.6-1.2-0.6c-0.8,0-1.5,0.4-1.7,1.3c0,0.2-0.2,0.4-0.4,0.4l-2.1-0.3
	c-0.2,0-0.4-0.2-0.3-0.4c0.5-2.5,2.7-3.2,4.8-3.2c1,0,2.4,0.3,3.2,1.1c1,0.9,0.9,2.2,0.9,3.6v3.3c0,1,0.4,1.4,0.8,1.9
	c0.2,0.2,0.5,0.3,0.8,0.3c1,0,2.1-1,2.8-2.6c0.9-2.3,1-5.2-0.2-7.3c-1.4-2.7-4.9-4.2-8.2-4.2c-1.9,0-3.9,0.5-5.4,1.6
	c-4.3,3-5.6,9.7-2.5,14.1c1.9,3,5.3,4.5,8.7,4.5c1.9,0,3.9-0.5,5.6-1.5c0.2-0.1,0.3-0.1,0.5-0.1c0.3,0,0.6,0.2,0.8,0.5
	c0.2,0.4,0.1,1-0.4,1.2c-2,1.3-4.3,1.9-6.7,1.9c-4,0-8-1.8-10.3-5.3c-3.8-5.4-2.5-13.4,2.9-17.3c1.9-1.5,4.5-2.2,6.9-2.2
	c0.8,0,1.6,0.1,2.4,0.2C17.478,0.7,20.778,2.4,22.478,5.5z M12.478,15.5c0.4-0.7,0.4-1.4,0.4-2.2v-0.5c-1.5,0-3.2,0.3-3.2,2.1
	c0,0.9,0.5,1.5,1.3,1.5C11.578,16.4,12.178,16.1,12.478,15.5"/>
</svg>
