<?xml version="1.0" encoding="utf-8"?>
<!-- Generator: Adobe Illustrator 12.0.0, SVG Export Plug-In  -->
<!DOCTYPE svg PUBLIC "-//W3C//DTD SVG 1.1//EN" "http://www.w3.org/Graphics/SVG/1.1/DTD/svg11.dtd" [
	<!ENTITY ns_flows "http://ns.adobe.com/Flows/1.0/">
	<!ENTITY ns_svg "http://www.w3.org/2000/svg">
	<!ENTITY ns_xlink "http://www.w3.org/1999/xlink">
]>
<svg  version="1.1" xmlns="&ns_svg;" xmlns:xlink="&ns_xlink;" xmlns:a="http://ns.adobe.com/AdobeSVGViewerExtensions/3.0/"
	 width="100" height="100" viewBox="763 -14 100 100" enable-background="new 763 -14 100 100" xml:space="preserve">
<defs>
</defs>
<polygon fill="#D9A741" points="817.46,45.506 786.985,49.793 786.987,22.201 817.462,26.494 "/>
<polygon fill="#876929" points="783.179,23.344 813.003,14.399 813.003,0 783.179,14.908 "/>
<polygon fill="#876929" points="783.19,48.654 812.999,57.6 812.997,72 783.19,57.094 "/>
<polygon fill="#D9A741" points="842.823,23.35 813.003,14.399 813.003,0 842.825,14.914 "/>
<polygon fill="#D9A741" points="842.807,48.66 812.999,57.6 812.997,72 842.807,57.1 "/>
<polygon fill="#876929" points="786.985,58.99 783.175,57.086 783.179,14.908 786.989,13.004 "/>
<polygon fill="#876929" points="802.017,43.762 812.999,45.16 813.001,26.832 802.019,28.229 "/>
<polygon fill="#876929" points="790.954,42.354 798.081,43.26 798.083,28.729 790.954,29.637 "/>
<polygon fill="#624A1E" points="786.987,22.201 813.003,14.399 842.823,23.35 817.48,26.496 "/>
<polygon fill="#FAD791" points="786.985,49.793 812.999,57.6 842.807,48.66 817.46,45.506 "/>
<polygon fill="#D9A741" points="842.809,41.33 812.999,45.092 813.001,26.832 842.809,30.629 "/>
<text transform="matrix(1 0 0 1 0 29.2002)" display="none" enable-background="new    " font-family="'MyriadPro-Regular'" font-size="12">  &lt;nyt_base_path&gt;~/Desktop/wip/Architecture%20Icons%20-%20Update%20all%20customer-facing%20files%20/AWS-Simple-Icons%202/App%20Services/EPS&lt;/nyt_base_path&gt;</text>
</svg>
