<?xml version="1.0" encoding="utf-8"?>
<!-- Generator: Adobe Illustrator 12.0.0, SVG Export Plug-In  -->
<!DOCTYPE svg PUBLIC "-//W3C//DTD SVG 1.1//EN" "http://www.w3.org/Graphics/SVG/1.1/DTD/svg11.dtd" [
	<!ENTITY ns_flows "http://ns.adobe.com/Flows/1.0/">
	<!ENTITY ns_svg "http://www.w3.org/2000/svg">
	<!ENTITY ns_xlink "http://www.w3.org/1999/xlink">
]>
<svg  version="1.1" xmlns="&ns_svg;" xmlns:xlink="&ns_xlink;" xmlns:a="http://ns.adobe.com/AdobeSVGViewerExtensions/3.0/"
	 width="100" height="100" viewBox="-22.419 -21.309 100 100" enable-background="new -22.419 -21.309 100 100"
	 xml:space="preserve">
<defs>
</defs>
<path fill="#D9A741" d="M27.588,0c15.234,0,27.574,12.264,27.574,27.387c0,15.119-12.34,27.381-27.574,27.381
	C12.344,54.768,0,42.505,0,27.387C0,12.263,12.344,0,27.588,0z"/>
<path id="SVGID_1_" fill="#876929" d="M55.162,27.386v2.612c0,15.123-12.34,27.385-27.574,27.385C12.344,57.382,0,45.121,0,29.998
	v-2.612c0,15.12,12.344,27.381,27.588,27.381C42.822,54.767,55.162,42.505,55.162,27.386z"/>
<g>
	<defs>
		<path id="XMLID_6_" d="M55.162,27.386v2.612c0,15.123-12.34,27.385-27.574,27.385C12.344,57.382,0,45.121,0,29.998v-2.612
			c0,15.12,12.344,27.381,27.588,27.381C42.822,54.767,55.162,42.505,55.162,27.386z"/>
	</defs>
	<clipPath id="XMLID_4_">
		<use xlink:href="#XMLID_6_" />
	</clipPath>
	<g clip-path="url(#XMLID_4_)" enable-background="new    ">
		<path fill="#876929" d="M55.162,27.386v2.612c0,1.332-0.095,2.639-0.276,3.916V31.3C55.067,30.021,55.162,28.712,55.162,27.386"/>
		<path fill="#876929" d="M54.886,31.3v2.613c-0.22,1.516-0.563,2.991-1.021,4.416v-2.615C54.322,34.291,54.666,32.816,54.886,31.3"
			/>
		<path fill="#876929" d="M53.863,35.714v2.615c-0.539,1.684-1.238,3.293-2.078,4.813v-2.612
			C52.625,39.007,53.324,37.398,53.863,35.714"/>
		<path fill="#876929" d="M51.785,40.531v2.613c-4.685,8.486-13.763,14.238-24.197,14.238C12.344,57.382,0,45.121,0,29.998v-2.612
			c0,15.12,12.344,27.381,27.588,27.381C38.022,54.767,47.103,49.013,51.785,40.531"/>
	</g>
</g>
<rect x="17.576" y="10.56" fill="#FFFFFF" width="1.486" height="12.469"/>
<rect x="17.576" y="28.918" fill="#FFFFFF" width="1.486" height="12.468"/>
<polygon fill="#FFFFFF" points="38.369,42.425 36.881,42.425 36.881,26.884 18.096,26.884 18.096,25.406 38.369,25.406 "/>
<polygon fill="#D9A741" points="18.164,32.82 27.078,26.279 18.164,19.738 9.639,25.892 "/>
<path fill="#FFFFFF" d="M18.143,33.755l-9.721-7.896l9.748-7.041l10.156,7.461L18.143,33.755z M10.855,25.927l7.332,5.959
	l7.637-5.607l-7.662-5.629L10.855,25.927z"/>
<rect x="31.828" y="38.3" fill="#D9A741" width="12.062" height="7.115"/>
<path fill="#FFFFFF" d="M44.631,46.152H31.084v-8.59h13.547V46.152z M32.572,39.037v5.641h10.569v-5.641"/>
<rect x="12.406" y="7.683" fill="#D9A741" width="12.061" height="7.117"/>
<path fill="#FFFFFF" d="M25.211,15.539H11.662v-8.59h13.549V15.539z M13.148,14.06h10.573V8.425H13.148V14.06z"/>
<rect x="12.291" y="38.3" fill="#D9A741" width="12.059" height="7.115"/>
<path fill="#FFFFFF" d="M25.092,46.152H11.545v-8.59h13.547V46.152z M13.033,44.677h10.574v-5.642H13.033V44.677z"/>
</svg>
