<?xml version="1.0" encoding="utf-8"?>
<!-- Generator: Adobe Illustrator 12.0.0, SVG Export Plug-In  -->
<!DOCTYPE svg PUBLIC "-//W3C//DTD SVG 1.1//EN" "http://www.w3.org/Graphics/SVG/1.1/DTD/svg11.dtd" [
	<!ENTITY ns_flows "http://ns.adobe.com/Flows/1.0/">
	<!ENTITY ns_svg "http://www.w3.org/2000/svg">
	<!ENTITY ns_xlink "http://www.w3.org/1999/xlink">
]>
<svg  version="1.1" xmlns="&ns_svg;" xmlns:xlink="&ns_xlink;" xmlns:a="http://ns.adobe.com/AdobeSVGViewerExtensions/3.0/"
	 width="100" height="100" viewBox="-23.121 -21.896 100 100" enable-background="new -23.121 -21.896 100 100"
	 xml:space="preserve">
<defs>
</defs>
<rect fill="#D9A741" width="53.758" height="53.686"/>
<rect y="53.685" fill="#876929" width="53.758" height="2.522"/>
<path fill="#FFFFFF" d="M49.949,31.767v-9.438h-3.604c-0.504-1.885-1.565-4.459-3.073-6.686l2.532-2.105l-5.506-5.27l-2.642,2.619
	c-2.248-1.5-4.463-2.455-7.688-2.955v-4.1h-8.17v4.197c-1.898,0.52-4.535,1.504-6.6,2.855l-2.277-2.41l-5.432,5.473l2.406,1.533
	c-1.562,2.264-2.635,4.963-3.15,6.848H3.759v9.438h3.072c0.537,2.455,1.568,4.924,2.988,7.023l-2.533,2.51l5.502,5.465l2.24-2.523
	c2.107,1.408,4.871,2.424,6.77,2.959v3.254h8.17v-3.156c3.228-0.512,5.565-1.614,7.854-3.174l2.703,2.629l5.528-5.467l-2.688-2.662
	c1.367-2.061,2.371-5.725,2.895-6.854l3.738-0.029L49.949,31.767z M26.432,41.418c-7.465-0.057-13.73-6.231-13.904-13.596
	c-0.184-7.834,6.668-14.156,14.016-14.17c7.892-0.02,14.383,6.354,14.287,14.195C40.734,35.413,34.352,41.476,26.432,41.418"/>
<path fill="#FFFFFF" d="M34.721,27.144c0,4.308-3.514,7.795-7.844,7.795s-7.842-3.487-7.842-7.795c0-4.307,3.512-7.793,7.842-7.793
	C31.207,19.349,34.721,22.837,34.721,27.144"/>
</svg>
