<?xml version="1.0" encoding="utf-8"?>
<!-- Generator: Adobe Illustrator 12.0.0, SVG Export Plug-In  -->
<!DOCTYPE svg PUBLIC "-//W3C//DTD SVG 1.1//EN" "http://www.w3.org/Graphics/SVG/1.1/DTD/svg11.dtd" [
	<!ENTITY ns_flows "http://ns.adobe.com/Flows/1.0/">
	<!ENTITY ns_svg "http://www.w3.org/2000/svg">
	<!ENTITY ns_xlink "http://www.w3.org/1999/xlink">
]>
<svg  version="1.1" xmlns="&ns_svg;" xmlns:xlink="&ns_xlink;" xmlns:a="http://ns.adobe.com/AdobeSVGViewerExtensions/3.0/"
	 width="100" height="100" viewBox="-14 -8.1 100 100" enable-background="new -14 -8.1 100 100" xml:space="preserve">
<defs>
</defs>
<linearGradient id="XMLID_17_" gradientUnits="userSpaceOnUse" x1="37" y1="-3.5308" x2="37" y2="80.2967" gradientTransform="matrix(1 0 0 1 0 4)">
	<stop  offset="0" style="stop-color:#F58435"/>
	<stop  offset="1" style="stop-color:#D16A28"/>
</linearGradient>
<polygon fill="url(#XMLID_17_)" points="0,21.1 37,0 74,21.1 74,63.3 37,84.4 0,63.3 "/>
<path fill="#FFFFFF" d="M58.4,28v6.5V37L36.3,46.8L14.2,37v-2.5V28h-3.9v2.6v9V61h51.9V39.6v-9V28C62.3,28,58.4,28,58.4,28z
	 M58.4,57.2H14.3V41.4l22.1,9.8l22.1-9.8v15.8H58.4z"/>
<polygon fill="#FFFFFF" points="36.3,13.9 10.4,25.5 10.4,30.6 14.3,30.6 14.3,28.1 36.3,18.2 58.4,28.1 58.4,30.6 62.3,30.6 
	62.3,25.5 "/>
<polygon fill="#FFFFFF" points="22.1,40.6 22.1,34.3 50.5,34.3 50.5,40.6 54.5,38.8 54.5,30.3 18.2,30.3 18.2,38.8 "/>
</svg>
