<?xml version="1.0" encoding="utf-8"?>
<!-- Generator: Adobe Illustrator 12.0.0, SVG Export Plug-In  -->
<!DOCTYPE svg PUBLIC "-//W3C//DTD SVG 1.1//EN" "http://www.w3.org/Graphics/SVG/1.1/DTD/svg11.dtd" [
	<!ENTITY ns_flows "http://ns.adobe.com/Flows/1.0/">
	<!ENTITY ns_svg "http://www.w3.org/2000/svg">
	<!ENTITY ns_xlink "http://www.w3.org/1999/xlink">
]>
<svg  version="1.1" xmlns="&ns_svg;" xmlns:xlink="&ns_xlink;" xmlns:a="http://ns.adobe.com/AdobeSVGViewerExtensions/3.0/"
	 width="100" height="100" viewBox="-20.177 -14 100 100" enable-background="new -20.177 -14 100 100" xml:space="preserve">
<defs>
</defs>
<polygon fill="#F58536" points="29.823,14.778 59.646,23.568 59.646,14.912 29.823,0 "/>
<polygon fill="#F58536" points="53.662,33.64 29.823,32.472 29.823,46.872 53.662,43.271 "/>
<polygon fill="#9D5025" points="5.985,33.64 29.823,32.472 29.823,46.872 5.985,43.271 "/>
<polygon fill="#9D5025" points="29.823,14.778 0,23.568 0,14.912 29.823,0 "/>
<polygon fill="#6B3A19" points="0,23.568 29.823,14.778 59.646,23.568 29.823,27.209 "/>
<polygon fill="#F58536" points="45.697,55.439 29.823,60.938 29.823,72 45.697,64.063 "/>
<polygon fill="#9D5025" points="13.948,55.439 29.823,60.938 29.823,72 13.948,64.063 "/>
<polygon fill="#FBBF93" points="45.697,55.439 29.823,51.928 13.948,55.439 29.823,60.938 "/>
</svg>
