<?xml version="1.0" encoding="utf-8"?>
<!-- Generator: Adobe Illustrator 12.0.0, SVG Export Plug-In  -->
<!DOCTYPE svg PUBLIC "-//W3C//DTD SVG 1.1//EN" "http://www.w3.org/Graphics/SVG/1.1/DTD/svg11.dtd" [
	<!ENTITY ns_flows "http://ns.adobe.com/Flows/1.0/">
	<!ENTITY ns_svg "http://www.w3.org/2000/svg">
	<!ENTITY ns_xlink "http://www.w3.org/1999/xlink">
]>
<svg  version="1.1" xmlns="&ns_svg;" xmlns:xlink="&ns_xlink;" xmlns:a="http://ns.adobe.com/AdobeSVGViewerExtensions/3.0/"
	 width="100" height="100" viewBox="4.001 -14 100 100" enable-background="new 4.001 -14 100 100" xml:space="preserve">
<defs>
</defs>
<polygon fill="#F58536" points="59.94,35.98 27.197,35.98 27.197,58.6 59.94,51.115 "/>
<polygon fill="#F58536" points="69.744,35.98 34.16,35.98 34.16,62.082 69.744,51.98 "/>
<polygon fill="#F58536" points="77.499,35.98 42.85,35.98 42.85,66.426 77.499,53.75 "/>
<polygon fill="#F58536" points="53.997,72 53.997,35.979 83.803,35.979 83.803,57.098 "/>
<polygon fill="#9D5025" points="27.197,35.98 27.197,58.6 24.209,57.105 24.209,35.98 "/>
<polygon fill="#9D5025" points="34.16,35.98 34.16,62.082 30.497,60.25 30.497,35.98 "/>
<polygon fill="#9D5025" points="42.85,35.98 42.85,66.426 38.25,64.127 38.25,35.98 "/>
<polygon fill="#9D5025" points="48.056,69.029 48.056,35.98 53.996,35.98 53.996,72 "/>
<polygon fill="#F58536" points="83.81,28.736 54,23.613 54,0 83.81,14.902 "/>
<polygon fill="#9D5025" points="24.193,28.736 54.001,23.613 54.001,0 24.193,14.902 "/>
<polygon fill="#6B3A19" points="83.81,28.736 54,30.857 24.193,28.736 54,23.613 "/>
<text transform="matrix(1 0 0 1 0 29.2002)" display="none" enable-background="new    " font-family="'MyriadPro-Regular'" font-size="12">c</text>
<text transform="matrix(1 0 0 1 5.376 29.2002)" display="none" enable-background="new    " font-family="'MyriadPro-Regular'" font-size="12">u</text>
<text transform="matrix(1 0 0 1 11.9883 29.2002)" display="none" enable-background="new    " font-family="'MyriadPro-Regular'" font-size="12">s</text>
<text transform="matrix(1 0 0 1 16.7402 29.2002)" display="none" enable-background="new    " font-family="'MyriadPro-Regular'" font-size="12">t</text>
<text transform="matrix(1 0 0 1 20.6396 29.2002)" display="none" enable-background="new    " font-family="'MyriadPro-Regular'" font-size="12">o</text>
<text transform="matrix(1 0 0 1 27.2275 29.2002)" display="none" enable-background="new    " font-family="'MyriadPro-Regular'" font-size="12">m</text>
<text transform="matrix(1 0 0 1 37.2354 29.2002)" display="none" enable-background="new    " font-family="'MyriadPro-Regular'" font-size="12">e</text>
<text transform="matrix(1 0 0 1 43.2471 29.2002)" display="none" enable-background="new    " font-family="'MyriadPro-Regular'" font-size="12">r</text>
<text transform="matrix(1 0 0 1 47.1113 29.2002)" display="none" enable-background="new    " font-family="'MyriadPro-Regular'" font-size="12">-</text>
<text transform="matrix(1 0 0 1 50.7949 29.2002)" display="none" enable-background="new    " font-family="'MyriadPro-Regular'" font-size="12">f</text>
<text transform="matrix(1 0 0 1 54.2988 29.2002)" display="none" enable-background="new    " font-family="'MyriadPro-Regular'" font-size="12">a</text>
<text transform="matrix(1 0 0 1 60.083 29.2002)" display="none" enable-background="new    " font-family="'MyriadPro-Regular'" font-size="12">c</text>
<text transform="matrix(1 0 0 1 65.459 29.2002)" display="none" enable-background="new    " font-family="'MyriadPro-Regular'" font-size="12">i</text>
<text transform="matrix(1 0 0 1 68.2666 29.2002)" display="none" enable-background="new    " font-family="'MyriadPro-Regular'" font-size="12">n</text>
<text transform="matrix(1 0 0 1 74.9268 29.2002)" display="none" enable-background="new    " font-family="'MyriadPro-Regular'" font-size="12">g</text>
<text transform="matrix(1 0 0 1 81.6348 29.2002)" display="none" enable-background="new    " font-family="'MyriadPro-Regular'" font-size="12">%</text>
<text transform="matrix(1 0 0 1 91.1387 29.2002)" display="none" enable-background="new    " font-family="'MyriadPro-Regular'" font-size="12">2</text>
<text transform="matrix(1 0 0 1 97.2949 29.2002)" display="none" enable-background="new    " font-family="'MyriadPro-Regular'" font-size="12">0</text>
<text transform="matrix(1 0 0 1 103.4512 29.2002)" display="none" enable-background="new    " font-family="'MyriadPro-Regular'" font-size="12">f</text>
</svg>
