<?xml version="1.0" encoding="utf-8"?>
<!-- Generator: Adobe Illustrator 12.0.0, SVG Export Plug-In  -->
<!DOCTYPE svg PUBLIC "-//W3C//DTD SVG 1.1//EN" "http://www.w3.org/Graphics/SVG/1.1/DTD/svg11.dtd" [
	<!ENTITY ns_flows "http://ns.adobe.com/Flows/1.0/">
	<!ENTITY ns_svg "http://www.w3.org/2000/svg">
	<!ENTITY ns_xlink "http://www.w3.org/1999/xlink">
]>
<svg  version="1.1" xmlns="&ns_svg;" xmlns:xlink="&ns_xlink;" xmlns:a="http://ns.adobe.com/AdobeSVGViewerExtensions/3.0/"
	 width="100" height="100" viewBox="-25.282 -22.113 100 100" enable-background="new -25.282 -22.113 100 100"
	 xml:space="preserve">
<defs>
</defs>
<path fill="#9D5125" d="M23.966,11.217v2.48c-0.051-0.082-0.066-0.168-0.066-0.256v-2.482C23.9,11.049,23.915,11.135,23.966,11.217"
	/>
<path fill="#9D5125" d="M23.9,13.442V10.96c0,0.09,0.016,0.176,0.066,0.258v2.48C23.915,13.616,23.9,13.53,23.9,13.442z"/>
<polygon fill="#9D5125" points="30.851,11.018 30.626,13.698 25.368,13.698 25.163,11.08 "/>
<path fill="#9D5125" d="M34.091,11.408v2.48c-0.322,0.396-0.799,0.666-1.352,0.703v-2.48C33.292,12.073,33.769,11.805,34.091,11.408
	"/>
<path fill="#9D5125" d="M34.091,11.408v2.48c-0.322,0.396-0.799,0.666-1.352,0.703v-2.48C33.292,12.073,33.769,11.805,34.091,11.408
	z"/>
<polygon fill="#9D5125" points="38.138,14.26 38.138,16.741 34.091,13.889 33.31,10.727 "/>
<polygon fill="#9D5125" points="25.368,11.217 25.368,13.698 19.07,21.205 19.07,18.723 "/>
<polygon fill="#9D5125" points="34.103,18.942 34.103,21.422 30.626,13.698 30.626,11.217 "/>
<polygon fill="#9D5125" points="38.976,19.455 38.138,22.51 36.899,22.932 36.899,20.449 "/>
<polygon fill="#9D5125" points="47.81,22.143 47.351,24.912 45.2,24.912 45.2,22.434 "/>
<rect x="42.017" y="22.434" fill="#9D5125" width="0.359" height="2.479"/>
<path fill="#9D5125" d="M49.437,20.694v2.48c0,0.076-0.004,0.148-0.014,0.219v-2.48C49.433,20.84,49.437,20.768,49.437,20.694"/>
<path fill="#9D5125" d="M49.423,20.912v2.48c-0.012,0.082-0.031,0.164-0.055,0.242v-2.482
	C49.392,21.076,49.411,20.994,49.423,20.912"/>
<path fill="#9D5125" d="M49.368,21.153v2.482c-0.031,0.094-0.072,0.184-0.117,0.268v-2.48
	C49.296,21.336,49.337,21.248,49.368,21.153"/>
<path fill="#9D5125" d="M49.251,21.422v2.48c-0.348,0.627-1.125,1.01-1.9,1.01v-2.479C48.126,22.434,48.903,22.049,49.251,21.422"/>
<path fill="#9D5125" d="M49.437,20.694v2.48c0,1.049-1.043,1.738-2.086,1.738v-2.479C48.394,22.434,49.437,21.742,49.437,20.694z"/>
<path fill="#9D5125" d="M39.915,22.573v2.48c-1.004-0.062-1.777-0.869-1.777-1.879v-2.48C38.138,21.703,38.911,22.51,39.915,22.573"
	/>
<path fill="#9D5125" d="M39.915,22.573v2.48c-1.004-0.062-1.777-0.869-1.777-1.879v-2.48C38.138,21.703,38.911,22.51,39.915,22.573z
	"/>
<polygon fill="#9D5125" points="34.954,21.09 34.954,23.571 19.779,28.891 19.779,26.408 "/>
<polygon fill="#9D5125" points="37.739,26.692 37.739,29.172 34.81,23.143 34.601,20.143 "/>
<polygon fill="#9D5125" points="42.351,21.393 42.017,24.912 39.995,29.225 39.995,26.742 "/>
<polygon fill="#9D5125" points="39.837,30.606 39.837,33.086 38.948,31.309 38.726,28.018 "/>
<polygon fill="#9D5125" points="38.948,28.827 38.948,31.309 36.501,36.282 36.501,33.803 "/>
<polygon fill="#9D5125" points="33.563,35.083 33.563,37.561 19.779,34.891 19.779,32.409 "/>
<polygon fill="#9D5125" points="38.138,36.053 38.138,38.534 35.638,37.946 35.101,35.268 "/>
<path fill="#9D5125" d="M19.779,35.196v2.482c0,0.164-0.014,0.324-0.033,0.48v-2.48C19.765,35.522,19.779,35.362,19.779,35.196"/>
<path fill="#9D5125" d="M19.745,35.678v2.48c-0.023,0.168-0.064,0.328-0.113,0.479v-2.479
	C19.681,36.006,19.722,35.844,19.745,35.678"/>
<path fill="#9D5125" d="M19.632,36.159v2.479c-0.051,0.164-0.119,0.319-0.197,0.467v-2.479
	C19.513,36.479,19.581,36.323,19.632,36.159"/>
<path fill="#9D5125" d="M19.435,36.625v2.479c-0.23,0.416-0.572,0.757-1.012,1.002v-2.481
	C18.863,37.383,19.204,37.042,19.435,36.625"/>
<path fill="#9D5125" d="M19.779,35.196v2.482c0,1.072-0.479,1.943-1.355,2.43v-2.481C19.3,37.141,19.779,36.27,19.779,35.196z"/>
<path fill="#9D5125" d="M3.066,37.87v2.479C1.494,40.349,0,39.249,0,37.677v-2.481C-0.001,36.77,1.493,37.87,3.066,37.87"/>
<path fill="#9D5125" d="M3.066,37.87v2.479C1.494,40.349,0,39.249,0,37.677v-2.481C-0.001,36.77,1.493,37.87,3.066,37.87z"/>
<polygon fill="#9D5125" points="16.273,37.87 16.273,40.35 3.066,40.35 2.538,37.393 "/>
<polygon fill="#9D5125" points="47.892,40.561 47.351,43.151 40.005,43.151 39.476,40.456 "/>
<path fill="#9D5125" d="M49.437,39.762v2.48c0,0.063-0.002,0.127-0.012,0.184v-2.482C49.435,39.889,49.437,39.827,49.437,39.762"/>
<path fill="#9D5125" d="M49.425,39.944v2.482c-0.008,0.055-0.018,0.107-0.033,0.154V40.1C49.407,40.051,49.417,40,49.425,39.944"/>
<path fill="#9D5125" d="M49.392,40.1v2.48c-0.016,0.049-0.037,0.092-0.057,0.133v-2.48C49.354,40.192,49.376,40.147,49.392,40.1"/>
<path fill="#9D5125" d="M49.335,40.233v2.48c-0.221,0.395-0.758,0.443-1.371,0.443c-0.201,0-0.406-0.006-0.613-0.006v-2.48
	c0.207,0,0.412,0.006,0.613,0.006C48.577,40.676,49.114,40.627,49.335,40.233"/>
<path fill="#9D5125" d="M49.437,39.762v2.48c0,0.832-0.67,0.914-1.473,0.914c-0.201,0-0.406-0.006-0.613-0.006v-2.48
	c0.207,0,0.412,0.006,0.613,0.006C48.767,40.676,49.437,40.592,49.437,39.762z"/>
<path fill="#9D5125" d="M40.005,40.67v2.48c-0.311,0-0.771,0.204-1.117,0.204c-0.109,0-0.211-0.02-0.285-0.075v-2.48
	c0.074,0.055,0.176,0.076,0.285,0.076C39.233,40.875,39.694,40.67,40.005,40.67"/>
<path fill="#9D5125" d="M40.005,40.67v2.48c-0.311,0-0.771,0.204-1.117,0.204c-0.109,0-0.211-0.02-0.285-0.075v-2.48
	c0.074,0.055,0.176,0.076,0.285,0.076C39.233,40.875,39.694,40.67,40.005,40.67z"/>
<polygon fill="#9D5125" points="35.638,35.465 35.638,37.946 32.327,44.545 32.327,42.065 "/>
<polygon fill="#9D5125" points="39.227,39.977 38.603,43.28 33.899,47.333 33.899,44.852 "/>
<polygon fill="#9D5125" points="24.005,45.417 24.005,47.895 16.273,40.35 15.851,37.018 "/>
<path fill="#9D5125" d="M25.265,53.293v2.479c-1.057,0-1.26-0.817-1.26-1.866v-2.48C24.005,52.473,24.208,53.293,25.265,53.293"/>
<path fill="#9D5125" d="M25.265,53.293v2.479c-1.057,0-1.26-0.817-1.26-1.866v-2.48C24.005,52.473,24.208,53.293,25.265,53.293z"/>
<path fill="#9D5125" d="M33.899,51.426v2.48c0,0.223-0.012,0.434-0.041,0.631v-2.482C33.888,51.86,33.899,51.647,33.899,51.426"/>
<path fill="#9D5125" d="M33.858,52.055v2.482c-0.02,0.141-0.049,0.272-0.088,0.395v-2.48C33.81,52.329,33.839,52.196,33.858,52.055"
	/>
<path fill="#9D5125" d="M33.771,52.452v2.479c-0.029,0.101-0.07,0.192-0.117,0.276v-2.479C33.7,52.643,33.741,52.549,33.771,52.452"
	/>
<path fill="#9D5125" d="M33.653,52.729v2.48c-0.192,0.35-0.521,0.563-1.057,0.563v-2.479C33.132,53.293,33.46,53.079,33.653,52.729"
	/>
<path fill="#9D5125" d="M33.899,51.426v2.48c0,1.049-0.26,1.866-1.303,1.866v-2.479C33.64,53.293,33.899,52.473,33.899,51.426z"/>
<polygon fill="#9D5125" points="33.17,52.883 32.597,55.774 25.265,55.774 24.976,53.018 "/>
<path fill="#F58536" d="M47.351,22.434H45.2v8.414h2.15c1.043,0,2.086,0.588,2.086,1.623v7.291c0,0.83-0.67,0.914-1.473,0.914
	c-0.201,0-0.406-0.006-0.613-0.006h-7.346c-0.311,0-0.771,0.205-1.117,0.205c-0.109,0-0.211-0.021-0.285-0.076l-4.703,4.053v6.574
	c0,1.047-0.26,1.867-1.303,1.867h-7.332c-1.057,0-1.26-0.82-1.26-1.867v-6.01l-7.732-7.547H3.066C1.494,37.87,0,36.769,0,35.196
	V21.18c0-1.562,1.494-2.955,3.066-2.955h14.119l0.377,0.09l6.404-7.098c-0.17-0.283,0.039-0.615,0.039-0.973V2.955
	c0-1.037,0.203-2.955,1.26-2.955h7.332c1.043,0,1.303,1.918,1.303,2.955v6.432l4.328,2.699c0.348-0.436,1.172-0.869,1.777-0.869
	h7.346c1.043,0,2.086,1.15,2.086,2.199v7.277C49.437,21.742,48.394,22.434,47.351,22.434z M37.739,26.692l-2.785-5.602
	l-15.176,5.318v4.083l14.646,2.928L37.739,26.692 M25.368,11.217l-6.299,7.506c0.514,0.512,0.709,1.676,0.709,2.457v3.223
	l14.324-5.461l-3.477-7.725H25.368 M25.265,42.065H30.2l3.363-6.982l-13.785-2.674v2.787c0,1.074-0.479,1.945-1.355,2.431
	l5.297,5.334C24.066,42.475,24.62,42.065,25.265,42.065 M38.138,39.506v-3.453l-2.5-0.588l-3.311,6.6h0.27
	c0.543,0,1.043,0.332,1.391,0.689L38.138,39.506 M34.091,11.408c-0.322,0.396-0.799,0.664-1.352,0.703l3.311,6.637l2.088-0.729
	v-3.76L34.091,11.408 M42.376,30.848v-8.414h-0.359l-2.021,4.309l1.945,4.105H42.376 M38.138,32.471
	c0-0.971,0.746-1.764,1.699-1.865l-0.889-1.779l-2.447,4.978l1.637,0.332V32.471 M38.937,24.555l0.979-1.982
	c-1.005-0.062-1.777-0.869-1.777-1.879v-0.666l-1.237,0.422L38.937,24.555"/>
</svg>
