<?xml version="1.0" encoding="utf-8"?>
<!-- Generator: Adobe Illustrator 12.0.0, SVG Export Plug-In  -->
<!DOCTYPE svg PUBLIC "-//W3C//DTD SVG 1.1//EN" "http://www.w3.org/Graphics/SVG/1.1/DTD/svg11.dtd" [
	<!ENTITY ns_flows "http://ns.adobe.com/Flows/1.0/">
	<!ENTITY ns_svg "http://www.w3.org/2000/svg">
	<!ENTITY ns_xlink "http://www.w3.org/1999/xlink">
]>
<svg  version="1.1" xmlns="&ns_svg;" xmlns:xlink="&ns_xlink;" xmlns:a="http://ns.adobe.com/AdobeSVGViewerExtensions/3.0/"
	 width="102" height="102" viewBox="-11.726 -24.105 102 102" enable-background="new -11.726 -24.105 102 102"
	 xml:space="preserve">
<defs>
</defs>
<path fill="#9D5025" d="M68.527,15.635h-2.649c-1.962,0-3.575,1.086-3.767,2.932h-4.353c-0.479-3.69-1.917-6.84-3.614-6.84h-1.137
	h-6.102v-1.194c0-2.09-0.892-3.692-2.982-3.692h-4.835V3.909h5.876c0.68,0,1.941-0.959,1.941-1.64V1.103
	c0-0.679-1.262-0.126-1.941-0.126H23.958c-0.679,0-1.482-0.553-1.482,0.126v1.166c0,0.679,0.802,1.64,1.482,1.64h6.335V6.84h-5.294
	c-2.092,0-4.477,1.603-4.477,3.692v1.194h-8.014c-2.091,0-3.712,2.015-3.712,4.105v11.53H3.909V14.507
	c0-0.731-1.018-1.324-1.955-1.324S0,13.776,0,14.507v30.281c0,0.731,1.018,1.324,1.955,1.324s1.955-0.593,1.955-1.324V32.247h4.886
	v10.838c0,2.092,1.621,3.82,3.712,3.82h16.768c0.65,2.932,1.881,4.886,3.293,4.886h21.576c1.855,0,3.4-3.909,3.723-7.817h4.674
	v0.627c0,2.09,1.246,3.281,3.337,3.281h2.649c2.092,0,3.785-1.192,3.785-3.281V19.238C72.312,17.148,70.619,15.635,68.527,15.635z"
	/>
<path fill="#F58536" d="M68.527,13.681h-2.649c-1.962,0-3.575,1.085-3.767,2.932h-4.353c-0.479-3.691-1.917-6.84-3.614-6.84h-1.137
	h-6.102V8.578c0-2.09-0.892-3.692-2.982-3.692h-4.835V2.932h5.876c0.68,0,1.941-0.96,1.941-1.64V1.103
	C46.906,0.424,45.644,0,44.964,0H23.958c-0.679,0-1.482,0.424-1.482,1.103v0.189c0,0.679,0.802,1.64,1.482,1.64h6.335v1.954h-5.294
	c-2.092,0-4.477,1.603-4.477,3.692v1.194h-8.014c-2.091,0-3.712,2.015-3.712,4.105v11.53H3.909V12.553
	c0-0.73-1.018-1.324-1.955-1.324S0,11.822,0,12.553v30.281c0,0.731,1.018,1.324,1.955,1.324s1.955-0.593,1.955-1.324V30.293h4.886
	v10.838c0,2.091,1.621,3.819,3.712,3.819h16.768c0.65,2.932,1.881,4.887,3.293,4.887h21.576c1.855,0,3.4-3.909,3.723-7.818h4.674
	v0.627c0,2.09,1.246,3.282,3.337,3.282h2.649c2.092,0,3.785-1.192,3.785-3.282V17.284C72.312,15.194,70.619,13.681,68.527,13.681z"
	/>
</svg>
