<?xml version="1.0" encoding="utf-8"?>
<!-- Generator: Adobe Illustrator 12.0.0, SVG Export Plug-In  -->
<!DOCTYPE svg PUBLIC "-//W3C//DTD SVG 1.1//EN" "http://www.w3.org/Graphics/SVG/1.1/DTD/svg11.dtd" [
	<!ENTITY ns_flows "http://ns.adobe.com/Flows/1.0/">
	<!ENTITY ns_svg "http://www.w3.org/2000/svg">
	<!ENTITY ns_xlink "http://www.w3.org/1999/xlink">
]>
<svg  version="1.1" xmlns="&ns_svg;" xmlns:xlink="&ns_xlink;" xmlns:a="http://ns.adobe.com/AdobeSVGViewerExtensions/3.0/"
	 width="103" height="103" viewBox="-12.661 -22.89 103 103" enable-background="new -12.661 -22.89 103 103" xml:space="preserve">
<defs>
</defs>
<path fill="#9D5025" d="M68.306,15.584h-2.641c-1.956,0-3.563,1.082-3.754,2.922h-4.339c-0.479-3.679-1.91-6.818-3.604-6.818h-1.132
	h-6.083v-1.19c0-2.083-0.889-3.68-2.972-3.68h-4.821V3.896h5.858c0.677,0,1.935-0.957,1.935-1.634V1.1
	c0-0.677-1.258-0.125-1.935-0.125H23.88c-0.677,0-1.478-0.552-1.478,0.125v1.162c0,0.677,0.8,1.634,1.478,1.634h6.315v2.922h-5.277
	c-2.085,0-4.463,1.597-4.463,3.68v1.19h-7.988c-2.084,0-3.701,2.008-3.701,4.092v11.493h-4.87V14.46c0-0.729-1.014-1.32-1.948-1.32
	S0,13.732,0,14.46v30.183c0,0.729,1.014,1.32,1.948,1.32s1.948-0.592,1.948-1.32v-12.5h4.87v10.803c0,2.084,1.616,3.808,3.701,3.808
	H29.18c0.648,2.923,1.875,4.87,3.283,4.87h21.506c1.851,0,3.39-3.896,3.711-7.793h4.658v0.625c0,2.084,1.242,3.271,3.327,3.271
	h2.641c2.085,0,3.773-1.189,3.773-3.271v-25.28C72.079,17.093,70.391,15.584,68.306,15.584z"/>
<path fill="#F58536" d="M68.306,13.636h-2.641c-1.956,0-3.563,1.083-3.754,2.922h-4.339c-0.479-3.679-1.91-6.818-3.604-6.818h-1.132
	h-6.083V8.55c0-2.084-0.889-3.68-2.972-3.68h-4.821V2.922h5.858c0.677,0,1.935-0.957,1.935-1.634V1.1c0-0.677-1.258-1.1-1.935-1.1
	H23.88c-0.677,0-1.478,0.422-1.478,1.1v0.188c0,0.677,0.8,1.634,1.478,1.634h6.315V4.87h-5.277c-2.085,0-4.463,1.597-4.463,3.68
	v1.19h-7.988c-2.084,0-3.701,2.008-3.701,4.092v11.492h-4.87V12.512c0-0.729-1.014-1.319-1.948-1.319S0,11.784,0,12.512v30.184
	c0,0.729,1.014,1.32,1.948,1.32s1.948-0.592,1.948-1.32V30.195h4.87v10.804c0,2.084,1.616,3.807,3.701,3.807H29.18
	c0.648,2.922,1.875,4.871,3.283,4.871h21.506c1.851,0,3.39-3.896,3.711-7.793h4.658v0.625c0,2.082,1.242,3.271,3.327,3.271h2.641
	c2.085,0,3.773-1.189,3.773-3.271V17.228C72.079,15.145,70.391,13.636,68.306,13.636z"/>
<text transform="matrix(1 0 0 1 13.7524 32.4033)" fill="#FFFFFF" font-family="'ArialMT'" font-size="12.1045">MapR M5</text>
</svg>
