<?xml version="1.0" encoding="utf-8"?>
<!-- Generator: Adobe Illustrator 12.0.0, SVG Export Plug-In  -->
<!DOCTYPE svg PUBLIC "-//W3C//DTD SVG 1.1//EN" "http://www.w3.org/Graphics/SVG/1.1/DTD/svg11.dtd" [
	<!ENTITY ns_flows "http://ns.adobe.com/Flows/1.0/">
	<!ENTITY ns_svg "http://www.w3.org/2000/svg">
	<!ENTITY ns_xlink "http://www.w3.org/1999/xlink">
]>
<svg  version="1.1" xmlns="&ns_svg;" xmlns:xlink="&ns_xlink;" xmlns:a="http://ns.adobe.com/AdobeSVGViewerExtensions/3.0/"
	 width="102" height="102" viewBox="-12.787 -23.114 102 102" enable-background="new -12.787 -23.114 102 102"
	 xml:space="preserve">
<defs>
</defs>
<path fill="#9D5025" d="M68.975,15.738h-2.666c-1.975,0-3.6,1.093-3.791,2.951h-4.382c-0.481-3.715-1.929-6.885-3.638-6.885h-1.144
	h-6.143v-1.202c0-2.104-0.897-3.716-3.001-3.716h-4.867V3.935h5.915c0.684,0,1.953-0.966,1.953-1.65V1.11
	c0-0.684-1.27-0.126-1.953-0.126H24.115c-0.684,0-1.492-0.557-1.492,0.126v1.174c0,0.684,0.808,1.65,1.492,1.65h6.377v2.951h-5.329
	c-2.106,0-4.507,1.613-4.507,3.716v1.202h-8.066c-2.105,0-3.737,2.028-3.737,4.132v11.605H3.935V14.603
	c0-0.736-1.024-1.333-1.967-1.333S0,13.867,0,14.603v30.479c0,0.735,1.024,1.333,1.967,1.333s1.967-0.598,1.967-1.333V32.459h4.918
	v10.909c0,2.104,1.632,3.845,3.737,3.845h16.877c0.654,2.95,1.893,4.918,3.314,4.918h21.717c1.868,0,3.422-3.935,3.747-7.869h4.704
	v0.631c0,2.104,1.254,3.304,3.359,3.304h2.666c2.105,0,3.811-1.201,3.811-3.304V19.365C72.786,17.261,71.081,15.738,68.975,15.738z"
	/>
<path fill="#F58536" d="M68.975,13.771h-2.666c-1.975,0-3.6,1.093-3.791,2.951h-4.382c-0.481-3.715-1.929-6.885-3.638-6.885h-1.144
	h-6.143V8.634c0-2.104-0.897-3.716-3.001-3.716h-4.867V2.951h5.915c0.684,0,1.953-0.966,1.953-1.651V1.11
	c0-0.684-1.27-1.11-1.953-1.11H24.115c-0.684,0-1.492,0.427-1.492,1.11V1.3c0,0.684,0.808,1.651,1.492,1.651h6.377v1.967h-5.329
	c-2.106,0-4.507,1.613-4.507,3.716v1.202h-8.066c-2.105,0-3.737,2.028-3.737,4.132v11.605H3.935V12.635
	c0-0.736-1.024-1.333-1.967-1.333S0,11.899,0,12.635v30.48c0,0.735,1.024,1.333,1.967,1.333s1.967-0.598,1.967-1.333V30.491h4.918
	V41.4c0,2.104,1.632,3.845,3.737,3.845h16.877c0.654,2.951,1.893,4.918,3.314,4.918h21.717c1.868,0,3.422-3.934,3.747-7.868h4.704
	v0.63c0,2.104,1.254,3.305,3.359,3.305h2.666c2.105,0,3.811-1.201,3.811-3.305V17.398C72.786,15.294,71.081,13.771,68.975,13.771z"
	/>
<text transform="matrix(1 0 0 1 13.8872 32.7217)" fill="#FFFFFF" font-family="'ArialMT'" font-size="12.2232">MapR M3</text>
</svg>
