<?xml version="1.0" encoding="utf-8"?>
<!-- Generator: Adobe Illustrator 12.0.0, SVG Export Plug-In  -->
<!DOCTYPE svg PUBLIC "-//W3C//DTD SVG 1.1//EN" "http://www.w3.org/Graphics/SVG/1.1/DTD/svg11.dtd" [
	<!ENTITY ns_flows "http://ns.adobe.com/Flows/1.0/">
	<!ENTITY ns_svg "http://www.w3.org/2000/svg">
	<!ENTITY ns_xlink "http://www.w3.org/1999/xlink">
]>
<svg  version="1.1" xmlns="&ns_svg;" xmlns:xlink="&ns_xlink;" xmlns:a="http://ns.adobe.com/AdobeSVGViewerExtensions/3.0/"
	 width="100" height="100" viewBox="-24.074 -22.241 100 100" enable-background="new -24.074 -22.241 100 100"
	 xml:space="preserve">
<defs>
</defs>
<path fill="#9D5025" d="M38.539,1.554v2.525c0,0.357-0.021,0.729-0.021,1.049V2.603C38.518,2.282,38.539,1.913,38.539,1.554"/>
<path fill="#9D5025" d="M38.539,1.554v2.525c0,0.357-0.021,0.729-0.021,1.049V2.603C38.518,2.282,38.539,1.913,38.539,1.554z"/>
<path fill="#9D5025" d="M28.619,10.956v2.525c-0.17-0.287-0.299-0.625-0.299-0.99V9.968C28.32,10.331,28.449,10.669,28.619,10.956"
	/>
<path fill="#9D5025" d="M28.619,10.956v2.525c-0.17-0.287-0.299-0.625-0.299-0.99V9.968C28.32,10.331,28.449,10.669,28.619,10.956z"
	/>
<polygon fill="#9D5025" points="35.699,11.556 35.699,14.081 30.377,14.081 29.598,11.22 "/>
<path fill="#9D5025" d="M38.949,11.152v2.523c-0.326,0.406-0.654,0.678-1.217,0.717v-2.525
	C38.295,11.827,38.623,11.556,38.949,11.152"/>
<path fill="#9D5025" d="M38.949,11.152v2.523c-0.326,0.406-0.654,0.678-1.217,0.717v-2.525
	C38.295,11.827,38.623,11.556,38.949,11.152z"/>
<polygon fill="#9D5025" points="42.883,14.04 42.883,16.564 38.949,13.675 38.119,10.058 "/>
<polygon fill="#9D5025" points="39.357,19.064 39.357,21.587 35.699,14.081 35.281,10.058 "/>
<polygon fill="#9D5025" points="42.883,19.857 42.883,22.38 41.848,22.823 41.848,20.3 "/>
<rect x="50.172" y="21.679" fill="#9D5025" width="2.438" height="2.523"/>
<rect x="47.207" y="21.679" fill="#9D5025" width="0.041" height="2.523"/>
<path fill="#9D5025" d="M54.537,20.546v2.525c0,0.078-0.006,0.152-0.019,0.221v-2.523C54.531,20.7,54.537,20.626,54.537,20.546"/>
<path fill="#9D5025" d="M54.52,20.769v2.523c-0.006,0.07-0.02,0.133-0.041,0.191v-2.525C54.5,20.9,54.514,20.837,54.52,20.769"/>
<path fill="#9D5025" d="M54.479,20.958v2.525c-0.016,0.059-0.043,0.113-0.068,0.162v-2.523
	C54.436,21.073,54.463,21.019,54.479,20.958"/>
<path fill="#9D5025" d="M54.537,20.546v2.525c0,1.041-0.865,1.131-1.928,1.131l-0.429-2.941
	C53.244,21.261,54.537,21.587,54.537,20.546z"/>
<path fill="#9D5025" d="M17.188,17.364v2.523c0,0.014,0,0.025-0.002,0.037v-2.523C17.188,17.388,17.188,17.376,17.188,17.364"/>
<path fill="#9D5025" d="M17.186,17.402v2.523c-0.002,0.018-0.006,0.031-0.012,0.049v-2.525
	C17.18,17.433,17.184,17.417,17.186,17.402"/>
<path fill="#9D5025" d="M17.174,17.448v2.525c-0.006,0.021-0.018,0.045-0.029,0.068v-2.525
	C17.156,17.493,17.168,17.472,17.174,17.448"/>
<path fill="#9D5025" d="M17.188,17.364v2.523c0,0.469-1.416,1.225-4.076,1.666c-1.232,0.209-2.742,0.338-4.512,0.338
	c-5.555,0-8.6-1.326-8.6-2.004v-2.523c0,0.676,3.045,2.004,8.6,2.004c1.77,0,3.279-0.131,4.512-0.338
	C15.772,18.587,17.188,17.833,17.188,17.364z"/>
<path fill="#F58536" d="M8.6,15.372c1.77,0,3.279,0.131,4.512,0.34c2.66,0.43,4.076,1.197,4.076,1.652
	c0,0.469-1.416,1.223-4.076,1.666c-1.232,0.207-2.742,0.338-4.512,0.338c-5.555,0-8.6-1.328-8.6-2.004
	C0,16.687,3.045,15.372,8.6,15.372z"/>
<path fill="#9D5025" d="M44.889,22.433v2.525c-1.01-0.053-2.006-0.873-2.006-1.887l-0.508-3.712
	C42.375,20.374,43.879,22.38,44.889,22.433"/>
<path fill="#9D5025" d="M44.889,22.433v2.525c-1.01-0.053-2.006-0.873-2.006-1.887v-2.525C42.883,21.562,43.879,22.38,44.889,22.433
	z"/>
<polygon fill="#9D5025" points="47.207,21.679 47.207,24.202 45.164,28.653 45.164,26.13 "/>
<polygon fill="#9D5025" points="17.332,23.271 17.332,25.796 17.328,29.132 17.328,26.609 "/>
<polygon fill="#9D5025" points="30.377,11.556 30.377,14.081 17.328,29.132 17.328,26.609 "/>
<polygon fill="#9D5025" points="43.027,26.611 43.027,29.136 40.209,23.46 39.773,19.753 "/>
<polygon fill="#9D5025" points="40.209,20.937 40.209,23.46 17.582,31.464 17.582,28.94 "/>
<polygon fill="#9D5025" points="44.758,30.565 44.758,33.091 44.012,31.282 43.559,27.558 "/>
<polygon fill="#9D5025" points="17.328,26.773 17.328,29.298 17.322,33.255 17.322,30.731 "/>
<polygon fill="#9D5025" points="38.807,34.911 38.807,37.437 17.322,33.255 17.322,30.731 "/>
<polygon fill="#9D5025" points="17.322,31.163 17.322,33.688 17.321,35.96 17.321,33.435 "/>
<polygon fill="#9D5025" points="44.012,28.757 44.012,31.282 41.426,36.317 41.426,33.794 "/>
<polygon fill="#9D5025" points="42.883,36.069 42.883,38.595 39.93,37.571 40.098,35.136 "/>
<path fill="#9D5025" d="M2.074,36.929v2.525c-1.141-0.365-1.969-0.781-2.059-1.107v-2.523C0.106,36.147,0.934,36.565,2.074,36.929z"
	/>
<path fill="#9D5025" d="M17.321,35.771v2.525c0,0.016-0.002,0.031-0.004,0.049v-2.525C17.319,35.804,17.321,35.786,17.321,35.771"/>
<path fill="#9D5025" d="M17.317,35.819v2.525c-0.006,0.02-0.008,0.037-0.016,0.059v-2.524
	C17.309,35.858,17.311,35.839,17.317,35.819"/>
<path fill="#9D5025" d="M17.301,35.878v2.525c-0.01,0.028-0.023,0.062-0.043,0.096v-2.525C17.278,35.94,17.291,35.909,17.301,35.878
	"/>
<path fill="#9D5025" d="M17.321,35.771v2.525c0,0.689-2.389,1.99-8.168,1.99c-3.146,0-5.531-0.377-7.078-0.832l-0.643-3.193
	c1.547,0.455,4.574,1.502,7.721,1.502C14.932,37.763,17.321,36.46,17.321,35.771z"/>
<polygon fill="#9D5025" points="52.609,40.479 52.609,43.005 45.191,43.005 44.662,40.169 "/>
<path fill="#9D5025" d="M54.537,39.819v2.523c0,0.076-0.004,0.146-0.014,0.207v-2.523C54.533,39.964,54.537,39.894,54.537,39.819"/>
<path fill="#9D5025" d="M54.523,40.026v2.523c-0.008,0.055-0.02,0.104-0.033,0.146v-2.523
	C54.504,40.128,54.516,40.079,54.523,40.026"/>
<path fill="#9D5025" d="M54.49,40.173v2.523c-0.015,0.041-0.027,0.078-0.045,0.108V40.28C54.463,40.249,54.477,40.212,54.49,40.173"
	/>
<path fill="#9D5025" d="M54.537,39.819v2.523c0,0.605-0.283,0.734-0.729,0.734c-0.33,0-0.745-0.072-1.198-0.072l-0.554-2.994
	c0.453,0,1.422,0.541,1.752,0.541C54.254,40.552,54.537,40.423,54.537,39.819z"/>
<path fill="#9D5025" d="M45.191,40.479v2.525c-0.342,0-1.02,0.32-1.432,0.32c-0.096,0-0.176-0.019-0.234-0.06l-0.438-2.858
	c0.06,0.041,0.577,0.393,0.674,0.393C44.172,40.8,44.85,40.479,45.191,40.479z"/>
<polygon fill="#9D5025" points="40.563,35.354 40.563,37.878 37.416,44.45 37.416,41.925 "/>
<polygon fill="#9D5025" points="43.525,40.741 43.982,42.931 38.518,47.481 38.518,44.958 "/>
<polygon fill="#9D5025" points="28.32,45.53 28.32,48.056 17.321,35.96 17.321,33.435 "/>
<path fill="#9D5025" d="M38.539,52.499v2.523c0,0.129-0.004,0.247-0.021,0.354v-2.523C38.535,52.745,38.539,52.626,38.539,52.499"/>
<path fill="#9D5025" d="M38.518,52.853v2.523c-0.006,0.068-0.021,0.129-0.039,0.188v-2.524
	C38.496,52.981,38.512,52.917,38.518,52.853"/>
<path fill="#9D5025" d="M38.479,53.038v2.525c-0.016,0.045-0.033,0.09-0.057,0.131v-2.523C38.445,53.13,38.463,53.085,38.479,53.038
	"/>
<path fill="#9D5025" d="M38.422,53.171v2.523c-0.113,0.205-0.328,0.323-0.73,0.323v-2.524
	C38.094,53.493,38.309,53.374,38.422,53.171"/>
<path fill="#9D5025" d="M38.539,52.499v2.523c0,0.596-0.115,0.995-0.848,0.995v-2.524C38.424,53.493,38.539,53.095,38.539,52.499z"
	/>
<polygon fill="#9D5025" points="37.691,53.493 37.691,56.019 30.27,56.019 29.432,53.011 "/>
<path fill="#9D5025" d="M30.27,53.493v2.524c-1.047,0-1.949-0.834-1.949-1.887v-2.522C28.32,52.661,29.223,53.493,30.27,53.493"/>
<path fill="#9D5025" d="M30.27,53.493v2.524c-1.047,0-1.949-0.834-1.949-1.887v-2.522C28.32,52.661,29.223,53.493,30.27,53.493z"/>
<path fill="#F58536" d="M52.609,21.679h-2.438v8.678h2.438c1.063,0,1.928,1.043,1.928,2.096v7.367c0,0.604-0.282,0.732-0.729,0.732
	c-0.33,0-0.746-0.072-1.199-0.072h-7.418c-0.342,0-1.02,0.32-1.432,0.32c-0.096,0-0.176-0.018-0.234-0.059l-5.008,4.217v6.65
	c0,1.053,0.236,1.885-0.826,1.885H30.27c-1.047,0-1.949-0.832-1.949-1.885V45.53l-11-12.097l-0.486-2.803l11.879,12.295
	c0.354-0.479,0.916-1.002,1.558-1.002h5.01l3.526-7.015l-21.484-4.18l0.006-3.958l22.03-7.709l-3.658-7.508h-5.322L17.328,26.609
	l-0.414-2.836l11.706-12.816c-0.17-0.287-0.299-0.625-0.299-0.988V2.604C28.32,1.563,29.222,0,30.269,0h7.423
	c1.062,0,0.825,1.562,0.825,2.604V9.11l4.627,2.303c0.343-0.428,1.431-1.301,2.048-1.301h7.418c1.062,0,1.928,2.018,1.928,3.07
	v7.365C54.537,21.587,53.672,21.679,52.609,21.679z M17.582,28.94l22.102,4.463l3.344-6.792l-2.817-5.674L17.582,28.94
	 M42.883,39.558v-3.488l-2.32-0.715l-3.146,6.57h0.274c0.553,0,0.854,0.43,1.191,0.793L42.883,39.558 M37.732,11.866l3.25,6.715
	l1.9-0.742V14.04l-3.934-2.889C38.623,11.556,38.295,11.827,37.732,11.866 M47.248,30.356v-8.678h-0.041l-2.043,4.451l1.965,4.227
	H47.248 M42.883,32.452c0-0.988,0.906-1.795,1.875-1.887l-0.746-1.81l-2.586,5.038l1.457,0.338V32.452 M43.904,24.437l0.984-2.004
	c-1.01-0.053-2.006-0.871-2.006-1.887v-0.689L41.848,20.3L43.904,24.437"/>
<path fill="#F58536" d="M17.332,21.978v1.293l-0.004,3.338v0.164l-0.006,3.958v0.433l-0.002,2.271v2.336
	c0,0.689-2.389,1.992-8.168,1.992c-3.146,0-5.531-0.379-7.078-0.834c-1.141-0.363-1.969-0.781-2.059-1.105V22.109
	c1.676,1.041,5.139,1.574,8.584,1.574h0.227c0.352,0,0.693-0.014,1.021-0.025h0.195c0.275-0.014,0.562-0.027,0.84-0.053
	c0.154-0.014,0.326-0.027,0.486-0.039c0.209-0.014,0.418-0.039,0.625-0.051c0.146-0.027,0.293-0.039,0.434-0.066
	c0.225-0.025,0.449-0.053,0.67-0.092C14.985,23.058,16.44,22.564,17.332,21.978z"/>
</svg>
