<?xml version="1.0" encoding="utf-8"?>
<!-- Generator: Adobe Illustrator 12.0.0, SVG Export Plug-In  -->
<!DOCTYPE svg PUBLIC "-//W3C//DTD SVG 1.1//EN" "http://www.w3.org/Graphics/SVG/1.1/DTD/svg11.dtd" [
	<!ENTITY ns_flows "http://ns.adobe.com/Flows/1.0/">
	<!ENTITY ns_svg "http://www.w3.org/2000/svg">
	<!ENTITY ns_xlink "http://www.w3.org/1999/xlink">
]>
<svg  version="1.1" xmlns="&ns_svg;" xmlns:xlink="&ns_xlink;" xmlns:a="http://ns.adobe.com/AdobeSVGViewerExtensions/3.0/"
	 width="100" height="100" viewBox="-20.1 -14 100 100" enable-background="new -20.1 -14 100 100" xml:space="preserve">
<defs>
</defs>
<polygon fill="#FBBF93" points="59.8,50.8 29.9,46.5 0,50.8 30,61.3 "/>
<polygon fill="#9D5025" points="29.9,36 41.1,36 41.1,11.7 29.9,14.9 "/>
<polygon fill="#9D5025" points="41.1,36 49.8,36 49.8,20.4 41.1,21.8 "/>
<polygon fill="#9D5025" points="49.8,36 56.8,36 56.8,17.9 49.8,19.2 "/>
<polygon fill="#F58536" points="35.9,3 29.9,0 29.9,36 35.9,36 "/>
<polygon fill="#F58536" points="45.7,13.5 41.1,11.7 41.1,36 45.7,36 "/>
<polygon fill="#F58536" points="53.3,21.4 49.8,20.4 49.8,36 53.3,36 "/>
<polygon fill="#F58536" points="56.8,17.9 59.8,19.1 59.8,36 56.8,36 "/>
<polygon fill="#F58536" points="59.7,46.5 29.8,53.9 29.8,43.2 59.7,40.2 "/>
<polygon fill="#F58536" points="59.8,50.8 29.8,61.4 29.8,72 59.8,57 "/>
<polygon fill="#9D5025" points="0,50.8 29.8,61.3 29.8,72 0,57.1 "/>
<polygon fill="#9D5025" points="0,40.2 29.8,43.2 29.8,53.9 0,46.5 "/>
<polygon fill="#9D5025" points="0,36 29.9,36 29.9,0 0,14.9 "/>
<polygon fill="#FBBF93" points="59.7,40.2 29.8,39 0,40.2 29.8,43.2 "/>
</svg>
