<?xml version="1.0" encoding="utf-8"?>
<!-- Generator: Adobe Illustrator 12.0.0, SVG Export Plug-In  -->
<!DOCTYPE svg PUBLIC "-//W3C//DTD SVG 1.1//EN" "http://www.w3.org/Graphics/SVG/1.1/DTD/svg11.dtd" [
	<!ENTITY ns_flows "http://ns.adobe.com/Flows/1.0/">
	<!ENTITY ns_svg "http://www.w3.org/2000/svg">
	<!ENTITY ns_xlink "http://www.w3.org/1999/xlink">
]>
<svg  version="1.1" xmlns="&ns_svg;" xmlns:xlink="&ns_xlink;" xmlns:a="http://ns.adobe.com/AdobeSVGViewerExtensions/3.0/"
	 width="100" height="100" viewBox="-19.387 -14.514 100 100" enable-background="new -19.387 -14.514 100 100"
	 xml:space="preserve">
<defs>
</defs>
<polygon fill="#9D5025" points="42.48,44.001 49.813,44.699 49.813,31.619 42.48,31.965 "/>
<polygon fill="#6B3A19" points="59.726,25.522 29.863,28.577 0,25.522 29.863,16.705 "/>
<polygon fill="#9D5025" points="44.794,46.537 54.831,47.757 54.831,59.516 44.794,57.079 "/>
<polygon fill="#9D5025" points="34.044,48.409 44.794,50.166 44.794,64.534 34.044,61.003 "/>
<polygon fill="#F58536" points="59.726,25.522 29.863,18.079 29.863,0 59.726,14.931 "/>
<polygon fill="#F58536" points="40.726,51.206 29.863,53.912 29.863,72 40.726,66.568 "/>
<polygon fill="#F58536" points="54.831,47.698 59.726,46.478 59.726,57.068 54.831,59.516 "/>
<polygon fill="#F58536" points="51.841,48.443 44.794,50.199 44.794,64.534 51.841,61.011 "/>
<polygon fill="#FBBF93" points="44.794,46.537 54.669,47.738 59.726,46.478 50.343,45.509 "/>
<polygon fill="#FBBF93" points="34.044,48.409 44.878,50.177 51.841,48.443 41.41,47.058 "/>
<polygon fill="#F58536" points="14.931,46.537 4.895,47.757 4.895,59.516 14.931,57.079 "/>
<polygon fill="#F58536" points="25.681,48.409 14.931,50.166 14.931,64.534 25.681,61.003 "/>
<polygon fill="#9D5025" points="0,25.522 29.863,18.079 29.863,0 0,14.931 "/>
<polygon fill="#9D5025" points="19,51.206 29.863,53.912 29.863,72 19,66.568 "/>
<polygon fill="#9D5025" points="4.895,47.698 0,46.478 0,57.068 4.895,59.516 "/>
<polygon fill="#9D5025" points="7.885,48.443 14.931,50.199 14.931,64.534 7.885,61.011 "/>
<polygon fill="#FBBF93" points="14.931,46.537 5.055,47.738 0,46.478 9.382,45.509 "/>
<polygon fill="#FBBF93" points="25.681,48.409 14.847,50.177 7.885,48.443 18.316,47.058 "/>
<polygon fill="#FBBF93" points="40.726,51.206 29.863,49.208 19,51.206 29.863,53.912 "/>
<polygon fill="#F58536" points="44.794,31.217 29.863,29.981 29.863,48.06 44.794,45.552 "/>
<polygon fill="#F58536" points="59.726,32.443 49.813,31.619 49.813,44.708 59.726,43.044 "/>
<polygon fill="#F58536" points="17.246,44.001 9.913,44.699 9.913,31.619 17.246,31.965 "/>
<polygon fill="#9D5025" points="14.931,31.217 29.863,29.981 29.863,48.06 14.931,45.552 "/>
<polygon fill="#9D5025" points="0,32.443 9.913,31.619 9.913,44.708 0,43.044 "/>
</svg>
