<?xml version="1.0" encoding="utf-8"?>
<!-- Generator: Adobe Illustrator 12.0.0, SVG Export Plug-In  -->
<!DOCTYPE svg PUBLIC "-//W3C//DTD SVG 1.1//EN" "http://www.w3.org/Graphics/SVG/1.1/DTD/svg11.dtd" [
	<!ENTITY ns_flows "http://ns.adobe.com/Flows/1.0/">
	<!ENTITY ns_svg "http://www.w3.org/2000/svg">
	<!ENTITY ns_xlink "http://www.w3.org/1999/xlink">
]>
<svg  version="1.1" xmlns="&ns_svg;" xmlns:xlink="&ns_xlink;" xmlns:a="http://ns.adobe.com/AdobeSVGViewerExtensions/3.0/"
	 width="100" height="100" viewBox="5.885 -14 100 100" enable-background="new 5.885 -14 100 100" xml:space="preserve">
<defs>
</defs>
<polygon fill="#B7CA9D" points="30.085,49.8 55.985,57.6 56.185,53.1 38.385,48.6 "/>
<polygon fill="#3C4929" points="56.185,19.2 38.385,23.4 30.085,22.2 55.985,14.4 "/>
<polygon fill="#B7CA9D" points="81.685,49.8 55.785,57.6 55.685,53.1 73.385,48.6 "/>
<polygon fill="#3C4929" points="55.685,19.2 73.385,23.4 81.685,22.2 55.785,14.4 "/>
<polygon fill="#759C3E" points="38.385,48.6 30.085,49.8 30.085,22.2 38.385,23.4 "/>
<path fill="#4B612C" d="M55.885,0l-29.6,14.9v42.2l29.6,14.9V0z M47.185,54.9l-17.1-5.101V22.2l17.1-5.1V54.9z"/>
<polygon fill="#4B612C" points="73.385,48.6 81.685,49.8 81.685,22.2 73.385,23.4 "/>
<path fill="#759C3E" d="M55.885,72l29.6-14.9V14.9L55.885,0V72z M64.585,17.1l17.1,5.1v27.6l-17.1,5.101V17.1z"/>
<text transform="matrix(1 0 0 1 0 29.2002)" display="none" enable-background="new    " font-family="'MyriadPro-Regular'" font-size="12">S</text>
<text transform="matrix(1 0 0 1 5.9756 29.2002)" display="none" enable-background="new    " font-family="'MyriadPro-Regular'" font-size="12">-</text>
<text transform="matrix(1 0 0 1 9.6592 29.2002)" display="none" enable-background="new    " font-family="'MyriadPro-Regular'" font-size="12">S</text>
<text transform="matrix(1 0 0 1 15.5752 29.2002)" display="none" enable-background="new    " font-family="'MyriadPro-Regular'" font-size="12">i</text>
<text transform="matrix(1 0 0 1 18.3828 29.2002)" display="none" enable-background="new    " font-family="'MyriadPro-Regular'" font-size="12">m</text>
<text transform="matrix(1 0 0 1 28.3906 29.2002)" display="none" enable-background="new    " font-family="'MyriadPro-Regular'" font-size="12">p</text>
<text transform="matrix(1 0 0 1 35.2188 29.2002)" display="none" enable-background="new    " font-family="'MyriadPro-Regular'" font-size="12">l</text>
<text transform="matrix(1 0 0 1 38.0508 29.2002)" display="none" enable-background="new    " font-family="'MyriadPro-Regular'" font-size="12">e</text>
<text transform="matrix(1 0 0 1 44.3984 29.2002)" display="none" enable-background="new    " font-family="'MyriadPro-Regular'" font-size="12">-</text>
<text transform="matrix(1 0 0 1 48.082 29.2002)" display="none" enable-background="new    " font-family="'MyriadPro-Regular'" font-size="12">I</text>
<text transform="matrix(1 0 0 1 50.9502 29.2002)" display="none" enable-background="new    " font-family="'MyriadPro-Regular'" font-size="12">c</text>
<text transform="matrix(1 0 0 1 56.2549 29.2002)" display="none" enable-background="new    " font-family="'MyriadPro-Regular'" font-size="12">o</text>
<text transform="matrix(1 0 0 1 62.8428 29.2002)" display="none" enable-background="new    " font-family="'MyriadPro-Regular'" font-size="12">n</text>
<text transform="matrix(1 0 0 1 69.5029 29.2002)" display="none" enable-background="new    " font-family="'MyriadPro-Regular'" font-size="12">s</text>
<text transform="matrix(1 0 0 1 74.2549 29.2002)" display="none" enable-background="new    " font-family="'MyriadPro-Regular'" font-size="12">%</text>
<text transform="matrix(1 0 0 1 83.7588 29.2002)" display="none" enable-background="new    " font-family="'MyriadPro-Regular'" font-size="12">2</text>
<text transform="matrix(1 0 0 1 89.915 29.2002)" display="none" enable-background="new    " font-family="'MyriadPro-Regular'" font-size="12">0</text>
<text transform="matrix(1 0 0 1 96.0713 29.2002)" display="none" enable-background="new    " font-family="'MyriadPro-Regular'" font-size="12">2</text>
<text transform="matrix(1 0 0 1 102.2275 29.2002)" display="none" enable-background="new    " font-family="'MyriadPro-Regular'" font-size="12">/</text>
</svg>
