<?xml version="1.0" encoding="utf-8"?>
<!-- Generator: Adobe Illustrator 12.0.0, SVG Export Plug-In  -->
<!DOCTYPE svg PUBLIC "-//W3C//DTD SVG 1.1//EN" "http://www.w3.org/Graphics/SVG/1.1/DTD/svg11.dtd" [
	<!ENTITY ns_flows "http://ns.adobe.com/Flows/1.0/">
	<!ENTITY ns_svg "http://www.w3.org/2000/svg">
	<!ENTITY ns_xlink "http://www.w3.org/1999/xlink">
]>
<svg  version="1.1" xmlns="&ns_svg;" xmlns:xlink="&ns_xlink;" xmlns:a="http://ns.adobe.com/AdobeSVGViewerExtensions/3.0/"
	 width="100" height="100" viewBox="-25.8 -20.8 100 100" enable-background="new -25.8 -20.8 100 100" xml:space="preserve">
<defs>
</defs>
<rect x="2.1" y="19.5" fill="#759C3E" width="10.7" height="26.4"/>
<rect x="2.1" y="45.9" fill="#4B612C" width="10.7" height="2.6"/>
<rect x="19" y="24.6" fill="#759C3E" width="11.101" height="21.3"/>
<rect x="19" y="45.9" fill="#4B612C" width="11.101" height="2.6"/>
<path fill="#759C3E" d="M46.2,16.4v29.5h-9.8V16.5c0.1,0.1,1.899,1.3,4.8,1.3C42.7,17.8,44.4,17.4,46.2,16.4z"/>
<rect x="36.4" y="45.9" fill="#4B612C" width="9.8" height="2.6"/>
<rect y="50.101" fill="#759C3E" width="48.4" height="5.699"/>
<rect y="55.8" fill="#4B612C" width="48.4" height="2.601"/>
<path fill="#EA2227" d="M41,0c3.601,0,6.5,2.9,6.5,6.5c0,3.6-2.899,6.5-6.5,6.5c-3.6,0-6.5-2.9-6.5-6.5C34.5,2.9,37.4,0,41,0z"/>
<path fill="#8D090A" d="M47.5,6.5v2.6c0,0.3,0,0.6-0.1,0.9V7.4C47.5,7.1,47.5,6.8,47.5,6.5"/>
<path fill="#8D090A" d="M47.4,7.4V10c-0.101,0.4-0.101,0.7-0.2,1l-0.7-2.6C46.601,8.1,47.4,7.7,47.4,7.4"/>
<path fill="#8D090A" d="M47.2,8.4V11c-0.1,0.4-0.3,0.8-0.5,1.1V9.5C46.9,9.2,47.101,8.8,47.2,8.4"/>
<path fill="#8D090A" d="M46.7,9.6v2.6c-1.1,2-3.3,3.4-5.7,3.4c-3.6,0-6.5-2.9-6.5-6.5V6.5c0,3.6,2.9,6.5,6.5,6.5
	C43.5,12.9,45.601,11.6,46.7,9.6"/>
<path fill="#8D090A" d="M47.5,6.5v2.6c0,3.6-2.899,6.5-6.5,6.5c-3.6,0-6.5-2.9-6.5-6.5V6.5c0,3.6,2.9,6.5,6.5,6.5
	C44.601,12.9,47.5,10,47.5,6.5z"/>
</svg>
