<?xml version="1.0" encoding="utf-8"?>
<!-- Generator: Adobe Illustrator 12.0.0, SVG Export Plug-In  -->
<!DOCTYPE svg PUBLIC "-//W3C//DTD SVG 1.1//EN" "http://www.w3.org/Graphics/SVG/1.1/DTD/svg11.dtd" [
	<!ENTITY ns_flows "http://ns.adobe.com/Flows/1.0/">
	<!ENTITY ns_svg "http://www.w3.org/2000/svg">
	<!ENTITY ns_xlink "http://www.w3.org/1999/xlink">
]>
<svg  version="1.1" xmlns="&ns_svg;" xmlns:xlink="&ns_xlink;" xmlns:a="http://ns.adobe.com/AdobeSVGViewerExtensions/3.0/"
	 width="100" height="100" viewBox="5.168 -14 100 100" enable-background="new 5.168 -14 100 100" xml:space="preserve">
<defs>
</defs>
<polygon fill="#B7CA9D" points="86.968,49.5 55.168,44.9 23.368,49.6 55.168,60.8 "/>
<polygon fill="#759C3E" points="71.068,48 45.668,53.9 45.668,0 71.068,9.9 "/>
<polygon fill="#759C3E" points="54.168,47.3 35.068,50.7 35.068,11.9 54.168,16.1 "/>
<polygon fill="#4B612C" points="48.368,54.7 55.168,56.7 55.168,40.9 48.368,40.2 "/>
<polygon fill="#4B612C" points="45.668,53.9 38.268,51.6 38.268,3.7 45.668,0 "/>
<polygon fill="#4B612C" points="55.168,60.8 23.368,49.6 23.368,56.1 55.168,72 "/>
<polygon fill="#759C3E" points="86.968,56.1 55.168,72 55.168,60.8 86.968,49.5 "/>
<polygon fill="#4B612C" points="29.668,49 35.068,50.6 35.068,11.9 29.668,13.9 "/>
<polygon fill="#759C3E" points="78.068,38.7 55.168,40.9 55.168,56.7 78.068,49.8 "/>
<polygon fill="#B7CA9D" points="78.068,38.7 70.368,38.7 48.368,40.2 55.168,40.9 "/>
<text transform="matrix(1 0 0 1 4.4629 29.2002)" display="none" enable-background="new    " font-family="'MyriadPro-Regular'" font-size="12">h</text>
<text transform="matrix(1 0 0 1 11.123 29.2002)" display="none" enable-background="new    " font-family="'MyriadPro-Regular'" font-size="12">i</text>
<text transform="matrix(1 0 0 1 13.9307 29.2002)" display="none" enable-background="new    " font-family="'MyriadPro-Regular'" font-size="12">t</text>
<text transform="matrix(1 0 0 1 17.8301 29.2002)" display="none" enable-background="new    " font-family="'MyriadPro-Regular'" font-size="12">e</text>
<text transform="matrix(1 0 0 1 23.8418 29.2002)" display="none" enable-background="new    " font-family="'MyriadPro-Regular'" font-size="12">c</text>
<text transform="matrix(1 0 0 1 29.374 29.2002)" display="none" enable-background="new    " font-family="'MyriadPro-Regular'" font-size="12">t</text>
<text transform="matrix(1 0 0 1 33.3457 29.2002)" display="none" enable-background="new    " font-family="'MyriadPro-Regular'" font-size="12">u</text>
<text transform="matrix(1 0 0 1 39.958 29.2002)" display="none" enable-background="new    " font-family="'MyriadPro-Regular'" font-size="12">r</text>
<text transform="matrix(1 0 0 1 43.7617 29.2002)" display="none" enable-background="new    " font-family="'MyriadPro-Regular'" font-size="12">e</text>
<text transform="matrix(1 0 0 1 49.7734 29.2002)" display="none" enable-background="new    " font-family="'MyriadPro-Regular'" font-size="12">%</text>
<text transform="matrix(1 0 0 1 59.2773 29.2002)" display="none" enable-background="new    " font-family="'MyriadPro-Regular'" font-size="12">2</text>
<text transform="matrix(1 0 0 1 65.4336 29.2002)" display="none" enable-background="new    " font-family="'MyriadPro-Regular'" font-size="12">0</text>
<text transform="matrix(1 0 0 1 71.5898 29.2002)" display="none" enable-background="new    " font-family="'MyriadPro-Regular'" font-size="12">I</text>
<text transform="matrix(1 0 0 1 74.458 29.2002)" display="none" enable-background="new    " font-family="'MyriadPro-Regular'" font-size="12">c</text>
<text transform="matrix(1 0 0 1 79.7627 29.2002)" display="none" enable-background="new    " font-family="'MyriadPro-Regular'" font-size="12">o</text>
<text transform="matrix(1 0 0 1 86.3506 29.2002)" display="none" enable-background="new    " font-family="'MyriadPro-Regular'" font-size="12">n</text>
<text transform="matrix(1 0 0 1 93.0107 29.2002)" display="none" enable-background="new    " font-family="'MyriadPro-Regular'" font-size="12">s</text>
<text transform="matrix(1 0 0 1 97.7627 29.2002)" display="none" enable-background="new    " font-family="'MyriadPro-Regular'" font-size="12">%</text>
<text transform="matrix(1 0 0 1 0 58)" display="none" enable-background="new    " font-family="'MyriadPro-Regular'" font-size="12">p</text>
<text transform="matrix(1 0 0 1 6.8281 58)" display="none" enable-background="new    " font-family="'MyriadPro-Regular'" font-size="12">a</text>
<text transform="matrix(1 0 0 1 12.6133 58)" display="none" enable-background="new    " font-family="'MyriadPro-Regular'" font-size="12">r</text>
<text transform="matrix(1 0 0 1 16.417 58)" display="none" enable-background="new    " font-family="'MyriadPro-Regular'" font-size="12">e</text>
<text transform="matrix(1 0 0 1 22.4287 58)" display="none" enable-background="new    " font-family="'MyriadPro-Regular'" font-size="12">n</text>
<text transform="matrix(1 0 0 1 29.0889 58)" display="none" enable-background="new    " font-family="'MyriadPro-Regular'" font-size="12">c</text>
<text transform="matrix(1 0 0 1 34.6807 58)" display="none" enable-background="new    " font-family="'MyriadPro-Regular'" font-size="12">y</text>
<text transform="matrix(1 0 0 1 40.333 58)" display="none" enable-background="new    " font-family="'MyriadPro-Regular'" font-size="12">&gt;</text>
<text transform="matrix(1 0 0 1 1.3779 86.7998)" display="none" enable-background="new    " font-family="'MyriadPro-Regular'" font-size="12">e</text>
<text transform="matrix(1 0 0 1 7.3535 86.7998)" display="none" enable-background="new    " font-family="'MyriadPro-Regular'" font-size="12">x</text>
<text transform="matrix(1 0 0 1 12.9092 86.7998)" display="none" enable-background="new    " font-family="'MyriadPro-Regular'" font-size="12">p</text>
<text transform="matrix(1 0 0 1 19.7373 86.7998)" display="none" enable-background="new    " font-family="'MyriadPro-Regular'" font-size="12">o</text>
<text transform="matrix(1 0 0 1 26.3252 86.7998)" display="none" enable-background="new    " font-family="'MyriadPro-Regular'" font-size="12">r</text>
<text transform="matrix(1 0 0 1 30.5371 86.7998)" display="none" enable-background="new    " font-family="'MyriadPro-Regular'" font-size="12">t</text>
<text transform="matrix(1 0 0 1 34.5088 86.7998)" display="none" enable-background="new    " font-family="'MyriadPro-Regular'" font-size="12">_</text>
<text transform="matrix(1 0 0 1 40.5088 86.7998)" display="none" enable-background="new    " font-family="'MyriadPro-Regular'" font-size="12">c</text>
<text transform="matrix(1 0 0 1 45.8125 86.7998)" display="none" enable-background="new    " font-family="'MyriadPro-Regular'" font-size="12">o</text>
<text transform="matrix(1 0 0 1 52.4004 86.7998)" display="none" enable-background="new    " font-family="'MyriadPro-Regular'" font-size="12">d</text>
<text transform="matrix(1 0 0 1 59.168 86.7998)" display="none" enable-background="new    " font-family="'MyriadPro-Regular'" font-size="12">e</text>
<text transform="matrix(1 0 0 1 65.1797 86.7998)" display="none" enable-background="new    " font-family="'MyriadPro-Regular'" font-size="12">&gt;</text>
</svg>
