<?xml version="1.0" encoding="utf-8"?>
<!-- Generator: Adobe Illustrator 12.0.0, SVG Export Plug-In  -->
<!DOCTYPE svg PUBLIC "-//W3C//DTD SVG 1.1//EN" "http://www.w3.org/Graphics/SVG/1.1/DTD/svg11.dtd" [
	<!ENTITY ns_flows "http://ns.adobe.com/Flows/1.0/">
	<!ENTITY ns_svg "http://www.w3.org/2000/svg">
	<!ENTITY ns_xlink "http://www.w3.org/1999/xlink">
]>
<svg  version="1.1" xmlns="&ns_svg;" xmlns:xlink="&ns_xlink;" xmlns:a="http://ns.adobe.com/AdobeSVGViewerExtensions/3.0/"
	 width="100" height="100" viewBox="-20.2 -14 100 100" enable-background="new -20.2 -14 100 100" xml:space="preserve">
<defs>
</defs>
<polygon fill="#4B612C" points="1.8,31.7 0,31.8 0,23.3 1.8,22.8 "/>
<polygon fill="#759C3E" points="8.5,23.7 1.8,22.8 1.8,31.6 8.5,31.9 "/>
<polygon fill="#3C4929" points="8.5,31.9 6.5,32.1 0,31.8 1.8,31.7 "/>
<polygon fill="#4B612C" points="1.8,40.6 0,40.5 0,48.9 1.8,49.5 "/>
<polygon fill="#759C3E" points="8.5,48.6 1.8,49.5 1.8,40.6 8.5,40.3 "/>
<polygon fill="#B7CA9D" points="8.5,40.3 6.5,40.2 0,40.5 1.8,40.6 "/>
<polygon fill="#4B612C" points="6,16.8 11,14.9 11,30.8 6,31.2 "/>
<polygon fill="#759C3E" points="20.7,17.2 11,15 11,30.8 20.7,31.3 "/>
<polygon fill="#3C4929" points="20.7,31.3 15.3,31.7 6,31.2 11,30.7 "/>
<polygon fill="#4B612C" points="6,55.4 11,57.3 11,41.5 6,41.1 "/>
<polygon fill="#759C3E" points="20.7,55.3 11,57.4 11,41.5 20.7,41 "/>
<polygon fill="#B7CA9D" points="20.7,41 15.3,40.6 6,41.1 11,41.6 "/>
<polygon fill="#759C3E" points="59.6,57.1 29.8,72 29.8,0 59.6,14.9 "/>
<polygon fill="#4B612C" points="17.2,65.7 29.8,72 29.8,0 17.2,6.3 "/>
</svg>
