<?xml version="1.0" encoding="utf-8"?>
<!-- Generator: Adobe Illustrator 12.0.0, SVG Export Plug-In  -->
<!DOCTYPE svg PUBLIC "-//W3C//DTD SVG 1.1//EN" "http://www.w3.org/Graphics/SVG/1.1/DTD/svg11.dtd" [
	<!ENTITY ns_flows "http://ns.adobe.com/Flows/1.0/">
	<!ENTITY ns_svg "http://www.w3.org/2000/svg">
	<!ENTITY ns_xlink "http://www.w3.org/1999/xlink">
]>
<svg  version="1.1" xmlns="&ns_svg;" xmlns:xlink="&ns_xlink;" xmlns:a="http://ns.adobe.com/AdobeSVGViewerExtensions/3.0/"
	 width="100" height="100" viewBox="-20.2 -14 100 100" enable-background="new -20.2 -14 100 100" xml:space="preserve">
<defs>
</defs>
<polygon fill="#759C3E" points="23.9,21.2 8.4,18.3 8.4,10.7 23.9,14.9 "/>
<polygon fill="#4B612C" points="0,21.2 8.4,18.3 8.4,10.7 0,14.9 "/>
<polygon fill="#3C4929" points="23.9,21.2 8.4,18.3 0,21.2 14.5,23.3 "/>
<polygon fill="#4B612C" points="35.7,21.2 51.2,18.3 51.2,10.7 35.7,14.9 "/>
<polygon fill="#4B612C" points="13.9,16.3 29.8,10.8 29.8,0 13.9,7.9 "/>
<polygon fill="#759C3E" points="45.7,16.3 29.8,10.8 29.8,0 45.7,7.9 "/>
<polygon fill="#759C3E" points="59.6,21.2 51.2,18.3 51.2,10.7 59.6,14.9 "/>
<polygon fill="#4B612C" points="0,36 29.8,36 29.8,21.6 0,27.6 "/>
<polygon fill="#4B612C" points="29.8,72 0,57.1 0,42.3 29.8,46.7 "/>
<polygon fill="#759C3E" points="59.6,57.1 29.8,72 29.8,46.7 59.6,42.3 "/>
<polygon fill="#759C3E" points="59.6,36 29.8,36 29.8,21.6 59.6,27.6 "/>
<polygon fill="#3C4929" points="45.7,16.3 29.8,19.9 13.9,16.3 29.8,10.8 "/>
<polygon fill="#3C4929" points="35.7,21.2 51.2,18.3 59.6,21.2 45.1,23.3 "/>
<polygon fill="#B7CA9D" points="59.6,42.3 29.8,40.4 0,42.3 29.8,46.7 "/>
</svg>
