<?xml version="1.0" encoding="utf-8"?>
<!-- Generator: Adobe Illustrator 12.0.0, SVG Export Plug-In  -->
<!DOCTYPE svg PUBLIC "-//W3C//DTD SVG 1.1//EN" "http://www.w3.org/Graphics/SVG/1.1/DTD/svg11.dtd" [
	<!ENTITY ns_flows "http://ns.adobe.com/Flows/1.0/">
	<!ENTITY ns_svg "http://www.w3.org/2000/svg">
	<!ENTITY ns_xlink "http://www.w3.org/1999/xlink">
]>
<svg  version="1.1" xmlns="&ns_svg;" xmlns:xlink="&ns_xlink;" xmlns:a="http://ns.adobe.com/AdobeSVGViewerExtensions/3.0/"
	 width="100" height="100" viewBox="3.709 -14 100 100" enable-background="new 3.709 -14 100 100" xml:space="preserve">
<defs>
</defs>
<polygon fill="#4B612C" points="83.609,53.6 83.609,36 65.509,36 65.509,58.7 75.209,61.3 "/>
<polygon fill="#4B612C" points="53.709,50.7 75.109,55 75.109,10.7 53.709,16.5 "/>
<polygon fill="#759C3E" points="53.709,36 53.709,0 69.409,7.9 "/>
<polygon fill="#759C3E" points="83.609,36 83.609,57.1 75.209,61.3 "/>
<polygon fill="#759C3E" points="83.609,23.5 83.609,14.9 75.109,10.7 53.709,50.7 53.709,72 69.509,64.1 "/>
<polygon fill="#759C3E" points="23.809,53.6 23.809,36 41.909,36 41.909,58.7 32.209,61.3 "/>
<polygon fill="#759C3E" points="53.709,50.7 32.309,55 32.309,10.7 53.709,16.5 "/>
<polygon fill="#4B612C" points="53.709,36 53.709,0 38.009,7.9 "/>
<polygon fill="#4B612C" points="23.809,36 23.809,57.1 32.209,61.3 "/>
<polygon fill="#4B612C" points="23.809,23.5 23.809,14.9 32.309,10.7 53.709,50.7 53.709,72 37.909,64.1 "/>
<text transform="matrix(1 0 0 1 0 29.2002)" display="none" enable-background="new    " font-family="'MyriadPro-Regular'" font-size="12">p</text>
<text transform="matrix(1 0 0 1 6.8281 29.2002)" display="none" enable-background="new    " font-family="'MyriadPro-Regular'" font-size="12">a</text>
<text transform="matrix(1 0 0 1 12.5645 29.2002)" display="none" enable-background="new    " font-family="'MyriadPro-Regular'" font-size="12">t</text>
<text transform="matrix(1 0 0 1 16.5361 29.2002)" display="none" enable-background="new    " font-family="'MyriadPro-Regular'" font-size="12">h</text>
<text transform="matrix(1 0 0 1 23.1963 29.2002)" display="none" enable-background="new    " font-family="'MyriadPro-Regular'" font-size="12">&gt;</text>
</svg>
