<?xml version="1.0" encoding="utf-8"?>
<!-- Generator: Adobe Illustrator 12.0.0, SVG Export Plug-In  -->
<!DOCTYPE svg PUBLIC "-//W3C//DTD SVG 1.1//EN" "http://www.w3.org/Graphics/SVG/1.1/DTD/svg11.dtd" [
	<!ENTITY ns_flows "http://ns.adobe.com/Flows/1.0/">
	<!ENTITY ns_svg "http://www.w3.org/2000/svg">
	<!ENTITY ns_xlink "http://www.w3.org/1999/xlink">
]>
<svg  version="1.1" xmlns="&ns_svg;" xmlns:xlink="&ns_xlink;" xmlns:a="http://ns.adobe.com/AdobeSVGViewerExtensions/3.0/"
	 width="100" height="100" viewBox="-16.7 -14.7 100 100" enable-background="new -16.7 -14.7 100 100" xml:space="preserve">
<defs>
</defs>
<polygon fill="#4B612C" points="0,48 16,68 32,48 "/>
<rect y="44" fill="#4B612C" width="32" height="4"/>
<polygon fill="#4B612C" points="40,48 56,68 72,48 "/>
<polygon fill="#4B612C" points="60,34 40,14 42,4 30,4 32,14 12,34 12,48 20,48 20,38 36,22 36,22 52,38 52,48 60,48 "/>
<rect x="40" y="44" fill="#4B612C" width="32" height="4"/>
<polygon fill="#759C3E" points="0,44 16,64 32,44 "/>
<polygon fill="#759C3E" points="40,44 56,64 72,44 "/>
<polygon fill="#759C3E" points="61,30 42,11 42,0 30,0 30,11 11,30 11,44 21,44 21,34 36,18 36,18 51,34 51,44 61,44 "/>
</svg>
