<?xml version="1.0" encoding="utf-8"?>
<!-- Generator: Adobe Illustrator 12.0.0, SVG Export Plug-In  -->
<!DOCTYPE svg PUBLIC "-//W3C//DTD SVG 1.1//EN" "http://www.w3.org/Graphics/SVG/1.1/DTD/svg11.dtd" [
	<!ENTITY ns_flows "http://ns.adobe.com/Flows/1.0/">
	<!ENTITY ns_svg "http://www.w3.org/2000/svg">
	<!ENTITY ns_xlink "http://www.w3.org/1999/xlink">
]>
<svg  version="1.1" xmlns="&ns_svg;" xmlns:xlink="&ns_xlink;" xmlns:a="http://ns.adobe.com/AdobeSVGViewerExtensions/3.0/"
	 width="100" height="100" viewBox="-22.8 -12.6 100 100" enable-background="new -22.8 -12.6 100 100" xml:space="preserve">
<defs>
</defs>
<path fill="#4B612C" d="M51.101,33.8v-17c0-7-5.7-12.8-12.801-12.8h-17c-7,0-12.8,5.7-12.8,12.8v17H0v38.3h59.5V33.8H51.101z
	 M42.601,33.8H17.1V20.2c0-4.2,3.4-7.7,7.7-7.7H35c4.2,0,7.7,3.4,7.7,7.7L42.601,33.8L42.601,33.8z"/>
<path fill="#759C3E" d="M51.101,29.8v-17c0-7-5.7-12.8-12.801-12.8h-17c-7,0-12.8,5.7-12.8,12.8v17H0v38.3h59.5V29.8H51.101z
	 M42.601,29.8H17.1V16.2c0-4.2,3.4-7.7,7.7-7.7H35c4.2,0,7.7,3.4,7.7,7.7L42.601,29.8L42.601,29.8z"/>
</svg>
