<?xml version="1.0" encoding="utf-8"?>
<!-- Generator: Adobe Illustrator 12.0.0, SVG Export Plug-In  -->
<!DOCTYPE svg PUBLIC "-//W3C//DTD SVG 1.1//EN" "http://www.w3.org/Graphics/SVG/1.1/DTD/svg11.dtd" [
	<!ENTITY ns_flows "http://ns.adobe.com/Flows/1.0/">
	<!ENTITY ns_svg "http://www.w3.org/2000/svg">
	<!ENTITY ns_xlink "http://www.w3.org/1999/xlink">
]>
<svg  version="1.1" xmlns="&ns_svg;" xmlns:xlink="&ns_xlink;" xmlns:a="http://ns.adobe.com/AdobeSVGViewerExtensions/3.0/"
	 width="100" height="100" viewBox="-20.2 -14.5 100 100" enable-background="new -20.2 -14.5 100 100" xml:space="preserve">
<defs>
</defs>
<polygon fill="#3D4A2A" points="48,27.6 55.899,26.8 59.6,27.6 52,28.2 "/>
<polygon fill="#B7CA9D" points="47.399,44.4 55.7,45.1 59.6,44.4 51.7,43.7 "/>
<polygon fill="#B7CA9D" points="37,45.9 46.2,47.1 52.2,45.9 43.3,45 "/>
<polygon fill="#4C622C" points="42.399,26.7 51.2,25.7 51.2,45.9 42.399,45 "/>
<polygon fill="#3D4A2A" points="37.8,25.7 46.8,24.6 52.6,25.7 43.899,26.7 "/>
<polygon fill="#769C3E" points="45.7,52.8 38.7,54.9 38.7,17 45.7,19.1 "/>
<polygon fill="#769C3E" points="55.8,22.2 51.2,20.8 51.2,51.1 55.8,49.8 "/>
<polygon fill="#4C622C" points="29.7,47.1 38.7,48.5 38.7,23.3 29.7,24.7 "/>
<polygon fill="#769C3E" points="29.8,0 59.6,14.9 59.6,27.6 29.8,21.6 "/>
<polygon fill="#769C3E" points="59.6,44.4 29.8,50.3 29.8,72 59.6,57 "/>
<polygon fill="#3D4A2A" points="11.5,27.6 3.6,26.8 0,27.6 7.5,28.2 "/>
<polygon fill="#B7CA9D" points="12.1,44.4 3.9,45.1 0,44.4 7.9,43.7 "/>
<polygon fill="#B7CA9D" points="22.6,45.9 13.3,47.1 7.3,45.9 16.3,45 "/>
<polygon fill="#769C3E" points="17.1,26.7 8.3,25.7 8.3,45.9 17.1,45 "/>
<polygon fill="#3D4A2A" points="21.8,25.7 12.8,24.6 7,25.7 15.7,26.7 "/>
<polygon fill="#4C622C" points="13.9,52.8 20.9,54.9 20.9,17 13.9,19.1 "/>
<polygon fill="#4C622C" points="3.8,22.2 8.3,20.8 8.3,51.1 3.8,49.8 "/>
<polygon fill="#769C3E" points="29.8,47.1 20.9,48.5 20.9,23.3 29.8,24.7 "/>
<polygon fill="#4C622C" points="29.8,0 0,14.9 0,27.6 29.8,21.6 "/>
<polygon fill="#4C622C" points="0,44.4 29.8,50.3 29.8,72 0,57 "/>
<polygon fill="#3D4A2A" points="38.7,23.3 29.8,24.7 20.9,23.3 29.8,21.5 "/>
<polygon fill="#B7CA9D" points="38.899,48.5 29.9,47.1 20.9,48.5 29.9,50.3 "/>
</svg>
