<?xml version="1.0" encoding="utf-8"?>
<!-- Generator: Adobe Illustrator 12.0.0, SVG Export Plug-In  -->
<!DOCTYPE svg PUBLIC "-//W3C//DTD SVG 1.1//EN" "http://www.w3.org/Graphics/SVG/1.1/DTD/svg11.dtd" [
	<!ENTITY ns_flows "http://ns.adobe.com/Flows/1.0/">
	<!ENTITY ns_svg "http://www.w3.org/2000/svg">
	<!ENTITY ns_xlink "http://www.w3.org/1999/xlink">
]>
<svg  version="1.1" xmlns="&ns_svg;" xmlns:xlink="&ns_xlink;" xmlns:a="http://ns.adobe.com/AdobeSVGViewerExtensions/3.0/"
	 width="77" height="67" viewBox="-23.516 -0.746 77 67" enable-background="new -23.516 -0.746 77 67" xml:space="preserve">
<defs>
</defs>
<path fill="#4F4F4F" d="M30.822,38.073v1.89c0,1.25-1.02,2.25-2.27,2.25v-1.891C29.803,40.322,30.822,39.312,30.822,38.073z"/>
<path fill="#4F4F4F" d="M30.816,38.07v1.891c0,0.109-0.01,0.221-0.02,0.32V38.39C30.807,38.281,30.816,38.181,30.816,38.07z"/>
<path fill="#4F4F4F" d="M30.794,38.394v1.891c-0.011,0.119-0.04,0.24-0.08,0.359v-1.89C30.754,38.634,30.783,38.514,30.794,38.394z"
	/>
<path fill="#4F4F4F" d="M30.711,38.75v1.889c-0.039,0.141-0.1,0.271-0.17,0.4v-1.89C30.611,39.019,30.672,38.888,30.711,38.75z"/>
<path fill="#4F4F4F" d="M30.543,39.142v1.9c-0.391,0.7-1.141,1.17-1.99,1.17v-1.891C29.402,40.322,30.152,39.843,30.543,39.142z"/>
<path fill="#4F4F4F" d="M28.549,40.324v1.89H2.269l-0.52-2.011L28.549,40.324z"/>
<path fill="#4F4F4F" d="M2.27,40.322v1.891c-1.26,0-2.27-1-2.27-2.25v-1.89C0,39.312,1.01,40.322,2.27,40.322z"/>
<path fill="#4F4F4F" d="M2.27,40.322v1.891c-1.26,0-2.27-1-2.27-2.25v-1.89C0,39.312,1.01,40.322,2.27,40.322z"/>
<path fill="#ACACAC" d="M28.551,0c1.25,0,2.27,1.01,2.27,2.26v35.81c0,1.25-1.02,2.25-2.27,2.25H2.271c-1.26,0-2.27-1-2.27-2.25
	V2.26C0,1.01,1.011,0,2.271,0H28.551z"/>
<path fill="#FFFFFF" d="M20.775,5.109h6.23v2.51h-6.23V5.109z M12.246,5.109h6.23v2.51h-6.23V5.109z M3.716,5.109h6.23v2.51h-6.23
	V5.109z M3.716,9.429h6.23v2.51h-6.23V9.429z M3.756,13.739h6.23v2.51h-6.23V13.739z M9.996,18.06v2.51h-6.23v-2.51H9.996z
	 M3.766,22.379h6.23v2.5h-6.23V22.379z M10.036,29.199h-6.23v-2.51h6.23V29.199z M12.246,9.429h6.23v2.51h-6.23V9.429z
	 M12.286,13.739h6.229v2.51h-6.229V13.739z M18.525,18.06v2.51h-6.229v-2.51H18.525z M12.296,22.379h6.229v2.5h-6.229V22.379z
	 M18.566,29.199h-6.22v-2.51h6.22V29.199z M20.775,9.429h6.23v2.51h-6.23V9.429z M20.816,13.739h6.229v2.51h-6.229V13.739z
	 M27.057,18.06v2.51h-6.221v-2.51H27.057z M20.836,22.379h6.221v2.5h-6.221V22.379z M27.105,29.199h-6.239v-2.51h6.239V29.199z"/>
</svg>
