<?xml version="1.0" encoding="utf-8"?>
<!-- Generator: Adobe Illustrator 12.0.0, SVG Export Plug-In  -->
<!DOCTYPE svg PUBLIC "-//W3C//DTD SVG 1.1//EN" "http://www.w3.org/Graphics/SVG/1.1/DTD/svg11.dtd" [
	<!ENTITY ns_flows "http://ns.adobe.com/Flows/1.0/">
	<!ENTITY ns_svg "http://www.w3.org/2000/svg">
	<!ENTITY ns_xlink "http://www.w3.org/1999/xlink">
]>
<svg  version="1.1" xmlns="&ns_svg;" xmlns:xlink="&ns_xlink;" xmlns:a="http://ns.adobe.com/AdobeSVGViewerExtensions/3.0/"
	 width="154" height="59" viewBox="-58.445 -0.754 154 59" enable-background="new -58.445 -0.754 154 59" xml:space="preserve">
<defs>
</defs>
<path fill="#4F4F4F" d="M34.641,23.138v-9.27l-2.7,2.19c-0.38-1.42-1.181-3.35-2.31-5.02l1.899-1.57v-2.19l-6.11,0.2
	c-1.68-1.13-3.34-1.84-5.76-2.22l-6.13,0.07c-1.42,0.39-3.4,1.13-4.95,2.15l-5.78,0.1v2.19l1.8,1.15c-1.17,1.7-1.97,3.72-2.36,5.14
	l-2.24-2.19v9.27h2.3c0.41,1.84,1.18,3.69,2.24,5.26l-1.89-0.3v2.19l4.12,4.09l1.68-1.891c1.58,1.061,3.65,1.82,5.08,2.221v2.439
	h6.13v-2.359c2.42-0.391,4.17-1.221,5.891-2.391l2.02,1.98l4.15-4.1v-2.19l-2.021,0.19c1.03-1.55,1.78-4.29,2.181-5.14l2.8-0.02
	L34.641,23.138z M17.001,30.378c-5.59-0.051-10.29-4.68-10.42-10.2c-0.14-5.88,5-10.62,10.51-10.63
	c5.919-0.01,10.791,4.77,10.71,10.65C27.731,25.868,22.941,30.417,17.001,30.378z"/>
<path fill="#ACACAC" d="M34.64,20.95v-7.08h-2.7c-0.38-1.41-1.17-3.35-2.31-5.02l1.899-1.57l-4.129-3.96l-1.98,1.97
	c-1.68-1.13-3.34-1.84-5.76-2.22V0h-6.13v3.14c-1.42,0.39-3.4,1.13-4.95,2.15L6.87,3.479L2.8,7.58l1.8,1.15
	c-1.17,1.7-1.97,3.72-2.36,5.14H0v7.08h2.3c0.41,1.84,1.18,3.69,2.24,5.26L2.65,28.1l4.12,4.09l1.68-1.89
	c1.58,1.06,3.65,1.819,5.08,2.219v2.441h6.13v-2.361c2.42-0.389,4.17-1.219,5.89-2.389l2.021,1.979l4.149-4.1l-2.021-2
	c1.03-1.55,1.78-4.29,2.181-5.14l2.8-0.02L34.64,20.95z M17,28.19c-5.59-0.05-10.29-4.68-10.42-10.2c-0.14-5.88,5-10.62,10.51-10.63
	c5.92-0.01,10.79,4.77,10.71,10.65C27.73,23.68,22.94,28.229,17,28.19z"/>
</svg>
