<?xml version="1.0" encoding="utf-8"?>
<!-- Generator: Adobe Illustrator 12.0.0, SVG Export Plug-In  -->
<!DOCTYPE svg PUBLIC "-//W3C//DTD SVG 1.1//EN" "http://www.w3.org/Graphics/SVG/1.1/DTD/svg11.dtd" [
	<!ENTITY ns_flows "http://ns.adobe.com/Flows/1.0/">
	<!ENTITY ns_svg "http://www.w3.org/2000/svg">
	<!ENTITY ns_xlink "http://www.w3.org/1999/xlink">
]>
<svg  version="1.1" xmlns="&ns_svg;" xmlns:xlink="&ns_xlink;" xmlns:a="http://ns.adobe.com/AdobeSVGViewerExtensions/3.0/"
	 width="46" height="54" viewBox="-0.75 -0.746 46 54" enable-background="new -0.75 -0.746 46 54" xml:space="preserve">
<defs>
</defs>
<path fill="#ACACAC" d="M33.43,0c3.291,0,5.971,2.74,5.971,6.11c0,3.38-2.68,6.12-5.971,6.12c-3.299,0-5.979-2.74-5.979-6.12
	C27.451,2.74,30.131,0,33.43,0z"/>
<path fill="#4F4F4F" d="M39.401,6.111v1.8c0,3.38-2.68,6.12-5.971,6.12c-3.299,0-5.979-2.74-5.979-6.12v-1.8
	c0,3.38,2.681,6.12,5.979,6.12C36.721,12.231,39.401,9.491,39.401,6.111z"/>
<path fill="#4F4F4F" d="M39.397,6.113v1.8c0,0.301-0.02,0.61-0.061,0.9v-1.8C39.377,6.714,39.397,6.413,39.397,6.113z"/>
<path fill="#4F4F4F" d="M39.333,7.01v1.8c-0.05,0.351-0.12,0.681-0.229,1.011V8.02C39.213,7.69,39.284,7.36,39.333,7.01z"/>
<path fill="#4F4F4F" d="M39.104,8.018v1.8c-0.12,0.38-0.279,0.75-0.471,1.1v-1.8C38.825,8.768,38.984,8.397,39.104,8.018z"/>
<path fill="#4F4F4F" d="M38.631,9.111v1.8c-1.029,1.86-2.98,3.12-5.199,3.12c-3.301,0-5.98-2.74-5.98-6.12v-1.8
	c0,3.38,2.68,6.12,5.98,6.12C35.651,12.231,37.602,10.972,38.631,9.111z"/>
<path fill="#ACACAC" d="M22.061,8.361c2.93,0,5.3,2.431,5.3,5.42c0,2.99-2.37,5.421-5.3,5.421c-2.92,0-5.29-2.431-5.29-5.421
	C16.771,10.792,19.141,8.361,22.061,8.361z"/>
<path fill="#4F4F4F" d="M27.361,13.773v1.81c0,2.99-2.37,5.42-5.3,5.42c-2.92,0-5.29-2.43-5.29-5.42v-1.81c0,3,2.37,5.43,5.29,5.43
	C24.991,19.203,27.361,16.773,27.361,13.773z"/>
<path fill="#4F4F4F" d="M27.37,13.777v1.8c0,0.271-0.021,0.54-0.061,0.8v-1.8C27.349,14.317,27.37,14.047,27.37,13.777z"/>
<path fill="#4F4F4F" d="M27.313,14.571v1.8c-0.051,0.311-0.12,0.61-0.21,0.9v-1.801C27.193,15.182,27.262,14.881,27.313,14.571z"/>
<path fill="#4F4F4F" d="M27.105,15.472v1.8c-0.11,0.33-0.25,0.66-0.42,0.971v-1.801C26.855,16.132,26.995,15.802,27.105,15.472z"/>
<path fill="#4F4F4F" d="M26.68,16.443v1.8c-0.909,1.64-2.639,2.76-4.619,2.76c-2.92,0-5.29-2.43-5.29-5.42v-1.81
	c0,3,2.37,5.43,5.29,5.43C24.042,19.203,25.771,18.083,26.68,16.443z"/>
<path fill="#4F4F4F" d="M26.31,22.69l-0.46,1.971h-3.131v-1.8L26.31,22.69z"/>
<path fill="#4F4F4F" d="M21.407,22.861v1.8h-3.13l-0.59-1.971L21.407,22.861z"/>
<rect x="39.563" y="24.23" fill="#4F4F4F" width="0.981" height="1.802"/>
<rect x="3.762" y="24.241" fill="#4F4F4F" width="0.974" height="1.802"/>
<rect x="4.735" y="29.615" fill="#4F4F4F" width="5.359" height="1.801"/>
<rect x="0.001" y="29.615" fill="#4F4F4F" width="3.761" height="1.801"/>
<path fill="#ACACAC" d="M37.201,15.447c4.08,0,6.93,2.561,6.93,6.221v7.95h-3.59v-5.391h-0.979v5.391h-5.53
	c-0.36-4.021-3.61-6.761-8.181-6.761h-3.129v-0.68c3.5-0.31,6.279-3.15,6.59-6.71c0.109-0.01,0.22-0.021,0.33-0.021H37.201
	L37.201,15.447z"/>
<rect x="40.544" y="29.615" fill="#4F4F4F" width="3.581" height="1.801"/>
<rect x="34.033" y="29.615" fill="#4F4F4F" width="5.53" height="1.801"/>
<path fill="#4F4F4F" d="M34.032,29.617v1.801c-0.359-4.021-3.62-6.761-8.18-6.761v-1.8C30.412,22.857,33.672,25.598,34.032,29.617z"
	/>
<path fill="#4F4F4F" d="M34.032,29.617v1.801c-0.359-4.021-3.62-6.761-8.18-6.761v-1.8C30.412,22.857,33.672,25.598,34.032,29.617z"
	/>
<path fill="#ACACAC" d="M14.49,15.458c0.11,0,0.22,0.01,0.33,0.01c0.31,3.56,3.1,6.4,6.59,6.71v0.68h-3.13
	c-4.57,0-7.83,2.74-8.19,6.761H4.73v-5.381H3.76v5.381H0v-7.94c0-3.67,2.84-6.22,6.92-6.22H14.49z"/>
<path fill="#4F4F4F" d="M18.274,22.857v1.8c-4.56,0-7.82,2.74-8.18,6.761v-1.801C10.454,25.598,13.714,22.857,18.274,22.857z"/>
<path fill="#4F4F4F" d="M18.273,22.854v1.8c-3.35,0-6,1.48-7.31,3.86v-1.811C12.273,24.334,14.923,22.854,18.273,22.854z"/>
<path fill="#4F4F4F" d="M10.965,26.709v1.801c-0.22,0.39-0.4,0.81-0.54,1.25v-1.801C10.565,27.52,10.745,27.1,10.965,26.709z"/>
<path fill="#4F4F4F" d="M10.424,27.953v1.8c-0.12,0.399-0.22,0.8-0.28,1.229v-1.8C10.204,28.753,10.304,28.353,10.424,27.953z"/>
<path fill="#4F4F4F" d="M10.145,29.178v1.8c-0.02,0.14-0.04,0.29-0.05,0.44v-1.801C10.114,29.468,10.125,29.328,10.145,29.178z"/>
<rect x="28.208" y="34.99" fill="#4F4F4F" width="0.973" height="1.799"/>
<rect x="15.116" y="34.99" fill="#4F4F4F" width="0.981" height="1.799"/>
<path fill="#ACACAC" d="M25.856,26.208c4.07,0,6.92,2.561,6.92,6.22v7.94h-3.6v-5.38h-0.97v5.38h-12.11v-5.38h-0.98v5.38h-3.76
	v-7.94c0-3.659,2.84-6.22,6.92-6.22H25.856z"/>
<rect x="29.181" y="40.366" fill="#4F4F4F" width="3.592" height="1.799"/>
<rect x="16.097" y="40.366" fill="#4F4F4F" width="12.11" height="1.799"/>
<rect x="11.357" y="40.366" fill="#4F4F4F" width="3.759" height="1.799"/>
<path fill="#ACACAC" d="M10.706,0c3.3,0,5.98,2.75,5.98,6.11c0,3.38-2.68,6.12-5.98,6.12s-5.97-2.74-5.97-6.12
	C4.735,2.75,7.406,0,10.706,0z"/>
<path fill="#4F4F4F" d="M16.686,6.111v1.8c0,3.38-2.68,6.12-5.98,6.12c-3.3,0-5.97-2.74-5.97-6.12v-1.8c0,3.38,2.67,6.12,5.97,6.12
	C14.006,12.231,16.686,9.491,16.686,6.111z"/>
<path fill="#4F4F4F" d="M16.683,6.113v1.8c0,0.301-0.02,0.61-0.06,0.9v-1.8C16.663,6.714,16.683,6.413,16.683,6.113z"/>
<path fill="#4F4F4F" d="M16.619,7.01v1.8c-0.05,0.351-0.12,0.681-0.23,1.011V8.02C16.489,7.69,16.569,7.36,16.619,7.01z"/>
<path fill="#4F4F4F" d="M16.389,8.015v1.8c-0.12,0.39-0.28,0.75-0.47,1.1v-1.8C16.109,8.765,16.269,8.404,16.389,8.015z"/>
<path fill="#4F4F4F" d="M15.917,9.111v1.8c-1.03,1.86-2.98,3.12-5.21,3.12c-3.3,0-5.97-2.74-5.97-6.12v-1.8
	c0,3.38,2.67,6.12,5.97,6.12C12.936,12.231,14.886,10.972,15.917,9.111z"/>
</svg>
