<?xml version="1.0" encoding="utf-8"?>
<!-- Generator: Adobe Illustrator 12.0.0, SVG Export Plug-In  -->
<!DOCTYPE svg PUBLIC "-//W3C//DTD SVG 1.1//EN" "http://www.w3.org/Graphics/SVG/1.1/DTD/svg11.dtd" [
	<!ENTITY ns_flows "http://ns.adobe.com/Flows/1.0/">
	<!ENTITY ns_svg "http://www.w3.org/2000/svg">
	<!ENTITY ns_xlink "http://www.w3.org/1999/xlink">
]>
<svg  version="1.1" xmlns="&ns_svg;" xmlns:xlink="&ns_xlink;" xmlns:a="http://ns.adobe.com/AdobeSVGViewerExtensions/3.0/"
	 width="69" height="63" viewBox="-12.518 -0.748 69 63" enable-background="new -12.518 -0.748 69 63" xml:space="preserve">
<defs>
</defs>
<rect x="12.866" y="9.112" fill="#9D5125" width="3.374" height="1.909"/>
<rect x="27.588" y="9.112" fill="#9D5125" width="3.371" height="1.909"/>
<path fill="#9D5125" d="M27.584,15.222v1.91l-4.561,4.71v-1.91L27.584,15.222z"/>
<path fill="#9D5125" d="M21,19.932v1.91l-4.76-4.86v-1.91L21,19.932z"/>
<rect x="36.148" y="24.354" fill="#9D5125" width="7.816" height="1.911"/>
<rect y="24.354" fill="#9D5125" width="7.816" height="1.911"/>
<path fill="#9D5125" d="M36.152,28.922v1.91l-9.18-9.04v-1.91L36.152,28.922z"/>
<path fill="#F48334" d="M7.82,10.951l9.17,9.03l-9.17,8.94v-4.57H0v-8.84h7.82V10.951z"/>
<path fill="#9D5125" d="M16.997,19.982v1.91l-9.18,8.94v-1.91L16.997,19.982z"/>
<path fill="#F48334" d="M36.152,10.951v4.57h7.811v8.83h-7.811v4.57l-9.18-9.04L36.152,10.951z"/>
<path fill="#9D5125" d="M30.963,31.382v1.91l-9.1,9.109l-0.43-2.33L30.963,31.382z"/>
<path fill="#9D5125" d="M21.866,40.492v1.909l-9-9.109v-1.91L21.866,40.492z"/>
<path fill="#F48334" d="M21.966,0l8.99,9.11h-3.37v6.12l-4.56,4.7l4.56,4.84v6.61h3.37l-9.09,9.11l-9-9.11h3.37v-6.54l4.76-4.91
	l-4.76-4.86V9.11h-3.37L21.966,0z"/>
</svg>
