<?xml version="1.0" encoding="utf-8"?>
<!-- Generator: Adobe Illustrator 12.0.0, SVG Export Plug-In  -->
<!DOCTYPE svg PUBLIC "-//W3C//DTD SVG 1.1//EN" "http://www.w3.org/Graphics/SVG/1.1/DTD/svg11.dtd" [
	<!ENTITY ns_flows "http://ns.adobe.com/Flows/1.0/">
	<!ENTITY ns_svg "http://www.w3.org/2000/svg">
	<!ENTITY ns_xlink "http://www.w3.org/1999/xlink">
]>
<svg  version="1.1" xmlns="&ns_svg;" xmlns:xlink="&ns_xlink;" xmlns:a="http://ns.adobe.com/AdobeSVGViewerExtensions/3.0/"
	 width="100" height="100" viewBox="-20.177 -14 100 100" enable-background="new -20.177 -14 100 100" xml:space="preserve">
<defs>
</defs>
<polygon fill="#6B3A19" points="59.646,23.347 29.823,27.053 0,23.347 29.823,14.4 "/>
<polygon fill="#FBBF93" points="59.646,48.652 29.823,44.947 0,48.652 29.823,57.6 "/>
<polygon fill="#F58536" points="59.646,23.347 29.823,14.4 29.823,0 59.646,14.912 "/>
<polygon fill="#F58536" points="45.697,47.225 29.823,50.4 29.823,21.6 45.697,24.775 "/>
<polygon fill="#F58536" points="42.425,41.939 59.646,40.218 59.646,31.782 42.425,30.061 "/>
<polygon fill="#F58536" points="59.646,48.652 29.823,57.6 29.823,72 59.646,57.088 "/>
<polygon fill="#9D5025" points="0,23.347 29.823,14.4 29.823,0 0,14.912 "/>
<polygon fill="#9D5025" points="13.948,47.225 29.823,50.4 29.823,21.6 13.948,24.775 "/>
<polygon fill="#9D5025" points="17.222,41.939 0,40.218 0,31.782 17.222,30.061 "/>
<polygon fill="#9D5025" points="0,48.652 29.823,57.6 29.823,72 0,57.088 "/>
</svg>
