<?xml version="1.0" encoding="utf-8"?>
<!-- Generator: Adobe Illustrator 12.0.0, SVG Export Plug-In  -->
<!DOCTYPE svg PUBLIC "-//W3C//DTD SVG 1.1//EN" "http://www.w3.org/Graphics/SVG/1.1/DTD/svg11.dtd" [
	<!ENTITY ns_flows "http://ns.adobe.com/Flows/1.0/">
	<!ENTITY ns_svg "http://www.w3.org/2000/svg">
	<!ENTITY ns_xlink "http://www.w3.org/1999/xlink">
]>
<svg  version="1.1" xmlns="&ns_svg;" xmlns:xlink="&ns_xlink;" xmlns:a="http://ns.adobe.com/AdobeSVGViewerExtensions/3.0/"
	 width="100" height="55" viewBox="-29.431 -0.738 100 55" enable-background="new -29.431 -0.738 100 55" xml:space="preserve">
<defs>
</defs>
<path fill="#F58536" d="M21.413,0.009c11.45,0.35,20.46,9.83,20.12,21.199c-0.35,11.36-9.9,20.29-21.36,19.95
	c-11.44-0.35-20.45-9.84-20.11-21.189C0.403,8.589,9.962-0.331,21.413,0.009z"/>
<path fill="#9D5025" d="M40.359,27.426l-0.049,1.79c-0.44,1.25-1,2.45-1.671,3.57l0.05-1.79
	C39.359,29.876,39.919,28.686,40.359,27.426z"/>
<path fill="#9D5025" d="M38.689,30.998l-0.05,1.79c-3.71,6.27-10.67,10.39-18.52,10.16c-11.44-0.351-20.45-9.84-20.11-21.2
	l0.05-1.78c-0.34,11.351,8.67,20.84,20.11,21.19C28.019,41.387,34.98,37.278,38.689,30.998z"/>
<path fill="#9D5025" d="M41.526,21.208l-0.05,1.79c-0.03,1-0.131,1.97-0.301,2.93l0.051-1.79
	C41.396,23.187,41.496,22.208,41.526,21.208z"/>
<path fill="#9D5025" d="M41.229,24.138l-0.05,1.79c-0.2,1.13-0.49,2.229-0.87,3.29l0.05-1.79
	C40.739,26.377,41.029,25.278,41.229,24.138z"/>
<path fill="#9D5025" d="M41.529,21.207l-0.049,1.79c-0.351,11.36-9.91,20.29-21.36,19.95c-11.44-0.35-20.45-9.84-20.11-21.2
	l0.05-1.779c-0.34,11.359,8.67,20.85,20.11,21.189C31.629,41.497,41.189,32.567,41.529,21.207z"/>
<path fill="#FFFFFF" d="M34.263,13.602h-6.75v-1.34l-2.1,2.64l-0.959-1.359l-9.511,6.06h8.069v-1.44l4.5,1.681v-2.49h6.75v6.75
	h-6.75v-2.49l-4.5,1.681v-1.44h-8.069l9.601,6.06l0.869-1.409l2.1,2.689v-1.34h6.75v6.75h-6.75v-2.7l-4.659-1.12l0.63-1.35
	l-11.72-7.59v4.51h-7.5v-11.25h7.5v4.51l11.81-7.59l-0.72-1.35l4.659-1.12v-2.7h6.75V13.602z"/>
</svg>
