<?xml version="1.0" encoding="utf-8"?>
<!-- Generator: Adobe Illustrator 12.0.0, SVG Export Plug-In  -->
<!DOCTYPE svg PUBLIC "-//W3C//DTD SVG 1.1//EN" "http://www.w3.org/Graphics/SVG/1.1/DTD/svg11.dtd" [
	<!ENTITY ns_flows "http://ns.adobe.com/Flows/1.0/">
	<!ENTITY ns_svg "http://www.w3.org/2000/svg">
	<!ENTITY ns_xlink "http://www.w3.org/1999/xlink">
]>
<svg  version="1.1" xmlns="&ns_svg;" xmlns:xlink="&ns_xlink;" xmlns:a="http://ns.adobe.com/AdobeSVGViewerExtensions/3.0/"
	 width="62" height="54" viewBox="-9.338 -0.752 62 54" enable-background="new -9.338 -0.752 62 54" xml:space="preserve">
<defs>
</defs>
<path fill="#9D5025" d="M41.633,8.003v1.73c-0.08,0.09-0.801,0.93-1.521,2.24v-1.73C40.833,8.933,41.553,8.093,41.633,8.003z"/>
<path fill="#9D5025" d="M40.116,10.245v1.73c-0.381,0.68-0.75,1.47-1.03,2.35v-1.73C39.366,11.715,39.735,10.925,40.116,10.245z"/>
<path fill="#9D5025" d="M39.081,12.599v1.73c-0.17,0.55-0.31,1.13-0.399,1.72v-1.73C38.771,13.719,38.911,13.149,39.081,12.599z"/>
<path fill="#9D5025" d="M38.677,14.318v1.74c-0.06,0.41-0.09,0.85-0.09,1.28v-1.73C38.587,15.168,38.618,14.739,38.677,14.318z"/>
<path fill="#9D5025" d="M38.587,17.338v-1.73c0-4.04,2.89-7.42,3.04-7.6v1.73C41.477,9.918,38.587,13.298,38.587,17.338z"/>
<path fill="#9D5025" d="M3.211,16.057v1.73c0-3.57-2.88-7.19-3.04-7.38v-1.74C0.332,8.867,3.211,12.477,3.211,16.057z"/>
<path fill="#9D5025" d="M3.211,16.057v1.73c0-3.57-2.88-7.19-3.04-7.38v-1.74C0.332,8.867,3.211,12.477,3.211,16.057z"/>
<path fill="#9D5025" d="M21.74,40.786v1.729c-4.83-5.82-19.73-0.96-21.57-12.539C0.05,29.236,0,28.576,0,27.965v-1.73
	c0,0.61,0.05,1.27,0.17,2.01C2.02,39.826,16.92,34.965,21.74,40.786z"/>
<path fill="#9D5025" d="M0,27.965v-1.73c0,0.61,0.05,1.27,0.17,2.01c1.84,11.58,16.74,6.72,21.57,12.54v1.729
	c-4.83-5.82-19.73-0.96-21.57-12.539C0.051,29.236,0,28.576,0,27.965z"/>
<path fill="#F58536" d="M21.595,0c0.24,0,0.47,0.1,0.52,0.16c2.22,2.51,4.45,3.34,6.43,3.34c3.99,0,6.859-3.2,7.01-3.37L41.635,8
	c-0.16,0.19-3.21,3.76-3.04,7.95c0.2,4.93,4.8,6.71,3.671,12.299c-2.051,10.061-11.891,5.99-19.851,12.541
	c-0.15,0.119-0.28,0.16-0.38,0.16c-0.2,0-0.29-0.15-0.29-0.16c-4.83-5.83-19.73-0.971-21.57-12.541
	c-1.02-6.35,2.81-7.119,3.03-11.889c0.16-3.67-2.87-7.49-3.03-7.69l7.07-8.54c0.15,0.16,3.1,3.11,7.24,3.11
	c2.07,0,4.4-0.78,6.73-3.11C21.315,0.03,21.456,0,21.595,0z"/>
<path fill="#9D5025" d="M42.442,26.546v1.73c0,0.369-0.029,0.76-0.09,1.17v-1.73C42.413,27.306,42.442,26.917,42.442,26.546z"/>
<path fill="#9D5025" d="M42.35,27.718v1.73c-0.02,0.18-0.05,0.35-0.09,0.529c-0.1,0.5-0.221,0.96-0.359,1.391v-1.73
	c0.139-0.43,0.26-0.891,0.359-1.391C42.3,28.068,42.331,27.888,42.35,27.718z"/>
<path fill="#9D5025" d="M41.899,29.646v1.729c-0.209,0.649-0.459,1.229-0.75,1.75v-1.729C41.44,30.875,41.69,30.295,41.899,29.646z"
	/>
<path fill="#9D5025" d="M41.151,31.4v1.73c-3.359,6.061-11.77,3.66-18.73,9.391c-0.16,0.129-0.279,0.159-0.379,0.159
	c-0.2,0-0.29-0.149-0.3-0.159v-1.73c0.01,0.01,0.1,0.16,0.3,0.16c0.1,0,0.22-0.041,0.379-0.16
	C29.381,35.06,37.792,37.46,41.151,31.4z"/>
<path fill="#9D5025" d="M42.442,26.541v1.73c0,0.529-0.061,1.1-0.18,1.709c-2.051,10.061-11.881,5.99-19.841,12.541
	c-0.16,0.129-0.28,0.159-0.38,0.159c-0.2,0-0.29-0.149-0.3-0.159v-1.73c0.01,0.01,0.1,0.16,0.3,0.16c0.1,0,0.22-0.041,0.38-0.16
	c7.96-6.551,17.79-2.48,19.841-12.54C42.381,27.63,42.442,27.07,42.442,26.541z"/>
</svg>
