<?xml version="1.0" encoding="utf-8"?>
<!-- Generator: Adobe Illustrator 12.0.0, SVG Export Plug-In  -->
<!DOCTYPE svg PUBLIC "-//W3C//DTD SVG 1.1//EN" "http://www.w3.org/Graphics/SVG/1.1/DTD/svg11.dtd" [
	<!ENTITY ns_flows "http://ns.adobe.com/Flows/1.0/">
	<!ENTITY ns_svg "http://www.w3.org/2000/svg">
	<!ENTITY ns_xlink "http://www.w3.org/1999/xlink">
]>
<svg  version="1.1" xmlns="&ns_svg;" xmlns:xlink="&ns_xlink;" xmlns:a="http://ns.adobe.com/AdobeSVGViewerExtensions/3.0/"
	 width="100" height="100" viewBox="-19.191 -12.863 100 100" enable-background="new -19.191 -12.863 100 100"
	 xml:space="preserve">
<defs>
</defs>
<polygon fill="#F58536" points="42.409,65.7 29.808,72 29.808,0 42.409,6.301 "/>
<polygon fill="#9D5025" points="17.207,65.7 29.808,72 29.808,0 17.207,6.301 "/>
<polygon fill="#F58536" points="25.057,26.208 3.792,23.495 3.792,13.008 25.057,17.996 "/>
<polygon fill="#9D5025" points="55.825,19.153 34.559,22.808 34.559,31.392 55.825,30.116 "/>
<polygon fill="#F58536" points="59.631,30.529 55.825,30.034 55.825,19.153 59.631,20.547 "/>
<polygon fill="#9D5025" points="0,14.905 3.792,13.008 3.792,23.495 0,24.527 "/>
<polygon fill="#6B3A19" points="25.057,26.208 20.635,26.852 0,24.527 3.792,23.495 "/>
<polygon fill="#6B3A19" points="59.631,30.529 38.513,31.663 34.559,31.392 56.252,30.09 "/>
</svg>
