<?xml version="1.0" encoding="utf-8"?>
<!-- Generator: Adobe Illustrator 12.0.0, SVG Export Plug-In  -->
<!DOCTYPE svg PUBLIC "-//W3C//DTD SVG 1.1//EN" "http://www.w3.org/Graphics/SVG/1.1/DTD/svg11.dtd" [
	<!ENTITY ns_flows "http://ns.adobe.com/Flows/1.0/">
	<!ENTITY ns_svg "http://www.w3.org/2000/svg">
	<!ENTITY ns_xlink "http://www.w3.org/1999/xlink">
]>
<svg  version="1.1" xmlns="&ns_svg;" xmlns:xlink="&ns_xlink;" xmlns:a="http://ns.adobe.com/AdobeSVGViewerExtensions/3.0/"
	 width="59" height="61" viewBox="-4.336 -0.75 59 61" enable-background="new -4.336 -0.75 59 61" xml:space="preserve">
<defs>
</defs>
<rect fill="#F58536" width="50.203" height="11.997"/>
<rect y="11.998" fill="#9D5025" width="50.203" height="1.961"/>
<rect y="16.546" fill="#F58536" width="50.203" height="11.997"/>
<rect y="28.542" fill="#9D5025" width="50.203" height="1.961"/>
<rect y="32.384" fill="#F58536" width="50.203" height="11.997"/>
<rect y="44.381" fill="#9D5025" width="50.203" height="1.961"/>
<path fill="#FFFFFF" d="M6.189,9.591h-1.15v-5.31h-1.49v-0.76h0.11c0.69,0,1.49-0.17,1.69-1.1v-0.14h0.84V9.591z M12.659,3.351
	c-1.13,1.5-2.1,4.04-2.26,6.24h-1.22c0.17-2.18,1.22-4.62,2.36-6.11h-3.14v-1.06h4.26V3.351z M17.779,9.591h-4.19
	c0-3.18,3.01-3.11,3.01-5.38c0-0.6-0.25-1.11-0.89-1.11c-0.86,0-1,0.79-1,1.53h-1.1c0-1.45,0.59-2.35,2.12-2.35
	c1.47,0,2.02,0.89,2.02,1.95c0,2.43-2.33,2.58-2.87,4.37h2.9V9.591z M20.209,9.591h-1.16v-1.36h1.16V9.591z M24.389,9.591h-1.15
	v-5.31h-1.49v-0.76h0.12c0.68,0,1.48-0.17,1.69-1.1v-0.14h0.83V9.591z M28.708,9.731c-1.81,0-2.149-1.4-2.149-3.5
	c0-2.19,0.39-3.95,2.28-3.95c1.26,0,1.939,0.58,1.939,1.77h-1.16c0-0.42-0.189-0.95-0.77-0.95c-1.08,0-1.141,1.46-1.141,2.52
	l0.031,0.02c0.279-0.52,0.77-0.77,1.399-0.77c0.979,0,1.771,0.72,1.771,2.18C30.91,8.731,30.229,9.731,28.708,9.731z M33.25,9.591
	h-1.15v-1.36h1.15V9.591z M36.619,9.731c-1.379,0-2.14-0.88-2.14-3.72s0.761-3.73,2.14-3.73c1.381,0,2.15,0.89,2.15,3.73
	S38,9.731,36.619,9.731z M41.139,9.591H39.99v-1.36h1.149V9.591z M44.509,9.731c-1.381,0-2.15-0.88-2.15-3.72s0.77-3.73,2.15-3.73
	c1.38,0,2.14,0.89,2.14,3.73S45.889,9.731,44.509,9.731z"/>
<path fill="#FFFFFF" d="M44.509,18.838c1.38,0,2.14,0.88,2.14,3.73c0,2.84-0.76,3.72-2.14,3.72c-1.381,0-2.15-0.88-2.15-3.72
	C42.359,19.719,43.128,18.838,44.509,18.838z M39.99,24.789h1.149v1.36H39.99V24.789z M34.799,20.079h0.11
	c0.689,0,1.489-0.17,1.689-1.1v-0.14h0.84v7.31h-1.15v-5.31h-1.489V20.079z M32.099,24.789h1.15v1.36h-1.15V24.789z M28.839,18.838
	c1.26,0,1.939,0.58,1.939,1.77h-1.16c0-0.42-0.189-0.95-0.77-0.95c-1.08,0-1.141,1.46-1.141,2.52l0.031,0.02
	c0.279-0.52,0.77-0.77,1.399-0.77c0.979,0,1.771,0.72,1.771,2.18c0,1.68-0.681,2.68-2.201,2.68c-1.81,0-2.149-1.4-2.149-3.5
	C26.559,20.599,26.949,18.838,28.839,18.838z M21.749,20.079h0.12c0.68,0,1.48-0.17,1.69-1.1v-0.14h0.83v7.31h-1.15v-5.31h-1.49
	V20.079z M19.049,24.789h1.16v1.36h-1.16V24.789z M15.709,19.659c-0.86,0-1,0.79-1,1.53h-1.1c0-1.45,0.59-2.35,2.12-2.35
	c1.47,0,2.02,0.88,2.02,1.95c0,2.42-2.33,2.58-2.87,4.37h2.9v0.99h-4.19c0-3.18,3.01-3.11,3.01-5.38
	C16.599,20.168,16.349,19.659,15.709,19.659z M8.399,18.979h4.26v0.93c-1.13,1.5-2.1,4.04-2.26,6.24h-1.22
	c0.17-2.18,1.22-4.62,2.36-6.12h-3.14V18.979z M3.549,20.079h0.11c0.69,0,1.49-0.17,1.69-1.1v-0.14h0.84v7.31h-1.15v-5.31h-1.49
	V20.079z"/>
<path fill="#FFFFFF" d="M44.509,34.684c1.38,0,2.14,0.891,2.14,3.73s-0.76,3.72-2.14,3.72c-1.381,0-2.15-0.88-2.15-3.72
	C42.359,35.564,43.128,34.684,44.509,34.684z M39.99,40.634h1.149v1.36H39.99V40.634z M36.639,35.504c-0.86,0-1,0.79-1,1.529h-1.09
	c0-1.459,0.579-2.35,2.11-2.35c1.469,0,2.029,0.881,2.029,1.95c0,2.42-2.33,2.58-2.88,4.37h2.91v0.99h-4.19c0-3.18,3-3.11,3-5.381
	C37.529,36.014,37.279,35.504,36.639,35.504z M32.099,40.634h1.15v1.36h-1.15V40.634z M28.839,34.684c1.26,0,1.939,0.58,1.939,1.77
	h-1.16c0-0.42-0.189-0.949-0.77-0.949c-1.08,0-1.141,1.46-1.141,2.52l0.031,0.021c0.279-0.521,0.77-0.771,1.399-0.771
	c0.979,0,1.771,0.721,1.771,2.18c0,1.681-0.681,2.681-2.201,2.681c-1.81,0-2.149-1.399-2.149-3.5
	C26.559,36.443,26.949,34.684,28.839,34.684z M21.749,35.924h0.12c0.68,0,1.48-0.17,1.69-1.1v-0.141h0.83v7.311h-1.15v-5.311h-1.49
	V35.924z M19.049,40.634h1.16v1.36h-1.16V40.634z M15.709,35.504c-0.86,0-1,0.79-1,1.529h-1.1c0-1.459,0.59-2.35,2.12-2.35
	c1.47,0,2.02,0.881,2.02,1.95c0,2.42-2.33,2.58-2.87,4.37h2.9v0.99h-4.19c0-3.18,3.01-3.11,3.01-5.381
	C16.599,36.014,16.349,35.504,15.709,35.504z M8.399,34.824h4.26v0.93c-1.13,1.5-2.1,4.04-2.26,6.24h-1.22
	c0.17-2.18,1.22-4.62,2.36-6.12h-3.14V34.824z M3.549,35.924h0.11c0.69,0,1.49-0.17,1.69-1.1v-0.141h0.84v7.311h-1.15v-5.311h-1.49
	V35.924z"/>
<path fill="#F58536" d="M36.62,3.211c-0.79,0-0.99,0.78-0.99,2.9c0,2.13,0.2,2.9,0.99,2.9s0.989-0.771,0.989-2.9
	C37.609,3.991,37.41,3.211,36.62,3.211z"/>
<path fill="#F58536" d="M44.506,3.211c-0.79,0-0.989,0.78-0.989,2.9c0,2.13,0.199,2.9,0.989,2.9s0.99-0.771,0.99-2.9
	C45.497,3.991,45.296,3.211,44.506,3.211z"/>
<path fill="#F58536" d="M44.506,25.568c0.79,0,0.99-0.77,0.99-2.9s-0.2-2.9-0.99-2.9s-0.989,0.77-0.989,2.9
	S43.716,25.568,44.506,25.568z"/>
<path fill="#F58536" d="M28.8,25.568c0.71,0,0.949-0.71,0.949-1.57c0-1.01-0.289-1.58-0.949-1.58c-0.84,0-0.99,0.76-0.99,1.64
	C27.81,24.898,28.121,25.568,28.8,25.568z"/>
<path fill="#F58536" d="M44.506,41.414c0.79,0,0.99-0.771,0.99-2.9s-0.2-2.9-0.99-2.9s-0.989,0.771-0.989,2.9
	S43.716,41.414,44.506,41.414z"/>
<path fill="#F58536" d="M28.8,41.414c0.71,0,0.949-0.711,0.949-1.57c0-1.01-0.289-1.58-0.949-1.58c-0.84,0-0.99,0.76-0.99,1.641
	C27.81,40.744,28.121,41.414,28.8,41.414z"/>
<path fill="#F58536" d="M28.8,9.012c0.71,0,0.949-0.71,0.949-1.57c0-1.01-0.289-1.57-0.949-1.57c-0.84,0-0.99,0.75-0.99,1.63
	C27.81,8.342,28.121,9.012,28.8,9.012z"/>
</svg>
