<?xml version="1.0" encoding="utf-8"?>
<!-- Generator: Adobe Illustrator 12.0.0, SVG Export Plug-In  -->
<!DOCTYPE svg PUBLIC "-//W3C//DTD SVG 1.1//EN" "http://www.w3.org/Graphics/SVG/1.1/DTD/svg11.dtd" [
	<!ENTITY ns_flows "http://ns.adobe.com/Flows/1.0/">
	<!ENTITY ns_svg "http://www.w3.org/2000/svg">
	<!ENTITY ns_xlink "http://www.w3.org/1999/xlink">
]>
<svg  version="1.1" xmlns="&ns_svg;" xmlns:xlink="&ns_xlink;" xmlns:a="http://ns.adobe.com/AdobeSVGViewerExtensions/3.0/"
	 width="100" height="100" viewBox="-20.589 -19.174 100 100" enable-background="new -20.589 -19.174 100 100"
	 xml:space="preserve">
<defs>
</defs>
<polygon fill="#9D5025" points="32.109,9.322 32.109,11.691 28.367,2.371 28.367,0 "/>
<rect x="29.328" y="24.775" fill="#9D5025" width="16.187" height="2.369"/>
<path fill="#F58536" d="M28.367,0c14.205,0.49,25.64,11.643,26.448,25.656l-9.303-3.676v2.795H29.328V9.322h2.781L28.367,0z"/>
<polygon fill="#9D5025" points="54.815,25.656 54.815,28.029 45.515,24.347 45.515,21.98 "/>
<rect x="29.328" y="45.506" fill="#9D5025" width="2.781" height="2.371"/>
<path fill="#F58536" d="M54.853,28.014c-0.403,14.328-11.936,25.875-26.335,26.438l3.592-8.944h-2.781V29.601h16.187v2.102
	L54.853,28.014z"/>
<path fill="#9D5025" d="M54.853,28.014v2.369c-0.026,1.054-0.118,2.098-0.268,3.123v-2.371
	C54.734,30.111,54.826,29.068,54.853,28.014"/>
<path fill="#9D5025" d="M54.586,31.135v2.371c-0.217,1.51-0.559,2.978-1.016,4.396v-2.369
	C54.027,34.113,54.369,32.643,54.586,31.135"/>
<path fill="#9D5025" d="M53.57,35.533v2.369c-0.535,1.666-1.229,3.262-2.062,4.771v-2.371C52.343,38.795,53.035,37.197,53.57,35.533
	"/>
<path fill="#9D5025" d="M51.511,40.303v2.371C47.017,50.82,38.448,56.432,28.518,56.82v-2.369
	C38.447,54.063,47.015,48.449,51.511,40.303"/>
<path fill="#9D5025" d="M54.853,28.014v2.369c-0.403,14.33-11.936,25.873-26.335,26.438v-2.369
	C42.918,53.889,54.449,42.342,54.853,28.014z"/>
<rect x="22.717" y="45.506" fill="#9D5025" width="2.77" height="2.371"/>
<path fill="#F58536" d="M0,28.637l8.49,3.357v-2.393h16.996v15.905h-2.77l3.596,8.945C12.121,53.902,0.724,42.684,0,28.637z"/>
<path fill="#9D5025" d="M26.312,54.451v2.369C12.121,56.27,0.724,45.055,0,31.006v-2.369C0.724,42.684,12.121,53.902,26.312,54.451"
	/>
<path fill="#9D5025" d="M26.312,54.451v2.369C12.121,56.27,0.724,45.055,0,31.006v-2.369C0.724,42.684,12.121,53.902,26.312,54.451z
	"/>
<polygon fill="#9D5025" points="26.461,0 26.461,2.371 22.717,11.691 22.717,9.322 "/>
<rect x="8.49" y="24.775" fill="#9D5025" width="16.996" height="2.369"/>
<path fill="#F58536" d="M26.461,0l-3.744,9.322h2.77v15.453H8.49v-2.307L0,25.826C0.724,11.728,12.209,0.49,26.461,0z"/>
<polygon fill="#9D5025" points="8.49,22.469 8.49,24.836 0,28.197 0,25.826 "/>
</svg>
