<?xml version="1.0" encoding="utf-8"?>
<!-- Generator: Adobe Illustrator 12.0.0, SVG Export Plug-In  -->
<!DOCTYPE svg PUBLIC "-//W3C//DTD SVG 1.1//EN" "http://www.w3.org/Graphics/SVG/1.1/DTD/svg11.dtd" [
	<!ENTITY ns_flows "http://ns.adobe.com/Flows/1.0/">
	<!ENTITY ns_svg "http://www.w3.org/2000/svg">
	<!ENTITY ns_xlink "http://www.w3.org/1999/xlink">
]>
<svg  version="1.1" xmlns="&ns_svg;" xmlns:xlink="&ns_xlink;" xmlns:a="http://ns.adobe.com/AdobeSVGViewerExtensions/3.0/"
	 width="100" height="100" viewBox="-22.345 -21.366 100 100" enable-background="new -22.345 -21.366 100 100"
	 xml:space="preserve">
<defs>
</defs>
<path fill="#F58536" d="M27.648,0c15.278,0,27.661,12.277,27.661,27.445c0,15.15-12.383,27.438-27.661,27.438
	C12.382,54.883,0,42.596,0,27.445C0,12.278,12.383,0,27.648,0z"/>
<path fill="#9D5025" d="M54.006,35.782v2.386c-0.537,1.686-1.238,3.297-2.082,4.821v-2.385
	C52.766,39.079,53.467,37.469,54.006,35.782"/>
<path fill="#9D5025" d="M51.924,40.606v2.385c-4.697,8.508-13.808,14.276-24.275,14.276c-15.266,0-27.648-12.286-27.648-27.438
	v-2.383c0,15.15,12.383,27.438,27.648,27.438C38.117,54.883,47.225,49.114,51.924,40.606"/>
<path fill="#9D5025" d="M55.309,27.446v2.383c0,1.332-0.096,2.639-0.28,3.92v-2.385C55.215,30.082,55.309,28.776,55.309,27.446"/>
<path fill="#9D5025" d="M55.029,31.362v2.386c-0.224,1.516-0.563,2.995-1.022,4.42v-2.386C54.465,34.36,54.805,32.881,55.029,31.362
	"/>
<path fill="#9D5025" d="M55.309,27.446v2.383c0,15.152-12.383,27.438-27.661,27.438C12.382,57.268,0,44.981,0,29.829v-2.383
	c0,15.15,12.383,27.438,27.648,27.438C42.926,54.883,55.309,42.596,55.309,27.446z"/>
<path fill="#FFFFFF" d="M4.715,30.405v-0.729c0-2.982,2.275-6.932,5.635-8.387c0.262-6.508,5.678-11.721,12.295-11.721
	c4.406,0,8.459,2.359,10.643,6.104c0.846-0.365,1.76-0.555,2.699-0.555c3.357,0,6.133,2.375,6.703,5.566
	c4.586,0.902,7.904,5.295,7.904,8.992v0.73c0,4.502-4.664,8.451-9.979,8.451h-25.92C9.379,38.858,4.715,34.907,4.715,30.405z"/>
<path fill="#F58536" d="M33.908,18.877l-1.938,1.33l-0.963-2.139c-1.48-3.273-4.763-5.387-8.361-5.387
	c-2.451,0-4.75,0.951-6.477,2.68c-1.736,1.73-2.689,4.047-2.689,6.498l0.039,1.699l-1.441,0.416c-2.34,0.672-4.227,3.67-4.227,5.701
	v0.73c0,2.469,2.99,5.34,6.846,5.34h25.92c3.854,0,6.844-2.871,6.844-5.34v-0.73c0-2.484-2.77-5.754-6.006-6.029l-1.736-0.145
	l-0.057-1.732c-0.064-1.979-1.68-3.539-3.674-3.539C35.24,18.231,34.518,18.453,33.908,18.877z"/>
</svg>
