<?xml version="1.0" encoding="utf-8"?>
<!-- Generator: Adobe Illustrator 12.0.0, SVG Export Plug-In  -->
<!DOCTYPE svg PUBLIC "-//W3C//DTD SVG 1.1//EN" "http://www.w3.org/Graphics/SVG/1.1/DTD/svg11.dtd" [
	<!ENTITY ns_flows "http://ns.adobe.com/Flows/1.0/">
	<!ENTITY ns_svg "http://www.w3.org/2000/svg">
	<!ENTITY ns_xlink "http://www.w3.org/1999/xlink">
]>
<svg  version="1.1" xmlns="&ns_svg;" xmlns:xlink="&ns_xlink;" xmlns:a="http://ns.adobe.com/AdobeSVGViewerExtensions/3.0/"
	 width="100" height="100" viewBox="-23.894 -29.299 100 100" enable-background="new -23.894 -29.299 100 100"
	 xml:space="preserve">
<defs>
</defs>
<path fill="#9D5025" d="M25.641,5.019V7.29c-0.014,0-0.029,0-0.045,0c-2.822,0-4.23,1.189-4.932,2.463V7.482
	c0.701-1.273,2.109-2.463,4.932-2.463C25.612,5.019,25.627,5.019,25.641,5.019"/>
<path fill="#9D5025" d="M20.665,7.482v2.271c-0.172,0.305-0.299,0.621-0.395,0.918V8.403C20.366,8.099,20.493,7.789,20.665,7.482"/>
<path fill="#9D5025" d="M20.27,8.404v2.268c-0.113,0.352-0.182,0.686-0.225,0.982V9.386C20.088,9.088,20.157,8.754,20.27,8.404"/>
<path fill="#9D5025" d="M20.045,9.387v2.268c-0.053,0.365-0.064,0.668-0.064,0.867v-2.268C19.981,10.053,19.993,9.748,20.045,9.387"
	/>
<path fill="#9D5025" d="M19.981,12.521v-2.268c0-1.08,0.348-5.234,5.615-5.234c0.016,0,0.031,0,0.045,0V7.29
	c-0.014,0-0.029,0-0.045,0C20.329,7.291,19.981,11.443,19.981,12.521z"/>
<path fill="#9D5025" d="M31.311,10.31v2.268c-0.037-0.947-0.447-5.275-5.67-5.287V5.02C30.864,5.031,31.274,9.361,31.311,10.31"/>
<path fill="#9D5025" d="M31.311,10.31v2.268c-0.037-0.947-0.447-5.275-5.67-5.287V5.02C30.864,5.031,31.274,9.361,31.311,10.31z"/>
<rect x="37.868" y="15.668" fill="#9D5025" width="5.492" height="2.27"/>
<rect x="20.016" y="15.668" fill="#9D5025" width="11.295" height="2.27"/>
<rect x="8.877" y="15.668" fill="#9D5025" width="5.375" height="2.27"/>
<polygon fill="#9D5025" points="52.211,13.07 52.211,15.34 43.36,21.414 43.36,19.142 "/>
<polygon fill="#9D5025" points="8.877,19.156 8.877,21.426 0.001,15.34 0.001,13.07 "/>
<rect x="14.252" y="21.811" fill="#866929" width="5.764" height="2.272"/>
<path fill="#F58536" d="M52.211,13.07l-8.853,6.072v-3.475h-5.491v6.556h3.922v16.905H10.352V22.223h20.959v-6.556H20.016v6.798
	h-5.764v-6.798H8.877v3.488L0,13.069l8.877-6.084v3.324h5.363C14.947,3.94,20.015,0,26.101,0c6.116,0,11.767,3.473,11.767,9.768
	v0.541h5.491V6.985L52.211,13.07z M19.981,10.31h11.33c-0.037-0.949-0.447-5.279-5.67-5.291c-0.014,0-0.029,0-0.045,0
	C20.229,5.019,19.971,9.33,19.981,10.31"/>
<rect x="10.352" y="39.129" fill="#9D5025" width="31.438" height="2.271"/>
</svg>
