<?xml version="1.0" encoding="utf-8"?>
<!-- Generator: Adobe Illustrator 12.0.0, SVG Export Plug-In  -->
<!DOCTYPE svg PUBLIC "-//W3C//DTD SVG 1.1//EN" "http://www.w3.org/Graphics/SVG/1.1/DTD/svg11.dtd" [
	<!ENTITY ns_flows "http://ns.adobe.com/Flows/1.0/">
	<!ENTITY ns_svg "http://www.w3.org/2000/svg">
	<!ENTITY ns_xlink "http://www.w3.org/1999/xlink">
]>
<svg  version="1.1" xmlns="&ns_svg;" xmlns:xlink="&ns_xlink;" xmlns:a="http://ns.adobe.com/AdobeSVGViewerExtensions/3.0/"
	 width="100" height="100" viewBox="-21.776 -16.221 100 100" enable-background="new -21.776 -16.221 100 100"
	 xml:space="preserve">
<defs>
</defs>
<path fill="#F58536" d="M27.68,0.041c15.285,0,27.678,12.289,27.678,27.473c0,15.17-12.393,27.473-27.678,27.473
	C12.396,54.987,0,42.684,0,27.514C0,12.33,12.396,0.041,27.68,0.041z"/>
<path fill="#9D5025" d="M51.969,40.693v2.387C47.27,51.596,38.153,57.371,27.68,57.371C12.396,57.371,0,45.068,0,29.9v-2.387
	c0,15.169,12.396,27.473,27.68,27.473C38.153,54.986,47.27,49.207,51.969,40.693"/>
<path fill="#9D5025" d="M55.357,27.513V29.9c0,1.332-0.096,2.641-0.278,3.926v-2.385C55.262,30.156,55.357,28.847,55.357,27.513"/>
<path fill="#9D5025" d="M55.079,31.441v2.385c-0.224,1.519-0.564,2.998-1.021,4.427v-2.39
	C54.514,34.437,54.855,32.957,55.079,31.441"/>
<path fill="#9D5025" d="M54.057,35.863v2.39c-0.547,1.686-1.242,3.301-2.088,4.827v-2.387C52.814,39.164,53.51,37.549,54.057,35.863
	"/>
<path fill="#9D5025" d="M55.357,27.513V29.9c0,15.168-12.393,27.471-27.678,27.471C12.396,57.371,0,45.068,0,29.9v-2.387
	c0,15.169,12.396,27.473,27.68,27.473C42.965,54.986,55.357,42.682,55.357,27.513z"/>
<line fill="none" stroke="#FFFFFF" stroke-width="3" stroke-miterlimit="10" x1="27.725" y1="5.476" x2="27.725" y2="49.476"/>
<polygon fill="#FFFFFF" points="24.271,6.476 28.012,0 31.752,6.476 "/>
<polygon fill="#FFFFFF" points="24.271,48.476 28.012,54.953 31.752,48.476 "/>
<line fill="none" stroke="#FFFFFF" stroke-width="3" stroke-miterlimit="10" x1="6.225" y1="28.976" x2="50.225" y2="28.976"/>
<polygon fill="#FFFFFF" points="7.225,32.881 0.748,29.14 7.225,25.4 "/>
<polygon fill="#FFFFFF" points="49.225,32.881 55.702,29.14 49.225,25.4 "/>
<path fill="#FFFFFF" d="M37.526,37.958H17.829c-4.035,0-7.58-3.002-7.58-6.422v-0.557c0-2.807,2.521-6.146,6.004-6.833
	c0.434-2.423,2.542-4.229,5.095-4.229c0.712,0,1.409,0.144,2.05,0.422c1.66-2.845,4.741-4.638,8.09-4.638
	c5.023,0,9.142,3.96,9.342,8.904c2.552,1.106,4.279,4.106,4.279,6.373v0.557C45.108,34.956,41.566,37.958,37.526,37.958z"/>
<path fill="#F58536" d="M21.979,22.738c-1.362,0-2.465,1.065-2.511,2.421l-0.041,1.185l-1.185,0.1
	c-2.216,0.187-4.107,2.424-4.107,4.122v0.499c0,1.689,2.044,3.652,4.681,3.652H36.54c2.64,0,4.683-1.963,4.683-3.652v-0.499
	c0-1.389-1.289-3.44-2.892-3.898l-0.985-0.286l0.028-1.159c0-1.679-0.652-3.261-1.841-4.447c-1.181-1.181-2.752-1.83-4.429-1.83
	c-2.463,0-4.706,1.443-5.72,3.682l-0.655,1.466L23.4,23.186C22.982,22.89,22.491,22.738,21.979,22.738z"/>
</svg>
