<?xml version="1.0" encoding="utf-8"?>
<!-- Generator: Adobe Illustrator 12.0.0, SVG Export Plug-In  -->
<!DOCTYPE svg PUBLIC "-//W3C//DTD SVG 1.1//EN" "http://www.w3.org/Graphics/SVG/1.1/DTD/svg11.dtd" [
	<!ENTITY ns_flows "http://ns.adobe.com/Flows/1.0/">
	<!ENTITY ns_svg "http://www.w3.org/2000/svg">
	<!ENTITY ns_xlink "http://www.w3.org/1999/xlink">
]>
<svg  version="1.1" xmlns="&ns_svg;" xmlns:xlink="&ns_xlink;" xmlns:a="http://ns.adobe.com/AdobeSVGViewerExtensions/3.0/"
	 width="100" height="100" viewBox="-22.321 -21.335 100 100" enable-background="new -22.321 -21.335 100 100"
	 xml:space="preserve">
<defs>
</defs>
<path fill="#F58536" d="M27.68,0c15.285,0,27.679,12.289,27.679,27.473c0,15.17-12.394,27.473-27.679,27.473
	C12.397,54.946,0,42.644,0,27.473C0,12.289,12.397,0,27.68,0z"/>
<path fill="#9D5025" d="M51.969,40.651v2.388C47.27,51.556,38.154,57.33,27.68,57.33C12.397,57.33,0,45.026,0,29.858v-2.386
	c0,15.169,12.396,27.473,27.68,27.473C38.154,54.945,47.27,49.166,51.969,40.651"/>
<path fill="#9D5025" d="M55.359,27.473v2.387c0,1.332-0.097,2.641-0.279,3.926v-2.385C55.262,30.115,55.359,28.807,55.359,27.473"/>
<path fill="#9D5025" d="M55.078,31.399v2.386c-0.223,1.519-0.563,2.998-1.021,4.426v-2.389
	C54.514,34.396,54.856,32.916,55.078,31.399"/>
<path fill="#9D5025" d="M54.057,35.822v2.389c-0.547,1.687-1.241,3.302-2.088,4.828v-2.388
	C52.816,39.123,53.51,37.508,54.057,35.822"/>
<path fill="#9D5025" d="M55.359,27.473v2.387c0,15.168-12.394,27.471-27.679,27.471C12.397,57.331,0,45.028,0,29.86v-2.387
	c0,15.17,12.396,27.473,27.68,27.473C42.965,54.945,55.359,42.644,55.359,27.473z"/>
<path fill="#FFFFFF" d="M35.84,26.531V20.39c-0.431-4.045-3.918-7.188-8.102-7.188c-4.195,0-7.688,3.127-8.102,7.188v6.141h-4.191
	v13.61h24.466v-13.61H35.84z M31.879,26.531h-8.336l0.027-6.141c0,0-0.004-3.764,4.168-3.75c3.99,0.012,4.167,3.75,4.167,3.75
	L31.879,26.531z"/>
</svg>
