<?xml version="1.0" encoding="utf-8"?>
<!-- Generator: Adobe Illustrator 12.0.0, SVG Export Plug-In  -->
<!DOCTYPE svg PUBLIC "-//W3C//DTD SVG 1.1//EN" "http://www.w3.org/Graphics/SVG/1.1/DTD/svg11.dtd" [
	<!ENTITY ns_flows "http://ns.adobe.com/Flows/1.0/">
	<!ENTITY ns_svg "http://www.w3.org/2000/svg">
	<!ENTITY ns_xlink "http://www.w3.org/1999/xlink">
]>
<svg  version="1.1" xmlns="&ns_svg;" xmlns:xlink="&ns_xlink;" xmlns:a="http://ns.adobe.com/AdobeSVGViewerExtensions/3.0/"
	 width="100" height="100" viewBox="-19.5 -14.5 100 100" enable-background="new -19.5 -14.5 100 100" xml:space="preserve">
<defs>
</defs>
<polygon fill="#4C622C" points="20.3,25.8 51.3,20.8 51.3,10.7 20.3,19.1 "/>
<polygon fill="#769C3E" points="59.6,40.2 29.8,43.2 29.8,28.8 59.6,31.7 "/>
<polygon fill="#4C622C" points="0,14.9 29.8,0 29.8,14.4 0,23.3 "/>
<polygon fill="#4C622C" points="0,40.2 29.8,43.2 29.8,28.8 0,31.7 "/>
<polygon fill="#769C3E" points="45.7,19.1 29.8,14.4 29.8,0 45.7,7.9 "/>
<polygon fill="#3D4A2A" points="0,23.3 29.8,14.4 45.7,19.1 14.5,25.1 "/>
<polygon fill="#769C3E" points="51.3,10.7 59.6,14.9 59.6,23.3 51.3,20.8 "/>
<polygon fill="#3D4A2A" points="29.8,27 59.6,23.3 51.3,20.8 20.3,25.8 "/>
<polygon fill="#769C3E" points="39.4,46.1 8.4,51.1 8.4,61.2 39.4,52.8 "/>
<polygon fill="#769C3E" points="59.6,57 29.8,72 29.8,57.6 59.6,48.6 "/>
<polygon fill="#4C622C" points="14,52.8 29.8,57.6 29.8,72 14,64 "/>
<polygon fill="#B7CA9D" points="59.6,48.6 29.8,57.6 14,52.8 45.2,46.8 "/>
<polygon fill="#4C622C" points="8.4,61.2 0,57 0,48.6 8.4,51.1 "/>
<polygon fill="#B7CA9D" points="29.8,44.9 0,48.6 8.4,51.1 39.4,46.1 "/>
</svg>
