<?xml version="1.0" encoding="utf-8"?>
<!-- Generator: Adobe Illustrator 12.0.0, SVG Export Plug-In  -->
<!DOCTYPE svg PUBLIC "-//W3C//DTD SVG 1.1//EN" "http://www.w3.org/Graphics/SVG/1.1/DTD/svg11.dtd" [
	<!ENTITY ns_flows "http://ns.adobe.com/Flows/1.0/">
	<!ENTITY ns_svg "http://www.w3.org/2000/svg">
	<!ENTITY ns_xlink "http://www.w3.org/1999/xlink">
]>
<svg  version="1.1" xmlns="&ns_svg;" xmlns:xlink="&ns_xlink;" xmlns:a="http://ns.adobe.com/AdobeSVGViewerExtensions/3.0/"
	 width="100" height="100" viewBox="-20.2 -14 100 100" enable-background="new -20.2 -14 100 100" xml:space="preserve">
<defs>
</defs>
<polygon fill="#759C3E" points="39.2,52.7 8.4,61 8.4,10.7 39.2,19.1 "/>
<polygon fill="#4B612C" points="8.4,61.2 0,57 0,14.9 8.4,10.7 "/>
<polygon fill="#759C3E" points="59.6,25.5 29.8,18 29.8,0 59.6,14.9 "/>
<polygon fill="#759C3E" points="59.6,41.2 29.8,44.9 29.8,26.9 59.6,30.7 "/>
<polygon fill="#759C3E" points="59.6,57.1 29.8,72 29.8,54 59.6,46.5 "/>
<polygon fill="#4B612C" points="13.9,7.9 29.8,0 29.8,18 13.9,22 "/>
<polygon fill="#4B612C" points="13.9,64 29.8,71.9 29.8,54 13.9,50 "/>
<polygon fill="#4B612C" points="13.9,28.9 29.8,26.9 29.8,44.9 13.9,43 "/>
<polygon fill="#3C4929" points="59.6,25.5 45.1,27 13.9,22 29.8,18 "/>
<polygon fill="#B7CA9D" points="59.6,46.5 45.1,45 13.9,50 29.8,54 "/>
</svg>
