<?xml version="1.0" encoding="utf-8"?>
<!-- Generator: Adobe Illustrator 12.0.0, SVG Export Plug-In  -->
<!DOCTYPE svg PUBLIC "-//W3C//DTD SVG 1.1//EN" "http://www.w3.org/Graphics/SVG/1.1/DTD/svg11.dtd" [
	<!ENTITY ns_flows "http://ns.adobe.com/Flows/1.0/">
	<!ENTITY ns_svg "http://www.w3.org/2000/svg">
	<!ENTITY ns_xlink "http://www.w3.org/1999/xlink">
]>
<svg  version="1.1" xmlns="&ns_svg;" xmlns:xlink="&ns_xlink;" xmlns:a="http://ns.adobe.com/AdobeSVGViewerExtensions/3.0/"
	 width="100" height="100" viewBox="5.885 -8.5 100 100" enable-background="new 5.885 -8.5 100 100" xml:space="preserve">
<defs>
</defs>
<text transform="matrix(1 0 0 1 0 34.7002)" display="none" enable-background="new    " font-family="'MyriadPro-Regular'" font-size="12">S</text>
<text transform="matrix(1 0 0 1 5.9756 34.7002)" display="none" enable-background="new    " font-family="'MyriadPro-Regular'" font-size="12">-</text>
<text transform="matrix(1 0 0 1 9.6592 34.7002)" display="none" enable-background="new    " font-family="'MyriadPro-Regular'" font-size="12">S</text>
<text transform="matrix(1 0 0 1 15.5752 34.7002)" display="none" enable-background="new    " font-family="'MyriadPro-Regular'" font-size="12">i</text>
<text transform="matrix(1 0 0 1 18.3828 34.7002)" display="none" enable-background="new    " font-family="'MyriadPro-Regular'" font-size="12">m</text>
<text transform="matrix(1 0 0 1 28.3906 34.7002)" display="none" enable-background="new    " font-family="'MyriadPro-Regular'" font-size="12">p</text>
<text transform="matrix(1 0 0 1 35.2188 34.7002)" display="none" enable-background="new    " font-family="'MyriadPro-Regular'" font-size="12">l</text>
<text transform="matrix(1 0 0 1 38.0508 34.7002)" display="none" enable-background="new    " font-family="'MyriadPro-Regular'" font-size="12">e</text>
<text transform="matrix(1 0 0 1 44.3984 34.7002)" display="none" enable-background="new    " font-family="'MyriadPro-Regular'" font-size="12">-</text>
<text transform="matrix(1 0 0 1 48.082 34.7002)" display="none" enable-background="new    " font-family="'MyriadPro-Regular'" font-size="12">I</text>
<text transform="matrix(1 0 0 1 50.9502 34.7002)" display="none" enable-background="new    " font-family="'MyriadPro-Regular'" font-size="12">c</text>
<text transform="matrix(1 0 0 1 56.2549 34.7002)" display="none" enable-background="new    " font-family="'MyriadPro-Regular'" font-size="12">o</text>
<text transform="matrix(1 0 0 1 62.8428 34.7002)" display="none" enable-background="new    " font-family="'MyriadPro-Regular'" font-size="12">n</text>
<text transform="matrix(1 0 0 1 69.5029 34.7002)" display="none" enable-background="new    " font-family="'MyriadPro-Regular'" font-size="12">s</text>
<text transform="matrix(1 0 0 1 74.2549 34.7002)" display="none" enable-background="new    " font-family="'MyriadPro-Regular'" font-size="12">%</text>
<text transform="matrix(1 0 0 1 83.7588 34.7002)" display="none" enable-background="new    " font-family="'MyriadPro-Regular'" font-size="12">2</text>
<text transform="matrix(1 0 0 1 89.915 34.7002)" display="none" enable-background="new    " font-family="'MyriadPro-Regular'" font-size="12">0</text>
<text transform="matrix(1 0 0 1 96.0713 34.7002)" display="none" enable-background="new    " font-family="'MyriadPro-Regular'" font-size="12">2</text>
<text transform="matrix(1 0 0 1 102.2275 34.7002)" display="none" enable-background="new    " font-family="'MyriadPro-Regular'" font-size="12">/</text>
<polygon fill="#4C612C" points="30.985,69.9 21.485,65.2 21.485,17 30.985,12.3 "/>
<polygon fill="#769B3F" points="62.385,20.7 30.985,12.3 30.985,69.7 62.385,61.2 "/>
<polygon fill="#4C612C" points="72.585,54.3 80.085,55.3 80.085,70 72.585,68 "/>
<polygon fill="#4C612C" points="72.585,28 80.085,27 80.085,12.3 72.585,14.3 "/>
<polygon fill="#3C492A" points="48.685,22.7 55.585,21 73.685,25.4 66.984,26.5 "/>
<polygon fill="#769B3F" points="73.685,25.4 55.585,21 55.585,0 73.685,9.1 "/>
<polygon fill="#769B3F" points="89.685,17.1 80.085,12.3 80.085,27 89.685,29.3 "/>
<polygon fill="#B6C99C" points="48.685,59.6 55.585,61.3 73.685,56.9 66.984,55.8 "/>
<polygon fill="#769B3F" points="73.685,56.9 55.585,61.3 55.585,82.3 73.685,73.2 "/>
<polygon fill="#769B3F" points="89.685,65.3 80.085,70 80.085,55.3 89.685,53 "/>
<polygon fill="#4C612C" points="37.385,73.3 55.585,82.3 55.585,0 37.385,9.1 "/>
<polygon fill="#769B3F" points="65.785,77.2 55.585,82.3 55.585,0.3 65.785,5.4 "/>
<polygon fill="#769B3F" points="84.185,68 89.685,65.3 89.685,17.1 84.185,14.3 "/>
<polygon fill="#3C492A" points="84.185,28 76.885,28.9 72.585,28 80.085,27 "/>
<polygon fill="#B6C99C" points="84.185,54.3 76.885,53.5 72.585,54.3 80.085,55.3 "/>
<polygon fill="#4C612C" points="76.885,53.5 84.185,54.3 84.185,28 76.885,28.9 "/>
</svg>
