<?xml version="1.0" encoding="utf-8"?>
<!-- Generator: Adobe Illustrator 12.0.0, SVG Export Plug-In  -->
<!DOCTYPE svg PUBLIC "-//W3C//DTD SVG 1.1//EN" "http://www.w3.org/Graphics/SVG/1.1/DTD/svg11.dtd" [
	<!ENTITY ns_flows "http://ns.adobe.com/Flows/1.0/">
	<!ENTITY ns_svg "http://www.w3.org/2000/svg">
	<!ENTITY ns_xlink "http://www.w3.org/1999/xlink">
]>
<svg  version="1.1" xmlns="&ns_svg;" xmlns:xlink="&ns_xlink;" xmlns:a="http://ns.adobe.com/AdobeSVGViewerExtensions/3.0/"
	 width="100" height="100" viewBox="-15.9 -8.8 100 100" enable-background="new -15.9 -8.8 100 100" xml:space="preserve">
<defs>
</defs>
<polygon fill="#C17B9D" points="62.5,68.2 68.2,65.3 68.2,17.1 62.5,14.3 "/>
<polygon fill="#C17B9D" points="68.2,65.3 34.1,82.4 34.1,65.9 68.2,55.7 "/>
<polygon fill="#7B3F65" points="55.6,16 62.5,14.3 62.5,57.4 55.6,56.4 "/>
<polygon fill="#CEB1C0" points="55.6,56.4 62.5,57.4 34.1,65.9 26.5,63.601 "/>
<polygon fill="#C17B9D" points="52.2,22 34.1,16.5 34.1,0.1 52.2,9.1 "/>
<polygon fill="#7B3F65" points="5.7,14.2 0,17.1 0,65.3 5.7,68.101 "/>
<polygon fill="#7B3F65" points="0,17.1 34.1,0 34.1,16.5 0,26.7 "/>
<polygon fill="#C17B9D" points="12.6,66.4 5.7,68.101 5.7,25 12.6,26 "/>
<polygon fill="#512843" points="12.6,26 5.7,25 34.1,16.5 41.7,18.8 "/>
<polygon fill="#7B3F65" points="16,60.4 34.1,65.9 34.1,82.3 16,73.3 "/>
<polygon fill="#CEB1C0" points="41.7,63.601 23.3,59 16,60.4 34.1,65.9 "/>
<polygon fill="#512843" points="26.5,18.8 34.1,16.5 52.2,22 44.9,23.4 "/>
<polygon fill="#C17B9D" points="46.3,49.8 34.1,51.3 34.1,31.1 46.3,32.6 "/>
<polygon fill="#7B3F65" points="21.9,49.8 34.1,51.3 34.1,31.1 21.9,32.6 "/>
</svg>
