<?xml version="1.0" encoding="utf-8"?>
<!-- Generator: Adobe Illustrator 12.0.0, SVG Export Plug-In  -->
<!DOCTYPE svg PUBLIC "-//W3C//DTD SVG 1.1//EN" "http://www.w3.org/Graphics/SVG/1.1/DTD/svg11.dtd" [
	<!ENTITY ns_flows "http://ns.adobe.com/Flows/1.0/">
	<!ENTITY ns_svg "http://www.w3.org/2000/svg">
	<!ENTITY ns_xlink "http://www.w3.org/1999/xlink">
]>
<svg  version="1.1" xmlns="&ns_svg;" xmlns:xlink="&ns_xlink;" xmlns:a="http://ns.adobe.com/AdobeSVGViewerExtensions/3.0/"
	 width="100" height="100" viewBox="-9.9 -8.8 100 100" enable-background="new -9.9 -8.8 100 100" xml:space="preserve">
<defs>
</defs>
<polygon fill="#512843" points="0,28.2 65.2,12.7 65.2,26.5 8,30 "/>
<polygon fill="#7B3F65" points="32.8,47 73.8,52.9 73.8,65.5 32.8,55.601 "/>
<polygon fill="#C17B9D" points="69.7,54.101 60.7,56.8 60.7,72.101 69.7,67.601 "/>
<polygon fill="#C17B9D" points="80.2,50.9 73.8,52.8 73.8,65.5 80.2,62.3 "/>
<polygon fill="#7B3F65" points="19.1,48.7 60.7,56.8 60.7,72.101 19.1,58.5 "/>
<polygon fill="#C17B9D" points="54.5,58.601 40.1,62.9 40.1,82.4 54.5,75.101 "/>
<polygon fill="#7B3F65" points="0,50.9 40.1,62.9 40.1,82.4 0,62.3 "/>
<polygon fill="#CEB1C0" points="0,50.9 40,62.9 54.5,58.601 12.7,49.3 "/>
<polygon fill="#CEB1C0" points="32.8,47 73.6,52.9 80.2,50.9 40.6,46 "/>
<polygon fill="#CEB1C0" points="19.1,48.7 60.6,56.8 69.7,54.101 28.5,47.5 "/>
<polygon fill="#995B80" points="0,17 52.2,4.6 52.2,0 1.3,15.9 "/>
<polygon fill="#995B80" points="61.7,13.3 80.2,10.1 80.2,5.5 61.7,9.3 "/>
<polygon fill="#C17B9D" points="80.2,33.9 40.2,33.9 40.2,53 80.2,45.101 "/>
<polygon fill="#C17B9D" points="40.2,24.3 40.2,5.1 52.2,0 65.2,12.2 80.2,5.5 80.2,17 65.2,26.5 52,16.6 "/>
<polygon fill="#7B3F65" points="0,33.9 40.2,33.9 40.2,53 0,45.101 "/>
<polygon fill="#7B3F65" points="0,28.2 40.2,24.2 40.2,5.1 0,17 "/>
</svg>
