<?xml version="1.0" encoding="utf-8"?>
<!-- Generator: Adobe Illustrator 12.0.0, SVG Export Plug-In  -->
<!DOCTYPE svg PUBLIC "-//W3C//DTD SVG 1.1//EN" "http://www.w3.org/Graphics/SVG/1.1/DTD/svg11.dtd" [
	<!ENTITY ns_flows "http://ns.adobe.com/Flows/1.0/">
	<!ENTITY ns_svg "http://www.w3.org/2000/svg">
	<!ENTITY ns_xlink "http://www.w3.org/1999/xlink">
]>
<svg  version="1.1" xmlns="&ns_svg;" xmlns:xlink="&ns_xlink;" xmlns:a="http://ns.adobe.com/AdobeSVGViewerExtensions/3.0/"
	 width="100" height="100" viewBox="-5.2 -22 100 100" enable-background="new -5.2 -22 100 100" xml:space="preserve">
<defs>
</defs>
<path id="SVGID_4_" fill="#7B3F65" d="M22.4,9.1v2.5c0-1.7-0.3-3.4-1-5V4.1C22,5.7,22.4,7.4,22.4,9.1z"/>
<g>
	<defs>
		<path id="XMLID_1_" d="M22.4,9.1v2.5c0-1.7-0.3-3.4-1-5V4.1C22,5.7,22.4,7.4,22.4,9.1z"/>
	</defs>
	<clipPath id="XMLID_8_">
		<use xlink:href="#XMLID_1_" />
	</clipPath>
	<g clip-path="url(#XMLID_8_)">
		<path fill="#7B3F65" d="M22.4,9.1v2.5c0-1.7-0.3-3.4-1-5V4.1C22,5.7,22.4,7.4,22.4,9.1"/>
	</g>
</g>
<path fill="#EA2227" d="M9.2,0c5.1,0,9.2,4.1,9.2,9.2c0,5.1-4.1,9.2-9.2,9.2S0,14.3,0,9.2C0,4.1,4.1,0,9.2,0z"/>
<path id="SVGID_2_" fill="#8D090A" d="M18.4,9.2v2.5c0,5.1-4.1,9.2-9.2,9.2S0,16.8,0,11.7V9.2c0,5.1,4.1,9.2,9.2,9.2
	C14.3,18.3,18.4,14.2,18.4,9.2z"/>
<g>
	<defs>
		<path id="XMLID_11_" d="M18.4,9.2v2.5c0,5.1-4.1,9.2-9.2,9.2S0,16.8,0,11.7V9.2c0,5.1,4.1,9.2,9.2,9.2
			C14.3,18.3,18.4,14.2,18.4,9.2z"/>
	</defs>
	<clipPath id="XMLID_9_">
		<use xlink:href="#XMLID_11_" />
	</clipPath>
	<g clip-path="url(#XMLID_9_)" enable-background="new    ">
		<path fill="#8D090A" d="M18.4,9.2v2.5c0,0.4,0,0.9-0.1,1.3v-2.5C18.4,10,18.4,9.6,18.4,9.2"/>
		<path fill="#8D090A" d="M18.3,10.5V13c-0.1,0.5-0.2,1-0.3,1.5V12C18.1,11.5,18.3,11,18.3,10.5"/>
		<path fill="#8D090A" d="M18.3,11.3L18,14.5c-0.2,0.6-0.4,1.1-0.7,1.6v-2.5c0.3-0.5,0.5-1,0.7-1.6"/>
		<path fill="#8D090A" d="M17.3,16.1c-1.6,2.8-4.6,4.8-8.1,4.8c-5.1,0-9.2-4.1-9.2-9.2V9.2c0,5.1,4.1,9.2,9.2,9.2
			c3.5,0,6.7-3.1,8.3-5.9"/>
	</g>
</g>
<path fill="#C17B9D" d="M89.6,4.2v15H17.7c2.9-2.4,4.7-6,4.7-10.1c0-1.7-0.3-3.4-1-4.9H89.6z"/>
<rect x="17.7" y="19.2" fill="#7B3F65" width="71.9" height="2.5"/>
<path fill="#C17B9D" d="M7.7,23.6h81.9v12.5H7.7V23.6z M87,33.5v-7.2H10.4v7.2H87"/>
<rect x="7.7" y="36.2" fill="#7B3F65" width="81.9" height="2.5"/>
<path fill="#C17B9D" d="M7.7,41h81.9v12.5H7.7V41z M87,50.9V43.6H10.4V50.9H87"/>
<rect x="7.7" y="53.5" fill="#7B3F65" width="81.9" height="2.5"/>
<path fill="#FFFFFF" d="M44,6.4V8h-3.7v2.4h3.5v1.7h-3.4v2.7h3.8v1.7h-5.9V6.4H44z"/>
<path fill="#FFFFFF" d="M45.1,8.9H47v0.8l0,0c0.5-0.7,1.1-1,2-1c0.899,0,1.6,0.4,1.8,1.2l0,0c0.3-0.8,1-1.2,2-1.2
	c1.3,0,1.9,0.8,1.9,2.3v5.6h-2v-5.4c0-0.6-0.2-1-0.801-1c-0.6,0-1,0.4-1,1.3v5h-2v-5.4c0-0.6-0.199-1-0.8-1c-0.6,0-1,0.4-1,1.3v5h-2
	V8.9z"/>
<path fill="#FFFFFF" d="M56,11.2V11c0-1.8,1.2-2.4,2.7-2.4c2.399,0,2.8,1,2.8,2.3v4c0,0.7,0,1,0.2,1.5h-1.9
	c-0.1-0.2-0.2-0.5-0.2-0.8l0,0c-0.5,0.8-1,1-2,1c-1.399,0-1.899-1.2-1.899-2.2c0-1.4,0.6-2,1.899-2.4l1.101-0.3
	c0.6-0.2,0.8-0.4,0.8-0.9c0-0.6-0.3-0.9-0.9-0.9c-0.6,0-0.899,0.4-0.899,1v0.2H56V11.2z M59.6,12.7c-0.3,0.2-0.6,0.3-0.8,0.4
	c-0.8,0.2-1.1,0.6-1.1,1.2c0,0.6,0.199,1.1,0.699,1.1s1.2-0.3,1.2-1.2V12.7z"/>
<path fill="#FFFFFF" d="M63,6.2h2v1.7h-2V6.2z M63,8.9h2v7.7h-2V8.9z"/>
<path fill="#FFFFFF" d="M66.399,6.4h2v10.2h-2V6.4z"/>
</svg>
