<?xml version="1.0" encoding="utf-8"?>
<!-- Generator: Adobe Illustrator 12.0.0, SVG Export Plug-In  -->
<!DOCTYPE svg PUBLIC "-//W3C//DTD SVG 1.1//EN" "http://www.w3.org/Graphics/SVG/1.1/DTD/svg11.dtd" [
	<!ENTITY ns_flows "http://ns.adobe.com/Flows/1.0/">
	<!ENTITY ns_svg "http://www.w3.org/2000/svg">
	<!ENTITY ns_xlink "http://www.w3.org/1999/xlink">
]>
<svg  version="1.1" xmlns="&ns_svg;" xmlns:xlink="&ns_xlink;" xmlns:a="http://ns.adobe.com/AdobeSVGViewerExtensions/3.0/"
	 width="100" height="100" viewBox="-4.9 -21.8 100 100" enable-background="new -4.9 -21.8 100 100" xml:space="preserve">
<defs>
</defs>
<path id="SVGID_2_" fill="#7B3F65" d="M22.5,9.4v2.5c0-1.8-0.3-3.4-1-5V4.4C22.2,6,22.5,7.7,22.5,9.4z"/>
<g>
	<defs>
		<path id="XMLID_1_" d="M22.5,9.4v2.5c0-1.8-0.3-3.4-1-5V4.4C22.2,6,22.5,7.7,22.5,9.4z"/>
	</defs>
	<clipPath id="XMLID_8_">
		<use xlink:href="#XMLID_1_" />
	</clipPath>
	<g clip-path="url(#XMLID_8_)">
		<path fill="#7B3F65" d="M22.5,9.4v2.5c0-1.8-0.3-3.4-1-5V4.4C22.2,6,22.5,7.7,22.5,9.4"/>
	</g>
</g>
<path fill="#EA2227" d="M9.3,0c5.1,0,9.3,4.1,9.3,9.2s-4.2,9.2-9.3,9.2C4.2,18.4,0,14.3,0,9.2S4.1,0,9.3,0z"/>
<path id="SVGID_1_" fill="#8D090A" d="M18.6,9.2v2.5c0,5.1-4.2,9.2-9.3,9.2c-5.1,0-9.3-4.1-9.3-9.2V9.2c0,5.1,4.2,9.2,9.3,9.2
	C14.4,18.4,18.6,14.3,18.6,9.2z"/>
<g>
	<defs>
		<path id="XMLID_11_" d="M18.6,9.2v2.5c0,5.1-4.2,9.2-9.3,9.2c-5.1,0-9.3-4.1-9.3-9.2V9.2c0,5.1,4.2,9.2,9.3,9.2
			C14.4,18.4,18.6,14.3,18.6,9.2z"/>
	</defs>
	<clipPath id="XMLID_9_">
		<use xlink:href="#XMLID_11_" />
	</clipPath>
	<g clip-path="url(#XMLID_9_)" enable-background="new    ">
		<path fill="#8D090A" d="M18.6,9.2v2.5c0,0.4,0,0.9-0.1,1.3v-2.5C18.5,10.1,18.6,9.7,18.6,9.2"/>
		<path fill="#8D090A" d="M18.5,10.6v2.5c-0.1,0.5-0.2,1-0.3,1.5v-2.5C18.3,11.6,18.4,11.1,18.5,10.6"/>
		<path fill="#8D090A" d="M18.3,11.5l-0.2,3.1c-0.2,0.6-0.4,1.1-0.7,1.6v-2.5c0.3-0.5,0.5-1.1,0.7-1.6"/>
		<path fill="#8D090A" d="M17.6,13l-0.2,3.2c-1.6,2.9-4.6,4.8-8.1,4.8C4.2,21,0,16.9,0,11.8V9.2c0,5.1,4.2,9.2,9.3,9.2
			c3.5,0,6.6-1.9,8.1-4.8"/>
	</g>
</g>
<path fill="#C17B9D" d="M90.2,4.5v15.1H17.8c2.9-2.4,4.7-6.1,4.7-10.1c0-1.8-0.3-3.4-1-5H90.2z"/>
<rect x="17.8" y="19.6" fill="#7B3F65" width="72.399" height="2.5"/>
<path fill="#C17B9D" d="M7.8,23.8H90.2v12.6H7.8V23.8z M87.5,33.8v-7.3h-77v7.3H87.5"/>
<rect x="7.8" y="36.4" fill="#7B3F65" width="82.399" height="2.5"/>
<path fill="#C17B9D" d="M7.8,41.3H90.2V53.9H7.8V41.3z M87.5,51.2v-7.3h-77v7.3H87.5"/>
<rect x="7.8" y="53.9" fill="#7B3F65" width="82.399" height="2.5"/>
<path fill="#FFFFFF" d="M38.7,7.4h2.1v3.9h2.4V7.4h2.1v10.3h-2.1v-4.6h-2.4v4.6h-2.1V7.4z"/>
<path fill="#FFFFFF" d="M52.8,7.4v1.7h-2.3v8.6H48.4V9.1h-2.3V7.4H52.8z"/>
<path fill="#FFFFFF" d="M59.8,7.4v1.7h-2.3v8.6H55.4V9.1h-2.3V7.4H59.8z"/>
<path fill="#FFFFFF" d="M60.7,7.4h3.7c2.101,0,2.8,1.5,2.8,3.1c0,2.1-1.3,3.1-3.3,3.1h-1.1v4.1H60.7V7.4z M62.7,12h0.9
	c0.8,0,1.4-0.5,1.4-1.5s-0.4-1.6-1.4-1.6h-0.9V12z"/>
</svg>
