<?xml version="1.0" encoding="utf-8"?>
<!-- Generator: Adobe Illustrator 12.0.0, SVG Export Plug-In  -->
<!DOCTYPE svg PUBLIC "-//W3C//DTD SVG 1.1//EN" "http://www.w3.org/Graphics/SVG/1.1/DTD/svg11.dtd" [
	<!ENTITY ns_flows "http://ns.adobe.com/Flows/1.0/">
	<!ENTITY ns_svg "http://www.w3.org/2000/svg">
	<!ENTITY ns_xlink "http://www.w3.org/1999/xlink">
]>
<svg  version="1.1" xmlns="&ns_svg;" xmlns:xlink="&ns_xlink;" xmlns:a="http://ns.adobe.com/AdobeSVGViewerExtensions/3.0/"
	 width="100" height="100" viewBox="-20.2 -14 100 100" enable-background="new -20.2 -14 100 100" xml:space="preserve">
<defs>
</defs>
<polygon fill="#4B612C" points="37.1,36 45.7,36 45.7,41.6 37.1,41.1 "/>
<polygon fill="#4B612C" points="49.899,36 55.8,36 55.8,40.6 49.899,40.3 "/>
<polygon fill="#759C3E" points="24.6,11.4 13.9,8 13.9,41.6 24.6,40.9 "/>
<polygon fill="#759C3E" points="11.1,14.7 3.8,13 3.8,40.6 11.1,40.3 "/>
<polygon fill="#759C3E" points="59.6,48.7 29.8,57.6 29.8,72 59.6,57.1 "/>
<polygon fill="#4B612C" points="20.9,4.5 29.8,0 29.8,43.2 20.9,42.3 "/>
<polygon fill="#4B612C" points="0,48.7 29.8,57.6 29.8,72 0,57.1 "/>
<polygon fill="#4B612C" points="8.4,10.7 13.9,7.9 13.9,41.6 8.4,41.1 "/>
<polygon fill="#4B612C" points="0,14.9 3.8,13 3.8,40.6 0,40.2 "/>
<polygon fill="#B7CA9D" points="59.6,48.7 29.8,44.9 0,48.7 29.8,57.6 "/>
<polygon fill="#759C3E" points="38.7,4.5 29.8,0 29.8,43.2 38.7,42.3 "/>
<polygon fill="#759C3E" points="55.8,19.8 59.6,21.1 59.6,40.2 55.8,40.6 "/>
<polygon fill="#759C3E" points="51.2,30.9 45.7,30.4 45.7,41.6 51.2,41.1 "/>
<polygon fill="#759C3E" points="29.8,0 59.6,14.9 59.6,36 29.8,36 "/>
</svg>
