<?xml version="1.0" encoding="utf-8"?>
<!-- Generator: Adobe Illustrator 12.0.0, SVG Export Plug-In  -->
<!DOCTYPE svg PUBLIC "-//W3C//DTD SVG 1.1//EN" "http://www.w3.org/Graphics/SVG/1.1/DTD/svg11.dtd" [
	<!ENTITY ns_flows "http://ns.adobe.com/Flows/1.0/">
	<!ENTITY ns_svg "http://www.w3.org/2000/svg">
	<!ENTITY ns_xlink "http://www.w3.org/1999/xlink">
]>
<svg  version="1.1" xmlns="&ns_svg;" xmlns:xlink="&ns_xlink;" xmlns:a="http://ns.adobe.com/AdobeSVGViewerExtensions/3.0/"
	 width="100" height="100" viewBox="-23.5 -29.9 100 100" enable-background="new -23.5 -29.9 100 100" xml:space="preserve">
<defs>
</defs>
<path fill="#7D7C7C" d="M6.1,40C2.9,40,0,37,0,33.7v-23C0,7.4,2.8,5,6.1,5h41.1c3.2,0,5.899,2.4,5.899,5.7v23
	C53.1,37,50.5,40,47.2,40H6.1z"/>
<path fill="#FFFFFF" d="M6.1,37C2.9,37,0,34,0,30.7v-23C0,4.4,2.8,2,6.1,2h41.1C50.4,2,53.1,4.4,53.1,7.7v23
	C53.1,34,50.5,37,47.2,37H6.1z"/>
<path fill="#7D7C7C" d="M40.6,21.5l3.5,3.3L42.5,27.7L24.4,28c0,0.1-0.2,0.6-0.6,1.199c-0.3,0.5-0.6,1-1,1.5
	c-0.3,0.4-0.8,0.801-1.3,1.2c-1.8,1.5-3.9,2.2-6.1,2.2c-2.4,0-4.9-0.9-6.7-2.7c-0.3-0.2-0.5-0.5-0.8-0.8c-3.4-4.1-2.8-10.1,1.4-13.5
	c1.8-1.5,4-2.2,6.1-2.2c2.2,0,4.3,0.7,6.1,2.1c1.3,1,2.2,2.4,2.2,2.4h1l4.399-0.1L30.7,22l3.8-0.4l1.4,1.5l1.3,0.3L40.6,21.5z
	 M11.2,26.9c1.4,0,2.5-1.2,2.5-2.5c0-1.399-1.2-2.5-2.6-2.5l0,0c-1.4,0-2.5,1.2-2.5,2.601C8.6,25.7,9.7,26.9,11.2,26.9
	C11.1,26.9,11.2,26.9,11.2,26.9"/>
<path fill="#759C3E" d="M16.6,12.7l-3.5-3.3l1.6-2.9l18.1-0.3C32.8,6.1,33,5.6,33.4,5c0.3-0.5,0.6-1,1-1.5C34.8,3,35.2,2.6,35.7,2.2
	C37.5,0.7,39.6,0,41.8,0c2.4,0,4.9,0.9,6.7,2.7c0.3,0.2,0.5,0.5,0.8,0.8C52.7,7.6,52.1,13.6,47.9,17c-1.801,1.5-4,2.2-6.101,2.2
	c-2.2,0-4.3-0.7-6.1-2.1c-1.3-1-2.2-2.4-2.2-2.4h-1l-4.4,0.1l-1.6-2.7l-3.8,0.4L21.3,11L20,10.7L16.6,12.7z M46,7.4
	c-1.4,0-2.5,1.2-2.5,2.5c0,1.4,1.2,2.5,2.6,2.5l0,0c1.4,0,2.5-1.2,2.5-2.6C48.5,8.5,47.4,7.4,46,7.4L46,7.4"/>
</svg>
