<?xml version="1.0" encoding="utf-8"?>
<!-- Generator: Adobe Illustrator 12.0.0, SVG Export Plug-In  -->
<!DOCTYPE svg PUBLIC "-//W3C//DTD SVG 1.1//EN" "http://www.w3.org/Graphics/SVG/1.1/DTD/svg11.dtd" [
	<!ENTITY ns_flows "http://ns.adobe.com/Flows/1.0/">
	<!ENTITY ns_svg "http://www.w3.org/2000/svg">
	<!ENTITY ns_xlink "http://www.w3.org/1999/xlink">
]>
<svg  version="1.1" xmlns="&ns_svg;" xmlns:xlink="&ns_xlink;" xmlns:a="http://ns.adobe.com/AdobeSVGViewerExtensions/3.0/"
	 width="100" height="100" viewBox="-29 -21.5 100 100" enable-background="new -29 -21.5 100 100" xml:space="preserve">
<defs>
</defs>
<path fill="#7D7C7C" d="M42,50.7c0,3.3-3.2,6.3-7.2,6.3H7.2c-4,0-7.2-3-7.2-6.3v-42C0,5.4,3.2,3,7.2,3h27.6c4,0,7.2,2.4,7.2,5.7
	V50.7z"/>
<path fill="#D2D3D3" d="M42,47.7c0,3.3-3.5,6.3-7.4,6.3H7.2c-4,0-7.2-3-7.2-6.3v-42C0,2.4,3.2,0,7.2,0H34.6c4,0,7.4,2.4,7.4,5.7
	V47.7z"/>
<polygon fill="#759C3E" points="9.4,10.4 6.6,7.4 3.5,10.5 3.5,10.5 9.3,16.3 19.2,6.5 16.9,4.2 "/>
<polygon fill="#759C3E" points="9.4,24.4 6.6,21.3 3.5,24.4 3.5,24.4 9.3,30.2 19.2,20.4 16.9,18.1 "/>
<text transform="matrix(1.6452 0 0 1 3.3638 44.0244)" fill="#E05243" font-family="'ArialMT'" font-size="15.568">X</text>
</svg>
