<?xml version="1.0" encoding="utf-8"?>
<!-- Generator: Adobe Illustrator 12.0.0, SVG Export Plug-In  -->
<!DOCTYPE svg PUBLIC "-//W3C//DTD SVG 1.1//EN" "http://www.w3.org/Graphics/SVG/1.1/DTD/svg11.dtd" [
	<!ENTITY ns_flows "http://ns.adobe.com/Flows/1.0/">
	<!ENTITY ns_svg "http://www.w3.org/2000/svg">
	<!ENTITY ns_xlink "http://www.w3.org/1999/xlink">
]>
<svg  version="1.1" xmlns="&ns_svg;" xmlns:xlink="&ns_xlink;" xmlns:a="http://ns.adobe.com/AdobeSVGViewerExtensions/3.0/"
	 width="100" height="100" viewBox="-29.6 -22 100 100" enable-background="new -29.6 -22 100 100" xml:space="preserve">
<defs>
</defs>
<text transform="matrix(1 0 0 1 5.2964 49.9629)" fill="#FFFFFF" font-family="'ArialMT'" font-size="10.5399">ROOT</text>
<path fill="#759C3E" d="M40.8,50.9v2.5c0,0.199-0.101,0.3-0.101,0.5v-2.5C40.7,51.2,40.7,51,40.8,50.9"/>
<path fill="#759C3E" d="M40.6,51.3v2.5C40.5,54,40.5,54.2,40.4,54.3v-2.5C40.5,51.7,40.6,51.5,40.6,51.3"/>
<path fill="#759C3E" d="M40.4,51.9v2.5C39.9,55.3,38.9,56,37.8,56v-2.5C38.9,53.4,39.9,52.8,40.4,51.9"/>
<path fill="#759C3E" d="M40.8,50.4v2.5c0,1.6-1.301,3-3,3v-2.5C39.4,53.4,40.8,52.1,40.8,50.4z"/>
<polygon fill="#759C3E" points="39.1,52.9 37.8,55.9 3,55.9 2.2,52.8 "/>
<path fill="#759C3E" d="M3,53.4v2.5c-1.7,0-3-1.301-3-3v-2.5C0,52.1,1.4,53.4,3,53.4"/>
<path fill="#759C3E" d="M3,53.4v2.5c-1.7,0-3-1.301-3-3v-2.5C0,52.1,1.4,53.4,3,53.4z"/>
<path fill="#759C3E" d="M37.8,0.1c1.699,0,3,1.3,3,3v47.4c0,1.6-1.301,3-3,3H3c-1.7,0-3-1.3-3-3V3c0-1.6,1.3-3,3-3h34.8V0.1z"/>
<text transform="matrix(1 0 0 1 6.6172 50.4395)" fill="#FFFFFF" font-family="'ArialMT'" font-size="13.1409">STS</text>
<circle fill="#FFFFFF" stroke="#3C4929" stroke-width="3" stroke-miterlimit="10" cx="19.8" cy="17.7" r="13"/>
<line fill="none" stroke="#3C4929" stroke-width="3" stroke-miterlimit="10" x1="20.8" y1="9.5" x2="20.8" y2="20.9"/>
<line fill="none" stroke="#3C4929" stroke-width="3" stroke-miterlimit="10" x1="14.3" y1="19.8" x2="21.3" y2="19.8"/>
</svg>
