<?xml version="1.0" encoding="utf-8"?>
<!-- Generator: Adobe Illustrator 12.0.0, SVG Export Plug-In  -->
<!DOCTYPE svg PUBLIC "-//W3C//DTD SVG 1.1//EN" "http://www.w3.org/Graphics/SVG/1.1/DTD/svg11.dtd" [
	<!ENTITY ns_flows "http://ns.adobe.com/Flows/1.0/">
	<!ENTITY ns_svg "http://www.w3.org/2000/svg">
	<!ENTITY ns_xlink "http://www.w3.org/1999/xlink">
]>
<svg  version="1.1" xmlns="&ns_svg;" xmlns:xlink="&ns_xlink;" xmlns:a="http://ns.adobe.com/AdobeSVGViewerExtensions/3.0/"
	 width="100" height="100" viewBox="-8.949 -14.911 100 100" enable-background="new -8.949 -14.911 100 100" xml:space="preserve">
<defs>
</defs>
<path fill="#4B612C" d="M7.751,66.089c-0.6-0.3-1.2-0.5-1.8-0.8c-5.9-3-7.3-6.5-4.7-12.601c1.1-2.5,3-4.6,4.5-6.899
	c0.6-0.9,1.2-1.7,1.6-2.7c2.2-4.7,2-10,3.7-14.8c1.9-5.3,4.2-10.3,7.4-15c5.6-8.3,13.6-11.8,23.2-13.1c7.2-0.9,13.4,1.5,19.301,5.2
	c8.5,5.2,13.899,12.6,16,22.3c0.6,2.8,1.199,5.5,2.699,8c0.2,0.4,0.5,0.9,0.801,1.2c2.6,2.9,2.699,5.7,0.1,8.601
	c-2.7,3.1-6,5.3-9.5,7.199c-8.1,4.4-16,8.7-23.9,12.9c-2.1,1.1-4.399,2.2-6.7,2.9C30.551,72.29,14.551,68.79,7.751,66.089z
	 M76.751,35.489c-0.3-0.7-0.5-1.3-0.8-2c-0.301-0.5-0.7-1-0.801-1.5c-0.3-1.3-0.399-2.6-0.5-3.9c-0.1-0.7-0.1-1.3-0.3-2
	c-1.2-4.5-3.7-8.4-6.399-12c-1.101-1.4-2.7-2.4-4.101-3.6c-3.5-2.9-7.2-5.4-11.5-6.8c-0.7-0.2-1.399-0.5-2-0.7
	c-0.2-0.1-0.399-0.3-0.6-0.3c-3.5,0-7.101-0.1-10.6,0.2c-2.9,0.3-6,1-8.3,3c-1.8,1.5-3.3,3.4-4.8,5.2c-3.9,5-6.3,10.8-8.6,16.6
	c-1.3,3.1-1.9,6.5-2.8,9.8c-0.5,1.8-1,3.699-1.7,5.5c-0.3,0.699-1,1.6-1.6,1.6c-0.5,0.1-1.1-0.9-1.7-1.4c-0.7,1.5-0.2,3.101,0.8,4.5
	c2.4,3.601,5.9,5.801,10.1,6.9c5.2,1.3,10.3,2.5,15.8,1.8c4.4-0.6,8.8-0.7,13.3-1.1c1.601-0.101,3.2-0.2,4.801-0.3
	c-5.4,2.1-10.801,3.8-16.4,3.8c-5,0-9.9-1.101-14.8-1.7c-4.5-0.5-8.9-1.1-13.4-1.5c-1.4-0.1-2.5,0.5-2.9,1.8
	c-0.8,2.601,1.3,6.601,3.9,7.601c5.8,2,11.7,3.199,17.8,3.399c5.3,0.2,10.4-1.1,15.1-3.5c6.399-3.3,12.7-6.8,19.1-10.2
	c2.101-1.1,4.2-2.199,6.5-3.5c-2.5-1.199-3.1-3-2.1-5.199c0.899,0.3,1.8,0.5,2.7,0.8c-0.101,1.3-0.301,2.6-0.4,4.3
	c4.1-2.1,7.4-4.4,9.9-7.7c1.1-1.5,0.699-2.899-0.301-4.399C78.251,37.79,77.551,36.589,76.751,35.489z"/>
<path fill="#759C3E" d="M52.251,3.689c4.3,1.4,8,3.9,11.5,6.8c-1.2-0.1-2.5-0.3-3.7-0.1c-4.5,0.7-7.7,3.5-10.3,7
	c-3.7,4.9-4.5,10.6-4.2,16.5c0.1,2.7,0.6,5.5,2.3,8.3c0.3-1.899,0.4-3.3,0.7-4.8c0.8-4.9,2.1-9.5,5.1-13.6
	c4.7-6.5,14.2-6.6,18.7-0.1c0.9,1.4,1.601,3,2.3,4.4c0.2,1.3,0.301,2.6,0.5,3.9c0.101,0.5,0.601,1,0.801,1.5
	c-0.4,3.6-2.9,5.6-5.7,7.1c-3.5,2-7.2,3.9-10.9,5.3c-6.5,2.5-13.3,3.9-20.2,4.7c-3.7,0.4-7.4,0.4-11.1,0c-4-0.4-8-1.4-11.9-2.1
	c-0.9-0.2-1.8,0-2.7,0c0,0.199,0,0.399-0.1,0.6c2,0.6,4,1.2,6.1,1.8c4.9,1.3,9.8,3.101,15.1,2.5c4.3-0.5,8.6-1.2,12.8-2
	c9.601-1.8,18.601-5,26.3-11.2c1.5-1.199,3.2-2.399,3.101-4.7c0.8,1.2,1.5,2.4,2.3,3.5c1,1.399,1.4,2.899,0.3,4.399
	c-2.5,3.3-5.8,5.5-9.899,7.601c0.199-1.7,0.3-3,0.399-4.301c2-1.399,4-2.699,6-4.1c-0.1-0.2-0.1-0.3-0.2-0.5
	c-0.899,0.1-1.899,0-2.699,0.4c-2,1-3.9,2.3-5.801,3.399c-1,2.3-0.399,4,2.101,5.2c-2.4,1.3-4.5,2.3-6.5,3.5
	c-6.4,3.4-12.7,6.9-19.101,10.2c-4.7,2.399-9.8,3.7-15.1,3.5c-6.1-0.2-12-1.4-17.8-3.4c-2.6-0.899-4.7-5-3.9-7.6
	c0.4-1.3,1.6-2,2.9-1.8c4.5,0.5,8.9,1,13.4,1.5c4.9,0.6,9.9,1.699,14.8,1.699c5.6,0,11-1.699,16.2-3.899c-1.6,0.1-3.199,0.2-4.8,0.3
	c-4.399,0.3-8.9,0.5-13.3,1.1c-5.5,0.7-10.6-0.5-15.8-1.8c-4.2-1-7.7-3.3-10.1-6.899c-0.9-1.4-1.5-3-0.8-4.5
	c0.6,0.5,1.2,1.5,1.7,1.399c0.6-0.1,1.4-0.899,1.6-1.6c0.7-1.8,1.1-3.601,1.7-5.5c0.9-3.3,1.6-6.7,2.8-9.8
	c2.3-5.8,4.8-11.6,8.6-16.6c1.4-1.9,3-3.7,4.8-5.2c2.3-2,5.3-2.7,8.3-3c3.5-0.3,7-0.2,10.601-0.2c0.199,0,0.399,0.2,0.6,0.3
	c-2.2-0.1-4.2,0.6-5.8,2c-1.5,1.4-3.1,2.9-4.4,4.5c-5.8,7.6-7.6,16.6-7.8,25.9c-0.1,3.2,0.7,6.4,2.6,9.1c1.1,1.5,2.4,2.399,4.5,2.3
	c-0.2-0.7-0.4-1.1-0.6-1.5c-1.7-3.8-2.5-7.8-2.6-12c-0.1-7.3,2.4-13.8,5.9-20C44.251,8.79,47.251,5.089,52.251,3.689z"/>
<path fill="#B7CA9D" d="M74.65,27.989c-0.8-1.5-1.399-3.1-2.3-4.4c-4.5-6.5-14-6.4-18.7,0.1c-2.899,4.1-4.3,8.8-5.1,13.6
	c-0.2,1.5-0.4,2.899-0.7,4.8c-1.7-2.8-2.1-5.6-2.3-8.3c-0.3-5.9,0.6-11.6,4.2-16.5c2.6-3.5,5.7-6.4,10.3-7c1.2-0.2,2.4,0.1,3.7,0.1
	c1.399,1.2,3.1,2.2,4.1,3.6c2.8,3.6,5.2,7.5,6.4,12C74.551,26.689,74.551,27.389,74.65,27.989z"/>
<path fill="#B7CA9D" d="M52.251,3.689c-5.101,1.4-8,5.2-10.4,9.5c-3.5,6.2-6,12.8-5.9,20c0.1,4.1,0.9,8.2,2.6,12
	c0.2,0.4,0.3,0.801,0.6,1.5c-2.1,0-3.4-0.8-4.5-2.3c-2-2.7-2.7-5.899-2.6-9.1c0.2-9.3,2-18.3,8.1-25.8c1.3-1.6,2.8-3.1,4.4-4.5
	s3.6-2.1,5.8-2C50.951,3.189,51.65,3.389,52.251,3.689z"/>
<path fill="#B7CA9D" d="M76.751,35.489c0,2.3-1.601,3.5-3.101,4.7c-7.699,6.2-16.699,9.4-26.3,11.2c-4.3,0.8-8.5,1.5-12.8,2
	c-5.2,0.601-10.1-1.2-15.1-2.5c-2-0.5-4-1.2-6.1-1.8c0-0.2,0-0.4,0.1-0.6c0.9,0,1.8-0.101,2.7,0c4,0.699,7.9,1.699,11.9,2.1
	c3.7,0.4,7.4,0.4,11.1,0c6.9-0.8,13.7-2.2,20.2-4.7c3.8-1.5,7.4-3.3,10.9-5.3c2.8-1.6,5.3-3.5,5.7-7.1
	C76.251,34.089,76.551,34.79,76.751,35.489z"/>
<path fill="#B7CA9D" d="M67.251,45.889c1.899-1.2,3.8-2.399,5.8-3.399c0.8-0.4,1.8-0.301,2.7-0.4c0.1,0.2,0.1,0.3,0.2,0.5
	c-2,1.4-4,2.7-6,4.1C68.951,46.389,68.051,46.189,67.251,45.889z"/>
</svg>
