<?xml version="1.0" encoding="utf-8"?>
<!-- Generator: Adobe Illustrator 12.0.0, SVG Export Plug-In  -->
<!DOCTYPE svg PUBLIC "-//W3C//DTD SVG 1.1//EN" "http://www.w3.org/Graphics/SVG/1.1/DTD/svg11.dtd" [
	<!ENTITY ns_flows "http://ns.adobe.com/Flows/1.0/">
	<!ENTITY ns_svg "http://www.w3.org/2000/svg">
	<!ENTITY ns_xlink "http://www.w3.org/1999/xlink">
]>
<svg  version="1.1" xmlns="&ns_svg;" xmlns:xlink="&ns_xlink;" xmlns:a="http://ns.adobe.com/AdobeSVGViewerExtensions/3.0/"
	 width="100" height="100" viewBox="-28.446 -38.2 100 100" enable-background="new -28.446 -38.2 100 100" xml:space="preserve">
<defs>
</defs>
<polygon fill="#4B612C" points="43.054,10.8 43.054,13.399 41.354,16.8 41.354,14.1 "/>
<polygon fill="#4B612C" points="42.054,13.399 41.354,16.8 20.954,17 20.554,14.2 "/>
<path id="SVGID_8_" fill="#4B612C" d="M20.954,14.399V17c0,0.1-0.3,0.6-0.6,1.3v-2.6C20.654,15.1,20.854,14.6,20.954,14.399z"/>
<g>
	<defs>
		<path id="XMLID_3_" d="M20.954,14.399V17c0,0.1-0.3,0.6-0.6,1.3v-2.6C20.654,15.1,20.854,14.6,20.954,14.399z"/>
	</defs>
	<clipPath id="XMLID_16_">
		<use xlink:href="#XMLID_3_" />
	</clipPath>
	<g clip-path="url(#XMLID_16_)" enable-background="new    ">
		<path fill="#4B612C" d="M20.954,14.399V17c0,0.1-0.6,1.3-1,1.899l-0.3-3.199C20.054,15.1,20.854,14.6,20.954,14.399"/>
		<path fill="#4B612C" d="M20.954,14.399V17l0,0V14.399L20.954,14.399"/>
	</g>
</g>
<path id="SVGID_6_" fill="#4B612C" d="M20.554,15.3l-0.2,3c-0.3,0.6-0.7,1.2-1.2,1.7l0.1-2.7
	C19.654,16.899,20.254,15.899,20.554,15.3z"/>
<g>
	<defs>
		<path id="XMLID_2_" d="M20.554,15.3l-0.2,3c-0.3,0.6-0.7,1.2-1.2,1.7l0.1-2.7C19.654,16.899,20.254,15.899,20.554,15.3z"/>
	</defs>
	<clipPath id="XMLID_17_">
		<use xlink:href="#XMLID_2_" />
	</clipPath>
	<g clip-path="url(#XMLID_17_)">
		<path fill="#4B612C" d="M20.754,14.899l-0.3,3.301c-0.3,0.5-0.9,1.5-1.3,2v-2.7C19.454,17,20.454,15.399,20.754,14.899"/>
	</g>
</g>
<path id="SVGID_4_" fill="#4B612C" d="M19.254,17l-0.1,3c-0.4,0.5-0.9,1-1.5,1.5l-0.2-2.7C17.954,18.399,18.854,17.5,19.254,17z"/>
<g>
	<defs>
		<path id="XMLID_1_" d="M19.254,17l-0.1,3c-0.4,0.5-0.9,1-1.5,1.5l-0.2-2.7C17.954,18.399,18.854,17.5,19.254,17z"/>
	</defs>
	<clipPath id="XMLID_18_">
		<use xlink:href="#XMLID_1_" />
	</clipPath>
	<g clip-path="url(#XMLID_18_)">
		<path fill="#4B612C" d="M19.454,17l-0.1,2.899c-0.4,0.5-1,1.101-1.5,1.601l-0.5-2.8C17.754,18.2,18.954,17.5,19.454,17"/>
	</g>
</g>
<path id="SVGID_2_" fill="#4B612C" d="M0.054,13.1v-2.6c0,2.399,0.8,4.8,2.5,6.8c0.3,0.3,0.6,0.6,0.9,0.9c2.1,2,4.8,3,7.5,3
	c2.4,0,4.8-0.801,6.8-2.4v2.6c-2,1.601-4.4,2.4-6.8,2.4c-2.7,0-5.5-1-7.5-3c-0.3-0.3-0.6-0.6-0.9-0.9
	C0.854,17.899,0.054,15.5,0.054,13.1z"/>
<g>
	<defs>
		<path id="XMLID_21_" d="M0.054,13.1v-2.6c0,2.399,0.8,4.8,2.5,6.8c0.3,0.3,0.6,0.6,0.9,0.9c2.1,2,4.8,3,7.5,3
			c2.4,0,4.8-0.801,6.8-2.4v2.6c-2,1.601-4.4,2.4-6.8,2.4c-2.7,0-5.5-1-7.5-3c-0.3-0.3-0.6-0.6-0.9-0.9
			C0.854,17.899,0.054,15.5,0.054,13.1z"/>
	</defs>
	<clipPath id="XMLID_19_">
		<use xlink:href="#XMLID_21_" />
	</clipPath>
	<g clip-path="url(#XMLID_19_)">
		<path fill="#4B612C" d="M18.254,18c-2,1.6-4.9,3.3-7.3,3.3c-2.7,0-5.5-1-7.5-3c-0.3-0.3-0.6-0.6-0.9-0.9c-1.7-2-2.5-4.399-2.5-6.8
			V13.2c0,2.399,0.8,4.8,2.5,6.8c0.3,0.3,0.6,0.6,0.9,0.899c2.1,2,4.8,3,7.5,3c2.4,0,4.8-0.8,6.8-2.399L18.254,18z"/>
	</g>
</g>
<path fill="#759C3E" d="M39.153,7.2l3.9,3.7l-1.8,3.3l-20.4,0.3c0,0.1-0.3,0.6-0.6,1.3c-0.3,0.6-0.7,1.1-1.1,1.7
	c-0.4,0.5-0.9,1-1.5,1.5c-2,1.6-4.4,2.399-6.8,2.399c-2.7,0-5.5-1-7.5-3c-0.3-0.3-0.6-0.6-0.9-0.899c-3.8-4.601-3.1-11.4,1.5-15.1
	c2-1.6,4.4-2.4,6.9-2.4c2.4,0,4.8,0.8,6.8,2.4c1.5,1.1,2.4,2.7,2.5,2.7l1.1,0.1l5-0.1l1.8,3l4.2-0.4l1.6,1.7l1.5,0.3L39.153,7.2z
	 M6.154,13.2c1.6,0,2.8-1.3,2.8-2.9s-1.3-2.8-2.9-2.8l0,0c-1.6,0-2.8,1.3-2.8,2.9C3.254,11.9,4.554,13.2,6.154,13.2
	C6.054,13.2,6.054,13.2,6.154,13.2"/>
</svg>
