<?xml version="1.0" encoding="utf-8"?>
<!-- Generator: Adobe Illustrator 12.0.0, SVG Export Plug-In  -->
<!DOCTYPE svg PUBLIC "-//W3C//DTD SVG 1.1//EN" "http://www.w3.org/Graphics/SVG/1.1/DTD/svg11.dtd" [
	<!ENTITY ns_flows "http://ns.adobe.com/Flows/1.0/">
	<!ENTITY ns_svg "http://www.w3.org/2000/svg">
	<!ENTITY ns_xlink "http://www.w3.org/1999/xlink">
]>
<svg  version="1.1" xmlns="&ns_svg;" xmlns:xlink="&ns_xlink;" xmlns:a="http://ns.adobe.com/AdobeSVGViewerExtensions/3.0/"
	 width="100" height="100" viewBox="6.209 -14 100 100" enable-background="new 6.209 -14 100 100" xml:space="preserve">
<defs>
</defs>
<polygon fill="#3C4929" points="43.969,25.173 40.543,24.731 37.402,25.361 40.758,25.753 "/>
<polygon fill="#3C4929" points="40.334,30.386 56.209,31.401 72.084,30.386 56.209,28.8 "/>
<polygon fill="#3C4929" points="66.936,25.173 70.799,25.854 75.016,25.361 71.249,24.609 "/>
<polygon fill="#B7CA9D" points="51.002,53.908 60.084,51.775 68.844,53.824 59.764,56.547 "/>
<polygon fill="#759C3E" points="52.008,24.374 47.287,23.561 47.287,10.767 52.008,12.239 "/>
<polygon fill="#4B612C" points="40.334,13.55 40.334,7.937 56.209,0 56.209,7.2 47.287,10.767 47.287,23.384 56.209,21.599 
	56.209,72 51.453,69.623 51.453,62.898 47.287,61.232 47.287,29.69 40.334,30.386 40.334,24.774 37.402,25.361 37.402,14.722 "/>
<polygon fill="#759C3E" points="64.426,4.108 67.771,5.781 72.082,7.937 72.082,13.55 75.016,14.722 75.016,25.36 72.082,24.774 
	72.082,30.386 68.344,30.013 65.129,29.69 65.129,35.927 65.129,35.963 65.129,35.999 72.084,35.999 72.084,41.771 68.852,42.061 
	68.852,47.881 60.963,49.449 60.963,56.174 68.834,53.838 68.852,59.771 60.963,62.898 60.963,69.623 56.209,72 56.209,50.4 
	56.209,43.201 56.209,35.958 56.209,35.918 56.209,28.8 56.209,21.599 60.407,22.438 60.407,12.239 56.209,10.769 56.209,7.2 
	56.209,0 "/>
<polygon fill="#3C4929" points="60.963,9.101 56.209,7.201 47.287,10.767 52.008,12.239 "/>
<polygon fill="#4B612C" points="60.408,12.239 65.129,10.769 65.129,23.385 60.408,22.438 "/>
<polygon fill="#3C4929" points="47.287,10.767 56.209,7.201 58.086,7.951 60.963,9.101 65.129,10.769 60.408,12.239 56.209,10.767 
	52.008,12.239 "/>
<text transform="matrix(1 0 0 1 0 29.2002)" display="none" enable-background="new    " font-family="'MyriadPro-Regular'" font-size="12">m</text>
<text transform="matrix(1 0 0 1 10.0078 29.2002)" display="none" enable-background="new    " font-family="'MyriadPro-Regular'" font-size="12">p</text>
<text transform="matrix(1 0 0 1 16.8359 29.2002)" display="none" enable-background="new    " font-family="'MyriadPro-Regular'" font-size="12">;</text>
<text transform="matrix(1 0 0 1 19.3193 29.2002)" display="none" enable-background="new    " font-family="'MyriadPro-Regular'" font-size="12">%</text>
<text transform="matrix(1 0 0 1 28.8232 29.2002)" display="none" enable-background="new    " font-family="'MyriadPro-Regular'" font-size="12">2</text>
<text transform="matrix(1 0 0 1 34.9795 29.2002)" display="none" enable-background="new    " font-family="'MyriadPro-Regular'" font-size="12">0</text>
<text transform="matrix(1 0 0 1 41.1357 29.2002)" display="none" enable-background="new    " font-family="'MyriadPro-Regular'" font-size="12">M</text>
<text transform="matrix(1 0 0 1 50.8555 29.2002)" display="none" enable-background="new    " font-family="'MyriadPro-Regular'" font-size="12">a</text>
<text transform="matrix(1 0 0 1 56.6387 29.2002)" display="none" enable-background="new    " font-family="'MyriadPro-Regular'" font-size="12">n</text>
<text transform="matrix(1 0 0 1 63.2988 29.2002)" display="none" enable-background="new    " font-family="'MyriadPro-Regular'" font-size="12">a</text>
<text transform="matrix(1 0 0 1 69.084 29.2002)" display="none" enable-background="new    " font-family="'MyriadPro-Regular'" font-size="12">g</text>
<text transform="matrix(1 0 0 1 75.791 29.2002)" display="none" enable-background="new    " font-family="'MyriadPro-Regular'" font-size="12">e</text>
<text transform="matrix(1 0 0 1 81.8027 29.2002)" display="none" enable-background="new    " font-family="'MyriadPro-Regular'" font-size="12">m</text>
<text transform="matrix(1 0 0 1 91.8105 29.2002)" display="none" enable-background="new    " font-family="'MyriadPro-Regular'" font-size="12">e</text>
<text transform="matrix(1 0 0 1 97.8223 29.2002)" display="none" enable-background="new    " font-family="'MyriadPro-Regular'" font-size="12">n</text>
<text transform="matrix(1 0 0 1 104.4346 29.2002)" display="none" enable-background="new    " font-family="'MyriadPro-Regular'" font-size="12">t</text>
</svg>
