<?xml version="1.0" encoding="utf-8"?>
<!-- Generator: Adobe Illustrator 12.0.0, SVG Export Plug-In  -->
<!DOCTYPE svg PUBLIC "-//W3C//DTD SVG 1.1//EN" "http://www.w3.org/Graphics/SVG/1.1/DTD/svg11.dtd" [
	<!ENTITY ns_flows "http://ns.adobe.com/Flows/1.0/">
	<!ENTITY ns_svg "http://www.w3.org/2000/svg">
	<!ENTITY ns_xlink "http://www.w3.org/1999/xlink">
]>
<svg  version="1.1" xmlns="&ns_svg;" xmlns:xlink="&ns_xlink;" xmlns:a="http://ns.adobe.com/AdobeSVGViewerExtensions/3.0/"
	 width="100" height="100" viewBox="-29.6 -23.3 100 100" enable-background="new -29.6 -23.3 100 100" xml:space="preserve">
<defs>
</defs>
<path fill="#D2D3D3" d="M37.8,0c1.699,0,3,1.3,3,3v47.4c0,1.6-1.301,3-3,3H3c-1.7,0-3-1.3-3-3V3c0-1.6,1.3-3,3-3H37.8L37.8,0z"/>
<path fill="#7D7C7C" d="M13.9,33.2L11,36.3L8.4,34.9L8.2,18.8c-0.1,0-0.5-0.2-1-0.5c-0.5-0.2-0.9-0.5-1.3-0.9
	c-0.4-0.3-0.8-0.7-1.1-1.2c-1.4-1.5-2-3.5-2-5.4c0-2.2,0.8-4.3,2.4-6c0.2-0.2,0.5-0.5,0.7-0.7c3.7-3,9-2.5,12,1.2
	c1.3,1.6,1.9,3.5,1.9,5.4s-0.6,3.8-1.9,5.4c-0.9,1.2-2.1,1.9-2.2,2V19l0.1,3.9l-2.4,1.4l0.3,3.3l-1.3,1.3l-0.3,1.2L13.9,33.2z
	 M9.2,7c0,1.3,1,2.2,2.3,2.2c1.2,0,2.2-1,2.2-2.3l0,0c0-1.2-1-2.2-2.3-2.2C10.2,4.8,9.2,5.8,9.2,7L9.2,7"/>
<path fill="#373737" d="M33.6,36.5v-6.1c-0.4-4-3.9-7.2-8.101-7.2c-4.199,0-7.7,3.1-8.1,7.2v6.1h-4.2v13.601h24.5V36.5H33.6z
	 M29.7,36.5h-8.3v-6.1c0,0,0-3.8,4.2-3.8c4,0,4.2,3.8,4.2,3.8L29.7,36.5z"/>
</svg>
