<?xml version="1.0" encoding="utf-8"?>
<!-- Generator: Adobe Illustrator 12.0.0, SVG Export Plug-In  -->
<!DOCTYPE svg PUBLIC "-//W3C//DTD SVG 1.1//EN" "http://www.w3.org/Graphics/SVG/1.1/DTD/svg11.dtd" [
	<!ENTITY ns_flows "http://ns.adobe.com/Flows/1.0/">
	<!ENTITY ns_svg "http://www.w3.org/2000/svg">
	<!ENTITY ns_xlink "http://www.w3.org/1999/xlink">
]>
<svg  version="1.1" xmlns="&ns_svg;" xmlns:xlink="&ns_xlink;" xmlns:a="http://ns.adobe.com/AdobeSVGViewerExtensions/3.0/"
	 width="100" height="100" viewBox="-23 -35 100 100" enable-background="new -23 -35 100 100" xml:space="preserve">
<defs>
</defs>
<path fill="#3C4929" d="M11.5,11.5v1c-1.6,0-2.8,0.7-2.8,2.3c0,1.5,1.3,3.2,2.8,3.2l0,0c1.6,0,2.8-1.7,2.8-3.3
	C14.3,13.2,13.1,11.5,11.5,11.5z"/>
<path fill="#3C4929" d="M0,3v28h54V3H0z M46.8,20.1L26.4,20.4c0,0.1-0.3,0.6-0.6,1.3c-0.3,0.6-0.7,1.1-1.1,1.7
	c-0.4,0.5-0.9,1-1.5,1.5c-2,1.6-4.4,2.399-6.8,2.399c-2.7,0-5.5-1-7.5-3C8.6,24,8.3,23.7,8,23.4C4.2,18.8,4.9,12,9.5,8.3
	c2-1.6,4.4-2.4,6.9-2.4c2.4,0,4.8,0.8,6.8,2.4c1.5,1.1,2.4,2.7,2.5,2.7l1.1,0.1l5-0.1l1.8,3l4.2-0.4l1.601,1.7l1.5,0.3l3.8-2.3
	L48.6,17L46.8,20.1z"/>
<rect x="8.7" y="14" fill="#3C4929" width="5.7" height="1"/>
<path fill="#759C3E" d="M11.5,10.5L11.5,10.5c-1.6,0-2.8,1.7-2.8,3.3c0,1.5,1.3,3.2,2.8,3.2l0,0c1.6,0,2.8-1.7,2.8-3.3
	C14.3,12.2,13.1,10.5,11.5,10.5z"/>
<path fill="#759C3E" d="M0,0v28h54V0H0z M46.8,17.1L26.4,17.4c0,0.1-0.3,0.6-0.6,1.3c-0.3,0.6-0.7,1.1-1.1,1.7
	c-0.4,0.5-0.9,1-1.5,1.5c-2,1.6-4.4,2.399-6.8,2.399c-2.7,0-5.5-1-7.5-3C8.6,21,8.3,20.7,8,20.4C4.2,15.8,4.9,9,9.5,5.3
	c2-1.6,4.4-2.4,6.9-2.4c2.4,0,4.8,0.8,6.8,2.4C24.7,6.4,25.6,8,25.7,8l1.1,0.1l5-0.1l1.8,3l4.2-0.4l1.601,1.7l1.5,0.3l3.8-2.3
	L48.6,14L46.8,17.1z"/>
</svg>
