<?xml version="1.0" encoding="utf-8"?>
<!-- Generator: Adobe Illustrator 12.0.0, SVG Export Plug-In  -->
<!DOCTYPE svg PUBLIC "-//W3C//DTD SVG 1.1//EN" "http://www.w3.org/Graphics/SVG/1.1/DTD/svg11.dtd" [
	<!ENTITY ns_flows "http://ns.adobe.com/Flows/1.0/">
	<!ENTITY ns_svg "http://www.w3.org/2000/svg">
	<!ENTITY ns_xlink "http://www.w3.org/1999/xlink">
]>
<svg  version="1.1" xmlns="&ns_svg;" xmlns:xlink="&ns_xlink;" xmlns:a="http://ns.adobe.com/AdobeSVGViewerExtensions/3.0/"
	 width="100" height="100" viewBox="-19.3 -25.2 100 100" enable-background="new -19.3 -25.2 100 100" xml:space="preserve">
<defs>
</defs>
<path fill="#7D7C7C" d="M6.1,40.1c-3.2,0-6.1-3-6.1-6.3v-23c0-3.3,2.8-5.7,6.1-5.7h41.1c3.2,0,5.9,2.4,5.9,5.7v23
	c0,3.3-2.601,6.3-5.9,6.3H6.1z"/>
<path fill="#FFFFFF" d="M6.1,37.1c-3.2,0-6.1-3-6.1-6.3v-23c0-3.3,2.8-5.7,6.1-5.7h41.1c3.2,0,5.9,2.4,5.9,5.7v23
	c0,3.3-2.601,6.3-5.9,6.3H6.1z"/>
<path fill="#7D7C7C" d="M38.5,21.5l3.5,3.3l-1.6,2.9L22.3,28c0,0.1-0.2,0.6-0.6,1.2c-0.3,0.5-0.6,1-1,1.5S19.9,31.6,19.4,32
	c-1.8,1.5-3.9,2.2-6.1,2.2c-2.4,0-4.9-0.9-6.7-2.7c-0.3-0.2-0.5-0.5-0.8-0.8C2.4,26.6,3,20.6,7.2,17.2c1.8-1.5,4-2.2,6.1-2.2
	c2.2,0,4.3,0.7,6.1,2.1c1.3,1,2.2,2.4,2.2,2.4h1l4.4-0.1l1.6,2.7l3.8-0.4l1.399,1.5l1.301,0.3L38.5,21.5z M9.1,26.8
	c1.4,0,2.5-1.2,2.5-2.5c0-1.4-1.2-2.5-2.6-2.5l0,0c-1.4,0-2.5,1.2-2.5,2.6C6.5,25.7,7.7,26.8,9.1,26.8L9.1,26.8"/>
<path fill="#759C3E" d="M14.5,12.6L11,9.4l1.6-2.9l18.1-0.3c0-0.1,0.2-0.6,0.6-1.2c0.301-0.5,0.601-1,1-1.5
	c0.4-0.5,0.801-0.9,1.301-1.3C35.4,0.7,37.5,0,39.7,0c2.4,0,4.9,0.9,6.7,2.7c0.3,0.2,0.5,0.5,0.8,0.8c3.4,4.1,2.8,10.1-1.4,13.5
	c-1.8,1.5-4,2.2-6.1,2.2c-2.2,0-4.3-0.7-6.1-2.1c-1.301-1-2.2-2.4-2.2-2.4h-1H26L24.4,12l-3.8,0.4l-1.4-1.5l-1.3-0.3L14.5,12.6z
	 M43.9,7.3c-1.4,0-2.5,1.2-2.5,2.5c0,1.4,1.2,2.5,2.6,2.5l0,0c1.4,0,2.5-1.2,2.5-2.6C46.5,8.5,45.3,7.3,43.9,7.3L43.9,7.3"/>
<circle fill="#FFFFFF" stroke="#4F4F4F" stroke-width="3" stroke-miterlimit="10" cx="48.4" cy="36.6" r="13"/>
<line fill="none" stroke="#4F4F4F" stroke-width="3" stroke-miterlimit="10" x1="49.5" y1="28.3" x2="49.4" y2="39.7"/>
<line fill="none" stroke="#4F4F4F" stroke-width="3" stroke-miterlimit="10" x1="43" y1="38.6" x2="50" y2="38.6"/>
</svg>
