<?xml version="1.0" encoding="utf-8"?>
<!-- Generator: Adobe Illustrator 12.0.0, SVG Export Plug-In  -->
<!DOCTYPE svg PUBLIC "-//W3C//DTD SVG 1.1//EN" "http://www.w3.org/Graphics/SVG/1.1/DTD/svg11.dtd" [
	<!ENTITY ns_flows "http://ns.adobe.com/Flows/1.0/">
	<!ENTITY ns_svg "http://www.w3.org/2000/svg">
	<!ENTITY ns_xlink "http://www.w3.org/1999/xlink">
]>
<svg  version="1.1" xmlns="&ns_svg;" xmlns:xlink="&ns_xlink;" xmlns:a="http://ns.adobe.com/AdobeSVGViewerExtensions/3.0/"
	 width="100" height="100" viewBox="-20.2 -14 100 100" enable-background="new -20.2 -14 100 100" xml:space="preserve">
<defs>
</defs>
<polygon fill="#4B612C" points="45.6,44.7 53.6,45.5 53.6,31.1 45.6,31.5 "/>
<polygon fill="#759C3E" points="42.399,24.1 29.8,21.5 29.8,0 42.399,6.3 "/>
<polygon fill="#759C3E" points="59.6,31.8 53.6,31.1 53.6,45.5 59.6,44.3 "/>
<polygon fill="#759C3E" points="48.7,62.6 29.8,72 29.8,28.7 48.7,30.6 "/>
<polygon fill="#759C3E" points="14,44.7 6,45.5 6,31.1 14,31.5 "/>
<polygon fill="#4B612C" points="17.2,24.1 29.8,21.5 29.8,0 17.2,6.3 "/>
<polygon fill="#4B612C" points="0,31.8 6,31.1 6,45.5 0,44.3 "/>
<polygon fill="#4B612C" points="10.9,62.6 29.8,72 29.8,28.7 10.9,30.6 "/>
<polygon fill="#3C4929" points="42.399,24.1 29.8,25.8 17.2,24.1 29.8,21.5 "/>
</svg>
